<svg id="벡터_고급_개체" data-name="벡터 고급 개체" xmlns="http://www.w3.org/2000/svg" xmlns:xlink="http://www.w3.org/1999/xlink" width="50" height="103" viewBox="0 0 50 103">
  <defs>
    <clipPath id="clip-path">
      <rect id="사각형_38" data-name="사각형 38" width="50" height="103" fill="none"/>
    </clipPath>
  </defs>
  <g id="그룹_76" data-name="그룹 76">
    <g id="그룹_75" data-name="그룹 75" clip-path="url(#clip-path)">
      <path id="패스_665" data-name="패스 665" d="M12.316,16.342A10.445,10.445,0,0,1,16.659,2.1,10.726,10.726,0,0,1,31.087,6.386c2.735,5.021,2.7,14.533-2.208,17.483l1.6.975.1-.051a.241.241,0,0,1,.324.1l.028.052a.236.236,0,0,1-.1.321l-2.418,1.283a.243.243,0,0,1-.325-.1l-.028-.052a.237.237,0,0,1,.1-.322l.1-.051.057-1.853c-5.2,2.409-13.258-2.809-15.991-7.83" fill="#ffec8d"/>
      <path id="패스_666" data-name="패스 666" d="M12.316,16.342A10.445,10.445,0,0,1,16.659,2.1,10.726,10.726,0,0,1,31.087,6.386c2.735,5.021,2.7,14.533-2.208,17.483l1.6.975.1-.051a.241.241,0,0,1,.324.1l.028.052a.236.236,0,0,1-.1.321l-2.418,1.283a.243.243,0,0,1-.325-.1l-.028-.052a.237.237,0,0,1,.1-.322l.1-.051.057-1.853C23.109,26.581,15.049,21.364,12.316,16.342Z" fill="none" stroke="#251714" stroke-linecap="round" stroke-linejoin="round" stroke-width="1.704"/>
      <path id="패스_667" data-name="패스 667" d="M29.812,26.077c3.966,8.459,3.4,13.3,1.6,16.224-1.851,3.011-4.835,3.717-5.018,6.087-.26,3.351,5.353,6.545,10.487,8.823" fill="none" stroke="#251714" stroke-linecap="round" stroke-linejoin="round" stroke-width="1.704"/>
      <path id="패스_668" data-name="패스 668" d="M4.392,55.5a14.089,14.089,0,0,1,1.42-20.059,14.539,14.539,0,0,1,20.324,1.4c5.124,5.816,7.947,18.371,2.374,23.7l2.4.816.111-.1a.329.329,0,0,1,.458.032l.054.06a.319.319,0,0,1-.033.452l-2.8,2.4a.328.328,0,0,1-.458-.031l-.053-.061a.318.318,0,0,1,.032-.452l.111-.1-.484-2.459c-6.128,4.706-18.332.2-23.455-5.616" fill="#9e99ff"/>
      <path id="패스_669" data-name="패스 669" d="M4.392,55.5a14.089,14.089,0,0,1,1.42-20.059,14.539,14.539,0,0,1,20.324,1.4c5.124,5.816,7.947,18.371,2.374,23.7l2.4.816.111-.1a.329.329,0,0,1,.458.032l.054.06a.319.319,0,0,1-.033.452l-2.8,2.4a.328.328,0,0,1-.458-.031l-.053-.061a.318.318,0,0,1,.032-.452l.111-.1-.484-2.459C21.72,65.82,9.516,61.314,4.392,55.5Z" fill="none" stroke="#251714" stroke-linecap="round" stroke-linejoin="round" stroke-width="1.704"/>
      <path id="패스_670" data-name="패스 670" d="M30.406,63.181c7.787,9.987,8.506,16.531,7.017,20.923-1.531,4.516-5.252,6.325-4.777,9.5.671,4.5,9.038,7.054,16.5,8.546" fill="none" stroke="#251714" stroke-linecap="round" stroke-linejoin="round" stroke-width="1.704"/>
    </g>
  </g>
</svg>
