<svg xmlns="http://www.w3.org/2000/svg" xmlns:xlink="http://www.w3.org/1999/xlink" width="329" height="242" viewBox="0 0 329 242">
  <defs>
    <clipPath id="clip-path">
      <rect id="사각형_175" data-name="사각형 175" width="229" height="109" transform="translate(0 -109)" fill="none"/>
    </clipPath>
    <clipPath id="clip-path-2">
      <rect id="사각형_176" data-name="사각형 176" width="67" height="70" transform="translate(0 0)" fill="none"/>
    </clipPath>
    <clipPath id="clip-path-3">
      <rect id="사각형_177" data-name="사각형 177" width="76" height="59" transform="translate(0 0)" fill="none"/>
    </clipPath>
    <clipPath id="clip-path-4">
      <rect id="사각형_178" data-name="사각형 178" width="113" height="59" transform="translate(0 0)" fill="none"/>
    </clipPath>
    <clipPath id="clip-path-5">
      <rect id="사각형_185" data-name="사각형 185" width="58" height="78" fill="none"/>
    </clipPath>
    <clipPath id="clip-path-6">
      <rect id="사각형_179" data-name="사각형 179" width="58" height="78" transform="translate(0 0)" fill="none"/>
    </clipPath>
    <clipPath id="clip-path-7">
      <path id="패스_1217" data-name="패스 1217" d="M11.2,20.07l-.265,1.042a11.2,11.2,0,0,0-3.586,5.6A15.806,15.806,0,0,0,7.9,36.03,16.484,16.484,0,0,0,14.1,43.6a23.123,23.123,0,0,0,4.378,2.352c1.354.553,2.778.868,4.109,1.493.888.417,1.167,1.465,1.78,2.164A4.677,4.677,0,0,0,26.859,51.1a5.144,5.144,0,0,0,3.716-.536,3.22,3.22,0,0,1,1.781-.643c1.468.082,2.87.483,4.325.638a23.1,23.1,0,0,0,4.972.012,16.538,16.538,0,0,0,9.063-3.715,15.82,15.82,0,0,0,4.931-7.936,11.185,11.185,0,0,0-.483-6.625l.265-1.042c2.158-9.474-1.99-20.661-11.788-24.616A39.682,39.682,0,0,0,33.3,4.022,18.759,18.759,0,0,0,31.219,3.9C21.627,3.9,13.642,11.339,11.2,20.07" fill="none"/>
    </clipPath>
    <clipPath id="clip-path-8">
      <rect id="사각형_180" data-name="사각형 180" width="18.385" height="18.797" transform="translate(3.488 21.819)" fill="none"/>
    </clipPath>
    <clipPath id="clip-path-9">
      <rect id="사각형_181" data-name="사각형 181" width="18.385" height="18.797" transform="translate(39.615 30.95)" fill="none"/>
    </clipPath>
    <clipPath id="clip-path-11">
      <rect id="사각형_182" data-name="사각형 182" width="10.419" height="13.637" transform="translate(8.985 56.451)" fill="none"/>
    </clipPath>
    <clipPath id="clip-path-12">
      <path id="패스_1237" data-name="패스 1237" d="M42.833,34.728a.469.469,0,0,0-.021-.353ZM21.16,28.548a11.04,11.04,0,0,0-.327,2.506,8.848,8.848,0,0,0,.973,4.151,10.443,10.443,0,0,0,2.333,2.956,14.6,14.6,0,0,0,2.679,1.885,12,12,0,0,0,6.176,1.489,13.031,13.031,0,0,0,3.632-.54,9.294,9.294,0,0,0,3.588-2.018,9.9,9.9,0,0,0,2.619-4.243v-.005c-.126.323-.72.42-1.378.4a27.438,27.438,0,0,1-4.366-.578c-1.556-.305-3.109-.642-4.655-1.054q-.448-.119-.9-.246c-.3-.084-.594-.171-.891-.261-1.532-.461-3.029-.991-4.514-1.547a27.4,27.4,0,0,1-4.018-1.8c-.587-.339-1.05-.746-.954-1.094Zm0,0,.2-.258a.492.492,0,0,0-.2.258" fill="none"/>
    </clipPath>
    <clipPath id="clip-path-14">
      <rect id="사각형_186" data-name="사각형 186" width="50.455" height="72.69" transform="translate(0 0)" fill="none"/>
    </clipPath>
  </defs>
  <g id="obj" transform="translate(-1436 -5617)">
    <g id="벡터_고급_개체" data-name="벡터 고급 개체" transform="matrix(-1, 0, 0, -1, 1765, 5750)">
      <g id="그룹_102" data-name="그룹 102">
        <g id="그룹_101" data-name="그룹 101" clip-path="url(#clip-path)">
          <path id="패스_1077" data-name="패스 1077" d="M87.5-36.187c-2.563-.173-4.329-1.432-6.512-.071s-3.646,4.142-2.826,6.588C79.246-26.417,83.306-25.5,86.7-25.1l14.223,1.675c1.367.161,3.028.564,3.378,1.9a2.42,2.42,0,0,1-1.542,2.611,7.677,7.677,0,0,1-3.242.379,51.547,51.547,0,0,0-21.333,4.252,10.557,10.557,0,0,0-4.374,2.973,4.211,4.211,0,0,0-.316,4.975c1.13,1.447,3.216,1.6,5.046,1.636l62.8,1.166c2.147.04,4.462.029,6.2-1.234s2.305-4.294.513-5.483c-1.082-.719-2.5-.494-3.794-.538s-2.846-.685-2.942-1.986c-.12-1.641,2.02-2.335,3.652-2.462a306.526,306.526,0,0,1,52.213.4,14.224,14.224,0,0,0,5.281-.153,4.729,4.729,0,0,0,3.528-3.594c.324-2.409-1.943-4.456-4.27-5.118s-4.819-.432-7.185-.939c-1.343-.286-2.851-1.09-2.932-2.468-.119-2.005,2.6-2.684,4.6-2.661l22.9.269a13.577,13.577,0,0,0,5.92-.816c1.824-.847,3.3-2.816,2.906-4.8-.577-2.908-4.266-3.727-7.211-3.9a402.071,402.071,0,0,0-40.7-.279c-1.6.07-3.571-.07-4.229-1.533-.65-1.446.651-3.141,2.164-3.594s3.131-.087,4.7.065,3.352.007,4.41-1.172c1.382-1.541.751-4.157-.785-5.543s-3.666-1.85-5.7-2.218c-21.122-3.83-42.866-2.854-64.107.237-2.042.3-4.359.8-5.374,2.6a4.441,4.441,0,0,0,1.373,5.379,8.36,8.36,0,0,0,5.694,1.481c2.7-.14,5.418-.97,8.054-.382s5.051,3.507,3.8,5.911c-1.036,1.986-3.707,2.253-5.938,2.263q-18.435.072-36.87-.337" fill="#fff"/>
          <path id="패스_1078" data-name="패스 1078" d="M87.5-36.187c-2.563-.173-4.329-1.432-6.512-.071s-3.646,4.142-2.826,6.588C79.246-26.417,83.306-25.5,86.7-25.1l14.223,1.675c1.367.161,3.028.564,3.378,1.9a2.42,2.42,0,0,1-1.542,2.611,7.677,7.677,0,0,1-3.242.379,51.547,51.547,0,0,0-21.333,4.252,10.557,10.557,0,0,0-4.374,2.973,4.211,4.211,0,0,0-.316,4.975c1.13,1.447,3.216,1.6,5.046,1.636l62.8,1.166c2.147.04,4.462.029,6.2-1.234s2.305-4.294.513-5.483c-1.082-.719-2.5-.494-3.794-.538s-2.846-.685-2.942-1.986c-.12-1.641,2.02-2.335,3.652-2.462a306.526,306.526,0,0,1,52.213.4,14.224,14.224,0,0,0,5.281-.153,4.729,4.729,0,0,0,3.528-3.594c.324-2.409-1.943-4.456-4.27-5.118s-4.819-.432-7.185-.939c-1.343-.286-2.851-1.09-2.932-2.468-.119-2.005,2.6-2.684,4.6-2.661l22.9.269a13.577,13.577,0,0,0,5.92-.816c1.824-.847,3.3-2.816,2.906-4.8-.577-2.908-4.266-3.727-7.211-3.9a402.071,402.071,0,0,0-40.7-.279c-1.6.07-3.571-.07-4.229-1.533-.65-1.446.651-3.141,2.164-3.594s3.131-.087,4.7.065,3.352.007,4.41-1.172c1.382-1.541.751-4.157-.785-5.543s-3.666-1.85-5.7-2.218c-21.122-3.83-42.866-2.854-64.107.237-2.042.3-4.359.8-5.374,2.6a4.441,4.441,0,0,0,1.373,5.379,8.36,8.36,0,0,0,5.694,1.481c2.7-.14,5.418-.97,8.054-.382s5.051,3.507,3.8,5.911c-1.036,1.986-3.707,2.253-5.938,2.263q-18.435.072-36.87-.337" fill="none" stroke="#000" stroke-miterlimit="10" stroke-width="2.005"/>
          <path id="패스_1079" data-name="패스 1079" d="M48.02-29.693s-1.353-6.665-2.9-16.186a29.574,29.574,0,0,1-9.337-1.229,45.508,45.508,0,0,0,3.378,6.457Z" fill="#9f7423"/>
          <path id="패스_1080" data-name="패스 1080" d="M48.02-29.693s-1.353-6.665-2.9-16.186a29.574,29.574,0,0,1-9.337-1.229,45.508,45.508,0,0,0,3.378,6.457Z" fill="none" stroke="#251714" stroke-linecap="round" stroke-linejoin="round" stroke-width="2.005"/>
          <path id="패스_1081" data-name="패스 1081" d="M45.121-45.879c-.507-3.126-1.037-6.557-1.545-10.164a6.128,6.128,0,0,1-2.752,1.594,11.763,11.763,0,0,1-3.505.218,16.26,16.26,0,0,1-4.305-.574,70.344,70.344,0,0,0,2.77,7.7,29.574,29.574,0,0,0,9.337,1.229" fill="#edd480"/>
          <path id="패스_1082" data-name="패스 1082" d="M45.121-45.879c-.507-3.126-1.037-6.557-1.545-10.164a6.128,6.128,0,0,1-2.752,1.594,11.763,11.763,0,0,1-3.505.218,16.26,16.26,0,0,1-4.305-.574,70.344,70.344,0,0,0,2.77,7.7A29.574,29.574,0,0,0,45.121-45.879Z" fill="none" stroke="#251714" stroke-linecap="round" stroke-linejoin="round" stroke-width="2.005"/>
          <path id="패스_1083" data-name="패스 1083" d="M43.575-56.043v-.005q-.41-2.869-.791-5.86a21.339,21.339,0,0,1-12.063-2.112c.638,3.138,1.4,6.241,2.292,9.215a16.265,16.265,0,0,0,4.305.574,11.767,11.767,0,0,0,3.506-.218,6.116,6.116,0,0,0,2.751-1.594" fill="#d4a33a"/>
          <path id="패스_1084" data-name="패스 1084" d="M43.575-56.043v-.005q-.41-2.869-.791-5.86a21.339,21.339,0,0,1-12.063-2.112c.638,3.138,1.4,6.241,2.292,9.215a16.265,16.265,0,0,0,4.305.574,11.767,11.767,0,0,0,3.506-.218A6.116,6.116,0,0,0,43.575-56.043Z" fill="none" stroke="#251714" stroke-linecap="round" stroke-linejoin="round" stroke-width="2.005"/>
          <path id="패스_1085" data-name="패스 1085" d="M42.785-61.908c-.509-4.015-.976-8.153-1.346-12.243a18.459,18.459,0,0,1-2.132.165,35.528,35.528,0,0,1-10.426-1.283c.471,3.71,1.074,7.505,1.841,11.249a21.338,21.338,0,0,0,12.063,2.112" fill="#edd480"/>
          <path id="패스_1086" data-name="패스 1086" d="M42.785-61.908c-.509-4.015-.976-8.153-1.346-12.243a18.459,18.459,0,0,1-2.132.165,35.528,35.528,0,0,1-10.426-1.283c.471,3.71,1.074,7.505,1.841,11.249A21.338,21.338,0,0,0,42.785-61.908Z" fill="none" stroke="#251714" stroke-linecap="round" stroke-linejoin="round" stroke-width="2.005"/>
          <path id="패스_1087" data-name="패스 1087" d="M41.439-74.151c-.234-2.618-.433-5.212-.574-7.75a14.293,14.293,0,0,1-5.129.416c-2.673-.168-5.529-.606-7.721-2.04.224,2.658.508,5.432.866,8.257a35.533,35.533,0,0,0,10.426,1.283,18.238,18.238,0,0,0,2.132-.165" fill="#d4a33a"/>
          <path id="패스_1088" data-name="패스 1088" d="M41.439-74.151c-.234-2.618-.433-5.212-.574-7.75a14.293,14.293,0,0,1-5.129.416c-2.673-.168-5.529-.606-7.721-2.04.224,2.658.508,5.432.866,8.257a35.533,35.533,0,0,0,10.426,1.283A18.238,18.238,0,0,0,41.439-74.151Z" fill="none" stroke="#251714" stroke-linecap="round" stroke-linejoin="round" stroke-width="2.005"/>
          <path id="패스_1089" data-name="패스 1089" d="M40.6-90.379A29.687,29.687,0,0,1,27.35-94.63c.117,3.277.318,7.054.663,11.105,2.192,1.434,5.048,1.872,7.722,2.039a14.293,14.293,0,0,0,5.129-.415c-.171-2.936-.262-5.784-.265-8.479" fill="#edd480"/>
          <path id="패스_1090" data-name="패스 1090" d="M40.6-90.379A29.687,29.687,0,0,1,27.35-94.63c.117,3.277.318,7.054.663,11.105,2.192,1.434,5.048,1.872,7.722,2.039a14.293,14.293,0,0,0,5.129-.415C40.694-84.836,40.6-87.685,40.6-90.379Z" fill="none" stroke="#251714" stroke-linecap="round" stroke-linejoin="round" stroke-width="2.005"/>
          <path id="패스_1091" data-name="패스 1091" d="M41.112-100.134a30.171,30.171,0,0,1-13.9-3.541c-.015,2.1.008,5.234.141,9.045A29.689,29.689,0,0,0,40.6-90.38a78.646,78.646,0,0,1,.512-9.754" fill="#9a6f25"/>
          <path id="패스_1092" data-name="패스 1092" d="M41.112-100.134a30.171,30.171,0,0,1-13.9-3.541c-.015,2.1.008,5.234.141,9.045A29.689,29.689,0,0,0,40.6-90.38,78.646,78.646,0,0,1,41.112-100.134Z" fill="none" stroke="#251714" stroke-linecap="round" stroke-linejoin="round" stroke-width="2.005"/>
          <path id="패스_1093" data-name="패스 1093" d="M42.637-107.995l-15.389,1.431s-.034,1.045-.038,2.89a30.167,30.167,0,0,0,13.9,3.54,41.1,41.1,0,0,1,1.525-7.861" fill="#745023"/>
          <path id="패스_1094" data-name="패스 1094" d="M42.637-107.995l-15.389,1.431s-.034,1.045-.038,2.89a30.167,30.167,0,0,0,13.9,3.54A41.1,41.1,0,0,1,42.637-107.995Z" fill="none" stroke="#251714" stroke-linecap="round" stroke-linejoin="round" stroke-width="2.005"/>
          <path id="패스_1095" data-name="패스 1095" d="M59.159-27.839s32.73,1.468,28.381-38.325c0,0-13.523,28.794-27.022,34.795Z" fill="#8dbc70"/>
          <path id="패스_1096" data-name="패스 1096" d="M59.159-27.839s32.73,1.468,28.381-38.325c0,0-13.523,28.794-27.022,34.795Z" fill="none" stroke="#251714" stroke-linecap="round" stroke-linejoin="round" stroke-width="2.005"/>
          <path id="패스_1097" data-name="패스 1097" d="M42.487-26.669A44.307,44.307,0,0,1,34.2-26.6l-.016.005c-.589-.025-1.157-.092-1.766-.179-4.783-.573-10.17-2.144-13.5-5.949,0,0-.251-.241-.687-.678l0-.015c-.154-.155-.318-.34-.5-.536-2.429-2.581-7.814-9.025-9.442-16.593a19.052,19.052,0,0,1-.459-3.431,30.336,30.336,0,0,0-1.482,2.934A34.377,34.377,0,0,0,3.093-37.287c.01,6.6,2.744,13.645,12.3,18.053l.041.021c.246.123.507.241.748.349,0,0,.486.077,1.346.2l.016-.005c3.149.435,11.157,1.314,17.765.141a1.239,1.239,0,0,0,.246-.031l.015-.005A14.987,14.987,0,0,0,42.962-21.7l-.181-1.981-.031-.246Z" fill="#8dbc70"/>
          <path id="패스_1098" data-name="패스 1098" d="M42.487-26.669A44.307,44.307,0,0,1,34.2-26.6l-.016.005c-.589-.025-1.157-.092-1.766-.179-4.783-.573-10.17-2.144-13.5-5.949,0,0-.251-.241-.687-.678l0-.015c-.154-.155-.318-.34-.5-.536-2.429-2.581-7.814-9.025-9.442-16.593a19.052,19.052,0,0,1-.459-3.431,30.336,30.336,0,0,0-1.482,2.934A34.377,34.377,0,0,0,3.093-37.287c.01,6.6,2.744,13.645,12.3,18.053l.041.021c.246.123.507.241.748.349,0,0,.486.077,1.346.2l.016-.005c3.149.435,11.157,1.314,17.765.141a1.239,1.239,0,0,0,.246-.031l.015-.005A14.987,14.987,0,0,0,42.962-21.7l-.181-1.981-.031-.246Z" fill="none" stroke="#251714" stroke-linecap="round" stroke-linejoin="round" stroke-width="2.005"/>
          <path id="패스_1099" data-name="패스 1099" d="M94.451-38.261s-29.086,7.989-30.386,7.528l-6.916,1.8.081,6.018s8.683,3.021,19.786-1.2c0,0,15.92-8.661,17.434-14.154" fill="#548437"/>
          <path id="패스_1100" data-name="패스 1100" d="M94.451-38.261s-29.086,7.989-30.386,7.528l-6.916,1.8.081,6.018s8.683,3.021,19.786-1.2C77.016-24.108,92.937-32.769,94.451-38.261Z" fill="none" stroke="#251714" stroke-linecap="round" stroke-linejoin="round" stroke-width="2.005"/>
          <path id="패스_1101" data-name="패스 1101" d="M53.808-17.827,53.2-19.442l-1.744-4.733-2.083,1.592-.082.061-.015.005-1.157.887-4.333,3.5L38-10.888l-4.45,5.56c.317.185.63.355.942.525a37.167,37.167,0,0,0,6.7,2.964c14.323,4.471,13.4-10.281,12.814-14.752-.119-.767-.206-1.235-.206-1.235" fill="#548437"/>
          <path id="패스_1102" data-name="패스 1102" d="M53.808-17.827,53.2-19.442l-1.744-4.733-2.083,1.592-.082.061-.015.005-1.157.887-4.333,3.5L38-10.888l-4.45,5.56c.317.185.63.355.942.525a37.167,37.167,0,0,0,6.7,2.964c14.323,4.471,13.4-10.281,12.814-14.752C53.895-17.358,53.808-17.827,53.808-17.827Z" fill="none" stroke="#251714" stroke-linecap="round" stroke-linejoin="round" stroke-width="2.005"/>
          <path id="패스_1103" data-name="패스 1103" d="M35.346-18.42l-.036-.108c-6.608,1.173-14.616.293-17.765-.142l3.968,1.052,5.91,1.549,2.544.672a57.506,57.506,0,0,0,5.379-3.024" fill="#fff"/>
          <path id="패스_1104" data-name="패스 1104" d="M35.346-18.42l-.036-.108c-6.608,1.173-14.616.293-17.765-.142l3.968,1.052,5.91,1.549,2.544.672A57.506,57.506,0,0,0,35.346-18.42Z" fill="none" stroke="#251714" stroke-linecap="round" stroke-linejoin="round" stroke-width="2.005"/>
          <path id="패스_1105" data-name="패스 1105" d="M48.057-26.755l-.655.34-4.483,2.33s-.051.051-.169.16c-.082.061-.189.149-.322.262l-.016.005a54,54,0,0,1-6.841,5.094l-.015.006c-.072.041-.138.1-.21.139A57.506,57.506,0,0,1,29.967-15.4c-8.173,4.014-19.04,6.7-28.967.567A18.51,18.51,0,0,0,2.409-12.8a26.38,26.38,0,0,0,8.156,7.024A26.245,26.245,0,0,0,23.074-2.495,26.954,26.954,0,0,0,34.5-4.8,26.272,26.272,0,0,0,39.2-7.483a27.487,27.487,0,0,0,5.5-5.124c2.573-3.146,4.556-6.626,4.575-9.908l.015-.005a1.278,1.278,0,0,1,.005-.191l-.005-.015a7.435,7.435,0,0,0-1.237-4.028" fill="#b0d492"/>
          <path id="패스_1106" data-name="패스 1106" d="M48.057-26.755l-.655.34-4.483,2.33s-.051.051-.169.16c-.082.061-.189.149-.322.262l-.016.005a54,54,0,0,1-6.841,5.094l-.015.006c-.072.041-.138.1-.21.139A57.506,57.506,0,0,1,29.967-15.4c-8.173,4.014-19.04,6.7-28.967.567A18.51,18.51,0,0,0,2.409-12.8a26.38,26.38,0,0,0,8.156,7.024A26.245,26.245,0,0,0,23.074-2.495,26.954,26.954,0,0,0,34.5-4.8,26.272,26.272,0,0,0,39.2-7.483a27.487,27.487,0,0,0,5.5-5.124c2.573-3.146,4.556-6.626,4.575-9.908l.015-.005a1.278,1.278,0,0,1,.005-.191l-.005-.015A7.435,7.435,0,0,0,48.057-26.755Z" fill="none" stroke="#251714" stroke-linecap="round" stroke-linejoin="round" stroke-width="2.005"/>
          <path id="패스_1107" data-name="패스 1107" d="M91.055-17.417a35.186,35.186,0,0,1-4.019.389c-5.3.286-15.006-.056-23.917-4.886a31.362,31.362,0,0,1-4.641-3.022,14.621,14.621,0,0,1-1.286-1.044c-.133-.092-.256-.205-.374-.3a33.063,33.063,0,0,1-3.012-3l-5.355.58-.594.062-1.254.13s.251.808.8,2.1c.062.134.123.267.19.417a30.255,30.255,0,0,0,1.7,3.272s-.015.005.005.015a.462.462,0,0,0,.077.129,28.441,28.441,0,0,0,2.9,4.1,24.714,24.714,0,0,0,1.737,1.888A22.175,22.175,0,0,0,64.406-10.7s13.339,3.259,23.43-3.923a21.952,21.952,0,0,0,3.218-2.8" fill="#8dbc70"/>
          <path id="패스_1108" data-name="패스 1108" d="M91.055-17.417a35.186,35.186,0,0,1-4.019.389c-5.3.286-15.006-.056-23.917-4.886a31.362,31.362,0,0,1-4.641-3.022,14.621,14.621,0,0,1-1.286-1.044c-.133-.092-.256-.205-.374-.3a33.063,33.063,0,0,1-3.012-3l-5.355.58-.594.062-1.254.13s.251.808.8,2.1c.062.134.123.267.19.417a30.255,30.255,0,0,0,1.7,3.272s-.015.005.005.015a.462.462,0,0,0,.077.129,28.441,28.441,0,0,0,2.9,4.1,24.714,24.714,0,0,0,1.737,1.888A22.175,22.175,0,0,0,64.406-10.7s13.339,3.259,23.43-3.923A21.952,21.952,0,0,0,91.055-17.417Z" fill="none" stroke="#251714" stroke-linecap="round" stroke-linejoin="round" stroke-width="2.005"/>
          <path id="패스_1109" data-name="패스 1109" d="M46.727-38.039a8.954,8.954,0,0,0-6.5-2.086,9.184,9.184,0,0,0-6.089,3.111,5.541,5.541,0,0,0-.969,1.5,6.448,6.448,0,0,0-.387,1.695A11.58,11.58,0,0,0,33.423-28a6.869,6.869,0,0,0,4.11,3.978,10.069,10.069,0,0,0,2.434.359c2.483.14,5.232,0,7.052-1.7a5.166,5.166,0,0,0,1.539-2.822" fill="#e08e27"/>
          <path id="패스_1110" data-name="패스 1110" d="M46.727-38.039a8.954,8.954,0,0,0-6.5-2.086,9.184,9.184,0,0,0-6.089,3.111,5.541,5.541,0,0,0-.969,1.5,6.448,6.448,0,0,0-.387,1.695A11.58,11.58,0,0,0,33.423-28a6.869,6.869,0,0,0,4.11,3.978,10.069,10.069,0,0,0,2.434.359c2.483.14,5.232,0,7.052-1.7a5.166,5.166,0,0,0,1.539-2.822" fill="none" stroke="#251714" stroke-linecap="round" stroke-linejoin="round" stroke-width="2.005"/>
          <path id="패스_1111" data-name="패스 1111" d="M53.011-26.25c-.871-.319-1.705-.462-2.574-.786A7.139,7.139,0,0,1,47-29.666a6.527,6.527,0,0,1-.836-3.138,13.015,13.015,0,0,1,.153-3.976,8.087,8.087,0,0,1,5.7-5.8A8.93,8.93,0,0,1,60-40.683a5.269,5.269,0,0,1,1.136,1.292,7.134,7.134,0,0,1,.73,2.23,12.609,12.609,0,0,1,.2,5.98,7.085,7.085,0,0,1-3.4,4.186,8.021,8.021,0,0,1-5.352.788Z" fill="#f4af5d"/>
          <path id="패스_1112" data-name="패스 1112" d="M53.011-26.25c-.871-.319-1.705-.462-2.574-.786A7.139,7.139,0,0,1,47-29.666a6.527,6.527,0,0,1-.836-3.138,13.015,13.015,0,0,1,.153-3.976,8.087,8.087,0,0,1,5.7-5.8A8.93,8.93,0,0,1,60-40.683a5.269,5.269,0,0,1,1.136,1.292,7.134,7.134,0,0,1,.73,2.23,12.609,12.609,0,0,1,.2,5.98,7.085,7.085,0,0,1-3.4,4.186,8.021,8.021,0,0,1-5.352.788Z" fill="none" stroke="#251714" stroke-linecap="round" stroke-linejoin="round" stroke-width="2.005"/>
          <path id="패스_1113" data-name="패스 1113" d="M78.945-71.726v-.013c.038-.127.063-.254.089-.382a1.5,1.5,0,0,0,.177-.128c.013-.013.026-.025.038-.025.178.063.355.128.533.178-.647.1-.748.191-.774.332-.1.688,1.889,2.421,3.842,3.236a8.272,8.272,0,0,0,9.382-2.153,10.1,10.1,0,0,0,1.407-1.963c1.877,1.644,1.6,4.791,2.447,4.83.8.038.863-2.676,2.536-4.612,2.8-3.263,9.357-3.467,10.054-1.9,1.04,2.37-2.231,15.687-19.4,13.673-5.566-.65-8.152-3.976-10-7.787,0-.37,0-.739-.026-1.084a15.061,15.061,0,0,0-.3-2.2" fill="#8dbc70"/>
          <path id="패스_1114" data-name="패스 1114" d="M78.945-71.726v-.013c.038-.127.063-.254.089-.382a1.5,1.5,0,0,0,.177-.128c.013-.013.026-.025.038-.025.178.063.355.128.533.178-.647.1-.748.191-.774.332-.1.688,1.889,2.421,3.842,3.236a8.272,8.272,0,0,0,9.382-2.153,10.1,10.1,0,0,0,1.407-1.963c1.877,1.644,1.6,4.791,2.447,4.83.8.038.863-2.676,2.536-4.612,2.8-3.263,9.357-3.467,10.054-1.9,1.04,2.37-2.231,15.687-19.4,13.673-5.566-.65-8.152-3.976-10-7.787,0-.37,0-.739-.026-1.084A15.061,15.061,0,0,0,78.945-71.726Z" fill="none" stroke="#251714" stroke-linecap="round" stroke-linejoin="round" stroke-width="2.005"/>
          <path id="패스_1115" data-name="패스 1115" d="M78.881-72a1.267,1.267,0,0,0,.152-.116c-.025.128-.051.255-.089.382-.025-.088-.038-.178-.063-.266" fill="#fff"/>
          <path id="패스_1116" data-name="패스 1116" d="M78.881-72a1.267,1.267,0,0,0,.152-.116c-.025.128-.051.255-.089.382C78.919-71.827,78.906-71.917,78.881-72Z" fill="none" stroke="#251714" stroke-linecap="round" stroke-linejoin="round" stroke-width="2.005"/>
          <path id="패스_1117" data-name="패스 1117" d="M59.661-56.343c.038-1.185,1.838-2.613,3.461-3.073,2.219-.636,3.614.664,4.286-.279.405-.574-.026-1.108.19-2.333a.633.633,0,0,1,.038-.153c4.83-.357,7.658-3.492,10.155-6.869a5.983,5.983,0,0,0,.66-1.2,9.365,9.365,0,0,0,.494-1.48,15.075,15.075,0,0,1,.3,2.205c.026.344.026.713.026,1.083A18.206,18.206,0,0,1,75.433-57.5c-5.388,6.6-12.615,3.671-13.769,3.148-.684-.3-2.041-.943-2-1.987" fill="#548437"/>
          <path id="패스_1118" data-name="패스 1118" d="M59.661-56.343c.038-1.185,1.838-2.613,3.461-3.073,2.219-.636,3.614.664,4.286-.279.405-.574-.026-1.108.19-2.333a.633.633,0,0,1,.038-.153c4.83-.357,7.658-3.492,10.155-6.869a5.983,5.983,0,0,0,.66-1.2,9.365,9.365,0,0,0,.494-1.48,15.075,15.075,0,0,1,.3,2.205c.026.344.026.713.026,1.083A18.206,18.206,0,0,1,75.433-57.5c-5.388,6.6-12.615,3.671-13.769,3.148C60.98-54.661,59.623-55.3,59.661-56.343Z" fill="none" stroke="#251714" stroke-linecap="round" stroke-linejoin="round" stroke-width="2.005"/>
          <path id="패스_1119" data-name="패스 1119" d="M63.68-83.526c1.5.662,3.728,1.414,4.323,1.109,1.04-.523,2.232-2.1,3.17-2.345a4.2,4.2,0,0,1,3.068,1.032,28.345,28.345,0,0,0,1.864,4.5,3.428,3.428,0,0,0-1.7-.421c-1.75.064-3.055,1.784-3.588,3.033a6.219,6.219,0,0,0-.469,2.09c-.266-.242-.545-.484-.812-.727a26.447,26.447,0,0,1-5.857-8.27" fill="#d19f22"/>
          <path id="패스_1120" data-name="패스 1120" d="M63.68-83.526c1.5.662,3.728,1.414,4.323,1.109,1.04-.523,2.232-2.1,3.17-2.345a4.2,4.2,0,0,1,3.068,1.032,28.345,28.345,0,0,0,1.864,4.5,3.428,3.428,0,0,0-1.7-.421c-1.75.064-3.055,1.784-3.588,3.033a6.219,6.219,0,0,0-.469,2.09c-.266-.242-.545-.484-.812-.727A26.447,26.447,0,0,1,63.68-83.526Z" fill="none" stroke="#251714" stroke-linecap="round" stroke-linejoin="round" stroke-width="2.005"/>
          <path id="패스_1121" data-name="패스 1121" d="M61.41-89.565c2.536,1.2,4.6,1.95,5.426,1.4,1.027-.675,3.145-3.161,4.134-3.135a5.121,5.121,0,0,1,1.762.675l.025.012a2.506,2.506,0,0,1,.419.293,22.212,22.212,0,0,0,1.065,6.588,4.191,4.191,0,0,0-3.068-1.032c-.939.242-2.13,1.822-3.17,2.345-.6.306-2.827-.446-4.324-1.109a41.928,41.928,0,0,1-2.269-6.041" fill="#edd480"/>
          <path id="패스_1122" data-name="패스 1122" d="M61.41-89.565c2.536,1.2,4.6,1.95,5.426,1.4,1.027-.675,3.145-3.161,4.134-3.135a5.121,5.121,0,0,1,1.762.675l.025.012a2.506,2.506,0,0,1,.419.293,22.212,22.212,0,0,0,1.065,6.588,4.191,4.191,0,0,0-3.068-1.032c-.939.242-2.13,1.822-3.17,2.345-.6.306-2.827-.446-4.324-1.109A41.928,41.928,0,0,1,61.41-89.565Z" fill="none" stroke="#251714" stroke-linecap="round" stroke-linejoin="round" stroke-width="2.005"/>
          <path id="패스_1123" data-name="패스 1123" d="M60.016-95.474a4.248,4.248,0,0,1,2.076-1.465c1.532-.42,2.367,1.287,3.9.994,1.86-.357,2.291-2.677,3.645-3.135a3.1,3.1,0,0,1,3.608,1.2c0,2.1-.038,4.536-.026,7.621a.65.65,0,0,1-.076-.089,2.6,2.6,0,0,0-.417-.293l-.026-.013a5.116,5.116,0,0,0-1.759-.674c-.987-.026-3.1,2.458-4.127,3.134-.822.549-2.886-.2-5.417-1.4v-.013a51.975,51.975,0,0,1-1.38-5.862" fill="#d19f22"/>
          <path id="패스_1124" data-name="패스 1124" d="M60.016-95.474a4.248,4.248,0,0,1,2.076-1.465c1.532-.42,2.367,1.287,3.9.994,1.86-.357,2.291-2.677,3.645-3.135a3.1,3.1,0,0,1,3.608,1.2c0,2.1-.038,4.536-.026,7.621a.65.65,0,0,1-.076-.089,2.6,2.6,0,0,0-.417-.293l-.026-.013a5.116,5.116,0,0,0-1.759-.674c-.987-.026-3.1,2.458-4.127,3.134-.822.549-2.886-.2-5.417-1.4v-.013A51.975,51.975,0,0,1,60.016-95.474Z" fill="none" stroke="#251714" stroke-linecap="round" stroke-linejoin="round" stroke-width="2.005"/>
          <path id="패스_1125" data-name="패스 1125" d="M59.242-103.379c0-2.816,4.615-2.664,7.328-2.5.9.051,6.454-.153,6.606,2.549.089,1.733.114,3.454.1,5.48a3.1,3.1,0,0,0-3.613-1.2c-1.357.458-1.788,2.778-3.652,3.135-1.534.292-2.37-1.415-3.905-.994a4.25,4.25,0,0,0-2.079,1.465,45.456,45.456,0,0,1-.786-7.939" fill="#edd480"/>
          <path id="패스_1126" data-name="패스 1126" d="M59.242-103.379c0-2.816,4.615-2.664,7.328-2.5.9.051,6.454-.153,6.606,2.549.089,1.733.114,3.454.1,5.48a3.1,3.1,0,0,0-3.613-1.2c-1.357.458-1.788,2.778-3.652,3.135-1.534.292-2.37-1.415-3.905-.994a4.25,4.25,0,0,0-2.079,1.465A45.456,45.456,0,0,1,59.242-103.379Z" fill="none" stroke="#251714" stroke-linecap="round" stroke-linejoin="round" stroke-width="2.005"/>
          <path id="패스_1127" data-name="패스 1127" d="M49.3-79.919c1.014-1.376,7.354.306,9.369,4.1,1.192,2.269.66,4.919,1.433,5.073.9.165,1.319-3.339,3.854-4.346,1.915-.765,4.653.064,5.528,1.683.951,1.784-.6,4.013-.012,4.358.405.229,1.344-.624,2.218-1.555a3.038,3.038,0,0,0,.52.37,4.442,4.442,0,0,0,4.336-.23,5.4,5.4,0,0,0,1.268-1.006.041.041,0,0,0,.025-.013,1.315,1.315,0,0,0,.241-.089,4.836,4.836,0,0,0,.8-.433c.025.089.038.179.064.268v.012a9.187,9.187,0,0,1-.5,1.479,6,6,0,0,1-.659,1.2c-2.5,3.377-5.325,6.512-10.156,6.869a12.693,12.693,0,0,1-2.485-.051c-17.179-1.9-17.4-15.623-15.848-17.688" fill="#8dbc70"/>
          <path id="패스_1128" data-name="패스 1128" d="M49.3-79.919c1.014-1.376,7.354.306,9.369,4.1,1.192,2.269.66,4.919,1.433,5.073.9.165,1.319-3.339,3.854-4.346,1.915-.765,4.653.064,5.528,1.683.951,1.784-.6,4.013-.012,4.358.405.229,1.344-.624,2.218-1.555a3.038,3.038,0,0,0,.52.37,4.442,4.442,0,0,0,4.336-.23,5.4,5.4,0,0,0,1.268-1.006.041.041,0,0,0,.025-.013,1.315,1.315,0,0,0,.241-.089,4.836,4.836,0,0,0,.8-.433c.025.089.038.179.064.268v.012a9.187,9.187,0,0,1-.5,1.479,6,6,0,0,1-.659,1.2c-2.5,3.377-5.325,6.512-10.156,6.869a12.693,12.693,0,0,1-2.485-.051C47.971-64.13,47.755-77.855,49.3-79.919Z" fill="none" stroke="#251714" stroke-linecap="round" stroke-linejoin="round" stroke-width="2.005"/>
          <path id="패스_1129" data-name="패스 1129" d="M78.881-72a1.267,1.267,0,0,0,.152-.116c-.025.128-.051.255-.089.382-.025-.088-.038-.178-.063-.266" fill="#fff"/>
          <path id="패스_1130" data-name="패스 1130" d="M78.881-72a1.267,1.267,0,0,0,.152-.116c-.025.128-.051.255-.089.382C78.919-71.827,78.906-71.917,78.881-72Z" fill="none" stroke="#251714" stroke-linecap="round" stroke-linejoin="round" stroke-width="2.005"/>
          <path id="패스_1131" data-name="패스 1131" d="M76.688-78.861c1.445-1.593,4.235-2.473,6.289-1.314a4.6,4.6,0,0,1,1.863,2.065,7.013,7.013,0,0,0-.177,1.147c-.114,1.53.355,2.5.279,3.3a3.311,3.311,0,0,1-.406.6,3.567,3.567,0,0,1-.507.472c-.14.024-.317.05-.533.076-.393.037-.912.089-1.622.166-1.015.1-1.674.177-2.092.253-.178-.049-.355-.114-.533-.178-.013,0-.025.012-.038.025a1.5,1.5,0,0,1-.177.128,1.176,1.176,0,0,1-.153.116,5.025,5.025,0,0,1-.8.433,1.516,1.516,0,0,1-.241.089c.076-.089.152-.167.215-.256a3.626,3.626,0,0,0,.545-.839.814.814,0,0,0,.089-.18,2.267,2.267,0,0,0,.152-.382,4.017,4.017,0,0,0,.178-.866,4.952,4.952,0,0,0-.469-2.549,1.352,1.352,0,0,0-.089-.19v-.013a5.958,5.958,0,0,0-1.775-2.1" fill="#f4af5d"/>
          <path id="패스_1132" data-name="패스 1132" d="M76.688-78.861c1.445-1.593,4.235-2.473,6.289-1.314a4.6,4.6,0,0,1,1.863,2.065,7.013,7.013,0,0,0-.177,1.147c-.114,1.53.355,2.5.279,3.3a3.311,3.311,0,0,1-.406.6,3.567,3.567,0,0,1-.507.472c-.14.024-.317.05-.533.076-.393.037-.912.089-1.622.166-1.015.1-1.674.177-2.092.253-.178-.049-.355-.114-.533-.178-.013,0-.025.012-.038.025a1.5,1.5,0,0,1-.177.128,1.176,1.176,0,0,1-.153.116,5.025,5.025,0,0,1-.8.433,1.516,1.516,0,0,1-.241.089c.076-.089.152-.167.215-.256a3.626,3.626,0,0,0,.545-.839.814.814,0,0,0,.089-.18,2.267,2.267,0,0,0,.152-.382,4.017,4.017,0,0,0,.178-.866,4.952,4.952,0,0,0-.469-2.549,1.352,1.352,0,0,0-.089-.19v-.013A5.958,5.958,0,0,0,76.688-78.861Z" fill="none" stroke="#251714" stroke-linecap="round" stroke-linejoin="round" stroke-width="2.005"/>
          <path id="패스_1133" data-name="패스 1133" d="M70.349-74.529a6.219,6.219,0,0,1,.469-2.09c.533-1.249,1.839-2.969,3.588-3.033a3.428,3.428,0,0,1,1.7.421v.012a4.052,4.052,0,0,1,.583.357,5.976,5.976,0,0,1,1.775,2.1v.013a1.258,1.258,0,0,1,.089.191,4.944,4.944,0,0,1,.469,2.549,4.076,4.076,0,0,1-.177.866,2.391,2.391,0,0,1-.152.382.807.807,0,0,1-.089.179,3.727,3.727,0,0,1-.545.841c-.064.088-.14.165-.216.254a.045.045,0,0,1-.025.013,5.4,5.4,0,0,1-1.268,1.006,4.443,4.443,0,0,1-4.336.23,3.038,3.038,0,0,1-.52-.37,4.759,4.759,0,0,1-1.344-3.925" fill="#cb7415"/>
          <path id="패스_1134" data-name="패스 1134" d="M70.349-74.529a6.219,6.219,0,0,1,.469-2.09c.533-1.249,1.839-2.969,3.588-3.033a3.428,3.428,0,0,1,1.7.421v.012a4.052,4.052,0,0,1,.583.357,5.976,5.976,0,0,1,1.775,2.1v.013a1.258,1.258,0,0,1,.089.191,4.944,4.944,0,0,1,.469,2.549,4.076,4.076,0,0,1-.177.866,2.391,2.391,0,0,1-.152.382.807.807,0,0,1-.089.179,3.727,3.727,0,0,1-.545.841c-.064.088-.14.165-.216.254a.045.045,0,0,1-.025.013,5.4,5.4,0,0,1-1.268,1.006,4.443,4.443,0,0,1-4.336.23,3.038,3.038,0,0,1-.52-.37A4.759,4.759,0,0,1,70.349-74.529Z" fill="none" stroke="#251714" stroke-linecap="round" stroke-linejoin="round" stroke-width="2.005"/>
          <path id="패스_1135" data-name="패스 1135" d="M79.008-71.764c.025-.14.127-.229.773-.332.419-.076,1.078-.153,2.092-.254.71-.076,1.23-.128,1.623-.166.216-.025.393-.051.533-.076a3.618,3.618,0,0,0,.507-.471,3.4,3.4,0,0,0,.406-.6c.076-.8-.393-1.771-.279-3.3a6.907,6.907,0,0,1,.177-1.147c.558-2.281,2.193-4.18,3.791-4.154.951.013,1.382.714,1.813.319.748-.675-.292-2.855.19-5.671.355-2.051,1.458-4.1,2.384-3.874.811.2,1.318,2.179,1.572,3.173.368,1.491,2.282,9.9-.951,15.674a10.1,10.1,0,0,1-1.407,1.963,8.272,8.272,0,0,1-9.382,2.153c-1.953-.815-3.943-2.548-3.842-3.236" fill="#548437"/>
          <path id="패스_1136" data-name="패스 1136" d="M79.008-71.764c.025-.14.127-.229.773-.332.419-.076,1.078-.153,2.092-.254.71-.076,1.23-.128,1.623-.166.216-.025.393-.051.533-.076a3.618,3.618,0,0,0,.507-.471,3.4,3.4,0,0,0,.406-.6c.076-.8-.393-1.771-.279-3.3a6.907,6.907,0,0,1,.177-1.147c.558-2.281,2.193-4.18,3.791-4.154.951.013,1.382.714,1.813.319.748-.675-.292-2.855.19-5.671.355-2.051,1.458-4.1,2.384-3.874.811.2,1.318,2.179,1.572,3.173.368,1.491,2.282,9.9-.951,15.674a10.1,10.1,0,0,1-1.407,1.963,8.272,8.272,0,0,1-9.382,2.153C80.9-69.342,78.907-71.075,79.008-71.764Z" fill="none" stroke="#251714" stroke-linecap="round" stroke-linejoin="round" stroke-width="2.005"/>
        </g>
      </g>
    </g>
    <g id="벡터_고급_개체-2" data-name="벡터 고급 개체" transform="translate(1529 5680)">
      <g id="그룹_104" data-name="그룹 104">
        <g id="그룹_103" data-name="그룹 103" clip-path="url(#clip-path-2)">
          <path id="패스_1137" data-name="패스 1137" d="M52.656,55.605a5.008,5.008,0,0,0-4.191,3.921,4.675,4.675,0,0,0,1.572,4.444,4.883,4.883,0,0,0,5.762.174c-.354,2.124.306,3.987,1.571,4.618,1.7.847,3.84-.839,4.1-1.046,3.749-2.946,4.533-11.078.523-14.725-1.44-1.31-4.483-2.939-6.9-1.569-2.025,1.151-2.387,3.723-2.444,4.183" fill="#f697b7"/>
          <path id="패스_1138" data-name="패스 1138" d="M52.656,55.605a5.008,5.008,0,0,0-4.191,3.921,4.675,4.675,0,0,0,1.572,4.444,4.883,4.883,0,0,0,5.762.174c-.354,2.124.306,3.987,1.571,4.618,1.7.847,3.84-.839,4.1-1.046,3.749-2.946,4.533-11.078.523-14.725-1.44-1.31-4.483-2.939-6.9-1.569C53.075,52.573,52.713,55.145,52.656,55.605Z" fill="none" stroke="#000" stroke-linecap="round" stroke-linejoin="round" stroke-width="2.003"/>
          <path id="패스_1139" data-name="패스 1139" d="M26.683,17.519c-.857-.779-7.528-6.647-15.655-4.841-1.38.306-5.8,1.124-8.2,5.1a14.207,14.207,0,0,0-1.592,9.7c1.45,8.384,9.805,14.986,18.313,14.472a7.283,7.283,0,0,0,1.181,5.263,7.214,7.214,0,0,0,3.673,2.533c4.8,1.682,9.572-1.364,10.381-1.9-.094,4.491,2.792,7.732,5.4,7.827,3.106.114,5.712-4.236,5.66-7.79a7.685,7.685,0,0,0-.908-3.452,3.33,3.33,0,0,0,4.131-1.59,3.262,3.262,0,0,0-.71-3.618,4,4,0,0,0,2.688-.733,3.392,3.392,0,0,0,1.541-2.717c-.187-1.5-2.624-2.99-6.055-2.635,1.6-2.377,4.288-3.8,6.14-5.992,3.683-4.354,3.389-10.85,1.666-16.281-.773-2.44-1.822-5.84-5.154-8.033a12.372,12.372,0,0,0-8.44-1.7c-6.407.915-11.964,7.461-14.064,16.374" fill="#f697b7"/>
          <path id="패스_1140" data-name="패스 1140" d="M26.683,17.519c-.857-.779-7.528-6.647-15.655-4.841-1.38.306-5.8,1.124-8.2,5.1a14.207,14.207,0,0,0-1.592,9.7c1.45,8.384,9.805,14.986,18.313,14.472a7.283,7.283,0,0,0,1.181,5.263,7.214,7.214,0,0,0,3.673,2.533c4.8,1.682,9.572-1.364,10.381-1.9-.094,4.491,2.792,7.732,5.4,7.827,3.106.114,5.712-4.236,5.66-7.79a7.685,7.685,0,0,0-.908-3.452,3.33,3.33,0,0,0,4.131-1.59,3.262,3.262,0,0,0-.71-3.618,4,4,0,0,0,2.688-.733,3.392,3.392,0,0,0,1.541-2.717c-.187-1.5-2.624-2.99-6.055-2.635,1.6-2.377,4.288-3.8,6.14-5.992,3.683-4.354,3.389-10.85,1.666-16.281-.773-2.44-1.822-5.84-5.154-8.033a12.372,12.372,0,0,0-8.44-1.7C34.34,2.059,28.783,8.606,26.683,17.519Z" fill="none" stroke="#000" stroke-linecap="round" stroke-linejoin="round" stroke-width="2.003"/>
          <path id="패스_1141" data-name="패스 1141" d="M17.737,24.478l6.951,1.389-4.932,4.418" fill="none" stroke="#000" stroke-linecap="round" stroke-linejoin="round" stroke-width="2.003"/>
          <path id="패스_1142" data-name="패스 1142" d="M38.022,18.523l-4.447,4.659,6.12,1.458" fill="none" stroke="#000" stroke-linecap="round" stroke-linejoin="round" stroke-width="2.003"/>
          <path id="패스_1143" data-name="패스 1143" d="M25.023,33.48l.8.578a1.28,1.28,0,0,0,1.913-.507,1.28,1.28,0,0,1,1.754-.605l.74.385a1.28,1.28,0,0,0,1.738-.569l.208-.421a2.925,2.925,0,0,1,3.578-1.471,2.925,2.925,0,0,0,3.421-1.192l.3-.463" fill="#f697b7"/>
          <path id="패스_1144" data-name="패스 1144" d="M25.023,33.48l.8.578a1.28,1.28,0,0,0,1.913-.507,1.28,1.28,0,0,1,1.754-.605l.74.385a1.28,1.28,0,0,0,1.738-.569l.208-.421a2.925,2.925,0,0,1,3.578-1.471,2.925,2.925,0,0,0,3.421-1.192l.3-.463" fill="none" stroke="#000" stroke-linecap="round" stroke-linejoin="round" stroke-width="2.003"/>
          <path id="패스_1145" data-name="패스 1145" d="M15.675,53.486c-2.046,1.565-1.208,5.3-.939,6.5a3.3,3.3,0,0,0,.945,2.063c1.138.936,2.9.221,3.928-.837a7.347,7.347,0,0,0,1.7-2.819c.308-.942.843-3.038-.468-4.478a4.094,4.094,0,0,0-4.124-.942,3.146,3.146,0,0,0-1.043.51" fill="#f697b7"/>
          <path id="패스_1146" data-name="패스 1146" d="M15.675,53.486c-2.046,1.565-1.208,5.3-.939,6.5a3.3,3.3,0,0,0,.945,2.063c1.138.936,2.9.221,3.928-.837a7.347,7.347,0,0,0,1.7-2.819c.308-.942.843-3.038-.468-4.478a4.094,4.094,0,0,0-4.124-.942A3.146,3.146,0,0,0,15.675,53.486Z" fill="none" stroke="#000" stroke-linecap="round" stroke-linejoin="round" stroke-width="2.003"/>
          <path id="패스_1147" data-name="패스 1147" d="M59.99,7.541c-2.046,1.565-1.208,5.3-.939,6.5A3.3,3.3,0,0,0,60,16.106c1.138.936,2.9.221,3.928-.837a7.347,7.347,0,0,0,1.7-2.819c.308-.942.843-3.038-.468-4.478a4.094,4.094,0,0,0-4.124-.942,3.146,3.146,0,0,0-1.043.51" fill="#f697b7"/>
          <path id="패스_1148" data-name="패스 1148" d="M59.99,7.541c-2.046,1.565-1.208,5.3-.939,6.5A3.3,3.3,0,0,0,60,16.106c1.138.936,2.9.221,3.928-.837a7.347,7.347,0,0,0,1.7-2.819c.308-.942.843-3.038-.468-4.478a4.094,4.094,0,0,0-4.124-.942A3.146,3.146,0,0,0,59.99,7.541Z" fill="none" stroke="#000" stroke-linecap="round" stroke-linejoin="round" stroke-width="2.003"/>
        </g>
      </g>
    </g>
    <g id="벡터_고급_개체-3" data-name="벡터 고급 개체" transform="translate(1676 5716)">
      <g id="그룹_106" data-name="그룹 106">
        <g id="그룹_105" data-name="그룹 105" clip-path="url(#clip-path-3)">
          <path id="패스_1149" data-name="패스 1149" d="M9.848,32.62A8.971,8.971,0,0,1,3.4,30.754a6.244,6.244,0,0,1-2.257-3.439c-.376-1.746-.037-4.5,1.653-5.081a3.417,3.417,0,0,1,3.685,1.7c.7,1.291-.127,2.3.543,3.3.412.619,1.385,1.222,3.869,1.081" fill="#ffe345"/>
          <path id="패스_1150" data-name="패스 1150" d="M9.848,32.62A8.971,8.971,0,0,1,3.4,30.754a6.244,6.244,0,0,1-2.257-3.439c-.376-1.746-.037-4.5,1.653-5.081a3.417,3.417,0,0,1,3.685,1.7c.7,1.291-.127,2.3.543,3.3.412.619,1.385,1.222,3.869,1.081" fill="none" stroke="#251714" stroke-linecap="round" stroke-linejoin="round" stroke-width="2.012"/>
          <path id="패스_1151" data-name="패스 1151" d="M61.38,5.094c.273-.22-.862-3.859-.239-3.323.394.338,1.969,4.038,2.565,1.128.312-1.523,1.227,1.28,1.763,1.138.716-.19.052-2.77.737-3.023.466-.172.664,1.792,1.838,2.034,1.242.257,2.384-1.557,2.712-1.219.408.42-1.018,1.965-.579,2.6.41.593,2.557-.533,2.766-.153.12.22-.517.684-.4.9.194.342,2.949-.458,2.363-.18-1.056.5-2.55,2.045-1.2,2.564.954.369-1.907.488-1.919.774-.012.252.8.413.773.722-.014.2-.361.207-.467.423-.3.616,1.806,2.028,1.6,2.405s-2.271-.793-3.021-.074c-.587.563-.021,1.949-.268,2.025-.306.1-1.126-2.041-1.446-1.943-.184.056-.123.828-.1,1.075.076.933.359,1.443.192,1.559-.186.129-.583-.476-1.031-.374-.531.122-.531,1.107-.888,1.148-.531.062-.942-2.066-1.6-2.054-.538.01-.875,1.462-1.115,1.4s.158-1.691-.338-1.934c-.405-.2-1.2.637-1.38.825a8.8,8.8,0,0,0-1.387,2.238c-.069-.026.679-1.36.161-2.142-.327-.5-.949-.445-1.009-.818-.079-.493.973-.767.948-1.335-.022-.476-.8-.969-1.468-.925-.716.047-1.105.69-1.239.583s.142-.977.822-1.58c.581-.515,1.072-.5,1.121-.786.084-.49-1.724-.8-1.7-1.287.021-.444,1.505-.382,1.78-1.107.349-.919-1.506-2.416-1.4-2.524S61.1,5.323,61.38,5.094" fill="#fff"/>
          <path id="패스_1152" data-name="패스 1152" d="M61.38,5.094c.273-.22-.862-3.859-.239-3.323.394.338,1.969,4.038,2.565,1.128.312-1.523,1.227,1.28,1.763,1.138.716-.19.052-2.77.737-3.023.466-.172.664,1.792,1.838,2.034,1.242.257,2.384-1.557,2.712-1.219.408.42-1.018,1.965-.579,2.6.41.593,2.557-.533,2.766-.153.12.22-.517.684-.4.9.194.342,2.949-.458,2.363-.18-1.056.5-2.55,2.045-1.2,2.564.954.369-1.907.488-1.919.774-.012.252.8.413.773.722-.014.2-.361.207-.467.423-.3.616,1.806,2.028,1.6,2.405s-2.271-.793-3.021-.074c-.587.563-.021,1.949-.268,2.025-.306.1-1.126-2.041-1.446-1.943-.184.056-.123.828-.1,1.075.076.933.359,1.443.192,1.559-.186.129-.583-.476-1.031-.374-.531.122-.531,1.107-.888,1.148-.531.062-.942-2.066-1.6-2.054-.538.01-.875,1.462-1.115,1.4s.158-1.691-.338-1.934c-.405-.2-1.2.637-1.38.825a8.8,8.8,0,0,0-1.387,2.238c-.069-.026.679-1.36.161-2.142-.327-.5-.949-.445-1.009-.818-.079-.493.973-.767.948-1.335-.022-.476-.8-.969-1.468-.925-.716.047-1.105.69-1.239.583s.142-.977.822-1.58c.581-.515,1.072-.5,1.121-.786.084-.49-1.724-.8-1.7-1.287.021-.444,1.505-.382,1.78-1.107.349-.919-1.506-2.416-1.4-2.524S61.1,5.323,61.38,5.094Z" fill="none" stroke="#251714" stroke-linecap="round" stroke-linejoin="round" stroke-width="2.012"/>
          <path id="패스_1153" data-name="패스 1153" d="M46.525,12.984a4.278,4.278,0,0,1-1.184.278,4.113,4.113,0,0,1-1.369-.043,1.679,1.679,0,0,1-.876-.491,1.518,1.518,0,0,1-.359-.719,2.934,2.934,0,0,1,.039-1.39,1.373,1.373,0,0,1,.1-.251,20.82,20.82,0,0,1,3.649,2.616" fill="#fff"/>
          <path id="패스_1154" data-name="패스 1154" d="M46.525,12.984a4.278,4.278,0,0,1-1.184.278,4.113,4.113,0,0,1-1.369-.043,1.679,1.679,0,0,1-.876-.491,1.518,1.518,0,0,1-.359-.719,2.934,2.934,0,0,1,.039-1.39,1.373,1.373,0,0,1,.1-.251A20.82,20.82,0,0,1,46.525,12.984Z" fill="none" stroke="#251714" stroke-linecap="round" stroke-linejoin="round" stroke-width="2.012"/>
          <path id="패스_1155" data-name="패스 1155" d="M68.126,7.2a2.273,2.273,0,0,1-.866,2.125c-1.074.835-2.38.147-4.33-.507-.315-.1-.646-.214-1-.3a12.447,12.447,0,0,0-2.866-.5A14.348,14.348,0,0,0,51.9,9.269a6.979,6.979,0,0,0-1.927-2.315,6.737,6.737,0,0,0-.885-.552c.639-.32,1.21-.593,1.726-.821a12.883,12.883,0,0,1,4.764-1.329c.223-.021.446-.03.682-.04a34.509,34.509,0,0,1,5.008.279l.5.074c.357.046.7.106,1.049.154.437.084.876.168,1.289.255,2.1.493,3.787,1.212,4.016,2.224" fill="#fff"/>
          <path id="패스_1156" data-name="패스 1156" d="M68.126,7.2a2.273,2.273,0,0,1-.866,2.125c-1.074.835-2.38.147-4.33-.507-.315-.1-.646-.214-1-.3a12.447,12.447,0,0,0-2.866-.5A14.348,14.348,0,0,0,51.9,9.269a6.979,6.979,0,0,0-1.927-2.315,6.737,6.737,0,0,0-.885-.552c.639-.32,1.21-.593,1.726-.821a12.883,12.883,0,0,1,4.764-1.329c.223-.021.446-.03.682-.04a34.509,34.509,0,0,1,5.008.279l.5.074c.357.046.7.106,1.049.154.437.084.876.168,1.289.255C66.212,5.467,67.9,6.186,68.126,7.2Z" fill="none" stroke="#251714" stroke-linecap="round" stroke-linejoin="round" stroke-width="2.012"/>
          <path id="패스_1157" data-name="패스 1157" d="M51.721,13.834c-.9.959-1.514,1.812-2.1,2.5a22.109,22.109,0,0,0-3.1-3.348,20.932,20.932,0,0,0-3.65-2.616,20.555,20.555,0,0,0-3.448-1.624A10.718,10.718,0,0,1,42.67,6.534,7.472,7.472,0,0,1,49.092,6.4a6.671,6.671,0,0,1,.885.552A6.967,6.967,0,0,1,51.9,9.269c.788,1.477,1.057,3.257-.182,4.565" fill="#fff"/>
          <path id="패스_1158" data-name="패스 1158" d="M51.721,13.834c-.9.959-1.514,1.812-2.1,2.5a22.109,22.109,0,0,0-3.1-3.348,20.932,20.932,0,0,0-3.65-2.616,20.555,20.555,0,0,0-3.448-1.624A10.718,10.718,0,0,1,42.67,6.534,7.472,7.472,0,0,1,49.092,6.4a6.671,6.671,0,0,1,.885.552A6.967,6.967,0,0,1,51.9,9.269C52.691,10.746,52.96,12.525,51.721,13.834Z" fill="none" stroke="#251714" stroke-linecap="round" stroke-linejoin="round" stroke-width="2.012"/>
          <path id="패스_1159" data-name="패스 1159" d="M49.623,16.331l0,.012a4.783,4.783,0,0,1-1.515,1.313A2.97,2.97,0,0,1,47.074,18a6.863,6.863,0,0,1-1.417.064,9.053,9.053,0,0,1-4.56-1.607,7.968,7.968,0,0,1-2.156-2.181,4.856,4.856,0,0,1-.823-2.294c-.012-.161-.012-.322-.011-.485a3.6,3.6,0,0,1,.44-1.549,5.031,5.031,0,0,1,.88-1.205,20.649,20.649,0,0,1,3.449,1.625,20.887,20.887,0,0,1,3.649,2.616,22.068,22.068,0,0,1,3.1,3.348" fill="#fff"/>
          <path id="패스_1160" data-name="패스 1160" d="M49.623,16.331l0,.012a4.783,4.783,0,0,1-1.515,1.313A2.97,2.97,0,0,1,47.074,18a6.863,6.863,0,0,1-1.417.064,9.053,9.053,0,0,1-4.56-1.607,7.968,7.968,0,0,1-2.156-2.181,4.856,4.856,0,0,1-.823-2.294c-.012-.161-.012-.322-.011-.485a3.6,3.6,0,0,1,.44-1.549,5.031,5.031,0,0,1,.88-1.205,20.649,20.649,0,0,1,3.449,1.625,20.887,20.887,0,0,1,3.649,2.616A22.068,22.068,0,0,1,49.623,16.331Z" fill="none" stroke="#251714" stroke-linecap="round" stroke-linejoin="round" stroke-width="2.012"/>
          <path id="패스_1161" data-name="패스 1161" d="M53.726,28.366a20.044,20.044,0,0,1-.53,4.917A23.354,23.354,0,0,1,41.884,48.176a20.983,20.983,0,0,1-4.7,1.893,2.285,2.285,0,0,1-.278.067c-.036.005-.072.023-.12.03a22.227,22.227,0,0,1-2.786.52,23.47,23.47,0,0,1-4.619.06h-.012a24.281,24.281,0,0,1-7.489-1.787c-.214-.092-.539-.256-.972-.477s-.968-.527-1.577-.909a23.266,23.266,0,0,1-5.78-5.2,20.32,20.32,0,0,1-4.262-14.08A21.589,21.589,0,0,1,10.5,22.6a19.723,19.723,0,0,1,.979-2.366,18.971,18.971,0,0,1,1.235-2.243,23.085,23.085,0,0,1,7.018-6.916A22.437,22.437,0,0,1,38.176,8.321c.419.124.84.26,1.253.422a20.639,20.639,0,0,1,3.448,1.625,20.894,20.894,0,0,1,3.65,2.616,22.01,22.01,0,0,1,3.1,3.348l0,.012a20.785,20.785,0,0,1,3.645,7.94,19.65,19.65,0,0,1,.456,4.082" fill="#ffe345"/>
          <path id="패스_1162" data-name="패스 1162" d="M53.726,28.366a20.044,20.044,0,0,1-.53,4.917A23.354,23.354,0,0,1,41.884,48.176a20.983,20.983,0,0,1-4.7,1.893,2.285,2.285,0,0,1-.278.067c-.036.005-.072.023-.12.03a22.227,22.227,0,0,1-2.786.52,23.47,23.47,0,0,1-4.619.06h-.012a24.281,24.281,0,0,1-7.489-1.787c-.214-.092-.539-.256-.972-.477s-.968-.527-1.577-.909a23.266,23.266,0,0,1-5.78-5.2,20.32,20.32,0,0,1-4.262-14.08A21.589,21.589,0,0,1,10.5,22.6a19.723,19.723,0,0,1,.979-2.366,18.971,18.971,0,0,1,1.235-2.243,23.085,23.085,0,0,1,7.018-6.916A22.437,22.437,0,0,1,38.176,8.321c.419.124.84.26,1.253.422a20.639,20.639,0,0,1,3.448,1.625,20.894,20.894,0,0,1,3.65,2.616,22.01,22.01,0,0,1,3.1,3.348l0,.012a20.785,20.785,0,0,1,3.645,7.94A19.65,19.65,0,0,1,53.726,28.366Z" fill="none" stroke="#251714" stroke-linecap="round" stroke-linejoin="round" stroke-width="2.012"/>
          <path id="패스_1163" data-name="패스 1163" d="M49.97,20.465c-.578-1.934-1.712-2.4-5.361-6.566-.822-.937-2.277-2.243-2.941-2.938a1.232,1.232,0,0,0-.221-.246L41.43,10.7l0,.009a1.117,1.117,0,0,0-.344-.193A15.957,15.957,0,0,0,35.4,9.845a28.182,28.182,0,0,0-3.959.211c-2.8.238-4.12,2.1-5.08,1.767a7.027,7.027,0,0,0-2.28-.606c-1.189.027-1.115.3-1.9.439-1.781.323-1.161-.929-3.484-.509A26.306,26.306,0,0,0,13,12.565c-.911.291-1.9,1.384-3.043,3.8-1.554,3.294-1.5,5.092-.847,5.862.7.831,1.632.215,3.8-.1,2.875-.419,4.558-.664,5.767-1.983,1.979-2.16,1.431-4.371,2.607-5.963.245-.328.413-.935,1.994-1.069,1.208-.1,3.04.3,2.978,1.382-.1,1.816-1.012,4.734.231,6.612.48.723,1.41.784,4.363.859,3.6.089,5.965-.4,7.024-1.059,1.675-1.048,3.294-4,3.92-6.5a28.879,28.879,0,0,1,3.366,3.126c2.014,2.209,3.412,3.783,3.051,5.376-.294,1.3-1.59,1.857-1.3,2.636a1.6,1.6,0,0,0,1.867.727c1.287-.469,1.907-3.423,1.2-5.8" fill="#373838"/>
          <path id="패스_1164" data-name="패스 1164" d="M49.97,20.465c-.578-1.934-1.712-2.4-5.361-6.566-.822-.937-2.277-2.243-2.941-2.938a1.232,1.232,0,0,0-.221-.246L41.43,10.7l0,.009a1.117,1.117,0,0,0-.344-.193A15.957,15.957,0,0,0,35.4,9.845a28.182,28.182,0,0,0-3.959.211c-2.8.238-4.12,2.1-5.08,1.767a7.027,7.027,0,0,0-2.28-.606c-1.189.027-1.115.3-1.9.439-1.781.323-1.161-.929-3.484-.509A26.306,26.306,0,0,0,13,12.565c-.911.291-1.9,1.384-3.043,3.8-1.554,3.294-1.5,5.092-.847,5.862.7.831,1.632.215,3.8-.1,2.875-.419,4.558-.664,5.767-1.983,1.979-2.16,1.431-4.371,2.607-5.963.245-.328.413-.935,1.994-1.069,1.208-.1,3.04.3,2.978,1.382-.1,1.816-1.012,4.734.231,6.612.48.723,1.41.784,4.363.859,3.6.089,5.965-.4,7.024-1.059,1.675-1.048,3.294-4,3.92-6.5a28.879,28.879,0,0,1,3.366,3.126c2.014,2.209,3.412,3.783,3.051,5.376-.294,1.3-1.59,1.857-1.3,2.636a1.6,1.6,0,0,0,1.867.727C50.062,25.8,50.682,22.845,49.97,20.465Z" fill="none" stroke="#251714" stroke-miterlimit="10" stroke-width="1.006"/>
          <path id="패스_1165" data-name="패스 1165" d="M29.584,12.4c-.72.634-.923,1.474-1.264,2.9-.388,1.613-.709,2.952-.022,3.717.523.58,1.146.288,3.9.472,2.811.187,3.094.552,3.856.162.744-.381.765-.875,2.275-3.951,1.184-2.411.857-2.742.633-3.2s-.141-.639-4.685-.7c-3.353-.046-4.051.033-4.7.6" fill="#373838"/>
          <path id="패스_1166" data-name="패스 1166" d="M29.584,12.4c-.72.634-.923,1.474-1.264,2.9-.388,1.613-.709,2.952-.022,3.717.523.58,1.146.288,3.9.472,2.811.187,3.094.552,3.856.162.744-.381.765-.875,2.275-3.951,1.184-2.411.857-2.742.633-3.2s-.141-.639-4.685-.7C30.93,11.749,30.232,11.829,29.584,12.4Z" fill="none" stroke="#251714" stroke-miterlimit="10" stroke-width="1.006"/>
          <path id="패스_1167" data-name="패스 1167" d="M12.831,14.59c.536-.418.491-.389,2.318-.866a5.324,5.324,0,0,1,3.172-.142c.576.352.218,1.261-.15,2.52-.427,1.458-.354,2.071-.97,2.723-.489.517-.857.4-3.633.972-1.947.4-2.365.588-2.669.3-.451-.434-.132-1.416.465-3.253a4.11,4.11,0,0,1,1.468-2.251" fill="#373838"/>
          <path id="패스_1168" data-name="패스 1168" d="M12.831,14.59c.536-.418.491-.389,2.318-.866a5.324,5.324,0,0,1,3.172-.142c.576.352.218,1.261-.15,2.52-.427,1.458-.354,2.071-.97,2.723-.489.517-.857.4-3.633.972-1.947.4-2.365.588-2.669.3-.451-.434-.132-1.416.465-3.253A4.11,4.11,0,0,1,12.831,14.59Z" fill="none" stroke="#251714" stroke-miterlimit="10" stroke-width="1.006"/>
          <path id="패스_1169" data-name="패스 1169" d="M11.165,25.888c.386-.592,4.834-.208,10.45-.063,9.6.248,13.44-1.253,15.531.8,2.494,2.448-.175,8.513-6.287,12.766-.538.375-6.975,4.721-12.477,1.96-3.173-1.593-4.937-3.463-6.718-7.979-1.166-2.954-1.353-6.171-.5-7.483" fill="#fff"/>
          <path id="패스_1170" data-name="패스 1170" d="M11.165,25.888c.386-.592,4.834-.208,10.45-.063,9.6.248,13.44-1.253,15.531.8,2.494,2.448-.175,8.513-6.287,12.766-.538.375-6.975,4.721-12.477,1.96-3.173-1.593-4.937-3.463-6.718-7.979C10.5,30.417,10.31,27.2,11.165,25.888Z" fill="none" stroke="#251714" stroke-linecap="round" stroke-linejoin="round" stroke-width="2.012"/>
          <path id="패스_1171" data-name="패스 1171" d="M32.794,37.89a22.122,22.122,0,0,1-1.149-7.529,16.931,16.931,0,0,1,1.1-4.827" fill="#fff"/>
          <path id="패스_1172" data-name="패스 1172" d="M32.794,37.89a22.122,22.122,0,0,1-1.149-7.529,16.931,16.931,0,0,1,1.1-4.827" fill="none" stroke="#251714" stroke-linecap="round" stroke-linejoin="round" stroke-width="2.012"/>
          <path id="패스_1173" data-name="패스 1173" d="M27.222,41.2a27.531,27.531,0,0,1-1.586-5.717c-.442-3.7.87-7.926,1.483-9.692" fill="#fff"/>
          <path id="패스_1174" data-name="패스 1174" d="M27.222,41.2a27.531,27.531,0,0,1-1.586-5.717c-.442-3.7.87-7.926,1.483-9.692" fill="none" stroke="#251714" stroke-linecap="round" stroke-linejoin="round" stroke-width="2.012"/>
          <path id="패스_1175" data-name="패스 1175" d="M20.928,42.15a50.624,50.624,0,0,1-.77-7.511c-.012-3.067,1.293-6.794,1.782-8.806" fill="#fff"/>
          <path id="패스_1176" data-name="패스 1176" d="M20.928,42.15a50.624,50.624,0,0,1-.77-7.511c-.012-3.067,1.293-6.794,1.782-8.806" fill="none" stroke="#251714" stroke-linecap="round" stroke-linejoin="round" stroke-width="2.012"/>
          <path id="패스_1177" data-name="패스 1177" d="M15.736,39.666a42.467,42.467,0,0,1-.024-8.018,26.96,26.96,0,0,1,2-5.955" fill="#fff"/>
          <path id="패스_1178" data-name="패스 1178" d="M15.736,39.666a42.467,42.467,0,0,1-.024-8.018,26.96,26.96,0,0,1,2-5.955" fill="none" stroke="#251714" stroke-linecap="round" stroke-linejoin="round" stroke-width="2.012"/>
          <path id="패스_1179" data-name="패스 1179" d="M11.664,33.373c.2-.805.8-4.319,1.05-5.171.19-.66.682-2.012.883-2.632" fill="#fff"/>
          <path id="패스_1180" data-name="패스 1180" d="M11.664,33.373c.2-.805.8-4.319,1.05-5.171.19-.66.682-2.012.883-2.632" fill="none" stroke="#251714" stroke-linecap="round" stroke-linejoin="round" stroke-width="2.012"/>
          <path id="패스_1181" data-name="패스 1181" d="M11.261,32.216c2.366-.628,7.278-.4,9.183-.446,4.648-.108,8.759.182,11.122.224a22.223,22.223,0,0,1,5.624.417" fill="none" stroke="#251714" stroke-linecap="round" stroke-linejoin="round" stroke-width="2.012"/>
          <path id="패스_1182" data-name="패스 1182" d="M50.82,5.583a4.884,4.884,0,0,1,4.706,2.392" fill="none" stroke="#251714" stroke-linecap="round" stroke-linejoin="round" stroke-width="2.012"/>
          <path id="패스_1183" data-name="패스 1183" d="M55.545,4.242a4.874,4.874,0,0,1,4.037,3.4" fill="none" stroke="#251714" stroke-linecap="round" stroke-linejoin="round" stroke-width="2.012"/>
          <path id="패스_1184" data-name="패스 1184" d="M60.432,4.467a4.444,4.444,0,0,1,2.706,3.989" fill="none" stroke="#251714" stroke-linecap="round" stroke-linejoin="round" stroke-width="2.012"/>
          <path id="패스_1185" data-name="패스 1185" d="M63.661,5.02a4.444,4.444,0,0,1,2.1,4.335" fill="none" stroke="#251714" stroke-linecap="round" stroke-linejoin="round" stroke-width="2.012"/>
          <path id="패스_1186" data-name="패스 1186" d="M16.289,43.307c-4.025-1.96-5.158-.508-5.58.085-1.324,1.863,1.638,7.12.059,8.185-.815.55-1.606-.5-3.007.21a2.6,2.6,0,0,0-1.49,2.523c.387,1.612,5.84,3.444,8.066,2.061,1.841-1.144,1.519-4.138,1.163-6.218a5.7,5.7,0,0,1,.187-2.71c.68-.674,4.055-.182,5.211,1.039" fill="#ffe345"/>
          <path id="패스_1187" data-name="패스 1187" d="M16.289,43.307c-4.025-1.96-5.158-.508-5.58.085-1.324,1.863,1.638,7.12.059,8.185-.815.55-1.606-.5-3.007.21a2.6,2.6,0,0,0-1.49,2.523c.387,1.612,5.84,3.444,8.066,2.061,1.841-1.144,1.519-4.138,1.163-6.218a5.7,5.7,0,0,1,.187-2.71c.68-.674,4.055-.182,5.211,1.039" fill="none" stroke="#251714" stroke-linecap="round" stroke-linejoin="round" stroke-width="2.012"/>
          <path id="패스_1188" data-name="패스 1188" d="M45.647,29.661a14.024,14.024,0,0,0,6.61-.656c6.246-2.285,8.13-8.633,11.824-8a3.234,3.234,0,0,1,2.538,2c.8,2.8-5.012,6.982-9.278,8.886a24.037,24.037,0,0,1-10.916,2" fill="#ffe345"/>
          <path id="패스_1189" data-name="패스 1189" d="M45.647,29.661a14.024,14.024,0,0,0,6.61-.656c6.246-2.285,8.13-8.633,11.824-8a3.234,3.234,0,0,1,2.538,2c.8,2.8-5.012,6.982-9.278,8.886a24.037,24.037,0,0,1-10.916,2" fill="none" stroke="#251714" stroke-linecap="round" stroke-linejoin="round" stroke-width="2.012"/>
          <path id="패스_1190" data-name="패스 1190" d="M35.464,44.793c-4.025-1.96-5.762-.086-6.016.854-.579,2.138.682,6.1-.9,7.163-.814.55-1.945-.588-3.345.122a2.6,2.6,0,0,0-1.49,2.523c.387,1.613,6.206,3.436,8.431,2.053,1.841-1.144,1.321-3.421,1.242-5.518-.028-.75.438-1.545.823-1.552a16.009,16.009,0,0,0,2.967-.512" fill="#ffe345"/>
          <path id="패스_1191" data-name="패스 1191" d="M35.464,44.793c-4.025-1.96-5.762-.086-6.016.854-.579,2.138.682,6.1-.9,7.163-.814.55-1.945-.588-3.345.122a2.6,2.6,0,0,0-1.49,2.523c.387,1.613,6.206,3.436,8.431,2.053,1.841-1.144,1.321-3.421,1.242-5.518-.028-.75.438-1.545.823-1.552a16.009,16.009,0,0,0,2.967-.512" fill="none" stroke="#251714" stroke-linecap="round" stroke-linejoin="round" stroke-width="2.012"/>
        </g>
      </g>
    </g>
    <g id="벡터_고급_개체-4" data-name="벡터 고급 개체" transform="translate(1526 5796)">
      <g id="그룹_108" data-name="그룹 108">
        <g id="그룹_107" data-name="그룹 107" clip-path="url(#clip-path-4)">
          <path id="패스_1192" data-name="패스 1192" d="M21.766,11.339a1.536,1.536,0,0,1-.721-.108c-.689-.324-.928-1.164-1.405-1.727-.913-1.076-3.072-1.211-5.023-.888s-3.873,1-5.823,1.291A10.754,10.754,0,0,1,1.233,8.5c-.736,1.716.419,3.228,1.541,4.531l3.8,4.41a11.525,11.525,0,0,0,4.968,2.838c3.831,1.209,5.866.892,7.357.361a39.111,39.111,0,0,0,4.218,9.883C28.188,38.93,35.2,43.17,42.213,47.3c2.831,1.667,10.507,6.187,18.963,8.408,21.086,5.537,48.119.549,50.778-10.212a31.711,31.711,0,0,0-.024-3.854c-.417-14.531-1.161-12.143-2.048-24.579-.165-2.314-.343-5.254-2.3-8.117a12.732,12.732,0,0,0-3.426-3.354C95.342-.5,81.611,1.243,81.611,1.243c-7,.885-12.05,3.182-22.152,7.773-10.666,4.847-14.229,7.8-21.9,8.559A36.339,36.339,0,0,1,25.1,16.594c1.325-.572,5.491-2.322,5.958-3.7q.762-2.255,1.526-4.51c.452-1.332.893-2.845.25-4.094a5.959,5.959,0,0,1-4.03,2.885c-1.126.21-2.291.083-3.422.263A3.224,3.224,0,0,0,22.7,9.318c-.244.738-.208,1.766-.936,2.021" fill="#7be9ef"/>
          <path id="패스_1193" data-name="패스 1193" d="M21.766,11.339a1.536,1.536,0,0,1-.721-.108c-.689-.324-.928-1.164-1.405-1.727-.913-1.076-3.072-1.211-5.023-.888s-3.873,1-5.823,1.291A10.754,10.754,0,0,1,1.233,8.5c-.736,1.716.419,3.228,1.541,4.531l3.8,4.41a11.525,11.525,0,0,0,4.968,2.838c3.831,1.209,5.866.892,7.357.361a39.111,39.111,0,0,0,4.218,9.883C28.188,38.93,35.2,43.17,42.213,47.3c2.831,1.667,10.507,6.187,18.963,8.408,21.086,5.537,48.119.549,50.778-10.212a31.711,31.711,0,0,0-.024-3.854c-.417-14.531-1.161-12.143-2.048-24.579-.165-2.314-.343-5.254-2.3-8.117a12.732,12.732,0,0,0-3.426-3.354C95.342-.5,81.611,1.243,81.611,1.243c-7,.885-12.05,3.182-22.152,7.773-10.666,4.847-14.229,7.8-21.9,8.559A36.339,36.339,0,0,1,25.1,16.594c1.325-.572,5.491-2.322,5.958-3.7q.762-2.255,1.526-4.51c.452-1.332.893-2.845.25-4.094a5.959,5.959,0,0,1-4.03,2.885c-1.126.21-2.291.083-3.422.263A3.224,3.224,0,0,0,22.7,9.318C22.457,10.057,22.493,11.084,21.766,11.339Z" fill="none" stroke="#251714" stroke-linecap="round" stroke-linejoin="round" stroke-width="2.015"/>
          <path id="패스_1194" data-name="패스 1194" d="M48.268,29.606c.018,6.991,2.537,12.651,5.626,12.642s5.578-5.682,5.559-12.672-2.537-12.65-5.626-12.642-5.578,5.682-5.559,12.672" fill="#fff"/>
          <path id="패스_1195" data-name="패스 1195" d="M48.268,29.606c.018,6.991,2.537,12.651,5.626,12.642s5.578-5.682,5.559-12.672-2.537-12.65-5.626-12.642S48.25,22.616,48.268,29.606Z" fill="none" stroke="#251714" stroke-linecap="round" stroke-linejoin="round" stroke-width="2.015"/>
          <path id="패스_1196" data-name="패스 1196" d="M52.172,31.994c.011,4.344,1.577,7.861,3.495,7.856s3.466-3.531,3.455-7.874-1.577-7.861-3.5-7.856-3.465,3.53-3.454,7.874"/>
          <path id="패스_1197" data-name="패스 1197" d="M52.172,31.994c.011,4.344,1.577,7.861,3.495,7.856s3.466-3.531,3.455-7.874-1.577-7.861-3.5-7.856S52.161,27.65,52.172,31.994Z" fill="none" stroke="#251714" stroke-miterlimit="10" stroke-width="1.007"/>
          <path id="패스_1198" data-name="패스 1198" d="M43.614,44.931a5.537,5.537,0,0,1-2.734,2.575A42.819,42.819,0,0,1,21.44,52.759c-1.465-.171.91-2.376,1.957-3.228a11,11,0,0,0,2.892-2.751c.392-.693.538-1.471.859-2.19,1.266-2.825,4.83-4.125,8.036-4.944" fill="#7be9ef"/>
          <path id="패스_1199" data-name="패스 1199" d="M43.614,44.931a5.537,5.537,0,0,1-2.734,2.575A42.819,42.819,0,0,1,21.44,52.759c-1.465-.171.91-2.376,1.957-3.228a11,11,0,0,0,2.892-2.751c.392-.693.538-1.471.859-2.19,1.266-2.825,4.83-4.125,8.036-4.944" fill="none" stroke="#251714" stroke-linecap="round" stroke-linejoin="round" stroke-width="2.015"/>
          <path id="패스_1200" data-name="패스 1200" d="M111.978,43.114c-12.108,4.691-24.731,8.069-37.694,7.833a51.864,51.864,0,0,1-12.118-1.336c-5.5-1.56-10.439-2.3-15.309-6" fill="none" stroke="#251714" stroke-linecap="round" stroke-linejoin="round" stroke-width="2.015"/>
        </g>
      </g>
    </g>
    <g id="벡터_고급_개체-5" data-name="벡터 고급 개체" transform="translate(1436 5711)">
      <g id="그룹_129" data-name="그룹 129">
        <g id="그룹_128" data-name="그룹 128" clip-path="url(#clip-path-5)">
          <g id="그룹_110" data-name="그룹 110">
            <g id="그룹_109" data-name="그룹 109" clip-path="url(#clip-path-6)">
              <path id="패스_1201" data-name="패스 1201" d="M38.6,62.711C36.638,70.446,29.065,75.2,21.685,73.339s-11.77-9.648-9.807-17.383,9.537-12.493,16.916-10.628,11.77,9.648,9.807,17.383" fill="#019d56"/>
              <path id="패스_1202" data-name="패스 1202" d="M38.6,62.711C36.638,70.446,29.065,75.2,21.685,73.339s-11.77-9.648-9.807-17.383,9.537-12.493,16.916-10.628S40.564,54.976,38.6,62.711Z" fill="none" stroke="#000" stroke-linecap="round" stroke-linejoin="round" stroke-width="2.017"/>
              <path id="패스_1203" data-name="패스 1203" d="M29.053,73.92c-.965,2.369-2.973,3.636-4.485,2.829S22.613,73.366,23.577,71s2.974-3.636,4.485-2.829,1.956,3.383.991,5.752" fill="#c1fd74"/>
              <path id="패스_1204" data-name="패스 1204" d="M29.053,73.92c-.965,2.369-2.973,3.636-4.485,2.829S22.613,73.366,23.577,71s2.974-3.636,4.485-2.829S30.018,71.551,29.053,73.92Z" fill="none" stroke="#000" stroke-linecap="round" stroke-linejoin="round" stroke-width="2.017"/>
              <path id="패스_1205" data-name="패스 1205" d="M32.609,69.881A4.272,4.272,0,0,1,29.3,74.517a3.541,3.541,0,0,1-3.955-3.483A4.272,4.272,0,0,1,28.654,66.4a3.542,3.542,0,0,1,3.955,3.484" fill="#c1fd74"/>
              <path id="패스_1206" data-name="패스 1206" d="M32.609,69.881A4.272,4.272,0,0,1,29.3,74.517a3.541,3.541,0,0,1-3.955-3.483A4.272,4.272,0,0,1,28.654,66.4,3.542,3.542,0,0,1,32.609,69.881Z" fill="none" stroke="#000" stroke-linecap="round" stroke-linejoin="round" stroke-width="2.017"/>
              <path id="패스_1207" data-name="패스 1207" d="M36.064,62.229c-1.646,6.488-8,10.478-14.187,8.914a11.836,11.836,0,0,1-8.226-14.579c1.647-6.486,8-10.478,14.188-8.913a11.835,11.835,0,0,1,8.225,14.578" fill="#fdf8be"/>
              <path id="패스_1208" data-name="패스 1208" d="M20.668,48.235A11.128,11.128,0,0,1,33.32,50.93" fill="none" stroke="#333" stroke-linecap="round" stroke-miterlimit="10" stroke-width="3.047"/>
              <path id="패스_1209" data-name="패스 1209" d="M35.755,55a12.458,12.458,0,0,1,.309,7.229c-1.647,6.488-8,10.478-14.188,8.914a11.836,11.836,0,0,1-8.225-14.578,12.523,12.523,0,0,1,2.948-5.45" fill="none" stroke="#000" stroke-linecap="round" stroke-linejoin="round" stroke-width="2.017"/>
              <path id="패스_1210" data-name="패스 1210" d="M36.165,56.434s-2.015,1.19-10.324-.91-9.514-4.1-9.514-4.1" fill="none" stroke="#000" stroke-linecap="round" stroke-linejoin="round" stroke-width="2.017"/>
              <path id="패스_1211" data-name="패스 1211" d="M35.475,64s-1.925,1.93-11.65-.529-10.5-5.069-10.5-5.069" fill="none" stroke="#000" stroke-linecap="round" stroke-linejoin="round" stroke-width="2.017"/>
              <path id="패스_1212" data-name="패스 1212" d="M42.716,5.734a2.445,2.445,0,0,0-1.761-2.65,1.619,1.619,0,0,0-1.6.847l-.02-.06C38.745,2.2,37.463.924,36.467,1.012s-1.327,1.511-.741,3.176S37.6,7.134,38.591,7.047a.951.951,0,0,0,.687-.38,2.017,2.017,0,0,0,1.464,1.192c1.032.145,1.916-.807,1.975-2.125" fill="#c1fd74"/>
              <path id="패스_1213" data-name="패스 1213" d="M55.147,32.358l.266-1.045c2.166-9.5-1.974-20.719-11.772-24.678A39.555,39.555,0,0,0,33.3,4.023C22.8,2.851,13.809,10.748,11.182,20.134l-.265,1.045a11.254,11.254,0,0,0-3.591,5.615,15.886,15.886,0,0,0,.546,9.348,16.492,16.492,0,0,0,6.194,7.59,23.075,23.075,0,0,0,4.377,2.356c1.354.554,2.778.869,4.109,1.494.888.418,1.167,1.469,1.779,2.17a4.672,4.672,0,0,0,2.491,1.486,5.133,5.133,0,0,0,3.717-.541,3.222,3.222,0,0,1,1.782-.646c1.468.082,2.871.483,4.326.637a23.045,23.045,0,0,0,4.973.008,16.541,16.541,0,0,0,9.067-3.732A15.909,15.909,0,0,0,55.626,39a11.23,11.23,0,0,0-.479-6.644" fill="#c1fd74"/>
              <path id="패스_1214" data-name="패스 1214" d="M55.26,31.909l.258-1.02c2.107-9.272-2.091-20.255-11.9-24.181-.3-.122-.637-.25-.993-.38a2.88,2.88,0,0,0,.088-.6,2.446,2.446,0,0,0-1.761-2.65,1.619,1.619,0,0,0-1.6.847c-.007-.02-.013-.04-.02-.06C38.745,2.2,37.463.924,36.467,1.012s-1.328,1.511-.741,3.176q.051.147.109.287c-.937-.168-1.813-.293-2.551-.378-10.5-1.206-19.427,6.458-22,15.613l-.258,1.02" fill="none" stroke="#000" stroke-linecap="round" stroke-linejoin="round" stroke-width="2.017"/>
            </g>
          </g>
          <g id="그룹_118" data-name="그룹 118">
            <g id="그룹_117" data-name="그룹 117" clip-path="url(#clip-path-7)">
              <g id="그룹_113" data-name="그룹 113" opacity="0.63">
                <g id="그룹_112" data-name="그룹 112">
                  <g id="그룹_111" data-name="그룹 111" clip-path="url(#clip-path-8)">
                    <path id="패스_1215" data-name="패스 1215" d="M21.574,33.465a9.306,9.306,0,0,1-11.209,6.875A9.416,9.416,0,0,1,15,22.094a9.286,9.286,0,0,1,6.578,11.372" fill="#95de03"/>
                  </g>
                </g>
              </g>
              <g id="그룹_116" data-name="그룹 116" opacity="0.63">
                <g id="그룹_115" data-name="그룹 115">
                  <g id="그룹_114" data-name="그룹 114" clip-path="url(#clip-path-9)">
                    <path id="패스_1216" data-name="패스 1216" d="M39.913,38.1a9.176,9.176,0,1,0,11.209-6.875A9.286,9.286,0,0,0,39.913,38.1" fill="#95de03"/>
                  </g>
                </g>
              </g>
            </g>
          </g>
          <g id="그룹_123" data-name="그룹 123">
            <g id="그룹_122" data-name="그룹 122" clip-path="url(#clip-path-6)">
              <path id="패스_1218" data-name="패스 1218" d="M53.33,28.445A12.172,12.172,0,0,1,55.72,38.63,16.246,16.246,0,0,1,50.754,46.7a16.548,16.548,0,0,1-9.086,3.8,22.828,22.828,0,0,1-4.977.007c-1.456-.152-2.858-.553-4.327-.631a3.219,3.219,0,0,0-1.785.658,5.105,5.105,0,0,1-3.722.559,4.635,4.635,0,0,1-2.488-1.5c-.611-.706-.888-1.77-1.774-2.19-1.33-.63-2.754-.942-4.107-1.5a22.884,22.884,0,0,1-4.374-2.37,16.527,16.527,0,0,1-6.176-7.661,16.22,16.22,0,0,1-.518-9.456A12.2,12.2,0,0,1,14.38,18.6" fill="none" stroke="#000" stroke-linecap="round" stroke-linejoin="round" stroke-width="2.017"/>
              <path id="패스_1219" data-name="패스 1219" d="M27.919,10.336c-.013.024-.025.047-.036.072-.182.409.351.611.662.685a9.669,9.669,0,0,0,2.579.4,1.336,1.336,0,0,0,1.224-.645c.626-1.363-1.273-2.018-2.284-1.819a3.4,3.4,0,0,0-2.145,1.3" fill="#353535"/>
              <line id="선_23" data-name="선 23" x1="3.742" y2="14.747" transform="translate(22.028 56.435)" fill="none" stroke="#000" stroke-linecap="round" stroke-linejoin="round" stroke-width="2.017"/>
              <line id="선_24" data-name="선 24" x1="0.79" y2="3.112" transform="translate(26.296 51.249)" fill="none" stroke="#000" stroke-linecap="round" stroke-linejoin="round" stroke-width="2.017"/>
              <path id="패스_1220" data-name="패스 1220" d="M45.971,14.825c0,.027,0,.054,0,.081-.02.446-.588.388-.9.316a9.62,9.62,0,0,1-2.487-.791,1.33,1.33,0,0,1-.8-1.124c.051-1.5,2.044-1.235,2.859-.606a3.39,3.39,0,0,1,1.333,2.123" fill="#353535"/>
              <path id="패스_1221" data-name="패스 1221" d="M33.72,51.1l4.465-1.214,5.569-1.666,2.736-.825,1.142-.437,1.231,3.723-.492.744L35.55,54.053Z" fill="#c1fd74"/>
              <path id="패스_1222" data-name="패스 1222" d="M47.239,48.669a7.481,7.481,0,0,1,.238-2.558,14.921,14.921,0,0,1,.86-1.8c.306-.734.351-3.877,1.608-3.607a1.882,1.882,0,0,1,1.42,1.718,5.49,5.49,0,0,1-.476,2.454,7.175,7.175,0,0,1,4.267,1.715c1.351,1.189,2.617,3.615.515,4.809a6.49,6.49,0,0,1-4.273.669c-1.107-.179-3.093-.509-3.642-1.761" fill="#c1fd74"/>
              <path id="패스_1223" data-name="패스 1223" d="M47.239,48.669a7.481,7.481,0,0,1,.238-2.558,14.921,14.921,0,0,1,.86-1.8c.306-.734.351-3.877,1.608-3.607a1.882,1.882,0,0,1,1.42,1.718,7.251,7.251,0,0,1-.534,2.831,6.954,6.954,0,0,1,4.326,1.338c1.351,1.189,2.617,3.615.515,4.809a6.49,6.49,0,0,1-4.273.669c-1.107-.179-3.093-.509-3.642-1.761" fill="none" stroke="#000" stroke-linecap="round" stroke-miterlimit="10" stroke-width="2.017"/>
              <line id="선_25" data-name="선 25" x1="13.192" y2="3.619" transform="translate(33.905 47.43)" fill="none" stroke="#000" stroke-linecap="round" stroke-miterlimit="10" stroke-width="2.017"/>
              <line id="선_26" data-name="선 26" x1="13.379" y2="2.625" transform="translate(35.549 51.428)" fill="none" stroke="#000" stroke-linecap="round" stroke-miterlimit="10" stroke-width="2.017"/>
              <path id="패스_1224" data-name="패스 1224" d="M51.475,49.126s4.049-.4,3.954,2.061" fill="none" stroke="#000" stroke-linecap="round" stroke-miterlimit="10" stroke-width="2.017"/>
              <path id="패스_1225" data-name="패스 1225" d="M20.832,47.841l-3.348-3.188-4.1-4.11-2.012-2.026-.8-.927-2.858,2.69.078.888,10.022,8.4Z" fill="#c1fd74"/>
              <path id="패스_1226" data-name="패스 1226" d="M10.1,39.283a7.486,7.486,0,0,0,1.01-2.363,14.843,14.843,0,0,0,.105-2c.081-.79,1.54-3.576.3-3.936a1.886,1.886,0,0,0-2.067.837A5.46,5.46,0,0,0,8.7,34.209,7.184,7.184,0,0,0,4.13,33.69C2.376,34.1.1,35.626,1.384,37.674a6.464,6.464,0,0,0,3.438,2.618c1.059.368,2.964,1.023,4.044.181" fill="#c1fd74"/>
              <path id="패스_1227" data-name="패스 1227" d="M10.1,39.283a7.486,7.486,0,0,0,1.01-2.363,14.843,14.843,0,0,0,.105-2c.081-.79,1.54-3.576.3-3.936a1.886,1.886,0,0,0-2.067.837,7.233,7.233,0,0,0-.88,2.742A6.962,6.962,0,0,0,4.13,33.69C2.376,34.1.1,35.626,1.384,37.674a6.464,6.464,0,0,0,3.438,2.618c1.059.368,2.964,1.023,4.044.181" fill="none" stroke="#000" stroke-linecap="round" stroke-linejoin="round" stroke-width="2.017"/>
              <line id="선_27" data-name="선 27" x2="9.876" y2="9.449" transform="translate(10.818 38.26)" fill="none" stroke="#000" stroke-linecap="round" stroke-linejoin="round" stroke-width="2.017"/>
              <line id="선_28" data-name="선 28" x2="10.514" y2="8.664" transform="translate(7.3 40.907)" fill="none" stroke="#000" stroke-linecap="round" stroke-linejoin="round" stroke-width="2.017"/>
              <path id="패스_1228" data-name="패스 1228" d="M6.158,37.671S2.788,35.4,1.7,37.606" fill="none" stroke="#000" stroke-linecap="round" stroke-linejoin="round" stroke-width="2.017"/>
              <path id="패스_1229" data-name="패스 1229" d="M33.32,50.93a11.8,11.8,0,0,1,2.061,3.135q.206.458.375.935" fill="none" stroke="#000" stroke-linecap="round" stroke-linejoin="round" stroke-width="2.017"/>
              <path id="패스_1230" data-name="패스 1230" d="M16.6,51.115a12.026,12.026,0,0,1,4.068-2.881" fill="none" stroke="#000" stroke-linecap="round" stroke-linejoin="round" stroke-width="2.017"/>
              <path id="패스_1231" data-name="패스 1231" d="M20.424,63.3c0,4.5-2.789,8.153-6.229,8.153S7.965,67.8,7.965,63.3s2.789-8.153,6.23-8.153,6.229,3.65,6.229,8.153" fill="#c1fd74"/>
              <g id="그룹_121" data-name="그룹 121" opacity="0.63">
                <g id="그룹_120" data-name="그룹 120">
                  <g id="그룹_119" data-name="그룹 119" clip-path="url(#clip-path-11)">
                    <path id="패스_1232" data-name="패스 1232" d="M19.4,63.27c0,3.766-2.332,6.818-5.209,6.818s-5.21-3.052-5.21-6.818,2.332-6.819,5.21-6.819S19.4,59.5,19.4,63.27" fill="#95de03"/>
                  </g>
                </g>
              </g>
              <path id="패스_1233" data-name="패스 1233" d="M20.424,63.3c0,4.5-2.789,8.153-6.229,8.153S7.965,67.8,7.965,63.3s2.789-8.153,6.23-8.153S20.424,58.793,20.424,63.3Z" fill="none" stroke="#000" stroke-linecap="round" stroke-linejoin="round" stroke-width="2.017"/>
              <path id="패스_1234" data-name="패스 1234" d="M42.834,34.733a9.885,9.885,0,0,1-2.619,4.243,9.281,9.281,0,0,1-3.588,2.018,13.03,13.03,0,0,1-3.631.54,12,12,0,0,1-6.177-1.488,14.679,14.679,0,0,1-2.679-1.886A10.443,10.443,0,0,1,21.806,35.2a8.856,8.856,0,0,1-.973-4.15,10.994,10.994,0,0,1,.328-2.507l.2-.259c-.526.39.018.926.758,1.352a27.355,27.355,0,0,0,4.018,1.8c1.484.557,2.982,1.086,4.514,1.548.3.089.593.176.891.261s.6.165.895.245c1.546.412,3.1.749,4.655,1.054a27.438,27.438,0,0,0,4.366.578c.854.025,1.6-.144,1.358-.752" fill="#800025"/>
              <path id="패스_1235" data-name="패스 1235" d="M42.811,34.375c.242.608-.5.777-1.358.752a27.211,27.211,0,0,1-4.365-.578c-1.557-.305-3.11-.642-4.656-1.053-.3-.08-.6-.162-.895-.246s-.595-.171-.891-.261c-1.532-.462-3.03-.991-4.514-1.548a27.249,27.249,0,0,1-4.018-1.8c-.739-.426-1.284-.962-.758-1.352" fill="none" stroke="#333" stroke-linecap="round" stroke-miterlimit="10" stroke-width="2.017"/>
            </g>
          </g>
          <g id="그룹_125" data-name="그룹 125">
            <g id="그룹_124" data-name="그룹 124" clip-path="url(#clip-path-12)">
              <path id="패스_1236" data-name="패스 1236" d="M38.932,42.281c-.6,2.108-5.216,2.645-10.309,1.2s-8.734-4.325-8.134-6.433S25.7,34.4,30.8,35.848s8.735,4.325,8.134,6.433" fill="#fd9fa2"/>
            </g>
          </g>
          <g id="그룹_127" data-name="그룹 127">
            <g id="그룹_126" data-name="그룹 126" clip-path="url(#clip-path-6)">
              <path id="패스_1238" data-name="패스 1238" d="M42.834,34.733a9.885,9.885,0,0,1-2.619,4.243,9.281,9.281,0,0,1-3.588,2.018,13.03,13.03,0,0,1-3.631.54,12,12,0,0,1-6.177-1.488,14.679,14.679,0,0,1-2.679-1.886A10.443,10.443,0,0,1,21.806,35.2a8.856,8.856,0,0,1-.973-4.15,10.994,10.994,0,0,1,.328-2.507l.2-.259c-.526.39.018.926.758,1.352a27.355,27.355,0,0,0,4.018,1.8c1.484.557,2.982,1.086,4.514,1.548.3.089.593.176.891.261s.6.165.895.245c1.546.412,3.1.749,4.655,1.054a27.438,27.438,0,0,0,4.366.578c.854.025,1.6-.144,1.358-.752" fill="none" stroke="#000" stroke-linecap="round" stroke-linejoin="round" stroke-width="2.017"/>
              <path id="패스_1239" data-name="패스 1239" d="M42.834,34.733a9.885,9.885,0,0,1-2.619,4.243,9.281,9.281,0,0,1-3.588,2.018,13.03,13.03,0,0,1-3.631.54,12,12,0,0,1-6.177-1.488,14.679,14.679,0,0,1-2.679-1.886A10.443,10.443,0,0,1,21.806,35.2a8.856,8.856,0,0,1-.973-4.15,10.994,10.994,0,0,1,.328-2.507" fill="none" stroke="#000" stroke-linecap="round" stroke-linejoin="round" stroke-width="2.017"/>
              <path id="패스_1240" data-name="패스 1240" d="M25.492,20.6a2.928,2.928,0,0,0-1.233.736,3.658,3.658,0,0,0-.821,1.313,2.276,2.276,0,0,0-.121.394,4.331,4.331,0,0,0-.1.805,3.15,3.15,0,0,0,.336,1.446,2.164,2.164,0,0,0,1.314,1.085,2.232,2.232,0,0,0,1.723-.226,2.7,2.7,0,0,0,1.025-1.12,5.344,5.344,0,0,0,.466-1.209,2.622,2.622,0,0,0-.225-1.987,1.924,1.924,0,0,0-1.094-.855,1.8,1.8,0,0,0-1.425.192,1.592,1.592,0,0,0-.7.9,1.515,1.515,0,0,0,2.225,1.707.3.3,0,0,1,.059-.033l-.362.152a.376.376,0,0,1,.088-.023l-.4.054a.264.264,0,0,1,.057,0l-.4-.053a.268.268,0,0,1,.055.013l-.361-.152a.485.485,0,0,1,.078.042l-.307-.237a.552.552,0,0,1,.091.091c-.079-.1-.158-.2-.237-.306a.742.742,0,0,1,.072.122c-.05-.12-.1-.24-.152-.361a.938.938,0,0,1,.055.186l-.055-.4a1.462,1.462,0,0,1,0,.358l.055-.4a3.137,3.137,0,0,1-.229.773c.051-.12.1-.241.153-.361a2.805,2.805,0,0,1-.309.573l.237-.305a1.213,1.213,0,0,1-.2.2l.306-.237a.966.966,0,0,1-.187.11l.361-.152a.917.917,0,0,1-.194.051l.4-.054a.767.767,0,0,1-.16,0l.4.053a.724.724,0,0,1-.152-.04l.362.152a.737.737,0,0,1-.139-.081l.307.237a.844.844,0,0,1-.12-.12l.237.305a1.074,1.074,0,0,1-.12-.206c.05.12.1.24.152.361a1.571,1.571,0,0,1-.1-.365l.055.4a2.149,2.149,0,0,1,0-.54l-.055.4a2.273,2.273,0,0,1,.146-.544l-.153.362a2.3,2.3,0,0,1,.257-.448l-.236.306a1.853,1.853,0,0,1,.333-.338l-.306.237a1.423,1.423,0,0,1,.278-.163l-.361.152a1.117,1.117,0,0,1,.127-.044,1.577,1.577,0,0,0,.9-.7,1.511,1.511,0,0,0-.543-2.068,1.558,1.558,0,0,0-1.167-.152"/>
              <path id="패스_1241" data-name="패스 1241" d="M40.646,24.355a2.922,2.922,0,0,0-1.233.736,3.658,3.658,0,0,0-.821,1.313,2.195,2.195,0,0,0-.122.394,4.33,4.33,0,0,0-.1.805,3.162,3.162,0,0,0,.335,1.446,2.166,2.166,0,0,0,1.315,1.085,2.229,2.229,0,0,0,1.722-.226,2.7,2.7,0,0,0,1.026-1.12,5.341,5.341,0,0,0,.465-1.209,2.618,2.618,0,0,0-.225-1.987,1.924,1.924,0,0,0-1.094-.855,1.8,1.8,0,0,0-1.425.192,1.59,1.59,0,0,0-.7.9,1.514,1.514,0,0,0,2.224,1.707.337.337,0,0,1,.059-.033l-.361.152a.368.368,0,0,1,.087-.023l-.4.054a.266.266,0,0,1,.057,0l-.4-.053a.253.253,0,0,1,.055.013l-.36-.152a.533.533,0,0,1,.078.042c-.1-.079-.206-.157-.308-.237a.516.516,0,0,1,.091.091c-.078-.1-.158-.2-.237-.306a.742.742,0,0,1,.072.122l-.151-.361a.935.935,0,0,1,.054.186l-.054-.4a1.514,1.514,0,0,1,0,.358l.054-.4a3.179,3.179,0,0,1-.228.773c.05-.12.1-.241.153-.361a2.859,2.859,0,0,1-.31.573l.237-.305a1.14,1.14,0,0,1-.2.2l.307-.236a1.058,1.058,0,0,1-.188.109l.361-.152a.924.924,0,0,1-.193.051l.4-.054a.757.757,0,0,1-.159,0l.4.053a.724.724,0,0,1-.152-.04l.362.152a.77.77,0,0,1-.139-.081c.1.079.2.157.308.237a.751.751,0,0,1-.12-.12c.078.1.158.2.237.305a1.079,1.079,0,0,1-.121-.206c.051.12.1.24.152.361a1.572,1.572,0,0,1-.1-.365l.055.4a2.2,2.2,0,0,1,0-.54l-.055.4a2.273,2.273,0,0,1,.146-.544c-.05.121-.1.241-.153.362a2.3,2.3,0,0,1,.257-.448l-.236.306a1.858,1.858,0,0,1,.334-.338l-.307.237a1.461,1.461,0,0,1,.279-.163l-.362.152a1.117,1.117,0,0,1,.127-.044,1.574,1.574,0,0,0,.9-.7,1.511,1.511,0,0,0-.543-2.068,1.561,1.561,0,0,0-1.166-.152"/>
              <path id="패스_1242" data-name="패스 1242" d="M29.826,28.746c.825-2.348,5.654-1.407,5.568,1.312" fill="none" stroke="#000" stroke-linecap="round" stroke-linejoin="round" stroke-width="2.017"/>
            </g>
          </g>
        </g>
      </g>
    </g>
    <g id="벡터_고급_개체-6" data-name="벡터 고급 개체" transform="translate(1675 5617)">
      <g id="그룹_131" data-name="그룹 131">
        <g id="그룹_130" data-name="그룹 130" clip-path="url(#clip-path-14)">
          <path id="패스_1243" data-name="패스 1243" d="M4.432,24.663A14.264,14.264,0,0,1,5.865,4.383,14.652,14.652,0,0,1,26.374,5.8c5.17,5.88,8.02,18.574,2.4,23.966l2.422.825.112-.1a.332.332,0,0,1,.462.033l.055.061a.323.323,0,0,1-.033.457l-2.826,2.43a.331.331,0,0,1-.462-.032l-.054-.062a.322.322,0,0,1,.032-.457l.112-.1L28.1,30.341c-6.183,4.758-18.5.2-23.669-5.678" fill="#9e99ff"/>
          <path id="패스_1244" data-name="패스 1244" d="M4.432,24.663A14.264,14.264,0,0,1,5.865,4.383,14.652,14.652,0,0,1,26.374,5.8c5.17,5.88,8.02,18.574,2.4,23.966l2.422.825.112-.1a.332.332,0,0,1,.462.033l.055.061a.323.323,0,0,1-.033.457l-2.826,2.43a.331.331,0,0,1-.462-.032l-.054-.062a.322.322,0,0,1,.032-.457l.112-.1L28.1,30.341C21.917,35.1,9.6,30.544,4.432,24.663Z" fill="none" stroke="#251714" stroke-linecap="round" stroke-linejoin="round" stroke-width="1.721"/>
          <path id="패스_1245" data-name="패스 1245" d="M30.683,32.431c7.858,10.1,8.584,16.714,7.081,21.154-1.545,4.566-5.3,6.4-4.821,9.609.677,4.546,9.12,7.132,16.647,8.641" fill="none" stroke="#251714" stroke-linecap="round" stroke-linejoin="round" stroke-width="1.721"/>
        </g>
        <animateTransform attributeName="transform" type="translate"
          values="0 0; 0 20; 0 0"
          keyTimes="0; 0.5; 1"
          keySplines="0.42 0 0.58 1; 0.42 0 0.58 1"
          dur="4s"
          repeatCount="indefinite"/>
      </g>
    </g>
  </g>
</svg>
