<svg xmlns="http://www.w3.org/2000/svg" xmlns:xlink="http://www.w3.org/1999/xlink" width="42" height="81" viewBox="0 0 42 81">
  <defs>
    <clipPath id="clip-path">
      <rect id="사각형_9" data-name="사각형 9" width="42" height="81" transform="translate(0 0)" fill="none"/>
    </clipPath>
  </defs>
  <g id="_1층벡터_고급_개체" data-name="1층벡터 고급 개체" transform="translate(0 0)">
    <path id="패스_86" data-name="패스 86" d="M19.516.82,41.19,5.3,11.261,9.141.815,4.015Z" fill="#fff"/>
    <g id="그룹_18" data-name="그룹 18">
      <g id="그룹_17" data-name="그룹 17" clip-path="url(#clip-path)">
        <path id="패스_87" data-name="패스 87" d="M19.516.82,41.19,5.3,11.261,9.141.815,4.015Z" fill="none" stroke="#000" stroke-linecap="round" stroke-linejoin="round" stroke-width="1.63"/>
      </g>
    </g>
    <path id="패스_88" data-name="패스 88" d="M40.108,66.918,41.19,5.3,11.261,9.141,9.809,80.18Z" fill="#fff"/>
    <g id="그룹_20" data-name="그룹 20">
      <g id="그룹_19" data-name="그룹 19" clip-path="url(#clip-path)">
        <path id="패스_89" data-name="패스 89" d="M40.108,66.918,41.19,5.3,11.261,9.141,9.809,80.18Z" fill="none" stroke="#000" stroke-linecap="round" stroke-linejoin="round" stroke-width="1.63"/>
      </g>
    </g>
    <path id="패스_90" data-name="패스 90" d="M.816,4.015.81,72.887l9,7.293L11.261,9.141Z" fill="#fff"/>
    <g id="그룹_22" data-name="그룹 22">
      <g id="그룹_21" data-name="그룹 21" clip-path="url(#clip-path)">
        <path id="패스_91" data-name="패스 91" d="M.816,4.015.81,72.887l9,7.293L11.261,9.141Z" fill="none" stroke="#000" stroke-linecap="round" stroke-linejoin="round" stroke-width="1.63"/>
      </g>
    </g>
    <path id="패스_92" data-name="패스 92" d="M15.11,14.553l-.089,5.535,7.262-3.31.091-4.055Z" fill="#fff"/>
    <path id="패스_93" data-name="패스 93" d="M15.11,14.553l-.089,5.535,7.262-3.31.091-4.055Z" fill="none" stroke="#000" stroke-linecap="round" stroke-linejoin="round" stroke-width="1.63"/>
    <path id="패스_94" data-name="패스 94" d="M24.907,12.221,24.8,16.585l6.9-1.175.164-5.324Z" fill="#fff"/>
    <path id="패스_95" data-name="패스 95" d="M24.907,12.221,24.8,16.585l6.9-1.175.164-5.324Z" fill="none" stroke="#000" stroke-linecap="round" stroke-linejoin="round" stroke-width="1.63"/>
    <path id="패스_96" data-name="패스 96" d="M34.909,9.95l-.146,4.372,3.6-2.338.113-3.092Z" fill="#fff"/>
    <path id="패스_97" data-name="패스 97" d="M34.909,9.95l-.146,4.372,3.6-2.338.113-3.092Z" fill="none" stroke="#000" stroke-linecap="round" stroke-linejoin="round" stroke-width="1.63"/>
    <path id="패스_98" data-name="패스 98" d="M14.977,22.843,14.889,28.3,22.1,24.746l.09-4Z" fill="#fff"/>
    <path id="패스_99" data-name="패스 99" d="M14.977,22.843,14.889,28.3,22.1,24.746l.09-4Z" fill="none" stroke="#000" stroke-linecap="round" stroke-linejoin="round" stroke-width="1.63"/>
    <path id="패스_100" data-name="패스 100" d="M24.712,20.151l-.106,4.3,6.856-1.434.161-5.253Z" fill="#fff"/>
    <path id="패스_101" data-name="패스 101" d="M24.712,20.151l-.106,4.3,6.856-1.434.161-5.253Z" fill="none" stroke="#000" stroke-linecap="round" stroke-linejoin="round" stroke-width="1.63"/>
    <path id="패스_102" data-name="패스 102" d="M34.657,17.51l-.144,4.315,3.581-2.45.111-3.052Z" fill="#fff"/>
    <path id="패스_103" data-name="패스 103" d="M34.657,17.51l-.144,4.315,3.581-2.45.111-3.052Z" fill="none" stroke="#000" stroke-linecap="round" stroke-linejoin="round" stroke-width="1.63"/>
    <path id="패스_104" data-name="패스 104" d="M14.845,31.013l-.087,5.377,7.17-3.786.088-3.943Z" fill="#fff"/>
    <path id="패스_105" data-name="패스 105" d="M14.845,31.013l-.087,5.377,7.17-3.786.088-3.943Z" fill="none" stroke="#000" stroke-linecap="round" stroke-linejoin="round" stroke-width="1.63"/>
    <path id="패스_106" data-name="패스 106" d="M24.519,27.972l-.1,4.245,6.817-1.686.159-5.184Z" fill="#fff"/>
    <path id="패스_107" data-name="패스 107" d="M24.519,27.972l-.1,4.245,6.817-1.686.159-5.184Z" fill="none" stroke="#000" stroke-linecap="round" stroke-linejoin="round" stroke-width="1.63"/>
    <path id="패스_108" data-name="패스 108" d="M34.409,24.971l-.142,4.259,3.562-2.559.11-3.013Z" fill="#fff"/>
    <path id="패스_109" data-name="패스 109" d="M34.409,24.971l-.142,4.259,3.562-2.559.11-3.013Z" fill="none" stroke="#000" stroke-linecap="round" stroke-linejoin="round" stroke-width="1.63"/>
    <path id="패스_110" data-name="패스 110" d="M14.716,39.065l-.085,5.3,7.123-4.013.087-3.888Z" fill="#fff"/>
    <path id="패스_111" data-name="패스 111" d="M14.716,39.065l-.085,5.3,7.123-4.013.087-3.888Z" fill="none" stroke="#000" stroke-linecap="round" stroke-linejoin="round" stroke-width="1.63"/>
    <path id="패스_112" data-name="패스 112" d="M24.329,35.686l-.1,4.188L31,37.941l.157-5.116Z" fill="#fff"/>
    <path id="패스_113" data-name="패스 113" d="M24.329,35.686l-.1,4.188L31,37.941l.157-5.116Z" fill="none" stroke="#000" stroke-linecap="round" stroke-linejoin="round" stroke-width="1.63"/>
    <path id="패스_114" data-name="패스 114" d="M34.163,32.335l-.14,4.2,3.543-2.664.109-2.974Z" fill="#fff"/>
    <path id="패스_115" data-name="패스 115" d="M34.163,32.335l-.14,4.2,3.543-2.664.109-2.974Z" fill="none" stroke="#000" stroke-linecap="round" stroke-linejoin="round" stroke-width="1.63"/>
    <path id="패스_116" data-name="패스 116" d="M14.588,47,14.5,52.229,21.582,48l.087-3.836Z" fill="#fff"/>
    <path id="패스_117" data-name="패스 117" d="M14.588,47,14.5,52.229,21.582,48l.087-3.836Z" fill="none" stroke="#000" stroke-linecap="round" stroke-linejoin="round" stroke-width="1.63"/>
    <path id="패스_118" data-name="패스 118" d="M24.142,43.3l-.1,4.131,6.741-2.172.155-5.048Z" fill="#fff"/>
    <path id="패스_119" data-name="패스 119" d="M24.142,43.3l-.1,4.131,6.741-2.172.155-5.048Z" fill="none" stroke="#000" stroke-linecap="round" stroke-linejoin="round" stroke-width="1.63"/>
    <path id="패스_120" data-name="패스 120" d="M33.921,39.6l-.138,4.149,3.525-2.766.107-2.937Z" fill="#fff"/>
    <path id="패스_121" data-name="패스 121" d="M33.921,39.6l-.138,4.149,3.525-2.766.107-2.937Z" fill="none" stroke="#000" stroke-linecap="round" stroke-linejoin="round" stroke-width="1.63"/>
    <path id="패스_122" data-name="패스 122" d="M14.462,54.83l-.083,5.152,7.034-4.447.085-3.783Z" fill="#fff"/>
    <path id="패스_123" data-name="패스 123" d="M14.462,54.83l-.083,5.152,7.034-4.447.085-3.783Z" fill="none" stroke="#000" stroke-linecap="round" stroke-linejoin="round" stroke-width="1.63"/>
    <path id="패스_124" data-name="패스 124" d="M23.957,50.8l-.1,4.075,6.7-2.4.152-4.983Z" fill="#fff"/>
    <path id="패스_125" data-name="패스 125" d="M23.957,50.8l-.1,4.075,6.7-2.4.152-4.983Z" fill="none" stroke="#000" stroke-linecap="round" stroke-linejoin="round" stroke-width="1.63"/>
    <path id="패스_126" data-name="패스 126" d="M33.682,46.778l-.137,4.1,3.507-2.865.106-2.9Z" fill="#fff"/>
    <path id="패스_127" data-name="패스 127" d="M33.682,46.778l-.137,4.1,3.507-2.865.106-2.9Z" fill="none" stroke="#000" stroke-linecap="round" stroke-linejoin="round" stroke-width="1.63"/>
    <path id="패스_128" data-name="패스 128" d="M14.338,62.546l-.082,5.08,6.991-4.656.083-3.733Z" fill="#fff"/>
    <path id="패스_129" data-name="패스 129" d="M14.338,62.546l-.082,5.08,6.991-4.656.083-3.733Z" fill="none" stroke="#000" stroke-linecap="round" stroke-linejoin="round" stroke-width="1.63"/>
    <path id="패스_130" data-name="패스 130" d="M23.774,58.208l-.1,4.021L30.341,59.6l.151-4.919Z" fill="#fff"/>
    <path id="패스_131" data-name="패스 131" d="M23.774,58.208l-.1,4.021L30.341,59.6l.151-4.919Z" fill="none" stroke="#000" stroke-linecap="round" stroke-linejoin="round" stroke-width="1.63"/>
    <path id="패스_132" data-name="패스 132" d="M33.446,53.862l-.134,4.044L36.8,54.944l.1-2.864Z" fill="#fff"/>
    <path id="패스_133" data-name="패스 133" d="M33.446,53.862l-.134,4.044L36.8,54.944l.1-2.864Z" fill="none" stroke="#000" stroke-linecap="round" stroke-linejoin="round" stroke-width="1.63"/>
    <path id="패스_134" data-name="패스 134" d="M14.215,70.674l-.08,4.492,6.948-4.355.083-3.3Z" fill="#3eff08"/>
    <path id="패스_135" data-name="패스 135" d="M14.215,70.674l-.08,4.492,6.948-4.355.083-3.3Z" fill="none" stroke="#000" stroke-linecap="round" stroke-linejoin="round" stroke-width="1.63"/>
    <path id="패스_136" data-name="패스 136" d="M23.594,65.515l-.1,3.968,6.629-2.851.149-4.855Z" fill="#3eff08"/>
    <path id="패스_137" data-name="패스 137" d="M23.594,65.515l-.1,3.968,6.629-2.851.149-4.855Z" fill="none" stroke="#000" stroke-linecap="round" stroke-linejoin="round" stroke-width="1.63"/>
    <path id="패스_138" data-name="패스 138" d="M33.213,60.855l-.133,3.992,3.47-3.056.1-2.828Z" fill="#3eff08"/>
    <path id="패스_139" data-name="패스 139" d="M33.213,60.855l-.133,3.992,3.47-3.056.1-2.828Z" fill="none" stroke="#000" stroke-linecap="round" stroke-linejoin="round" stroke-width="1.63"/>
  </g>
</svg>
