<svg xmlns="http://www.w3.org/2000/svg" xmlns:xlink="http://www.w3.org/1999/xlink" width="43" height="82" viewBox="0 0 43 82">
  <defs>
    <clipPath id="clip-path">
      <rect id="사각형_11" data-name="사각형 11" width="43" height="82" transform="translate(0 0)" fill="none"/>
    </clipPath>
  </defs>
  <g id="_3층" data-name="3층" transform="translate(0 0)">
    <path id="패스_138" data-name="패스 138" d="M19.98.83,42.17,5.364,11.529,9.254.835,4.065Z" fill="#fff"/>
    <g id="그룹_22" data-name="그룹 22">
      <g id="그룹_21" data-name="그룹 21" clip-path="url(#clip-path)">
        <path id="패스_139" data-name="패스 139" d="M19.98.83,42.17,5.364,11.529,9.254.835,4.065Z" fill="none" stroke="#000" stroke-linecap="round" stroke-linejoin="round" stroke-width="1.659"/>
      </g>
    </g>
    <path id="패스_140" data-name="패스 140" d="M41.063,67.744,42.171,5.365,11.529,9.254,10.043,81.17Z" fill="#fff"/>
    <g id="그룹_24" data-name="그룹 24">
      <g id="그룹_23" data-name="그룹 23" clip-path="url(#clip-path)">
        <path id="패스_141" data-name="패스 141" d="M41.063,67.744,42.171,5.365,11.529,9.254,10.043,81.17Z" fill="none" stroke="#000" stroke-linecap="round" stroke-linejoin="round" stroke-width="1.659"/>
      </g>
    </g>
    <path id="패스_142" data-name="패스 142" d="M.835,4.065.829,73.787l9.213,7.383L11.529,9.254Z" fill="#fff"/>
    <g id="그룹_26" data-name="그룹 26">
      <g id="그룹_25" data-name="그룹 25" clip-path="url(#clip-path)">
        <path id="패스_143" data-name="패스 143" d="M.835,4.065.829,73.787l9.213,7.383L11.529,9.254Z" fill="none" stroke="#000" stroke-linecap="round" stroke-linejoin="round" stroke-width="1.659"/>
      </g>
    </g>
    <path id="패스_144" data-name="패스 144" d="M15.47,14.733l-.091,5.6,7.435-3.351.093-4.1Z" fill="#fff"/>
    <path id="패스_145" data-name="패스 145" d="M15.47,14.733l-.091,5.6,7.435-3.351.093-4.1Z" fill="none" stroke="#000" stroke-linecap="round" stroke-linejoin="round" stroke-width="1.659"/>
    <path id="패스_146" data-name="패스 146" d="M25.5,12.372l-.11,4.419L32.45,15.6l.167-5.39Z" fill="#fff"/>
    <path id="패스_147" data-name="패스 147" d="M25.5,12.372l-.11,4.419L32.45,15.6l.167-5.39Z" fill="none" stroke="#000" stroke-linecap="round" stroke-linejoin="round" stroke-width="1.659"/>
    <path id="패스_148" data-name="패스 148" d="M35.74,10.073,35.591,14.5l3.685-2.367L39.392,9Z" fill="#fff"/>
    <path id="패스_149" data-name="패스 149" d="M35.74,10.073,35.591,14.5l3.685-2.367L39.392,9Z" fill="none" stroke="#000" stroke-linecap="round" stroke-linejoin="round" stroke-width="1.659"/>
    <path id="패스_150" data-name="패스 150" d="M15.333,23.125l-.09,5.522,7.387-3.6L22.722,21Z" fill="#fff"/>
    <path id="패스_151" data-name="패스 151" d="M15.333,23.125l-.09,5.522,7.387-3.6L22.722,21Z" fill="none" stroke="#000" stroke-linecap="round" stroke-linejoin="round" stroke-width="1.659"/>
    <path id="패스_152" data-name="패스 152" d="M25.3,20.4l-.109,4.357,7.019-1.452.165-5.318Z" fill="#fff"/>
    <path id="패스_153" data-name="패스 153" d="M25.3,20.4l-.109,4.357,7.019-1.452.165-5.318Z" fill="none" stroke="#000" stroke-linecap="round" stroke-linejoin="round" stroke-width="1.659"/>
    <path id="패스_154" data-name="패스 154" d="M35.482,17.726l-.148,4.368L39,19.614l.114-3.09Z" fill="#fff"/>
    <path id="패스_155" data-name="패스 155" d="M35.482,17.726l-.148,4.368L39,19.614l.114-3.09Z" fill="none" stroke="#000" stroke-linecap="round" stroke-linejoin="round" stroke-width="1.659"/>
    <path id="패스_156" data-name="패스 156" d="M15.2,31.4l-.089,5.444,7.34-3.833.09-3.992Z" fill="#fff"/>
    <path id="패스_157" data-name="패스 157" d="M15.2,31.4l-.089,5.444,7.34-3.833.09-3.992Z" fill="none" stroke="#000" stroke-linecap="round" stroke-linejoin="round" stroke-width="1.659"/>
    <path id="패스_158" data-name="패스 158" d="M25.1,28.318,25,32.615l6.98-1.707.163-5.248Z" fill="#fff"/>
    <path id="패스_159" data-name="패스 159" d="M25.1,28.318,25,32.615l6.98-1.707.163-5.248Z" fill="none" stroke="#000" stroke-linecap="round" stroke-linejoin="round" stroke-width="1.659"/>
    <path id="패스_160" data-name="패스 160" d="M35.228,25.279l-.145,4.311L38.729,27l.113-3.05Z" fill="#fff"/>
    <path id="패스_161" data-name="패스 161" d="M35.228,25.279l-.145,4.311L38.729,27l.113-3.05Z" fill="none" stroke="#000" stroke-linecap="round" stroke-linejoin="round" stroke-width="1.659"/>
    <path id="패스_162" data-name="패스 162" d="M15.066,39.548l-.087,5.365,7.293-4.063.09-3.936Z" fill="#fff"/>
    <path id="패스_163" data-name="패스 163" d="M15.066,39.548l-.087,5.365,7.293-4.063.09-3.936Z" fill="none" stroke="#000" stroke-linecap="round" stroke-linejoin="round" stroke-width="1.659"/>
    <path id="패스_164" data-name="패스 164" d="M24.908,36.127,24.8,40.366l6.94-1.956.161-5.179Z" fill="#fff"/>
    <path id="패스_165" data-name="패스 165" d="M24.908,36.127,24.8,40.366l6.94-1.956.161-5.179Z" fill="none" stroke="#000" stroke-linecap="round" stroke-linejoin="round" stroke-width="1.659"/>
    <path id="패스_166" data-name="패스 166" d="M34.977,32.734l-.143,4.255,3.627-2.7.111-3.011Z" fill="#fff"/>
    <path id="패스_167" data-name="패스 167" d="M34.977,32.734l-.143,4.255,3.627-2.7.111-3.011Z" fill="none" stroke="#000" stroke-linecap="round" stroke-linejoin="round" stroke-width="1.659"/>
    <path id="패스_168" data-name="패스 168" d="M14.935,47.584l-.086,5.29L22.1,48.588l.089-3.883Z" fill="#fff"/>
    <path id="패스_169" data-name="패스 169" d="M14.935,47.584l-.086,5.29L22.1,48.588l.089-3.883Z" fill="none" stroke="#000" stroke-linecap="round" stroke-linejoin="round" stroke-width="1.659"/>
    <path id="패스_170" data-name="패스 170" d="M24.716,43.83l-.1,4.182,6.9-2.2.158-5.111Z" fill="#fff"/>
    <path id="패스_171" data-name="패스 171" d="M24.716,43.83l-.1,4.182,6.9-2.2.158-5.111Z" fill="none" stroke="#000" stroke-linecap="round" stroke-linejoin="round" stroke-width="1.659"/>
    <path id="패스_172" data-name="패스 172" d="M34.729,40.092l-.142,4.2,3.609-2.8.109-2.973Z" fill="#fff"/>
    <path id="패스_173" data-name="패스 173" d="M34.729,40.092l-.142,4.2,3.609-2.8.109-2.973Z" fill="none" stroke="#000" stroke-linecap="round" stroke-linejoin="round" stroke-width="1.659"/>
    <path id="패스_174" data-name="패스 174" d="M14.806,55.507l-.085,5.215,7.2-4.5.087-3.83Z" fill="#3eff08"/>
    <path id="패스_175" data-name="패스 175" d="M14.806,55.507l-.085,5.215,7.2-4.5.087-3.83Z" fill="none" stroke="#000" stroke-linecap="round" stroke-linejoin="round" stroke-width="1.659"/>
    <path id="패스_176" data-name="패스 176" d="M24.527,51.429l-.1,4.126,6.863-2.434.156-5.044Z" fill="#3eff08"/>
    <path id="패스_177" data-name="패스 177" d="M24.527,51.429l-.1,4.126,6.863-2.434.156-5.044Z" fill="none" stroke="#000" stroke-linecap="round" stroke-linejoin="round" stroke-width="1.659"/>
    <path id="패스_178" data-name="패스 178" d="M34.484,47.356l-.14,4.146,3.59-2.9.109-2.935Z" fill="#3eff08"/>
    <path id="패스_179" data-name="패스 179" d="M34.484,47.356l-.14,4.146,3.59-2.9.109-2.935Z" fill="none" stroke="#000" stroke-linecap="round" stroke-linejoin="round" stroke-width="1.659"/>
    <path id="패스_180" data-name="패스 180" d="M14.679,63.319,14.6,68.462l7.158-4.713.085-3.779Z" fill="#fff"/>
    <path id="패스_181" data-name="패스 181" d="M14.679,63.319,14.6,68.462l7.158-4.713.085-3.779Z" fill="none" stroke="#000" stroke-linecap="round" stroke-linejoin="round" stroke-width="1.659"/>
    <path id="패스_182" data-name="패스 182" d="M24.34,58.926,24.239,63l6.824-2.663.154-4.98Z" fill="#fff"/>
    <path id="패스_183" data-name="패스 183" d="M24.34,58.926,24.239,63l6.824-2.663.154-4.98Z" fill="none" stroke="#000" stroke-linecap="round" stroke-linejoin="round" stroke-width="1.659"/>
    <path id="패스_184" data-name="패스 184" d="M34.242,54.527,34.1,58.621l3.571-3,.107-2.9Z" fill="#fff"/>
    <path id="패스_185" data-name="패스 185" d="M34.242,54.527,34.1,58.621l3.571-3,.107-2.9Z" fill="none" stroke="#000" stroke-linecap="round" stroke-linejoin="round" stroke-width="1.659"/>
    <path id="패스_186" data-name="패스 186" d="M14.554,71.546l-.082,4.547,7.113-4.409.085-3.342Z" fill="#fff"/>
    <path id="패스_187" data-name="패스 187" d="M14.554,71.546l-.082,4.547,7.113-4.409.085-3.342Z" fill="none" stroke="#000" stroke-linecap="round" stroke-linejoin="round" stroke-width="1.659"/>
    <path id="패스_188" data-name="패스 188" d="M24.156,66.323l-.1,4.017,6.786-2.887.153-4.915Z" fill="#fff"/>
    <path id="패스_189" data-name="패스 189" d="M24.156,66.323l-.1,4.017,6.786-2.887.153-4.915Z" fill="none" stroke="#000" stroke-linecap="round" stroke-linejoin="round" stroke-width="1.659"/>
    <path id="패스_190" data-name="패스 190" d="M34,61.606l-.136,4.042,3.553-3.094.105-2.862Z" fill="#fff"/>
    <path id="패스_191" data-name="패스 191" d="M34,61.606l-.136,4.042,3.553-3.094.105-2.862Z" fill="none" stroke="#000" stroke-linecap="round" stroke-linejoin="round" stroke-width="1.659"/>
  </g>
</svg>
