<svg xmlns="http://www.w3.org/2000/svg" xmlns:xlink="http://www.w3.org/1999/xlink" width="89" height="92.001" viewBox="0 0 89 92.001">
  <defs>
    <clipPath id="clip-path">
      <rect id="사각형_209" data-name="사각형 209" width="89" height="92.001" transform="translate(0 -0.001)" fill="none"/>
    </clipPath>
  </defs>
  <g id="그룹_179" data-name="그룹 179" transform="translate(0 0.001)">
    <g id="그룹_178" data-name="그룹 178" clip-path="url(#clip-path)">
      <path id="패스_1919" data-name="패스 1919" d="M69.946,73.081a6.624,6.624,0,0,0-5.567,5.153,6.108,6.108,0,0,0,2.088,5.841,6.542,6.542,0,0,0,7.654.229c-.47,2.792.406,5.24,2.087,6.07,2.253,1.113,5.1-1.1,5.451-1.374,4.979-3.872,6.021-14.559.7-19.353-1.912-1.722-5.956-3.863-9.161-2.062-2.69,1.512-3.171,4.893-3.247,5.5" fill="#f697b7"/>
      <path id="패스_1920" data-name="패스 1920" d="M69.946,73.081a6.624,6.624,0,0,0-5.567,5.153,6.108,6.108,0,0,0,2.088,5.841,6.542,6.542,0,0,0,7.654.229c-.47,2.792.406,5.24,2.087,6.07,2.253,1.113,5.1-1.1,5.451-1.374,4.979-3.872,6.021-14.559.7-19.353-1.912-1.722-5.956-3.863-9.161-2.062C70.5,69.1,70.022,72.476,69.946,73.081Z" fill="none" stroke="#000" stroke-linecap="round" stroke-linejoin="round" stroke-width="2.647"/>
      <path id="패스_1921" data-name="패스 1921" d="M35.445,23.025c-1.139-1.023-10-8.736-20.8-6.363-1.832.4-7.7,1.477-10.887,6.707A18.5,18.5,0,0,0,1.647,36.124c1.926,11.019,13.025,19.7,24.326,19.02a9.488,9.488,0,0,0,1.569,6.917,9.59,9.59,0,0,0,4.88,3.329C38.8,67.6,45.137,63.6,46.212,62.9c-.125,5.9,3.709,10.163,7.173,10.287,4.126.15,7.587-5.567,7.519-10.239A10.018,10.018,0,0,0,59.7,58.409a4.442,4.442,0,0,0,5.487-2.09,4.254,4.254,0,0,0-.943-4.756,5.361,5.361,0,0,0,3.57-.963c1.091-.79,2.212-2.267,2.047-3.571-.249-1.969-3.485-3.93-8.044-3.463,2.128-3.124,5.7-5,8.156-7.875,4.893-5.722,4.5-14.259,2.213-21.4-1.027-3.206-2.42-7.675-6.847-10.557A16.585,16.585,0,0,0,54.127,1.5c-8.511,1.2-15.892,9.806-18.682,21.521" fill="#f697b7"/>
      <path id="패스_1922" data-name="패스 1922" d="M35.445,23.025c-1.139-1.023-10-8.736-20.8-6.363-1.832.4-7.7,1.477-10.887,6.707A18.5,18.5,0,0,0,1.647,36.124c1.926,11.019,13.025,19.7,24.326,19.02a9.488,9.488,0,0,0,1.569,6.917,9.59,9.59,0,0,0,4.88,3.329C38.8,67.6,45.137,63.6,46.212,62.9c-.125,5.9,3.709,10.163,7.173,10.287,4.126.15,7.587-5.567,7.519-10.239A10.018,10.018,0,0,0,59.7,58.409a4.442,4.442,0,0,0,5.487-2.09,4.254,4.254,0,0,0-.943-4.756,5.361,5.361,0,0,0,3.57-.963c1.091-.79,2.212-2.267,2.047-3.571-.249-1.969-3.485-3.93-8.044-3.463,2.128-3.124,5.7-5,8.156-7.875,4.893-5.722,4.5-14.259,2.213-21.4-1.027-3.206-2.42-7.675-6.847-10.557A16.585,16.585,0,0,0,54.127,1.5C45.615,2.707,38.235,11.311,35.445,23.025Z" fill="none" stroke="#000" stroke-linecap="round" stroke-linejoin="round" stroke-width="2.647"/>
      <path id="패스_1923" data-name="패스 1923" d="M23.561,32.171,32.794,34q-3.276,2.9-6.551,5.807" fill="none" stroke="#000" stroke-linecap="round" stroke-linejoin="round" stroke-width="2.647"/>
      <path id="패스_1924" data-name="패스 1924" d="M50.507,24.344,44.6,30.468l8.129,1.916" fill="none" stroke="#000" stroke-linecap="round" stroke-linejoin="round" stroke-width="2.647"/>
      <path id="패스_1925" data-name="패스 1925" d="M33.239,44l1.065.76a1.709,1.709,0,0,0,2.541-.667,1.709,1.709,0,0,1,2.331-.8l.983.506a1.708,1.708,0,0,0,2.309-.748l.276-.554A3.9,3.9,0,0,1,47.5,40.571,3.907,3.907,0,0,0,52.041,39l.393-.609" fill="#f697b7"/>
      <path id="패스_1926" data-name="패스 1926" d="M33.239,44l1.065.76a1.709,1.709,0,0,0,2.541-.667,1.709,1.709,0,0,1,2.331-.8l.983.506a1.708,1.708,0,0,0,2.309-.748l.276-.554A3.9,3.9,0,0,1,47.5,40.571,3.907,3.907,0,0,0,52.041,39l.393-.609" fill="none" stroke="#000" stroke-linecap="round" stroke-linejoin="round" stroke-width="2.647"/>
      <path id="패스_1927" data-name="패스 1927" d="M20.822,70.3c-2.718,2.057-1.6,6.967-1.248,8.545.322,1.419.566,2.15,1.256,2.712,1.512,1.23,3.857.291,5.218-1.1a9.638,9.638,0,0,0,2.259-3.7c.409-1.238,1.12-3.993-.622-5.885a5.48,5.48,0,0,0-5.478-1.238,4.2,4.2,0,0,0-1.385.671" fill="#f697b7"/>
      <path id="패스_1928" data-name="패스 1928" d="M20.822,70.3c-2.718,2.057-1.6,6.967-1.248,8.545.322,1.419.566,2.15,1.256,2.712,1.512,1.23,3.857.291,5.218-1.1a9.638,9.638,0,0,0,2.259-3.7c.409-1.238,1.12-3.993-.622-5.885a5.48,5.48,0,0,0-5.478-1.238A4.2,4.2,0,0,0,20.822,70.3Z" fill="none" stroke="#000" stroke-linecap="round" stroke-linejoin="round" stroke-width="2.647"/>
      <path id="패스_1929" data-name="패스 1929" d="M79.688,9.911c-2.718,2.057-1.6,6.967-1.248,8.545.322,1.419.566,2.15,1.256,2.712,1.512,1.23,3.857.291,5.218-1.1a9.638,9.638,0,0,0,2.259-3.7c.409-1.238,1.12-3.993-.622-5.885a5.48,5.48,0,0,0-5.478-1.238,4.2,4.2,0,0,0-1.385.671" fill="#f697b7"/>
      <path id="패스_1930" data-name="패스 1930" d="M79.688,9.911c-2.718,2.057-1.6,6.967-1.248,8.545.322,1.419.566,2.15,1.256,2.712,1.512,1.23,3.857.291,5.218-1.1a9.638,9.638,0,0,0,2.259-3.7c.409-1.238,1.12-3.993-.622-5.885a5.48,5.48,0,0,0-5.478-1.238A4.2,4.2,0,0,0,79.688,9.911Z" fill="none" stroke="#000" stroke-linecap="round" stroke-linejoin="round" stroke-width="2.647"/>
    </g>
  </g>
</svg>
