<?xml version="1.0" encoding="UTF-8"?>
<svg id="_레이어_1" data-name="레이어_1" xmlns="http://www.w3.org/2000/svg" viewBox="0 0 579.99 135.31">
  <mask id="mask">
    <rect width="100%" height="100%" fill="black"/>
    <rect width="0" height="100%" fill="white">
      <animate attributeName="width" from="0" to="100%" dur="2s" fill="freeze" />
    </rect>
  </mask>
  <path  mask="url(#mask)" d="M74.55,13.24c36.23,10.13,58.87,31.21,71.49,47.11,13.75,17.32,18.95,32.46,19,32.6l2.94,8.77,4.38-8.16c.07-.14,7.68-14.12,24.1-27.33,21.9-17.62,48.32-25.61,78.49-23.76,37.33,2.29,64.82,19.99,81.31,34.44,18,15.78,27.22,31.24,27.31,31.39l2.2,3.74,3.55-2.49c41.62-29.22,85.22-33.86,129.6-13.8,33.36,15.08,54.73,39.22,55.03,39.56l3.01-2.63,3.01-2.63c-.91-1.04-22.57-25.61-57.51-41.47-31.79-14.44-80.63-23.81-134.32,12.08-3.88-5.72-12.63-17.45-26.4-29.56-17.46-15.36-46.61-34.17-86.31-36.6-40.31-2.47-68.09,12.64-84.28,25.75-10.46,8.46-17.51,17.1-21.58,22.84-3-6.44-8.4-16.46-17.06-27.43-13.37-16.93-37.38-39.37-75.82-50.12C42.99-3.9,17.36.21,0,6.85v8.71c17.13-7.28,41.79-11.48,74.55-2.32Z"></path>

</svg>