<?xml version="1.0" encoding="UTF-8"?>
<svg id="_레이어_1" data-name="레이어_1" xmlns="http://www.w3.org/2000/svg" viewBox="0 0 554.41 113.72">
  <mask id="mask2">
    <rect width="100%" height="100%" fill="white"/>
    <rect width="0" height="100%" fill="black">
      <animate attributeName="width" from="100%" to="0" dur="4s" begin="2s" fill="freeze" />
    </rect>
  </mask>
  <path  mask="url(#mask2)" class="path_2" d="M485.99,5.53c-38.44,10.75-62.45,33.18-75.82,50.11-8.67,10.97-14.07,20.99-17.07,27.43-4.07-5.74-11.12-14.38-21.57-22.84-16.19-13.11-43.97-28.22-84.28-25.76-39.71,2.42-68.86,21.24-86.32,36.59-13.78,12.11-22.53,23.84-26.41,29.56-53.68-35.9-102.52-26.53-134.32-12.1-16.72,7.59-30.39,17.16-40.21,25.21h13.14c8.42-6.17,18.76-12.68,30.62-18.04,44.38-20.05,87.99-15.4,129.6,13.82l3.55,2.49,2.2-3.74c.36-.61,36.91-61.44,108.63-65.82,30.18-1.84,56.59,6.16,78.49,23.77,16.42,13.21,24.03,27.19,24.1,27.33l4.36,8.17,2.97-8.78c.05-.15,5.26-15.29,19-32.61,12.62-15.9,35.27-36.98,71.5-47.1,24.35-6.81,46.58-7.08,66.27-.84V4.1c-16.87-4.81-39.71-6.59-68.42,1.43Z"/>
</svg>