<svg xmlns="http://www.w3.org/2000/svg" xmlns:xlink="http://www.w3.org/1999/xlink" width="397" height="20" viewBox="0 0 397 20">
  <defs>
    <clipPath id="clip-path">
      <rect id="사각형_431" data-name="사각형 431" width="397" height="20" transform="translate(0 0)" fill="none"/>
    </clipPath>
  </defs>
  <g id="벡터_고급_개체" data-name="벡터 고급 개체" transform="translate(0 0)">
    <g id="그룹_358" data-name="그룹 358">
      <g id="그룹_357" data-name="그룹 357" clip-path="url(#clip-path)">
        <path id="패스_2633" data-name="패스 2633" d="M26.175,18.1A5.837,5.837,0,0,1,21.422,20a5.839,5.839,0,0,1-4.754-1.9c-1.371-1.657-1.874-4.251-1.874-8.117,0-3.841.5-6.434,1.874-8.09A5.911,5.911,0,0,1,21.422,0a5.91,5.91,0,0,1,4.754,1.9c1.395,1.657,1.9,4.25,1.9,8.09,0,3.866-.5,6.46-1.9,8.117M22.77,4.659a1.521,1.521,0,0,0-2.7,0c-.388.793-.48,2.545-.48,5.329,0,2.81.092,4.563.48,5.355a1.5,1.5,0,0,0,2.7,0c.388-.793.5-2.546.5-5.355,0-2.784-.114-4.537-.5-5.329" fill="#006cde"/>
        <path id="패스_2634" data-name="패스 2634" d="M40.395,10.877l-4.137,4.971h6.4v3.817H30.292v-3.53l6.1-7.419a4.146,4.146,0,0,0,1.212-2.953c0-1.273-.411-1.921-1.394-1.921s-1.395.649-1.395,1.921V6.771h-4.8V5.835C30.018,2.69,32.166,0,36.212,0s6.194,2.69,6.194,5.835a6.917,6.917,0,0,1-2.011,5.042" fill="#006cde"/>
        <path id="패스_2635" data-name="패스 2635" d="M10.377,10.877,6.24,15.848h6.4v3.817H.274v-3.53l6.1-7.419A4.146,4.146,0,0,0,7.588,5.763c0-1.273-.411-1.921-1.394-1.921S4.8,4.49,4.8,5.763V6.771H0V5.835C0,2.69,2.148,0,6.195,0s6.194,2.69,6.194,5.835a6.917,6.917,0,0,1-2.011,5.042" fill="#006cde"/>
        <path id="패스_2636" data-name="패스 2636" d="M57.927,16.23H56.053v3.433H51.436V16.23H44.351V12.413L51.185.335h4.868V12.413h1.874Zm-6.491-3.818V6.962l-3.085,5.451Z" fill="#006cde"/>
        <path id="패스_2637" data-name="패스 2637" d="M80.215.336l3.223,12.534L85.723.336H90.66L85.974,19.665h-4.32l-3.5-13.687-3.5,13.687h-4.32L65.656.336h4.959L72.9,12.869,76.1.336Z" fill="#006cde"/>
        <path id="패스_2638" data-name="패스 2638" d="M104.9,17.671a8.146,8.146,0,0,1-11.406,0c-1.508-1.8-2.011-4.37-2.011-7.684,0-3.265.5-5.858,2.011-7.658a8.146,8.146,0,0,1,11.406,0c1.486,1.8,1.988,4.394,1.988,7.658,0,3.314-.5,5.883-1.988,7.684M101.2,5.186a2.21,2.21,0,0,0-2.011-1.031A2.172,2.172,0,0,0,97.2,5.186c-.571.864-.754,2.209-.754,4.8,0,2.641.183,3.963.754,4.851a2.173,2.173,0,0,0,1.988,1.032,2.21,2.21,0,0,0,2.011-1.032c.548-.888.731-2.209.731-4.851,0-2.592-.183-3.938-.731-4.8" fill="#006cde"/>
        <path id="패스_2639" data-name="패스 2639" d="M117.682,15.463c-.092-1.73-.64-2.282-1.989-2.282h-1.919v6.483h-4.96V.335h7.977c4,0,6.08,2.353,6.08,5.907,0,2.616-1.234,4.274-3.131,4.849,1.9.361,2.651,1.585,2.811,4.131l.16,2.616a5.1,5.1,0,0,0,.389,1.826h-4.938a5.574,5.574,0,0,1-.342-1.8Zm-1.9-6.412c1.394,0,2.125-.673,2.125-2.281,0-1.657-.731-2.3-2.125-2.3h-2.011V9.051Z" fill="#006cde"/>
        <path id="패스_2640" data-name="패스 2640" d="M124.953.336h4.96V15.558h7.153v4.107H124.953Z" fill="#006cde"/>
        <path id="패스_2641" data-name="패스 2641" d="M138.463,19.664V.335h7.177c5.873,0,7.5,3.7,7.5,9.652,0,6.051-1.645,9.677-7.5,9.677ZM145.48,4.3h-2.057V15.7h2.057c1.943,0,2.72-1.008,2.72-5.715,0-4.777-.868-5.69-2.72-5.69" fill="#006cde"/>
        <path id="패스_2642" data-name="패스 2642" d="M175.584.336l3.223,12.534L181.092.336h4.937l-4.686,19.329h-4.32l-3.5-13.687-3.5,13.687h-4.32L161.025.336h4.959l2.285,12.534,3.2-12.534Z" fill="#006cde"/>
        <path id="패스_2643" data-name="패스 2643" d="M187.4.336h11.977V4.467h-7.017V7.683h6.08v4.154h-6.08v3.721h7.153v4.107H187.4Z" fill="#006cde"/>
        <path id="패스_2644" data-name="패스 2644" d="M201.372,19.663V.335h7.36c4.113,0,6.194,1.873,6.194,5.33a3.835,3.835,0,0,1-2.584,3.914,4.39,4.39,0,0,1,3.086,4.37c0,3.841-2.308,5.714-6.514,5.714ZM208.229,4.08h-1.9V8.066h1.9c1.257,0,1.874-.552,1.874-1.992s-.617-1.994-1.874-1.994m.274,7.372h-2.171v4.466H208.5c1.349,0,1.965-.673,1.965-2.233s-.616-2.234-1.965-2.234" fill="#006cde"/>
        <path id="패스_2645" data-name="패스 2645" d="M215.911.336h14.17V4.467h-4.594v15.2h-4.96V4.467h-4.617Z" fill="#006cde"/>
        <path id="패스_2646" data-name="패스 2646" d="M244.14,17.671a8.146,8.146,0,0,1-11.406,0c-1.508-1.8-2.011-4.37-2.011-7.684,0-3.265.5-5.858,2.011-7.658a8.146,8.146,0,0,1,11.406,0c1.486,1.8,1.988,4.394,1.988,7.658,0,3.314-.5,5.883-1.988,7.684m-3.7-12.485a2.21,2.21,0,0,0-2.011-1.031,2.172,2.172,0,0,0-1.988,1.031c-.571.864-.754,2.209-.754,4.8,0,2.641.183,3.963.754,4.851a2.173,2.173,0,0,0,1.988,1.032,2.21,2.21,0,0,0,2.011-1.032c.548-.888.731-2.209.731-4.851,0-2.592-.183-3.938-.731-4.8" fill="#006cde"/>
        <path id="패스_2647" data-name="패스 2647" d="M261.148,17.671a8.146,8.146,0,0,1-11.406,0c-1.508-1.8-2.011-4.37-2.011-7.684,0-3.265.5-5.858,2.011-7.658a8.146,8.146,0,0,1,11.406,0c1.486,1.8,1.988,4.394,1.988,7.658,0,3.314-.5,5.883-1.988,7.684m-3.7-12.485a2.21,2.21,0,0,0-2.011-1.031,2.172,2.172,0,0,0-1.988,1.031c-.571.864-.754,2.209-.754,4.8,0,2.641.183,3.963.754,4.851a2.173,2.173,0,0,0,1.988,1.032,2.21,2.21,0,0,0,2.011-1.032c.548-.888.731-2.209.731-4.851,0-2.592-.183-3.938-.731-4.8" fill="#006cde"/>
        <path id="패스_2648" data-name="패스 2648" d="M269.835,9.1V19.665h-4.777V.336h4.777l4.571,10.589V.336h4.777V19.665h-4.777Z" fill="#006cde"/>
        <path id="패스_2649" data-name="패스 2649" d="M288.26.336H300.1V4.467h-6.88V7.972h6.08V12.1h-6.08v7.564h-4.96Z" fill="#006cde"/>
        <path id="패스_2650" data-name="패스 2650" d="M301.724.336H313.7V4.467h-7.017V7.683h6.08v4.154h-6.08v3.721h7.153v4.107H301.724Z" fill="#006cde"/>
        <path id="패스_2651" data-name="패스 2651" d="M322.388,20c-4.48,0-6.925-2.448-6.925-5.858v-.384H320.4v.432a1.99,1.99,0,0,0,3.976,0c0-1.13-.616-1.8-2.376-2.161l-1.395-.312c-3.154-.649-5.3-2.426-5.3-5.955C315.3,2.449,317.771,0,321.954,0c4.32,0,6.651,2.545,6.651,5.523v.335h-4.937V5.523a1.719,1.719,0,0,0-3.428,0c0,1.08.685,1.68,2.445,2.063l1.394.265c3.337.72,5.234,2.666,5.234,6.1,0,3.482-2.308,6.05-6.925,6.05" fill="#006cde"/>
        <path id="패스_2652" data-name="패스 2652" d="M329.7.336h14.17V4.467h-4.594v15.2h-4.96V4.467H329.7Z" fill="#006cde"/>
        <rect id="사각형_430" data-name="사각형 430" width="4.96" height="19.329" transform="translate(345.249 0.336)" fill="#006cde"/>
        <path id="패스_2653" data-name="패스 2653" d="M357.272,19.664,351.467.335h4.96l3.337,13.446L363.077.335h4.983l-5.806,19.329Z" fill="#006cde"/>
        <path id="패스_2654" data-name="패스 2654" d="M377.8.335,383.6,19.664h-4.983l-.753-3.1h-5.143l-.754,3.1h-4.96L372.816.335Zm-2.491,5.619-1.646,6.723h3.269Z" fill="#006cde"/>
        <path id="패스_2655" data-name="패스 2655" d="M384.887.336h4.96V15.558H397v4.107H384.887Z" fill="#006cde"/>
      </g>
    </g>
  </g>
</svg>
