<svg xmlns="http://www.w3.org/2000/svg" xmlns:xlink="http://www.w3.org/1999/xlink" width="696" height="375" viewBox="0 0 696 375">
  <defs>
    <clipPath id="clip-path">
      <rect id="Rectangle_1_복사_2" data-name="Rectangle 1 복사 2" width="696" height="375" transform="translate(1202 2626)" fill="#fff"/>
    </clipPath>
    <clipPath id="clip-path-2">
      <rect id="사각형_24" data-name="사각형 24" width="79" height="97" transform="translate(0 0)" fill="none"/>
    </clipPath>
    <clipPath id="clip-path-3">
      <rect id="사각형_25" data-name="사각형 25" width="45.006" height="59.992" transform="translate(0 0)" fill="none"/>
    </clipPath>
    <clipPath id="clip-path-4">
      <rect id="사각형_26" data-name="사각형 26" width="201.494" height="202.557" fill="none"/>
    </clipPath>
    <clipPath id="clip-path-5">
      <rect id="사각형_27" data-name="사각형 27" width="148.265" height="149.047" fill="none"/>
    </clipPath>
    <clipPath id="clip-path-6">
      <rect id="사각형_28" data-name="사각형 28" width="60" height="63" transform="translate(0 0)" fill="none"/>
    </clipPath>
    <clipPath id="clip-path-7">
      <rect id="사각형_29" data-name="사각형 29" width="274.821" height="268.946" fill="none"/>
    </clipPath>
    <clipPath id="clip-path-8">
      <rect id="사각형_30" data-name="사각형 30" width="41.999" height="44" transform="translate(0 0)" fill="none"/>
    </clipPath>
    <clipPath id="clip-path-9">
      <rect id="사각형_31" data-name="사각형 31" width="203" height="130" fill="none"/>
    </clipPath>
    <clipPath id="clip-path-10">
      <rect id="사각형_32" data-name="사각형 32" width="61" height="63" transform="matrix(0.801, -0.599, 0.599, 0.801, 1474.212, 2832.528)" fill="none"/>
    </clipPath>
    <clipPath id="clip-path-11">
      <rect id="사각형_33" data-name="사각형 33" width="62" height="128" fill="none"/>
    </clipPath>
  </defs>
  <g id="Rectangle_1_복사_2-2" data-name="Rectangle 1 복사 2" transform="translate(-1202 -2626)">
    <rect id="Rectangle_1_복사_2-3" data-name="Rectangle 1 복사 2" width="696" height="375" transform="translate(1202 2626)" fill="none"/>
    <g id="Clip" clip-path="url(#clip-path)">
      <rect id="Rectangle_1" data-name="Rectangle 1" width="738" height="226" transform="translate(1161 2814)" fill="none"/>
      <g id="Vector_Smart_Object" data-name="Vector Smart Object" transform="translate(1611 2628)">
        <g id="그룹_48" data-name="그룹 48">
          <g id="그룹_47" data-name="그룹 47" clip-path="url(#clip-path-2)">
            <path id="패스_356" data-name="패스 356" d="M18.468,94.178c2.172-3.976,4.325-9.492,2.2-14.026C16.951,72.235,3.3,73.965,1.253,66.672c-1.039-3.7,1.343-8.131,4.4-10.2,4.824-3.27,11.157-.519,11.9-.182,5.826,2.632,7.293,8.149,9.706,7.468,1.455-.41,2.373-2.827,2.017-4.7-.509-2.684-3.339-4.224-6.412-5.5-27.978-11.589-.73-40.6,8.433-13.172.7,2.749,2.823,6.691,6.2,5.417a4.606,4.606,0,0,0,1.36-1.719c2.9-6.564-14.187-15.19-12.876-26.048.465-3.855,3.235-7.883,6.565-8.5,3.172-.591,6.5,1.975,8.268,4.315,4.477,5.933,1.57,13.98,4.761,15.119a2.589,2.589,0,0,0,2.014-.182c3.43-1.852-1.385-10.735,2.872-18.626a15.522,15.522,0,0,1,4.777-5.266c3.7-2.686,11.191-5.843,15.974-2.339C77.132,6.89,73.954,17.81,73.774,18.4c-1.734,5.693-6.076,9.91-7.875,11.658-2.6,2.53-4.99,4.031-7.691,8.015-1.584,2.336-3.189,4.7-2.381,6.011,1.311,2.12,7.028-1.674,13.735.546,3.6,1.193,8.2,4.356,8.424,8.379.231,4.172-4.294,8.344-8.79,9.836-8.847,2.937-15.02-5.351-22.525-1.821-3.992,1.877-6.6,6.27-5.677,8.015C42.456,71.8,52.1,66.7,56.783,71.234c2.406,2.333,2.557,6.3,1.609,8.918-2.061,5.678-10.346,7.839-15.567,6.011-3.3-1.155-3.934-3.4-6.043-3.278C33.367,83.077,30.788,89.2,28.906,96" fill="#faff92"/>
            <path id="패스_357" data-name="패스 357" d="M18.468,94.178c2.172-3.976,4.325-9.492,2.2-14.026C16.951,72.235,3.3,73.965,1.253,66.672c-1.039-3.7,1.343-8.131,4.4-10.2,4.824-3.27,11.157-.519,11.9-.182,5.826,2.632,7.293,8.149,9.706,7.468,1.455-.41,2.373-2.827,2.017-4.7-.509-2.684-3.339-4.224-6.412-5.5-27.978-11.589-.73-40.6,8.433-13.172.7,2.749,2.823,6.691,6.2,5.417a4.606,4.606,0,0,0,1.36-1.719c2.9-6.564-14.187-15.19-12.876-26.048.465-3.855,3.235-7.883,6.565-8.5,3.172-.591,6.5,1.975,8.268,4.315,4.477,5.933,1.57,13.98,4.761,15.119a2.589,2.589,0,0,0,2.014-.182c3.43-1.852-1.385-10.735,2.872-18.626a15.522,15.522,0,0,1,4.777-5.266c3.7-2.686,11.191-5.843,15.974-2.339C77.132,6.89,73.954,17.81,73.774,18.4c-1.734,5.693-6.076,9.91-7.875,11.658-2.6,2.53-4.99,4.031-7.691,8.015-1.584,2.336-3.189,4.7-2.381,6.011,1.311,2.12,7.028-1.674,13.735.546,3.6,1.193,8.2,4.356,8.424,8.379.231,4.172-4.294,8.344-8.79,9.836-8.847,2.937-15.02-5.351-22.525-1.821-3.992,1.877-6.6,6.27-5.677,8.015C42.456,71.8,52.1,66.7,56.783,71.234c2.406,2.333,2.557,6.3,1.609,8.918-2.061,5.678-10.346,7.839-15.567,6.011-3.3-1.155-3.934-3.4-6.043-3.278C33.367,83.077,30.788,89.2,28.906,96" fill="none" stroke="#000" stroke-linecap="round" stroke-linejoin="round" stroke-width="2.007"/>
            <path id="패스_358" data-name="패스 358" d="M23.275,95.5c2.551-18.364,8.793-29.8,14.284-36.978,5.873-7.679,12.887-13.1,15.383-23.68a54.3,54.3,0,0,1,4.3-13.116,49.979,49.979,0,0,1,6.044-9.472" fill="none" stroke="#000" stroke-linecap="round" stroke-linejoin="round" stroke-width="2.007"/>
            <path id="패스_359" data-name="패스 359" d="M34.553,20.845a58.7,58.7,0,0,0,14.978,21.1" fill="none" stroke="#000" stroke-linecap="round" stroke-linejoin="round" stroke-width="2.007"/>
            <path id="패스_360" data-name="패스 360" d="M44.185,51.426a118.481,118.481,0,0,0,26.891,2.119" fill="none" stroke="#000" stroke-linecap="round" stroke-linejoin="round" stroke-width="2.007"/>
            <path id="패스_361" data-name="패스 361" d="M19.394,39.964A53.082,53.082,0,0,0,38.727,57.132" fill="none" stroke="#000" stroke-linecap="round" stroke-linejoin="round" stroke-width="2.007"/>
            <path id="패스_362" data-name="패스 362" d="M28.792,75.028a69.742,69.742,0,0,0,22.32,3.5" fill="none" stroke="#000" stroke-linecap="round" stroke-linejoin="round" stroke-width="2.007"/>
            <path id="패스_363" data-name="패스 363" d="M10.809,63.652A162.025,162.025,0,0,1,29.5,72.321" fill="none" stroke="#000" stroke-linecap="round" stroke-linejoin="round" stroke-width="2.007"/>
          </g>
        </g>
      </g>
      <g id="Vector_Smart_Object-2" data-name="Vector Smart Object" transform="matrix(0.989, 0.146, -0.144, 0.99, 1686.712, 2663.051)">
        <g id="그룹_50" data-name="그룹 50">
          <g id="그룹_49" data-name="그룹 49" clip-path="url(#clip-path-3)">
            <path id="패스_364" data-name="패스 364" d="M16.255,59.759c.671-5.045-.775-13.3-6.187-18.452-4.01-3.842-7.427-3.438-8.634-6.657a4.916,4.916,0,0,1,5.612-6.8c1.407-.776,9.908,10.274,11.08,3.908.337-4.44-10.795-8.293-10.648-14.183-.188-.8,1.165-5.414,4.241-5.372,4.063-.192,6.929,9.717,8.566,9.279C21.46,20.755,20.855,2.7,24.351,2.2c4.678-3.6,9.8,1.669,9.75,6.64,1.375,6.528-7.28,16.267-6.322,22,1.282.994,5.077-4.146,10.924-3.854a4.9,4.9,0,0,1,4.748,7.092c-2.384,5.357-12.651,3.1-14.821,8.466-1.609,6.534,3.34.508,9.208.868,9.558.407,5.176,11.007-1.582,10.854-7.226.262-9.94-3.776-10.375,5.687" fill="#6fadc9"/>
            <path id="패스_365" data-name="패스 365" d="M16.255,59.759c.671-5.045-.775-13.3-6.187-18.452-4.01-3.842-7.427-3.438-8.634-6.657a4.916,4.916,0,0,1,5.612-6.8c1.407-.776,9.908,10.274,11.08,3.908.337-4.44-10.795-8.293-10.648-14.183-.188-.8,1.165-5.414,4.241-5.372,4.063-.192,6.929,9.717,8.566,9.279C21.46,20.755,20.855,2.7,24.351,2.2c4.678-3.6,9.8,1.669,9.75,6.64,1.375,6.528-7.28,16.267-6.322,22,1.282.994,5.077-4.146,10.924-3.854a4.9,4.9,0,0,1,4.748,7.092c-2.384,5.357-12.651,3.1-14.821,8.466-1.609,6.534,3.34.508,9.208.868,9.558.407,5.176,11.007-1.582,10.854-7.226.262-9.94-3.776-10.375,5.687" fill="none" stroke="#000" stroke-miterlimit="10" stroke-width="2.014"/>
          </g>
        </g>
      </g>
      <g id="벡터_고급_개체" data-name="벡터 고급 개체" transform="matrix(0.998, 0.069, -0.069, 0.998, 1568.905, 2706.128)">
        <g id="그룹_52" data-name="그룹 52">
          <g id="그룹_51" data-name="그룹 51" clip-path="url(#clip-path-4)">
            <path id="패스_366" data-name="패스 366" d="M81.831,1.286,1.066,11.3l94.447,17L190.2,7.49,87.3,1.121a29.8,29.8,0,0,0-5.474.165" fill="#fff"/>
            <path id="패스_367" data-name="패스 367" d="M81.831,1.286,1.066,11.3l94.447,17L190.2,7.49,87.3,1.121A29.8,29.8,0,0,0,81.831,1.286Z" fill="none" stroke="#000" stroke-linecap="round" stroke-linejoin="round" stroke-width="2.129"/>
            <path id="패스_368" data-name="패스 368" d="M95.513,28.3l7.429,173.191,97.486-20.62L190.2,7.489Z" fill="#fff"/>
            <path id="패스_369" data-name="패스 369" d="M95.513,28.3l7.429,173.191,97.486-20.62L190.2,7.489Z" fill="none" stroke="#000" stroke-linecap="round" stroke-linejoin="round" stroke-width="2.129"/>
            <path id="패스_370" data-name="패스 370" d="M1.066,11.3,20.723,178.132l82.218,23.361L95.513,28.3Z" fill="#fff"/>
            <path id="패스_371" data-name="패스 371" d="M1.066,11.3,20.723,178.132l82.218,23.361L95.513,28.3Z" fill="none" stroke="#000" stroke-linecap="round" stroke-linejoin="round" stroke-width="2.129"/>
            <path id="패스_372" data-name="패스 372" d="M105.728,31.053l.541,13.729,21.764-7.991-.458-10.278Z" fill="#fff"/>
            <path id="패스_373" data-name="패스 373" d="M105.728,31.053l.541,13.729,21.764-7.991-.458-10.278Z" fill="none" stroke="#000" stroke-linecap="round" stroke-linejoin="round" stroke-width="2.129"/>
            <path id="패스_374" data-name="패스 374" d="M135.5,25.219l.518,11.165,22.565-2.868-.72-13.949Z" fill="#fff"/>
            <path id="패스_375" data-name="패스 375" d="M135.5,25.219l.518,11.165,22.565-2.868-.72-13.949Z" fill="none" stroke="#000" stroke-linecap="round" stroke-linejoin="round" stroke-width="2.129"/>
            <path id="패스_376" data-name="패스 376" d="M168.249,19.1l.625,11.581,12.08-6.271-.471-8.273Z" fill="#fff"/>
            <path id="패스_377" data-name="패스 377" d="M168.249,19.1l.625,11.581,12.08-6.271-.471-8.273Z" fill="none" stroke="#000" stroke-linecap="round" stroke-linejoin="round" stroke-width="2.129"/>
            <path id="패스_378" data-name="패스 378" d="M106.542,51.7l.547,13.861,21.86-8.211-.461-10.376Z" fill="#fff"/>
            <path id="패스_379" data-name="패스 379" d="M106.542,51.7l.547,13.861,21.86-8.211-.461-10.376Z" fill="none" stroke="#000" stroke-linecap="round" stroke-linejoin="round" stroke-width="2.129"/>
            <path id="패스_380" data-name="패스 380" d="M136.444,45.613l.522,11.272,22.664-3.044L158.9,39.762Z" fill="#fff"/>
            <path id="패스_381" data-name="패스 381" d="M136.444,45.613l.522,11.272,22.664-3.044L158.9,39.762Z" fill="none" stroke="#000" stroke-linecap="round" stroke-linejoin="round" stroke-width="2.129"/>
            <path id="패스_382" data-name="패스 382" d="M169.336,39.218l.632,11.69L182.1,44.5l-.475-8.35Z" fill="#fff"/>
            <path id="패스_383" data-name="패스 383" d="M169.336,39.218l.632,11.69L182.1,44.5l-.475-8.35Z" fill="none" stroke="#000" stroke-linecap="round" stroke-linejoin="round" stroke-width="2.129"/>
            <path id="패스_384" data-name="패스 384" d="M107.363,72.542l.551,14L129.872,78.1l-.466-10.476Z" fill="#fff"/>
            <path id="패스_385" data-name="패스 385" d="M107.363,72.542l.551,14L129.872,78.1l-.466-10.476Z" fill="none" stroke="#000" stroke-linecap="round" stroke-linejoin="round" stroke-width="2.129"/>
            <path id="패스_386" data-name="패스 386" d="M137.4,66.2l.527,11.379,22.763-3.221-.733-14.213Z" fill="#fff"/>
            <path id="패스_387" data-name="패스 387" d="M137.4,66.2l.527,11.379,22.763-3.221-.733-14.213Z" fill="none" stroke="#000" stroke-linecap="round" stroke-linejoin="round" stroke-width="2.129"/>
            <path id="패스_388" data-name="패스 388" d="M170.434,59.529l.638,11.8,12.18-6.551-.479-8.429Z" fill="#fff"/>
            <path id="패스_389" data-name="패스 389" d="M170.434,59.529l.638,11.8,12.18-6.551-.479-8.429Z" fill="none" stroke="#000" stroke-linecap="round" stroke-linejoin="round" stroke-width="2.129"/>
            <path id="패스_390" data-name="패스 390" d="M108.192,93.587l.557,14.132L130.8,99.055l-.47-10.577Z" fill="#fff"/>
            <path id="패스_391" data-name="패스 391" d="M108.192,93.587l.557,14.132L130.8,99.055l-.47-10.577Z" fill="none" stroke="#000" stroke-linecap="round" stroke-linejoin="round" stroke-width="2.129"/>
            <path id="패스_392" data-name="패스 392" d="M138.362,86.987l.533,11.488,22.865-3.4-.742-14.349Z" fill="#fff"/>
            <path id="패스_393" data-name="패스 393" d="M138.362,86.987l.533,11.488,22.865-3.4-.742-14.349Z" fill="none" stroke="#000" stroke-linecap="round" stroke-linejoin="round" stroke-width="2.129"/>
            <path id="패스_394" data-name="패스 394" d="M171.542,80.032l.644,11.912,12.232-6.7-.484-8.508Z" fill="#fff"/>
            <path id="패스_395" data-name="패스 395" d="M171.542,80.032l.644,11.912,12.232-6.7-.484-8.508Z" fill="none" stroke="#000" stroke-linecap="round" stroke-linejoin="round" stroke-width="2.129"/>
            <path id="패스_396" data-name="패스 396" d="M109.029,114.837l.563,14.269,22.154-8.9-.475-10.679Z" fill="#fff"/>
            <path id="패스_397" data-name="패스 397" d="M109.029,114.837l.563,14.269,22.154-8.9-.475-10.679Z" fill="none" stroke="#000" stroke-linecap="round" stroke-linejoin="round" stroke-width="2.129"/>
            <path id="패스_398" data-name="패스 398" d="M139.335,107.972l.538,11.6,22.966-3.587-.748-14.485Z" fill="#fff"/>
            <path id="패스_399" data-name="패스 399" d="M139.335,107.972l.538,11.6,22.966-3.587-.748-14.485Z" fill="none" stroke="#000" stroke-linecap="round" stroke-linejoin="round" stroke-width="2.129"/>
            <path id="패스_400" data-name="패스 400" d="M172.66,100.73l.65,12.026,12.283-6.843-.489-8.589Z" fill="#fff"/>
            <path id="패스_401" data-name="패스 401" d="M172.66,100.73l.65,12.026,12.283-6.843-.489-8.589Z" fill="none" stroke="#000" stroke-linecap="round" stroke-linejoin="round" stroke-width="2.129"/>
            <path id="패스_402" data-name="패스 402" d="M109.875,136.294l.568,14.409L132.7,141.57l-.479-10.782Z" fill="#fff"/>
            <path id="패스_403" data-name="패스 403" d="M109.875,136.294l.568,14.409L132.7,141.57l-.479-10.782Z" fill="none" stroke="#000" stroke-linecap="round" stroke-linejoin="round" stroke-width="2.129"/>
            <path id="패스_404" data-name="패스 404" d="M140.317,129.16l.543,11.711,23.067-3.776-.754-14.625Z" fill="#fff"/>
            <path id="패스_405" data-name="패스 405" d="M140.317,129.16l.543,11.711,23.067-3.776-.754-14.625Z" fill="none" stroke="#000" stroke-linecap="round" stroke-linejoin="round" stroke-width="2.129"/>
            <path id="패스_406" data-name="패스 406" d="M173.79,121.625l.656,12.141,12.335-6.992-.493-8.671Z" fill="#fff"/>
            <path id="패스_407" data-name="패스 407" d="M173.79,121.625l.656,12.141,12.335-6.992-.493-8.671Z" fill="none" stroke="#000" stroke-linecap="round" stroke-linejoin="round" stroke-width="2.129"/>
            <path id="패스_408" data-name="패스 408" d="M110.728,157.962l.573,14.551,22.355-9.375-.485-10.887Z" fill="#fff"/>
            <path id="패스_409" data-name="패스 409" d="M110.728,157.962l.573,14.551,22.355-9.375-.485-10.887Z" fill="none" stroke="#000" stroke-linecap="round" stroke-linejoin="round" stroke-width="2.129"/>
            <path id="패스_410" data-name="패스 410" d="M141.309,150.553l.549,11.825,23.171-3.967-.762-14.766Z" fill="#fff"/>
            <path id="패스_411" data-name="패스 411" d="M141.309,150.553l.549,11.825,23.171-3.967-.762-14.766Z" fill="none" stroke="#000" stroke-linecap="round" stroke-linejoin="round" stroke-width="2.129"/>
            <path id="패스_412" data-name="패스 412" d="M174.93,142.72l.663,12.258,12.388-7.144-.5-8.754Z" fill="#fff"/>
            <path id="패스_413" data-name="패스 413" d="M174.93,142.72l.663,12.258,12.388-7.144-.5-8.754Z" fill="none" stroke="#000" stroke-linecap="round" stroke-linejoin="round" stroke-width="2.129"/>
            <path id="패스_414" data-name="패스 414" d="M111.59,179.843l.579,14.694,22.458-9.62-.489-10.994Z" fill="#fff"/>
            <path id="패스_415" data-name="패스 415" d="M111.59,179.843l.579,14.694,22.458-9.62-.489-10.994Z" fill="none" stroke="#000" stroke-linecap="round" stroke-linejoin="round" stroke-width="2.129"/>
            <path id="패스_416" data-name="패스 416" d="M142.311,172.154l.554,11.941,23.275-4.163-.769-14.909Z" fill="#fff"/>
            <path id="패스_417" data-name="패스 417" d="M142.311,172.154l.554,11.941,23.275-4.163-.769-14.909Z" fill="none" stroke="#000" stroke-linecap="round" stroke-linejoin="round" stroke-width="2.129"/>
            <path id="패스_418" data-name="패스 418" d="M176.081,164.019l.669,12.376,12.441-7.3-.5-8.838Z" fill="#fff"/>
            <path id="패스_419" data-name="패스 419" d="M176.081,164.019l.669,12.376,12.441-7.3-.5-8.838Z" fill="none" stroke="#000" stroke-linecap="round" stroke-linejoin="round" stroke-width="2.129"/>
            <path id="패스_420" data-name="패스 420" d="M12.04,22.041l4.387,14.8,27.166,7.222L42.126,27.725Z" fill="#fff"/>
            <path id="패스_421" data-name="패스 421" d="M12.04,22.041l4.387,14.8,27.166,7.222L42.126,27.725Z" fill="none" stroke="#000" stroke-linecap="round" stroke-linejoin="round" stroke-width="2.129"/>
            <path id="패스_422" data-name="패스 422" d="M51.328,30.053l1.092,14.2,33.291,6.963-.474-16.754Z" fill="#fff"/>
            <path id="패스_423" data-name="패스 423" d="M51.328,30.053l1.092,14.2,33.291,6.963-.474-16.754Z" fill="none" stroke="#000" stroke-linecap="round" stroke-linejoin="round" stroke-width="2.129"/>
            <path id="패스_424" data-name="패스 424" d="M15.281,46.6l4.178,13.852,26.268,7.353L44.36,52.6Z" fill="#fff"/>
            <path id="패스_425" data-name="패스 425" d="M15.281,46.6l4.178,13.852,26.268,7.353L44.36,52.6Z" fill="none" stroke="#000" stroke-linecap="round" stroke-linejoin="round" stroke-width="2.129"/>
            <path id="패스_426" data-name="패스 426" d="M53.245,54.983l1.016,13.211L86.4,75.438l-.44-15.557Z" fill="#fff"/>
            <path id="패스_427" data-name="패스 427" d="M53.245,54.983l1.016,13.211L86.4,75.438l-.44-15.557Z" fill="none" stroke="#000" stroke-linecap="round" stroke-linejoin="round" stroke-width="2.129"/>
            <path id="패스_428" data-name="패스 428" d="M18.3,69.507,22.289,82.5l25.427,7.451L46.442,75.767Z" fill="#fff"/>
            <path id="패스_429" data-name="패스 429" d="M18.3,69.507,22.289,82.5l25.427,7.451L46.442,75.767Z" fill="none" stroke="#000" stroke-linecap="round" stroke-linejoin="round" stroke-width="2.129"/>
            <path id="패스_430" data-name="패스 430" d="M55.03,78.186l.947,12.321,31.057,7.47-.41-14.485Z" fill="#fff"/>
            <path id="패스_431" data-name="패스 431" d="M55.03,78.186l.947,12.321,31.057,7.47-.41-14.485Z" fill="none" stroke="#000" stroke-linecap="round" stroke-linejoin="round" stroke-width="2.129"/>
            <path id="패스_432" data-name="패스 432" d="M21.126,90.915l3.811,12.219,24.639,7.521L48.385,97.388Z" fill="#fff"/>
            <path id="패스_433" data-name="패스 433" d="M21.126,90.915l3.811,12.219,24.639,7.521L48.385,97.388Z" fill="none" stroke="#000" stroke-linecap="round" stroke-linejoin="round" stroke-width="2.129"/>
            <path id="패스_434" data-name="패스 434" d="M56.695,99.836l.885,11.517L87.628,119l-.381-13.518Z" fill="#fff"/>
            <path id="패스_435" data-name="패스 435" d="M56.695,99.836l.885,11.517L87.628,119l-.381-13.518Z" fill="none" stroke="#000" stroke-linecap="round" stroke-linejoin="round" stroke-width="2.129"/>
            <path id="패스_436" data-name="패스 436" d="M23.771,110.969l3.649,11.512,23.9,7.568L50.2,117.615Z" fill="#fff"/>
            <path id="패스_437" data-name="패스 437" d="M23.771,110.969l3.649,11.512,23.9,7.568L50.2,117.615Z" fill="none" stroke="#000" stroke-linecap="round" stroke-linejoin="round" stroke-width="2.129"/>
            <path id="패스_438" data-name="패스 438" d="M58.252,120.084l.83,10.79,29.1,7.793-.358-12.646Z" fill="#fff"/>
            <path id="패스_439" data-name="패스 439" d="M58.252,120.084l.83,10.79,29.1,7.793-.358-12.646Z" fill="none" stroke="#000" stroke-linecap="round" stroke-linejoin="round" stroke-width="2.129"/>
            <path id="패스_440" data-name="패스 440" d="M26.254,129.793l3.5,10.868,23.2,7.6-1.05-11.677Z" fill="#fff"/>
            <path id="패스_441" data-name="패스 441" d="M26.254,129.793l3.5,10.868,23.2,7.6-1.05-11.677Z" fill="none" stroke="#000" stroke-linecap="round" stroke-linejoin="round" stroke-width="2.129"/>
            <path id="패스_442" data-name="패스 442" d="M59.711,139.061l.779,10.129,28.217,7.9-.336-11.856Z" fill="#fff"/>
            <path id="패스_443" data-name="패스 443" d="M59.711,139.061l.779,10.129,28.217,7.9-.336-11.856Z" fill="none" stroke="#000" stroke-linecap="round" stroke-linejoin="round" stroke-width="2.129"/>
            <path id="패스_444" data-name="패스 444" d="M28.59,147.5l3.363,10.279,22.541,7.606L53.506,154.4Z" fill="#fff"/>
            <path id="패스_445" data-name="패스 445" d="M28.59,147.5l3.363,10.279,22.541,7.606L53.506,154.4Z" fill="none" stroke="#000" stroke-linecap="round" stroke-linejoin="round" stroke-width="2.129"/>
            <path id="패스_446" data-name="패스 446" d="M61.082,156.884l.733,9.527L89.2,174.4l-.315-11.138Z" fill="#fff"/>
            <path id="패스_447" data-name="패스 447" d="M61.082,156.884l.733,9.527L89.2,174.4l-.315-11.138Z" fill="none" stroke="#000" stroke-linecap="round" stroke-linejoin="round" stroke-width="2.129"/>
            <path id="패스_448" data-name="패스 448" d="M30.79,164.179l3.234,9.739,21.919,7.6-.93-10.357Z" fill="#fff"/>
            <path id="패스_449" data-name="패스 449" d="M30.79,164.179l3.234,9.739,21.919,7.6-.93-10.357Z" fill="none" stroke="#000" stroke-linecap="round" stroke-linejoin="round" stroke-width="2.129"/>
            <path id="패스_450" data-name="패스 450" d="M62.371,173.654l.69,8.977,26.6,8.046-.3-10.482Z" fill="#fff"/>
            <path id="패스_451" data-name="패스 451" d="M62.371,173.654l.69,8.977,26.6,8.046-.3-10.482Z" fill="none" stroke="#000" stroke-linecap="round" stroke-linejoin="round" stroke-width="2.129"/>
          </g>
        </g>
      </g>
      <g id="벡터_고급_개체_copy" data-name="벡터 고급 개체 copy" transform="matrix(0.998, 0.069, -0.069, 0.998, 1770.323, 2700.808)">
        <g id="그룹_54" data-name="그룹 54">
          <g id="그룹_53" data-name="그룹 53" clip-path="url(#clip-path-5)">
            <path id="패스_452" data-name="패스 452" d="M60.214.946.784,8.316l69.5,12.511L139.956,5.511,64.241.825a21.93,21.93,0,0,0-4.028.121" fill="#fff"/>
            <path id="패스_453" data-name="패스 453" d="M60.214.946.784,8.316l69.5,12.511L139.956,5.511,64.241.825A21.93,21.93,0,0,0,60.214.946Z" fill="none" stroke="#000" stroke-linecap="round" stroke-linejoin="round" stroke-width="1.567"/>
            <path id="패스_454" data-name="패스 454" d="M70.281,20.826l5.466,127.439,71.733-15.173L139.956,5.511Z" fill="#fff"/>
            <path id="패스_455" data-name="패스 455" d="M70.281,20.826l5.466,127.439,71.733-15.173L139.956,5.511Z" fill="none" stroke="#000" stroke-linecap="round" stroke-linejoin="round" stroke-width="1.567"/>
            <path id="패스_456" data-name="패스 456" d="M.784,8.316,15.249,131.075l60.5,17.19L70.281,20.826Z" fill="#fff"/>
            <path id="패스_457" data-name="패스 457" d="M.784,8.316,15.249,131.075l60.5,17.19L70.281,20.826Z" fill="none" stroke="#000" stroke-linecap="round" stroke-linejoin="round" stroke-width="1.567"/>
            <path id="패스_458" data-name="패스 458" d="M77.8,22.849l.4,10.1,16.015-5.88-.337-7.563Z" fill="#fff"/>
            <path id="패스_459" data-name="패스 459" d="M77.8,22.849l.4,10.1,16.015-5.88-.337-7.563Z" fill="none" stroke="#000" stroke-linecap="round" stroke-linejoin="round" stroke-width="1.567"/>
            <path id="패스_460" data-name="패스 460" d="M99.7,18.556l.381,8.216,16.6-2.111-.53-10.264Z" fill="#fff"/>
            <path id="패스_461" data-name="패스 461" d="M99.7,18.556l.381,8.216,16.6-2.111-.53-10.264Z" fill="none" stroke="#000" stroke-linecap="round" stroke-linejoin="round" stroke-width="1.567"/>
            <path id="패스_462" data-name="패스 462" d="M123.8,14.051l.46,8.522,8.889-4.614-.347-6.087Z" fill="#fff"/>
            <path id="패스_463" data-name="패스 463" d="M123.8,14.051l.46,8.522,8.889-4.614-.347-6.087Z" fill="none" stroke="#000" stroke-linecap="round" stroke-linejoin="round" stroke-width="1.567"/>
            <path id="패스_464" data-name="패스 464" d="M78.4,38.041l.4,10.2L94.884,42.2l-.339-7.635Z" fill="#fff"/>
            <path id="패스_465" data-name="패스 465" d="M78.4,38.041l.4,10.2L94.884,42.2l-.339-7.635Z" fill="none" stroke="#000" stroke-linecap="round" stroke-linejoin="round" stroke-width="1.567"/>
            <path id="패스_466" data-name="패스 466" d="M100.4,33.563l.384,8.294,16.677-2.24-.535-10.36Z" fill="#fff"/>
            <path id="패스_467" data-name="패스 467" d="M100.4,33.563l.384,8.294,16.677-2.24-.535-10.36Z" fill="none" stroke="#000" stroke-linecap="round" stroke-linejoin="round" stroke-width="1.567"/>
            <path id="패스_468" data-name="패스 468" d="M124.6,28.858l.465,8.6,8.925-4.716-.35-6.144Z" fill="#fff"/>
            <path id="패스_469" data-name="패스 469" d="M124.6,28.858l.465,8.6,8.925-4.716-.35-6.144Z" fill="none" stroke="#000" stroke-linecap="round" stroke-linejoin="round" stroke-width="1.567"/>
            <path id="패스_470" data-name="패스 470" d="M79,53.378l.405,10.3,16.157-6.207-.343-7.709Z" fill="#fff"/>
            <path id="패스_471" data-name="패스 471" d="M79,53.378l.405,10.3,16.157-6.207-.343-7.709Z" fill="none" stroke="#000" stroke-linecap="round" stroke-linejoin="round" stroke-width="1.567"/>
            <path id="패스_472" data-name="패스 472" d="M101.1,48.713l.388,8.373,16.75-2.37L117.7,44.257Z" fill="#fff"/>
            <path id="패스_473" data-name="패스 473" d="M101.1,48.713l.388,8.373,16.75-2.37L117.7,44.257Z" fill="none" stroke="#000" stroke-linecap="round" stroke-linejoin="round" stroke-width="1.567"/>
            <path id="패스_474" data-name="패스 474" d="M125.41,43.8l.47,8.683,8.962-4.821-.353-6.2Z" fill="#fff"/>
            <path id="패스_475" data-name="패스 475" d="M125.41,43.8l.47,8.683,8.962-4.821-.353-6.2Z" fill="none" stroke="#000" stroke-linecap="round" stroke-linejoin="round" stroke-width="1.567"/>
            <path id="패스_476" data-name="패스 476" d="M79.611,68.864l.41,10.4,16.229-6.375L95.9,65.1Z" fill="#fff"/>
            <path id="패스_477" data-name="패스 477" d="M79.611,68.864l.41,10.4,16.229-6.375L95.9,65.1Z" fill="none" stroke="#000" stroke-linecap="round" stroke-linejoin="round" stroke-width="1.567"/>
            <path id="패스_478" data-name="패스 478" d="M101.811,64.007l.392,8.453,16.825-2.5L118.482,59.4Z" fill="#fff"/>
            <path id="패스_479" data-name="패스 479" d="M101.811,64.007l.392,8.453,16.825-2.5L118.482,59.4Z" fill="none" stroke="#000" stroke-linecap="round" stroke-linejoin="round" stroke-width="1.567"/>
            <path id="패스_480" data-name="패스 480" d="M126.225,58.89l.474,8.765,9-4.927-.356-6.26Z" fill="#fff"/>
            <path id="패스_481" data-name="패스 481" d="M126.225,58.89l.474,8.765,9-4.927-.356-6.26Z" fill="none" stroke="#000" stroke-linecap="round" stroke-linejoin="round" stroke-width="1.567"/>
            <path id="패스_482" data-name="패스 482" d="M80.227,84.5,80.641,95l16.3-6.546-.35-7.858Z" fill="#fff"/>
            <path id="패스_483" data-name="패스 483" d="M80.227,84.5,80.641,95l16.3-6.546-.35-7.858Z" fill="none" stroke="#000" stroke-linecap="round" stroke-linejoin="round" stroke-width="1.567"/>
            <path id="패스_484" data-name="패스 484" d="M102.527,79.449l.4,8.534,16.9-2.64-.55-10.658Z" fill="#fff"/>
            <path id="패스_485" data-name="패스 485" d="M102.527,79.449l.4,8.534,16.9-2.64-.55-10.658Z" fill="none" stroke="#000" stroke-linecap="round" stroke-linejoin="round" stroke-width="1.567"/>
            <path id="패스_486" data-name="패스 486" d="M127.048,74.12l.478,8.849,9.038-5.035-.36-6.32Z" fill="#fff"/>
            <path id="패스_487" data-name="패스 487" d="M127.048,74.12l.478,8.849,9.038-5.035-.36-6.32Z" fill="none" stroke="#000" stroke-linecap="round" stroke-linejoin="round" stroke-width="1.567"/>
            <path id="패스_488" data-name="패스 488" d="M80.849,100.289l.418,10.6,16.375-6.721-.353-7.934Z" fill="#fff"/>
            <path id="패스_489" data-name="패스 489" d="M80.849,100.289l.418,10.6,16.375-6.721-.353-7.934Z" fill="none" stroke="#000" stroke-linecap="round" stroke-linejoin="round" stroke-width="1.567"/>
            <path id="패스_490" data-name="패스 490" d="M103.249,95.039l.4,8.617,16.973-2.778-.555-10.762Z" fill="#fff"/>
            <path id="패스_491" data-name="패스 491" d="M103.249,95.039l.4,8.617,16.973-2.778-.555-10.762Z" fill="none" stroke="#000" stroke-linecap="round" stroke-linejoin="round" stroke-width="1.567"/>
            <path id="패스_492" data-name="패스 492" d="M127.879,89.5l.483,8.934,9.077-5.145-.363-6.38Z" fill="#fff"/>
            <path id="패스_493" data-name="패스 493" d="M127.879,89.5l.483,8.934,9.077-5.145-.363-6.38Z" fill="none" stroke="#000" stroke-linecap="round" stroke-linejoin="round" stroke-width="1.567"/>
            <path id="패스_494" data-name="패스 494" d="M81.477,116.233,81.9,126.94l16.45-6.9-.357-8.011Z" fill="#fff"/>
            <path id="패스_495" data-name="패스 495" d="M81.477,116.233,81.9,126.94l16.45-6.9-.357-8.011Z" fill="none" stroke="#000" stroke-linecap="round" stroke-linejoin="round" stroke-width="1.567"/>
            <path id="패스_496" data-name="패스 496" d="M103.979,110.781l.4,8.7,17.05-2.919-.561-10.865Z" fill="#fff"/>
            <path id="패스_497" data-name="패스 497" d="M103.979,110.781l.4,8.7,17.05-2.919-.561-10.865Z" fill="none" stroke="#000" stroke-linecap="round" stroke-linejoin="round" stroke-width="1.567"/>
            <path id="패스_498" data-name="패스 498" d="M128.718,105.018l.488,9.02,9.115-5.257-.366-6.441Z" fill="#fff"/>
            <path id="패스_499" data-name="패스 499" d="M128.718,105.018l.488,9.02,9.115-5.257-.366-6.441Z" fill="none" stroke="#000" stroke-linecap="round" stroke-linejoin="round" stroke-width="1.567"/>
            <path id="패스_500" data-name="패스 500" d="M82.111,132.334l.426,10.813,16.525-7.078-.36-8.09Z" fill="#fff"/>
            <path id="패스_501" data-name="패스 501" d="M82.111,132.334l.426,10.813,16.525-7.078-.36-8.09Z" fill="none" stroke="#000" stroke-linecap="round" stroke-linejoin="round" stroke-width="1.567"/>
            <path id="패스_502" data-name="패스 502" d="M104.716,126.676l.408,8.787L122.25,132.4l-.566-10.971Z" fill="#fff"/>
            <path id="패스_503" data-name="패스 503" d="M104.716,126.676l.408,8.787L122.25,132.4l-.566-10.971Z" fill="none" stroke="#000" stroke-linecap="round" stroke-linejoin="round" stroke-width="1.567"/>
            <path id="패스_504" data-name="패스 504" d="M129.565,120.69l.492,9.107,9.154-5.37-.37-6.5Z" fill="#fff"/>
            <path id="패스_505" data-name="패스 505" d="M129.565,120.69l.492,9.107,9.154-5.37-.37-6.5Z" fill="none" stroke="#000" stroke-linecap="round" stroke-linejoin="round" stroke-width="1.567"/>
            <path id="패스_506" data-name="패스 506" d="M8.86,16.218l3.228,10.89,19.99,5.314L31,20.4Z" fill="#fff"/>
            <path id="패스_507" data-name="패스 507" d="M8.86,16.218l3.228,10.89,19.99,5.314L31,20.4Z" fill="none" stroke="#000" stroke-linecap="round" stroke-linejoin="round" stroke-width="1.567"/>
            <path id="패스_508" data-name="패스 508" d="M37.769,22.114l.8,10.45,24.5,5.124L62.72,25.36Z" fill="#fff"/>
            <path id="패스_509" data-name="패스 509" d="M37.769,22.114l.8,10.45,24.5,5.124L62.72,25.36Z" fill="none" stroke="#000" stroke-linecap="round" stroke-linejoin="round" stroke-width="1.567"/>
            <path id="패스_510" data-name="패스 510" d="M11.244,34.292l3.074,10.193,19.329,5.41L32.642,38.707Z" fill="#fff"/>
            <path id="패스_511" data-name="패스 511" d="M11.244,34.292l3.074,10.193,19.329,5.41L32.642,38.707Z" fill="none" stroke="#000" stroke-linecap="round" stroke-linejoin="round" stroke-width="1.567"/>
            <path id="패스_512" data-name="패스 512" d="M39.179,40.458l.748,9.721,23.646,5.33-.324-11.447Z" fill="#fff"/>
            <path id="패스_513" data-name="패스 513" d="M39.179,40.458l.748,9.721,23.646,5.33-.324-11.447Z" fill="none" stroke="#000" stroke-linecap="round" stroke-linejoin="round" stroke-width="1.567"/>
            <path id="패스_514" data-name="패스 514" d="M13.467,51.145,16.4,60.707l18.71,5.483-.938-10.438Z" fill="#fff"/>
            <path id="패스_515" data-name="패스 515" d="M13.467,51.145,16.4,60.707l18.71,5.483-.938-10.438Z" fill="none" stroke="#000" stroke-linecap="round" stroke-linejoin="round" stroke-width="1.567"/>
            <path id="패스_516" data-name="패스 516" d="M40.492,57.532l.7,9.066,22.853,5.5-.3-10.658Z" fill="#fff"/>
            <path id="패스_517" data-name="패스 517" d="M40.492,57.532l.7,9.066,22.853,5.5-.3-10.658Z" fill="none" stroke="#000" stroke-linecap="round" stroke-linejoin="round" stroke-width="1.567"/>
            <path id="패스_518" data-name="패스 518" d="M15.545,66.9l2.8,8.991,18.13,5.534L35.6,71.661Z" fill="#fff"/>
            <path id="패스_519" data-name="패스 519" d="M15.545,66.9l2.8,8.991,18.13,5.534L35.6,71.661Z" fill="none" stroke="#000" stroke-linecap="round" stroke-linejoin="round" stroke-width="1.567"/>
            <path id="패스_520" data-name="패스 520" d="M41.717,73.462l.652,8.474,22.11,5.629L64.2,77.619Z" fill="#fff"/>
            <path id="패스_521" data-name="패스 521" d="M41.717,73.462l.652,8.474,22.11,5.629L64.2,77.619Z" fill="none" stroke="#000" stroke-linecap="round" stroke-linejoin="round" stroke-width="1.567"/>
            <path id="패스_522" data-name="패스 522" d="M17.492,81.654l2.685,8.471,17.585,5.569-.822-9.15Z" fill="#fff"/>
            <path id="패스_523" data-name="패스 523" d="M17.492,81.654l2.685,8.471,17.585,5.569-.822-9.15Z" fill="none" stroke="#000" stroke-linecap="round" stroke-linejoin="round" stroke-width="1.567"/>
            <path id="패스_524" data-name="패스 524" d="M42.863,88.361l.611,7.94,21.415,5.734-.263-9.306Z" fill="#fff"/>
            <path id="패스_525" data-name="패스 525" d="M42.863,88.361l.611,7.94,21.415,5.734-.263-9.306Z" fill="none" stroke="#000" stroke-linecap="round" stroke-linejoin="round" stroke-width="1.567"/>
            <path id="패스_526" data-name="패스 526" d="M19.319,95.506l2.576,8,17.071,5.589-.772-8.592Z" fill="#fff"/>
            <path id="패스_527" data-name="패스 527" d="M19.319,95.506l2.576,8,17.071,5.589-.772-8.592Z" fill="none" stroke="#000" stroke-linecap="round" stroke-linejoin="round" stroke-width="1.567"/>
            <path id="패스_528" data-name="패스 528" d="M43.937,102.325l.573,7.453,20.763,5.815-.247-8.724Z" fill="#fff"/>
            <path id="패스_529" data-name="패스 529" d="M43.937,102.325l.573,7.453,20.763,5.815-.247-8.724Z" fill="none" stroke="#000" stroke-linecap="round" stroke-linejoin="round" stroke-width="1.567"/>
            <path id="패스_530" data-name="패스 530" d="M21.037,108.533l2.474,7.564,16.586,5.6-.727-8.084Z" fill="#fff"/>
            <path id="패스_531" data-name="패스 531" d="M21.037,108.533l2.474,7.564,16.586,5.6-.727-8.084Z" fill="none" stroke="#000" stroke-linecap="round" stroke-linejoin="round" stroke-width="1.567"/>
            <path id="패스_532" data-name="패스 532" d="M44.946,115.44l.539,7.01,20.148,5.877-.232-8.2Z" fill="#fff"/>
            <path id="패스_533" data-name="패스 533" d="M44.946,115.44l.539,7.01,20.148,5.877-.232-8.2Z" fill="none" stroke="#000" stroke-linecap="round" stroke-linejoin="round" stroke-width="1.567"/>
            <path id="패스_534" data-name="패스 534" d="M22.656,120.808l2.38,7.166,16.128,5.595-.684-7.621Z" fill="#fff"/>
            <path id="패스_535" data-name="패스 535" d="M22.656,120.808l2.38,7.166,16.128,5.595-.684-7.621Z" fill="none" stroke="#000" stroke-linecap="round" stroke-linejoin="round" stroke-width="1.567"/>
            <path id="패스_536" data-name="패스 536" d="M45.895,127.78l.508,6.606,19.569,5.921-.219-7.713Z" fill="#fff"/>
            <path id="패스_537" data-name="패스 537" d="M45.895,127.78l.508,6.606,19.569,5.921-.219-7.713Z" fill="none" stroke="#000" stroke-linecap="round" stroke-linejoin="round" stroke-width="1.567"/>
          </g>
        </g>
      </g>
      <g id="벡터_고급_개체-2" data-name="벡터 고급 개체" transform="translate(1242 2714)">
        <g id="그룹_56" data-name="그룹 56">
          <g id="그룹_55" data-name="그룹 55" clip-path="url(#clip-path-6)">
            <path id="패스_538" data-name="패스 538" d="M47.155,50.045A4.5,4.5,0,0,0,43.4,53.574a4.219,4.219,0,0,0,1.408,4,4.355,4.355,0,0,0,5.16.157c-.317,1.912.274,3.588,1.407,4.156,1.519.762,3.439-.755,3.675-.941,3.357-2.651,4.059-9.97.469-13.253-1.289-1.179-4.015-2.645-6.176-1.412a5.16,5.16,0,0,0-2.189,3.765" fill="#f697b7"/>
            <path id="패스_539" data-name="패스 539" d="M47.155,50.045A4.5,4.5,0,0,0,43.4,53.574a4.219,4.219,0,0,0,1.408,4,4.355,4.355,0,0,0,5.16.157c-.317,1.912.274,3.588,1.407,4.156,1.519.762,3.439-.755,3.675-.941,3.357-2.651,4.059-9.97.469-13.253-1.289-1.179-4.015-2.645-6.176-1.412A5.16,5.16,0,0,0,47.155,50.045Z" fill="none" stroke="#000" stroke-linecap="round" stroke-linejoin="round" stroke-width="1.798"/>
            <path id="패스_540" data-name="패스 540" d="M23.9,15.767c-.768-.7-6.742-5.982-14.019-4.357-1.235.276-5.19,1.011-7.34,4.593a12.842,12.842,0,0,0-1.426,8.734,16.243,16.243,0,0,0,16.4,13.025A6.582,6.582,0,0,0,18.568,42.5a6.458,6.458,0,0,0,3.29,2.279c4.3,1.514,8.572-1.228,9.3-1.707-.084,4.042,2.5,6.959,4.836,7.045,2.781.1,5.115-3.812,5.069-7.011A6.943,6.943,0,0,0,40.245,40a2.844,2.844,0,0,0,3.063-4.688,3.57,3.57,0,0,0,2.407-.659,3.056,3.056,0,0,0,1.38-2.445c-.168-1.348-2.35-2.691-5.423-2.371,1.435-2.139,3.84-3.423,5.5-5.393,3.3-3.919,3.035-9.765,1.492-14.653-.692-2.2-1.631-5.256-4.616-7.229A11.032,11.032,0,0,0,36.49,1.03C30.752,1.853,25.776,7.745,23.9,15.767" fill="#f697b7"/>
            <path id="패스_541" data-name="패스 541" d="M23.9,15.767c-.768-.7-6.742-5.982-14.019-4.357-1.235.276-5.19,1.011-7.34,4.593a12.842,12.842,0,0,0-1.426,8.734,16.243,16.243,0,0,0,16.4,13.025A6.582,6.582,0,0,0,18.568,42.5a6.458,6.458,0,0,0,3.29,2.279c4.3,1.514,8.572-1.228,9.3-1.707-.084,4.042,2.5,6.959,4.836,7.045,2.781.1,5.115-3.812,5.069-7.011A6.943,6.943,0,0,0,40.245,40a2.844,2.844,0,0,0,3.063-4.688,3.57,3.57,0,0,0,2.407-.659,3.056,3.056,0,0,0,1.38-2.445c-.168-1.348-2.35-2.691-5.423-2.371,1.435-2.139,3.84-3.423,5.5-5.393,3.3-3.919,3.035-9.765,1.492-14.653-.692-2.2-1.631-5.256-4.616-7.229A11.032,11.032,0,0,0,36.49,1.03C30.752,1.853,25.776,7.745,23.9,15.767Z" fill="none" stroke="#000" stroke-linecap="round" stroke-linejoin="round" stroke-width="1.798"/>
            <path id="패스_542" data-name="패스 542" d="M15.884,22.03l6.225,1.25-4.416,3.976" fill="none" stroke="#000" stroke-linecap="round" stroke-linejoin="round" stroke-width="1.798"/>
            <path id="패스_543" data-name="패스 543" d="M34.05,16.671l-3.983,4.193,5.48,1.312" fill="none" stroke="#000" stroke-linecap="round" stroke-linejoin="round" stroke-width="1.798"/>
            <path id="패스_544" data-name="패스 544" d="M22.409,30.132l.718.521A1.143,1.143,0,0,0,24.84,30.2a1.144,1.144,0,0,1,1.571-.545l.663.347a1.143,1.143,0,0,0,1.557-.512l.186-.379a2.615,2.615,0,0,1,3.2-1.324,2.613,2.613,0,0,0,3.063-1.073l.265-.417" fill="#f697b7"/>
            <path id="패스_545" data-name="패스 545" d="M22.409,30.132l.718.521A1.143,1.143,0,0,0,24.84,30.2a1.144,1.144,0,0,1,1.571-.545l.663.347a1.143,1.143,0,0,0,1.557-.512l.186-.379a2.615,2.615,0,0,1,3.2-1.324,2.613,2.613,0,0,0,3.063-1.073l.265-.417" fill="none" stroke="#000" stroke-linecap="round" stroke-linejoin="round" stroke-width="1.798"/>
            <path id="패스_546" data-name="패스 546" d="M14.037,48.137c-1.832,1.409-1.082,4.771-.841,5.851a2.978,2.978,0,0,0,.847,1.857c1.019.842,2.6.2,3.518-.753a6.619,6.619,0,0,0,1.523-2.537c.276-.847.755-2.734-.419-4.03a3.653,3.653,0,0,0-3.693-.847,2.811,2.811,0,0,0-.934.459" fill="#f697b7"/>
            <path id="패스_547" data-name="패스 547" d="M14.037,48.137c-1.832,1.409-1.082,4.771-.841,5.851a2.978,2.978,0,0,0,.847,1.857c1.019.842,2.6.2,3.518-.753a6.619,6.619,0,0,0,1.523-2.537c.276-.847.755-2.734-.419-4.03a3.653,3.653,0,0,0-3.693-.847A2.811,2.811,0,0,0,14.037,48.137Z" fill="none" stroke="#000" stroke-linecap="round" stroke-linejoin="round" stroke-width="1.798"/>
            <path id="패스_548" data-name="패스 548" d="M53.722,6.787c-1.832,1.409-1.082,4.771-.841,5.851a2.978,2.978,0,0,0,.847,1.857c1.019.842,2.6.2,3.518-.753a6.619,6.619,0,0,0,1.523-2.537c.276-.847.755-2.734-.419-4.03a3.653,3.653,0,0,0-3.693-.847,2.811,2.811,0,0,0-.934.459" fill="#f697b7"/>
            <path id="패스_549" data-name="패스 549" d="M53.722,6.787c-1.832,1.409-1.082,4.771-.841,5.851a2.978,2.978,0,0,0,.847,1.857c1.019.842,2.6.2,3.518-.753a6.619,6.619,0,0,0,1.523-2.537c.276-.847.755-2.734-.419-4.03a3.653,3.653,0,0,0-3.693-.847A2.811,2.811,0,0,0,53.722,6.787Z" fill="none" stroke="#000" stroke-linecap="round" stroke-linejoin="round" stroke-width="1.798"/>
          </g>
          <animateTransform attributeName="transform" type="scale"
            values="1; 1.1; 1"
            keyTimes="0; 0.5; 1"
            dur="2s"
            repeatCount="indefinite"
            calcMode="spline"
            keySplines="0.42 0 0.58 1; 0.42 0 0.58 1"/>
        </g>
      </g>
      <g id="Vector_Smart_Object-3" data-name="Vector Smart Object" transform="translate(1645 2705)">
        <g id="그룹_58" data-name="그룹 58">
          <g id="그룹_57" data-name="그룹 57" clip-path="url(#clip-path-7)">
            <path id="패스_550" data-name="패스 550" d="M61.2,90.8a48.594,48.594,0,0,1,.147,17.544c-1.092,5.972-3.432,11.681-4.243,17.7a16.4,16.4,0,0,0,.516,7.853,12.8,12.8,0,0,0,6.741,6.935A16.139,16.139,0,0,0,83.1,136.473c4.787-5.9,4.67-14.327,3.546-21.844s-3-15.271-.951-22.589" fill="#ebe0da"/>
            <path id="패스_551" data-name="패스 551" d="M61.2,90.8a48.594,48.594,0,0,1,.147,17.544c-1.092,5.972-3.432,11.681-4.243,17.7a16.4,16.4,0,0,0,.516,7.853,12.8,12.8,0,0,0,6.741,6.935A16.139,16.139,0,0,0,83.1,136.473c4.787-5.9,4.67-14.327,3.546-21.844s-3-15.271-.951-22.589" fill="none" stroke="#000" stroke-miterlimit="10" stroke-width="2"/>
            <path id="패스_552" data-name="패스 552" d="M45.912,86.548a9.964,9.964,0,0,0,.022,6.052,10.253,10.253,0,0,0,4.647,5.279c3.243,1.69,6.38.843,10.252.364,5.281-.654,9.824-.152,18.911.853,10.02,1.107,13.089,2.853,16.66.639,3.7-2.292,4.413-6.648,4.5-7.247.728-4.9-2.476-8.712-6.753-13.642C88.8,72.672,81.915,64.741,71.865,64.777a21.493,21.493,0,0,0-7.587,1.558C52.365,70.529,47.292,81.181,45.912,86.548" fill="#72acd3"/>
            <path id="패스_553" data-name="패스 553" d="M45.912,86.548a9.964,9.964,0,0,0,.022,6.052,10.253,10.253,0,0,0,4.647,5.279c3.243,1.69,6.38.843,10.252.364,5.281-.654,9.824-.152,18.911.853,10.02,1.107,13.089,2.853,16.66.639,3.7-2.292,4.413-6.648,4.5-7.247.728-4.9-2.476-8.712-6.753-13.642C88.8,72.672,81.915,64.741,71.865,64.777a21.493,21.493,0,0,0-7.587,1.558C52.365,70.529,47.292,81.181,45.912,86.548Z" fill="none" stroke="#000" stroke-linecap="round" stroke-linejoin="round" stroke-width="2"/>
            <path id="패스_554" data-name="패스 554" d="M77.766,100.071a96.364,96.364,0,0,1,.719,23.467q-.159,1.723-.377,3.391" fill="none" stroke="#000" stroke-linecap="round" stroke-linejoin="round" stroke-width="2"/>
            <path id="패스_555" data-name="패스 555" d="M13.007,120.834a62.378,62.378,0,0,1-1.734,8.284c-.968,3.428-1.7,4.868-1.458,7.357a9.551,9.551,0,0,0,2.229,5.55c2.18,2.452,5.164,2.832,7.127,3.082,1.916.244,4.89.623,7.709-1.177a10.169,10.169,0,0,0,3.964-5.291c1-2.709.7-4.994.249-8.413a37.137,37.137,0,0,0-2-8.049" fill="#ebe0da"/>
            <path id="패스_556" data-name="패스 556" d="M13.007,120.834a62.378,62.378,0,0,1-1.734,8.284c-.968,3.428-1.7,4.868-1.458,7.357a9.551,9.551,0,0,0,2.229,5.55c2.18,2.452,5.164,2.832,7.127,3.082,1.916.244,4.89.623,7.709-1.177a10.169,10.169,0,0,0,3.964-5.291c1-2.709.7-4.994.249-8.413a37.137,37.137,0,0,0-2-8.049" fill="none" stroke="#000" stroke-miterlimit="10" stroke-width="2"/>
            <path id="패스_557" data-name="패스 557" d="M15.7,99.451c-5.025,1.084-7.893,4.717-10.4,7.9-2.046,2.594-5.225,6.623-4.045,10.6A7.84,7.84,0,0,0,4.145,121.8c5.812,4.649,10.986-.063,23.727,2.246,2.659.482,5.485,1.24,8.06-.32a8.343,8.343,0,0,0,3.467-5.009c1.605-7.283-8.422-14.385-9.452-15.1-2.825-1.953-7.983-5.517-14.243-4.167" fill="#e54a94"/>
            <path id="패스_558" data-name="패스 558" d="M15.7,99.451c-5.025,1.084-7.893,4.717-10.4,7.9-2.046,2.594-5.225,6.623-4.045,10.6A7.84,7.84,0,0,0,4.145,121.8c5.812,4.649,10.986-.063,23.727,2.246,2.659.482,5.485,1.24,8.06-.32a8.343,8.343,0,0,0,3.467-5.009c1.605-7.283-8.422-14.385-9.452-15.1C27.122,101.665,21.964,98.1,15.7,99.451Z" fill="none" stroke="#000" stroke-miterlimit="10" stroke-width="2"/>
            <path id="패스_559" data-name="패스 559" d="M24.85,129.087a19.351,19.351,0,0,1-.584,9.42" fill="none" stroke="#000" stroke-linecap="round" stroke-linejoin="round" stroke-width="2"/>
            <path id="패스_560" data-name="패스 560" d="M114.62,117.739v-1c.053.244.118.485.15.731.009.069-.083.154-.15.269" fill="#80807d"/>
            <path id="패스_561" data-name="패스 561" d="M167.819,119.65c.926-6.93-1.07-18.276-8.549-25.348-5.54-5.279-10.261-4.724-11.929-9.146-2.266-5.024,2.3-10.795,7.755-9.343,1.942-1.065,13.688,14.114,15.308,5.368.465-6.1-14.915-11.392-14.713-19.484-.258-1.1,1.609-7.438,5.86-7.379,5.614-.264,9.573,13.347,11.835,12.747,1.623-1,.789-25.8,5.618-26.489,6.465-4.943,13.542,2.294,13.472,9.122,1.9,8.969-10.059,22.348-8.735,30.216,1.771,1.366,7.014-5.695,15.092-5.295a6.731,6.731,0,0,1,6.56,9.743c-3.295,7.358-17.479,4.254-20.476,11.63-2.224,8.976,4.614.7,12.723,1.192,13.2.56,7.152,15.122-2.187,14.911-9.983.358-13.733-5.187-14.335,7.812" fill="#fff578"/>
            <path id="패스_562" data-name="패스 562" d="M167.819,119.65c.926-6.93-1.07-18.276-8.549-25.348-5.54-5.279-10.261-4.724-11.929-9.146-2.266-5.024,2.3-10.795,7.755-9.343,1.942-1.065,13.688,14.114,15.308,5.368.465-6.1-14.915-11.392-14.713-19.484-.258-1.1,1.609-7.438,5.86-7.379,5.614-.264,9.573,13.347,11.835,12.747,1.623-1,.789-25.8,5.618-26.489,6.465-4.943,13.542,2.294,13.472,9.122,1.9,8.969-10.059,22.348-8.735,30.216,1.771,1.366,7.014-5.695,15.092-5.295a6.731,6.731,0,0,1,6.56,9.743c-3.295,7.358-17.479,4.254-20.476,11.63-2.224,8.976,4.614.7,12.723,1.192,13.2.56,7.152,15.122-2.187,14.911-9.983.358-13.733-5.187-14.335,7.812" fill="none" stroke="#000" stroke-miterlimit="10" stroke-width="2"/>
            <path id="패스_563" data-name="패스 563" d="M269.2,217.609c-5.5,22.026-26.461,32.239-50.459,43.24-8.2,3.744-18.065,8.763-26.341,2.624-4.227-3.295-6.543-8.208-11.611-10.3-10.694-5.026-26.3-.483-36.429,4.387-7.025,3.137-12.955,9-20.593,10.19-10.272,1.488-16.243-5.824-16.121-15.156-.4-2.756.939-7.821.289-10.03-1.821-2.475-7.074,2.308-9.808,3.371-4.883,2.864-10.967,2.615-13.88-2.606a14.532,14.532,0,0,1-1.908-11.856c.882-2.68,1.976-5.378,2.14-8.255.319-3.989-.359-8.282-2.96-11.549-3.433-4.234-10.181-4.1-15.388-4.962-3.89-.535-10.129-.134-12.933-1.809a8.019,8.019,0,0,1-3.724-6.713c.248-2.912,2.052-5.473,3.608-8,2.96-4.157,4.695-6.766,1.363-11.335-6.188-8.536-18.133-8.194-25.208-15.947-5.4-5.337-6.322-12.77,2.6-14.988,5.349-1.744,10.827.7,16.055-.97,3.1-.92,5.913-4.1,6.859-7.31.924-3.057.5-6.083,1.987-9.029,3.29-6.223,10.368-8.683,17.174-5.789,2.239.888,4.271,2.515,6.29,3.211,2.333.947,6.715.431,8.238-2.24a3.1,3.1,0,0,0-.33-2.641c-2.267-3.752-2.628-9.181,2.062-11.456,3.634-1.685,7.85.429,10.621,2.777,3.017,2.781,6.765,9.907,12.2,9.992,1.723-.208,2.167-1.991,2.472-4.318.44-4.679,1.437-11.705,6.092-14.43,8.966-3.726,13.386,6.968,17.877,14.214,3.265,5.4,6.365,10.486,11.045,14.865.277.11.329-.159.193-.76a65.639,65.639,0,0,1-2.159-7.918,36.808,36.808,0,0,1-.084-12.764c.438-2.509,1.007-5.48,2.942-7.225,3.665-2.907,8.1.971,10.427,3.967,11.589,15.066,20.074,33.769,35.921,43.764,2.1,1.376,2.767.823,1.984-1.594a78.307,78.307,0,0,1-3.214-19.039c-.976-10.184,3.081-18.7,13.991-19.946,20.128-1.752,31.253,18.561,38.674,34.215,10.641,21.394,25.241,47.326,20.109,69.873Z" fill="#0bb53b"/>
            <path id="패스_564" data-name="패스 564" d="M269.2,217.609c-5.5,22.026-26.461,32.239-50.459,43.24-8.2,3.744-18.065,8.763-26.341,2.624-4.227-3.295-6.543-8.208-11.611-10.3-10.694-5.026-26.3-.483-36.429,4.387-7.025,3.137-12.955,9-20.593,10.19-10.272,1.488-16.243-5.824-16.121-15.156-.4-2.756.939-7.821.289-10.03-1.821-2.475-7.074,2.308-9.808,3.371-4.883,2.864-10.967,2.615-13.88-2.606a14.532,14.532,0,0,1-1.908-11.856c.882-2.68,1.976-5.378,2.14-8.255.319-3.989-.359-8.282-2.96-11.549-3.433-4.234-10.181-4.1-15.388-4.962-3.89-.535-10.129-.134-12.933-1.809a8.019,8.019,0,0,1-3.724-6.713c.248-2.912,2.052-5.473,3.608-8,2.96-4.157,4.695-6.766,1.363-11.335-6.188-8.536-18.133-8.194-25.208-15.947-5.4-5.337-6.322-12.77,2.6-14.988,5.349-1.744,10.827.7,16.055-.97,3.1-.92,5.913-4.1,6.859-7.31.924-3.057.5-6.083,1.987-9.029,3.29-6.223,10.368-8.683,17.174-5.789,2.239.888,4.271,2.515,6.29,3.211,2.333.947,6.715.431,8.238-2.24a3.1,3.1,0,0,0-.33-2.641c-2.267-3.752-2.628-9.181,2.062-11.456,3.634-1.685,7.85.429,10.621,2.777,3.017,2.781,6.765,9.907,12.2,9.992,1.723-.208,2.167-1.991,2.472-4.318.44-4.679,1.437-11.705,6.092-14.43,8.966-3.726,13.386,6.968,17.877,14.214,3.265,5.4,6.365,10.486,11.045,14.865.277.11.329-.159.193-.76a65.639,65.639,0,0,1-2.159-7.918,36.808,36.808,0,0,1-.084-12.764c.438-2.509,1.007-5.48,2.942-7.225,3.665-2.907,8.1.971,10.427,3.967,11.589,15.066,20.074,33.769,35.921,43.764,2.1,1.376,2.767.823,1.984-1.594a78.307,78.307,0,0,1-3.214-19.039c-.976-10.184,3.081-18.7,13.991-19.946,20.128-1.752,31.253,18.561,38.674,34.215,10.641,21.394,25.241,47.326,20.109,69.873Z" fill="none" stroke="#000" stroke-linecap="round" stroke-linejoin="round" stroke-width="2"/>
            <path id="패스_565" data-name="패스 565" d="M44.546,157.989A427.018,427.018,0,0,0,154.741,199.43a425.7,425.7,0,0,0,113.336,9.911" fill="none" stroke="#000" stroke-linecap="round" stroke-linejoin="round" stroke-width="2"/>
            <line id="선_1" data-name="선 1" y1="20.66" x2="33.754" transform="translate(116.154 198.337)" fill="none" stroke="#000" stroke-linecap="round" stroke-linejoin="round" stroke-width="2"/>
            <line id="선_2" data-name="선 2" x2="20.529" y2="32.458" transform="translate(91.822 154.693)" fill="none" stroke="#000" stroke-linecap="round" stroke-linejoin="round" stroke-width="2"/>
            <line id="선_3" data-name="선 3" x2="34.798" y2="58.726" transform="translate(171.299 147.744)" fill="none" stroke="#000" stroke-linecap="round" stroke-linejoin="round" stroke-width="2"/>
            <line id="선_4" data-name="선 4" y1="29.725" x2="52.716" transform="translate(184.751 209.77)" fill="none" stroke="#000" stroke-linecap="round" stroke-linejoin="round" stroke-width="2"/>
            <path id="패스_566" data-name="패스 566" d="M181.694,13.39c.66-.122-.766-4.71,1.51-8.557.264-.447,2.228-3.66,5.437-3.826,3.744-.194,6.24,3.914,6.658,4.6a7.523,7.523,0,0,1,1.4,4.056c-.055,4.813-6.53,7.607-5.861,9.082.622,1.369,5.986-1.523,9.561.91,2.95,2.007,4.393,7.446,2.038,10.445-2.319,2.955-7.21,2.123-7.852,2.014A10.67,10.67,0,0,1,189.848,30c3.858,2.608,5.759,7.1,4.679,10.414-.857,2.627-3.656,4.251-7.213,3.832-3.132-.369-6.5-3.309-6.738-6.427-1.812,4.48-5.764,7.07-9.328,6.553a7.644,7.644,0,0,1-4.555-2.694,6.817,6.817,0,0,1-2.013-4.228c-.186-3.422,2.89-7.043,7.742-8.312-5.383,1.524-10.554.618-13.179-2.561a7.2,7.2,0,0,1-1.812-5.437,6.405,6.405,0,0,1,3.769-5.031c4.092-1.556,9.143,3.091,9.64,2.419.479-.649-5.113-3.777-5.053-7.959a7.342,7.342,0,0,1,6.443-6.645c2.448-.114,4.318,1.577,5.135,2.316,3.335,3.016,3.707,7.263,4.329,7.148" fill="#e64f6c"/>
            <path id="패스_567" data-name="패스 567" d="M181.694,13.39c.66-.122-.766-4.71,1.51-8.557.264-.447,2.228-3.66,5.437-3.826,3.744-.194,6.24,3.914,6.658,4.6a7.523,7.523,0,0,1,1.4,4.056c-.055,4.813-6.53,7.607-5.861,9.082.622,1.369,5.986-1.523,9.561.91,2.95,2.007,4.393,7.446,2.038,10.445-2.319,2.955-7.21,2.123-7.852,2.014A10.67,10.67,0,0,1,189.848,30c3.858,2.608,5.759,7.1,4.679,10.414-.857,2.627-3.656,4.251-7.213,3.832-3.132-.369-6.5-3.309-6.738-6.427-1.812,4.48-5.764,7.07-9.328,6.553a7.644,7.644,0,0,1-4.555-2.694,6.817,6.817,0,0,1-2.013-4.228c-.186-3.422,2.89-7.043,7.742-8.312-5.383,1.524-10.554.618-13.179-2.561a7.2,7.2,0,0,1-1.812-5.437,6.405,6.405,0,0,1,3.769-5.031c4.092-1.556,9.143,3.091,9.64,2.419.479-.649-5.113-3.777-5.053-7.959a7.342,7.342,0,0,1,6.443-6.645c2.448-.114,4.318,1.577,5.135,2.316C180.7,9.258,181.072,13.505,181.694,13.39Z" fill="none" stroke="#000" stroke-miterlimit="10" stroke-width="2"/>
            <path id="패스_568" data-name="패스 568" d="M181.682,16.095a8.327,8.327,0,0,0-5.436,1.5,8.018,8.018,0,0,0-3.217,7.211,8.335,8.335,0,0,0,7.377,7.1,8.692,8.692,0,0,0,9.153-6.545,7.938,7.938,0,0,0-1-5.714c-2.138-3.337-6.161-3.518-6.878-3.55" fill="#e64f6c"/>
            <path id="패스_569" data-name="패스 569" d="M181.682,16.095a8.327,8.327,0,0,0-5.436,1.5,8.018,8.018,0,0,0-3.217,7.211,8.335,8.335,0,0,0,7.377,7.1,8.692,8.692,0,0,0,9.153-6.545,7.938,7.938,0,0,0-1-5.714C186.422,16.308,182.4,16.127,181.682,16.095Z" fill="none" stroke="#000" stroke-miterlimit="10" stroke-width="2"/>
            <path id="패스_570" data-name="패스 570" d="M176.755,25.925a5.417,5.417,0,0,0,5.211,3.081c3.052-.342,5.367-3.9,4.205-6.761-1.179-2.9-5.543-4.116-8.062-2.388a4.877,4.877,0,0,0-1.354,6.068" fill="#e6b03a"/>
            <path id="패스_571" data-name="패스 571" d="M176.755,25.925a5.417,5.417,0,0,0,5.211,3.081c3.052-.342,5.367-3.9,4.205-6.761-1.179-2.9-5.543-4.116-8.062-2.388A4.877,4.877,0,0,0,176.755,25.925Z" fill="none" stroke="#000" stroke-miterlimit="10" stroke-width="2"/>
            <path id="패스_572" data-name="패스 572" d="M82.073,189.428a1.954,1.954,0,0,1-1.522-.725,65.75,65.75,0,0,1-12.094-22.355,107.087,107.087,0,0,1-2.618-11.732c-1.35-7.372-2.626-14.336-7.226-21.324a14.388,14.388,0,0,0-5.594-5.266c-.7-.349-6.986-3.3-12.73.319a13.2,13.2,0,0,0-5.648,8.584,1.954,1.954,0,0,1-3.844-.708,17.2,17.2,0,0,1,7.41-11.183c7.552-4.755,15.657-.958,16.556-.51a18.322,18.322,0,0,1,7.114,6.615c5.036,7.652,6.444,15.337,7.805,22.769A103.853,103.853,0,0,0,72.2,165.223,61.835,61.835,0,0,0,83.59,186.245a1.955,1.955,0,0,1-1.517,3.183" fill="#23985d"/>
            <path id="패스_573" data-name="패스 573" d="M82.073,189.428a1.954,1.954,0,0,1-1.522-.725,65.75,65.75,0,0,1-12.094-22.355,107.087,107.087,0,0,1-2.618-11.732c-1.35-7.372-2.626-14.336-7.226-21.324a14.388,14.388,0,0,0-5.594-5.266c-.7-.349-6.986-3.3-12.73.319a13.2,13.2,0,0,0-5.648,8.584,1.954,1.954,0,0,1-3.844-.708,17.2,17.2,0,0,1,7.41-11.183c7.552-4.755,15.657-.958,16.556-.51a18.322,18.322,0,0,1,7.114,6.615c5.036,7.652,6.444,15.337,7.805,22.769A103.853,103.853,0,0,0,72.2,165.223,61.835,61.835,0,0,0,83.59,186.245a1.955,1.955,0,0,1-1.517,3.183Z" fill="none" stroke="#000" stroke-miterlimit="10" stroke-width="2"/>
            <path id="패스_574" data-name="패스 574" d="M69.676,152.835a20.33,20.33,0,0,1,1.17-11.166,16.461,16.461,0,0,1,6.469-8.027,15.2,15.2,0,0,1,8.428-2.224,16.264,16.264,0,0,1,.54,5.338,16.641,16.641,0,0,1-4.1,9.631,18.826,18.826,0,0,1-12.506,6.448" fill="#6ebae0"/>
            <path id="패스_575" data-name="패스 575" d="M69.676,152.835a20.33,20.33,0,0,1,1.17-11.166,16.461,16.461,0,0,1,6.469-8.027,15.2,15.2,0,0,1,8.428-2.224,16.264,16.264,0,0,1,.54,5.338,16.641,16.641,0,0,1-4.1,9.631A18.826,18.826,0,0,1,69.676,152.835Z" fill="none" stroke="#000" stroke-miterlimit="10" stroke-width="2"/>
            <path id="패스_576" data-name="패스 576" d="M25.5,143.752a5.742,5.742,0,0,1-.622-3.868c.272-1.272,1.273-3.57,2.9-3.523a3.257,3.257,0,0,1,2.543,2.338c.475-1.82,1.721-2.989,2.821-2.917.964.063,1.723,1.073,2.027,1.477a4.787,4.787,0,0,1,.829,1.8,2.56,2.56,0,0,1,1.921-1.957,2.708,2.708,0,0,1,2.568,1.474c.831,1.44.27,3.68-1.519,5.456" fill="#226cd0"/>
            <path id="패스_577" data-name="패스 577" d="M25.5,143.752a5.742,5.742,0,0,1-.622-3.868c.272-1.272,1.273-3.57,2.9-3.523a3.257,3.257,0,0,1,2.543,2.338c.475-1.82,1.721-2.989,2.821-2.917.964.063,1.723,1.073,2.027,1.477a4.787,4.787,0,0,1,.829,1.8,2.56,2.56,0,0,1,1.921-1.957,2.708,2.708,0,0,1,2.568,1.474c.831,1.44.27,3.68-1.519,5.456" fill="none" stroke="#000" stroke-linecap="round" stroke-linejoin="round" stroke-width="2"/>
            <path id="패스_578" data-name="패스 578" d="M28.6,143.533c-1.3.227-8.333,1.46-12.427,7.885a16.31,16.31,0,0,0-1.933,13.538c.425,1.262,1.125,3.24,3.039,4.145a5.515,5.515,0,0,0,4.282,0c3.266-1.323,3.841-5.185,3.868-5.388-.218,3.188,1.269,6.029,3.444,6.9,2.968,1.2,7.664-1.092,8.793-6.066a4.71,4.71,0,0,0,2.165,3.509,5.837,5.837,0,0,0,4.156.933c3.008-.543,4.449-3.6,4.788-4.314,1.879-3.98.185-8.187-.691-10.361A17.491,17.491,0,0,0,40.6,145.36,17.64,17.64,0,0,0,28.6,143.533" fill="#d2a1e5"/>
            <path id="패스_579" data-name="패스 579" d="M28.6,143.533c-1.3.227-8.333,1.46-12.427,7.885a16.31,16.31,0,0,0-1.933,13.538c.425,1.262,1.125,3.24,3.039,4.145a5.515,5.515,0,0,0,4.282,0c3.266-1.323,3.841-5.185,3.868-5.388-.218,3.188,1.269,6.029,3.444,6.9,2.968,1.2,7.664-1.092,8.793-6.066a4.71,4.71,0,0,0,2.165,3.509,5.837,5.837,0,0,0,4.156.933c3.008-.543,4.449-3.6,4.788-4.314,1.879-3.98.185-8.187-.691-10.361A17.491,17.491,0,0,0,40.6,145.36,17.64,17.64,0,0,0,28.6,143.533Z" fill="none" stroke="#000" stroke-linecap="round" stroke-linejoin="round" stroke-width="2"/>
            <path id="패스_580" data-name="패스 580" d="M142.468,160.208c-4.564-.979-18.537-3.977-23.289-16.36-5.4-14.083,5.824-27.946,7.009-29.232,7.024-7.625,17.4-11.4,27.536-11.257a26.09,26.09,0,0,1,16.051,5.5c7.39,5.856,9.25,14.232,10,17.6.912,4.109,2.848,12.826-1.778,20.974-4.59,8.083-12.765,10.549-17.615,12.012a36.073,36.073,0,0,1-17.912.766" fill="#ffa161"/>
            <path id="패스_581" data-name="패스 581" d="M142.468,160.208c-4.564-.979-18.537-3.977-23.289-16.36-5.4-14.083,5.824-27.946,7.009-29.232,7.024-7.625,17.4-11.4,27.536-11.257a26.09,26.09,0,0,1,16.051,5.5c7.39,5.856,9.25,14.232,10,17.6.912,4.109,2.848,12.826-1.778,20.974-4.59,8.083-12.765,10.549-17.615,12.012A36.073,36.073,0,0,1,142.468,160.208Z" fill="none" stroke="#000" stroke-linecap="round" stroke-linejoin="round" stroke-width="2"/>
            <path id="패스_582" data-name="패스 582" d="M146.193,158.057c-1.719-.987-9.617-5.766-11.937-15.329a22.544,22.544,0,0,1-.127-10.113c.349-1.517,1.848-8.04,7.772-11.846a16.244,16.244,0,0,1,17.286-.343c5.968,3.7,10.468,11.4,8.05,17.734-1.123,2.94-4.108,6.576-8.553,6.964a9.4,9.4,0,0,1-9.137-4.81,9.265,9.265,0,0,1-.485-6.695" fill="none" stroke="#000" stroke-linecap="round" stroke-linejoin="round" stroke-width="2"/>
            <path id="패스_583" data-name="패스 583" d="M101.327,142.232c.3-6.526-4.087-14.187-3.768-13.344-9.39-7.52.356-18.484,8.194-11.34,3.706,5.257-3.21,9.791-1.242,14.9,1.573,7.175,1.643,8.01,2.687,8.546,10.377,3.534.094-25.15,13.874-24.764,9.84,2.447,5.375,11.764.168,16.692-.822,1.615-.743,3.528-1.2,5.281s-1.423,3.7-.418,5.2a18.137,18.137,0,0,1,6.83,3.224c3.1,2.4,3.625,4.536,6.586,6.8.9.69,2.369,1.635,7.742,3.2,7.711,2.251,9.33,1.65,14.587,3.171,6.97,2.017,5.356,3.43,13.174,5.884,3.933,1.235,6.327,1.5,13.991,3.778,3.729,1.108,5.6,1.667,5.6,1.912-.094,3.512-34.082,1.81-85.53-.767-4.276-.214-14.508-.745-16.017-5.394-1-3.068,1.693-8.268,5.226-11.16,1.052-.861,1.4-.877,2.544-1.708,2.366-1.713,5.075-4.666,6.978-10.115" fill="#fffde1"/>
            <path id="패스_584" data-name="패스 584" d="M101.327,142.232c.3-6.526-4.087-14.187-3.768-13.344-9.39-7.52.356-18.484,8.194-11.34,3.706,5.257-3.21,9.791-1.242,14.9,1.573,7.175,1.643,8.01,2.687,8.546,10.377,3.534.094-25.15,13.874-24.764,9.84,2.447,5.375,11.764.168,16.692-.822,1.615-.743,3.528-1.2,5.281s-1.423,3.7-.418,5.2a18.137,18.137,0,0,1,6.83,3.224c3.1,2.4,3.625,4.536,6.586,6.8.9.69,2.369,1.635,7.742,3.2,7.711,2.251,9.33,1.65,14.587,3.171,6.97,2.017,5.356,3.43,13.174,5.884,3.933,1.235,6.327,1.5,13.991,3.778,3.729,1.108,5.6,1.667,5.6,1.912-.094,3.512-34.082,1.81-85.53-.767-4.276-.214-14.508-.745-16.017-5.394-1-3.068,1.693-8.268,5.226-11.16,1.052-.861,1.4-.877,2.544-1.708C96.715,150.634,99.424,147.681,101.327,142.232Z" fill="none" stroke="#000" stroke-linecap="round" stroke-linejoin="round" stroke-width="2"/>
            <path id="패스_585" data-name="패스 585" d="M103.557,147.944a6.894,6.894,0,0,0-.707.289,2.4,2.4,0,0,0-.609.436,2.165,2.165,0,0,0-.554.909,2.242,2.242,0,0,0-.08.524,2.373,2.373,0,0,0,.055.535.636.636,0,0,0,.034.135,2,2,0,0,0,.444.767,1.716,1.716,0,0,0,.387.316,1.41,1.41,0,0,0,.479.2,1.8,1.8,0,0,0,.522.057c.117-.013.3-.032.411-.056l.031-.007a2.317,2.317,0,0,0,.411-.172,1.989,1.989,0,0,0,.72-.706,2.918,2.918,0,0,0,.228-.5c.021-.053.04-.107.056-.162a3.659,3.659,0,0,0,.109-.751,1.658,1.658,0,0,0-.44-1.06,1.105,1.105,0,0,0-.482-.31,1.139,1.139,0,0,0-.578-.13l-.4.054a1.5,1.5,0,0,0-.662.386l-.234.3a1.494,1.494,0,0,0-.2.757c0,.046-.007.091-.013.136l.054-.4a1.557,1.557,0,0,1-.1.379c.05-.12.1-.239.151-.359a.857.857,0,0,1-.1.177l.234-.3a.523.523,0,0,1-.093.095l.3-.235a.39.39,0,0,1-.076.045l.358-.151a.413.413,0,0,1-.085.024l.4-.053a.432.432,0,0,1-.1,0l.4.053a.363.363,0,0,1-.093-.024l.359.151a.379.379,0,0,1-.068-.038l.3.234a.42.42,0,0,1-.073-.073l.235.3a.475.475,0,0,1-.053-.093c.05.12.1.239.151.359a.588.588,0,0,1-.039-.148l.053.4a.687.687,0,0,1,0-.157l-.053.4a.643.643,0,0,1,.036-.137c-.05.119-.1.239-.151.358a.632.632,0,0,1,.071-.12l-.235.3a.9.9,0,0,1,.154-.154l-.3.235a1.546,1.546,0,0,1,.322-.181l-.358.151c.087-.036.175-.068.264-.1a1.684,1.684,0,0,0,.9-.689,1.682,1.682,0,0,0,.151-1.156c-.05-.12-.1-.239-.151-.359a1.516,1.516,0,0,0-.538-.538l-.358-.151a1.522,1.522,0,0,0-.8,0"/>
            <path id="패스_586" data-name="패스 586" d="M110.45,149.6a3.792,3.792,0,0,0-.326.435,3.387,3.387,0,0,0-.221.5,2.678,2.678,0,0,0-.129.708,1.249,1.249,0,0,0-.005.173,4.322,4.322,0,0,0,.071.545,2.34,2.34,0,0,0,.267.681,1.68,1.68,0,0,0,.9.69,1.573,1.573,0,0,0,1.156-.151,2.345,2.345,0,0,0,.873-.887,2.721,2.721,0,0,0,.327-1.213,2.911,2.911,0,0,0-.067-.637,2.636,2.636,0,0,0-.215-.585,2.32,2.32,0,0,0-.837-.918,1.111,1.111,0,0,0-.558-.178,1.539,1.539,0,0,0-1.494.716,1.514,1.514,0,0,0-.151,1.156c.05.119.1.239.151.358a1.5,1.5,0,0,0,.538.538l.031.023-.3-.234a.846.846,0,0,1,.147.146l-.235-.3a.959.959,0,0,1,.122.21c-.051-.119-.1-.239-.152-.358a1.069,1.069,0,0,1,.069.255l-.054-.4a1.205,1.205,0,0,1,0,.306c.018-.133.035-.266.053-.4a1.14,1.14,0,0,1-.073.275c.05-.12.1-.239.151-.358a1.029,1.029,0,0,1-.121.211l.234-.3a.886.886,0,0,1-.158.16l.3-.235a.993.993,0,0,1-.1.063l2.052.538c-.019-.036-.037-.073-.053-.111.05.12.1.239.151.359a1.243,1.243,0,0,1-.07-.261l.054.4a1.175,1.175,0,0,1,0-.319l-.054.4a1.223,1.223,0,0,1,.079-.284c-.05.12-.1.239-.151.359a1.084,1.084,0,0,1,.136-.233l-.234.3.015-.02a1.111,1.111,0,0,0,.31-.482,1.35,1.35,0,0,0,0-1.156,1.114,1.114,0,0,0-.31-.483,1.51,1.51,0,0,0-1.06-.439l-.4.053a1.505,1.505,0,0,0-.662.386"/>
            <path id="패스_587" data-name="패스 587" d="M213.455,210.287c.324-14.222,14.285-25.859,12.165-40.244-1.8-4.437-6.067-3.741-12.351-8.933-6.162-5.09-11.745-13.747-9.71-18.236,6.443-9.557,15.978,7.551,24.293,10.937.2-11.285-11.039-18.26-15.292-27.809-2.973-5.679-1.894-17.734,5.778-15.647,11.487,4.49,12.107,19.913,17.617,29.692,2.432-10.265-2.949-20.958-3.341-31.366,4.946-23,26.074-7.583,13.939,20.615,18.816-15.391,29.22,5.96-.359,20.642,6.795-2.585,13.826-6.68,21.36-6,8.651,1.579,7.193,11.28,2.537,14.21-6.8,5.945-15.088,2.946-25.41,6.165-2.26.705-6.767,4.113-6.191,6.69.292,1.3,1.831,2.031,2.2,2.192,2.611,1.137,5.067-.646,9.966-3.38,5.959-3.324,8.99-4.979,11.477-4.613a9.929,9.929,0,0,1,7.694,6.3c1.338,4.016-.986,7.708-1.818,9.03-1.235,1.962-3.593,4.627-12.829,7.736-8.555,2.881-10.243,1.952-14.139,3.646-4.237,1.843-9.587,6.129-13.664,17.165" fill="#ea75d1"/>
            <path id="패스_588" data-name="패스 588" d="M213.455,210.287c.324-14.222,14.285-25.859,12.165-40.244-1.8-4.437-6.067-3.741-12.351-8.933-6.162-5.09-11.745-13.747-9.71-18.236,6.443-9.557,15.978,7.551,24.293,10.937.2-11.285-11.039-18.26-15.292-27.809-2.973-5.679-1.894-17.734,5.778-15.647,11.487,4.49,12.107,19.913,17.617,29.692,2.432-10.265-2.949-20.958-3.341-31.366,4.946-23,26.074-7.583,13.939,20.615,18.816-15.391,29.22,5.96-.359,20.642,6.795-2.585,13.826-6.68,21.36-6,8.651,1.579,7.193,11.28,2.537,14.21-6.8,5.945-15.088,2.946-25.41,6.165-2.26.705-6.767,4.113-6.191,6.69.292,1.3,1.831,2.031,2.2,2.192,2.611,1.137,5.067-.646,9.966-3.38,5.959-3.324,8.99-4.979,11.477-4.613a9.929,9.929,0,0,1,7.694,6.3c1.338,4.016-.986,7.708-1.818,9.03-1.235,1.962-3.593,4.627-12.829,7.736-8.555,2.881-10.243,1.952-14.139,3.646-4.237,1.843-9.587,6.129-13.664,17.165" fill="none" stroke="#000" stroke-miterlimit="10" stroke-width="2"/>
            <path id="패스_589" data-name="패스 589" d="M181.226,209.7c-1.428-4.313-.891-9.2-2.935-13.255-2.528-5.019-8.263-7.441-12.169-11.482a19.392,19.392,0,0,1-5.364-12.259,10.6,10.6,0,0,1,1.067-5.769,5.657,5.657,0,0,1,4.771-3.052c3.21.037,5.352,3.345,6.3,6.414s1.438,6.525,3.786,8.715c3.109-2.117,3.254-6.625,2.613-10.332-.987-5.707-3.044-11.179-4.169-16.861-.569-2.875-.886-5.915.063-8.688s3.465-5.19,6.4-5.188a3.653,3.653,0,0,1,2.675,1.009,4.9,4.9,0,0,1,1.046,2.568c1.068,5.986.028,12.291,1.8,18.108.453,1.487,1.326,3.118,2.861,3.368a3.9,3.9,0,0,0,2.776-.895c3.723-2.651,5.585-7.605,9.75-9.488a5.09,5.09,0,0,1,2.557-.511c2.3.221,3.9,2.635,3.953,4.942s-1.068,4.473-2.319,6.412a41.45,41.45,0,0,1-9.954,10.673c-1.979,1.482-4.145,2.84-5.51,4.9-1.709,2.579-1.9,5.85-1.913,8.944a117.769,117.769,0,0,0,1.837,21.245" fill="#1feaff"/>
            <path id="패스_590" data-name="패스 590" d="M181.226,209.7c-1.428-4.313-.891-9.2-2.935-13.255-2.528-5.019-8.263-7.441-12.169-11.482a19.392,19.392,0,0,1-5.364-12.259,10.6,10.6,0,0,1,1.067-5.769,5.657,5.657,0,0,1,4.771-3.052c3.21.037,5.352,3.345,6.3,6.414s1.438,6.525,3.786,8.715c3.109-2.117,3.254-6.625,2.613-10.332-.987-5.707-3.044-11.179-4.169-16.861-.569-2.875-.886-5.915.063-8.688s3.465-5.19,6.4-5.188a3.653,3.653,0,0,1,2.675,1.009,4.9,4.9,0,0,1,1.046,2.568c1.068,5.986.028,12.291,1.8,18.108.453,1.487,1.326,3.118,2.861,3.368a3.9,3.9,0,0,0,2.776-.895c3.723-2.651,5.585-7.605,9.75-9.488a5.09,5.09,0,0,1,2.557-.511c2.3.221,3.9,2.635,3.953,4.942s-1.068,4.473-2.319,6.412a41.45,41.45,0,0,1-9.954,10.673c-1.979,1.482-4.145,2.84-5.51,4.9-1.709,2.579-1.9,5.85-1.913,8.944a117.769,117.769,0,0,0,1.837,21.245" fill="none" stroke="#050000" stroke-miterlimit="10" stroke-width="2"/>
          </g>
        </g>
      </g>
      <g id="벡터_고급_개체_copy_2" data-name="벡터 고급 개체 copy 2" transform="translate(1435 2701)">
        <g id="그룹_60" data-name="그룹 60">
          <g id="그룹_59" data-name="그룹 59" clip-path="url(#clip-path-8)">
            <path id="패스_591" data-name="패스 591" d="M35.957,7.745c7.51,8.425,5.5,24.26-3.664,31.138A19.712,19.712,0,0,1,3.1,31.535c-2.463-5.242-1.586-10.117-1.084-12.9C2.584,15.469,3.8,8.7,9.912,4.505,15.618.586,21.92,1.429,23.674,1.664c1.509.2,7.883,1.146,12.283,6.081" fill="#fff"/>
            <path id="패스_592" data-name="패스 592" d="M35.957,7.745c7.51,8.425,5.5,24.26-3.664,31.138A19.712,19.712,0,0,1,3.1,31.535c-2.463-5.242-1.586-10.117-1.084-12.9C2.584,15.469,3.8,8.7,9.912,4.505,15.618.586,21.92,1.429,23.674,1.664,25.184,1.866,31.558,2.81,35.957,7.745Z" fill="none" stroke="#000" stroke-miterlimit="10" stroke-width="2.868"/>
            <path id="패스_593" data-name="패스 593" d="M15.888,9.408S2.922,18.355,10.1,28.876" fill="none" stroke="#000" stroke-linecap="round" stroke-linejoin="round" stroke-width="2.868"/>
            <line id="선_5" data-name="선 5" x1="1.828" y1="1.383" transform="translate(13.039 32.59)" fill="none" stroke="#000" stroke-linecap="round" stroke-linejoin="round" stroke-width="2.868"/>
          </g>
          <animateTransform 
          attributeName="transform"
          type="rotate"
          from="0 18 18"
          to="360 18 18"
          dur="5s"
          repeatCount="indefinite"
          />
        </g>
        
      </g>
      <g id="벡터_고급_개체-3" data-name="벡터 고급 개체" transform="translate(1239 2832)">
        <g id="그룹_62" data-name="그룹 62">
          <g id="그룹_61" data-name="그룹 61" clip-path="url(#clip-path-9)">
            <path id="패스_594" data-name="패스 594" d="M27.437,69.247c-1.6.958-1.641,4.234-.6,5.777a7.742,7.742,0,0,0,4.7,2.786c3.583.9,7.334.781,11,1.247s7.48,1.671,9.818,4.534c2.127,2.606,2.693,6.158,4.47,9.015a5.223,5.223,0,0,0,1.5,1.67,5.8,5.8,0,0,0,1.8.695c8.493,2.087,17.944-.809,25.916,2.791l14.985,7.438a20.569,20.569,0,0,1,9.55,12.115l.357.59a29.382,29.382,0,0,0-7.153-5.371q1.333,4.653,2.665,9.307c-4.337-4.595-9.13-9.073-15.1-11.136a37.494,37.494,0,0,0-6.9-1.521,119.439,119.439,0,0,0-17.42-1.237c-3.246.007-6.566.137-9.656-.858a27.492,27.492,0,0,1-4.195-1.891,17.27,17.27,0,0,1-3.6-2.27A25.739,25.739,0,0,1,46.7,99.485a26.022,26.022,0,0,0-6.154-5.634l-.6-.31a13.21,13.21,0,0,0-5.559-.842c-3.814-.007-7.682.093-11.382-.837S15.716,88.8,13.974,85.4A18.166,18.166,0,0,1,12.5,80.536q-.312-1.608-.572-3.226a22.713,22.713,0,0,1-.364-6.009,9.653,9.653,0,0,1,2.656-5.55c.887,2.824,5.262,3.62,13.217,3.5" fill="#ffc6dd"/>
            <path id="패스_595" data-name="패스 595" d="M81.332,108.823l9.567,1.44a68.728,68.728,0,0,1,4.238-9.658L85.9,97.481c-2.243,2.713-3.594,6.746-4.564,11.342"/>
            <path id="패스_596" data-name="패스 596" d="M50.149,54.624c-.406,1.566,4.924,3.258,4.988,5.6.035,1.285-1.472,2.4-2.362,2.822-3.455,1.641-7.7.792-11.376,1.662-2.987.651-5.011,3.08-7.917,3.958a15.981,15.981,0,0,1-3.959.56c-4.509,0-9.817.472-13.848-1.424-1.776-.859-3.41-2.013-5.35-2.495-2.128-.6-4.828-.271-6.97-.847-3.879-1.184-2.323-3.041-.973-5.58.765-1.759-1.583-3.892-.4-5.54,2.828-2.9,7.838-1.219,11.377-2.3,3.473-.764,4.5-4.581,7.32-6.371,5.534-3.331,13.8-3.624,18.345,1.517,0,0,7.977,1.588,10.416,4.878.355.479,1.392,1.877.961,3.082-.109.305-.2.281-.251.483" fill="#fff"/>
            <path id="패스_597" data-name="패스 597" d="M50.149,54.624c-.433,1.443,4.939,3.222,4.988,5.6.027,1.291-1.47,2.4-2.362,2.822-3.455,1.641-7.7.792-11.376,1.662-2.987.651-5.011,3.08-7.917,3.958a15.981,15.981,0,0,1-3.959.56c-4.509,0-9.817.472-13.848-1.424-1.776-.859-3.41-2.013-5.35-2.495-2.128-.6-4.828-.271-6.97-.847-3.879-1.184-2.323-3.041-.973-5.58.765-1.759-1.583-3.892-.4-5.54,2.828-2.9,7.838-1.219,11.377-2.3,3.473-.764,4.5-4.581,7.32-6.371,5.534-3.331,13.8-3.624,18.345,1.517a6.39,6.39,0,0,0,.877,1.113c3.016,3.05,7.356,1.06,9.539,3.765.1.128,1.492,1.89.931,3.185C50.263,54.49,50.2,54.461,50.149,54.624Z" fill="none" stroke="#000" stroke-miterlimit="10" stroke-width="1.804"/>
            <path id="패스_598" data-name="패스 598" d="M37.531,43.576c-.174-8.419,3.484-14.393,9.443-20.333a18.323,18.323,0,0,1,3.949-3.1,24.3,24.3,0,0,1,4.769-1.86,55.066,55.066,0,0,1,14.141-2.84,22.362,22.362,0,0,1,13.734,3.65A43.936,43.936,0,0,0,87.561,22a19.216,19.216,0,0,0,4.246,1.547c2.193.609,3.41.8,5.6,1.412l1.51.242c9.167.49,17.425-5.719,26.554-6.674a38.92,38.92,0,0,1,13.306,1.421q3.643.9,7.219,2.052c2.248.724,4.479,1.523,6.786,2.035,4.559,1.011,9.28.875,13.946.734,3.784-.114,7.642-.242,11.2-1.532,6.587-2.386,11.944-9.985,12.3-16.991a10.476,10.476,0,0,0,9.343-4.469,31.857,31.857,0,0,1,.085,24.632A9.192,9.192,0,0,1,198,29.354a10.641,10.641,0,0,1-4.323,2.426,55.927,55.927,0,0,1-11.211,3.252,57.067,57.067,0,0,1-9.1.339c-6.784-.11-13.8-.269-19.963-3.108a32.29,32.29,0,0,0-4.639-2.037,19.468,19.468,0,0,0-5.43-.47,27.069,27.069,0,0,0-6.36.55c-7.144,1.777-11.737,8.949-18.581,11.664a28.457,28.457,0,0,1-8.9,1.6,115.737,115.737,0,0,1-11.778.083L95.3,43.189A52.517,52.517,0,0,1,78.631,33.3a13.82,13.82,0,0,0-2.905-2.186,11.131,11.131,0,0,0-3.221-.875,19.869,19.869,0,0,0-5.531-.269c-3.523.439-6.633,2.432-9.6,4.374a22.925,22.925,0,0,0-5.509,4.476c-2.429,3-3.227,6.657-3.9,10.456" fill="#ffc6dd"/>
            <path id="패스_599" data-name="패스 599" d="M145.185,77.137c-2.161,7.691-12.76,8.087-16.031,3.967-4,3.826-18.586,4.742-16.734-6.9-7.061,4.826-13.471-.984-9.886-6.4-3.12-1.092-7.422-8.922-1.537-12.767,5.116-3.486,11.747,3.374,17.812-.181.322-.568,2.319-3.964,5.92-4.508,4.1-.619,8.785,2.681,10.188,8.234a7.65,7.65,0,0,1,5.461-.486,7.809,7.809,0,0,1,4.744,4.225c8.176,3.087,10.34,11.613.064,14.815" fill="#fff"/>
            <path id="패스_600" data-name="패스 600" d="M145.185,77.137c-2.161,7.691-12.76,8.087-16.031,3.967-4,3.826-18.586,4.742-16.734-6.9-7.061,4.826-13.471-.984-9.886-6.4-3.12-1.092-7.422-8.922-1.537-12.767,5.116-3.486,11.747,3.374,17.812-.181.322-.568,2.319-3.964,5.92-4.508,4.1-.619,8.785,2.681,10.188,8.234a7.65,7.65,0,0,1,5.461-.486,7.809,7.809,0,0,1,4.744,4.225C153.3,65.408,155.461,73.935,145.185,77.137Z" fill="none" stroke="#000" stroke-linecap="round" stroke-linejoin="round" stroke-width="1.804"/>
            <path id="패스_601" data-name="패스 601" d="M132.335,90.563c-1.929-2.765-5.612-2.406-6.258-2.327-.956.117-2.85.35-3.721,1.9a4.118,4.118,0,0,0,.178,3.887A4.713,4.713,0,0,0,123.8,95.38c1.624,1.263,3.67,2.982,6.183,2.617a4.024,4.024,0,0,0,2.423-1.085c1.5-1.555,1.217-4.494-.077-6.349" fill="#fff"/>
            <path id="패스_602" data-name="패스 602" d="M132.335,90.563c-1.929-2.765-5.612-2.406-6.258-2.327-.956.117-2.85.35-3.721,1.9a4.118,4.118,0,0,0,.178,3.887A4.713,4.713,0,0,0,123.8,95.38c1.624,1.263,3.67,2.982,6.183,2.617a4.024,4.024,0,0,0,2.423-1.085C133.91,95.357,133.628,92.418,132.335,90.563Z" fill="none" stroke="#000" stroke-linecap="round" stroke-linejoin="round" stroke-width="1.804"/>
            <path id="패스_603" data-name="패스 603" d="M118.779,100.68a2.979,2.979,0,0,0-1.653.4,2.134,2.134,0,0,0-1.065,1.276,2.188,2.188,0,0,0,.132,1.272,2.675,2.675,0,0,0,5.08.377,2.1,2.1,0,0,0,.335-1.354,2.384,2.384,0,0,0-1.3-1.613,3.06,3.06,0,0,0-1.534-.357" fill="#fff"/>
            <path id="패스_604" data-name="패스 604" d="M118.779,100.68a2.979,2.979,0,0,0-1.653.4,2.134,2.134,0,0,0-1.065,1.276,2.188,2.188,0,0,0,.132,1.272,2.675,2.675,0,0,0,5.08.377,2.1,2.1,0,0,0,.335-1.354,2.384,2.384,0,0,0-1.3-1.613A3.06,3.06,0,0,0,118.779,100.68Z" fill="none" stroke="#000" stroke-linecap="round" stroke-linejoin="round" stroke-width="1.804"/>
            <path id="패스_605" data-name="패스 605" d="M27.437,69.247c-1.6.958-1.641,4.234-.6,5.777a7.742,7.742,0,0,0,4.7,2.786c3.583.9,7.334.781,11,1.247s7.48,1.671,9.818,4.534c2.127,2.606,2.693,6.158,4.47,9.015a5.223,5.223,0,0,0,1.5,1.67,5.8,5.8,0,0,0,1.8.695c8.493,2.087,17.944-.809,25.916,2.791l14.985,7.438a20.569,20.569,0,0,1,9.55,12.115l.357.59a29.382,29.382,0,0,0-7.153-5.371q1.333,4.653,2.665,9.307c-4.337-4.595-9.13-9.073-15.1-11.136a37.494,37.494,0,0,0-6.9-1.521,119.439,119.439,0,0,0-17.42-1.237c-3.246.007-6.566.137-9.656-.858a27.492,27.492,0,0,1-4.195-1.891,17.27,17.27,0,0,1-3.6-2.27A25.739,25.739,0,0,1,46.7,99.485a26.022,26.022,0,0,0-6.154-5.634l-.6-.31a13.21,13.21,0,0,0-5.559-.842c-3.814-.007-7.682.093-11.382-.837S15.716,88.8,13.974,85.4A18.166,18.166,0,0,1,12.5,80.536q-.312-1.608-.572-3.226a22.713,22.713,0,0,1-.364-6.009c.214-2-.119-3.568,1.3-4.988" fill="none" stroke="#000" stroke-linecap="round" stroke-linejoin="round" stroke-width="1.804"/>
            <path id="패스_606" data-name="패스 606" d="M37.531,43.576c-.174-8.419,3.484-14.393,9.443-20.333a18.323,18.323,0,0,1,3.949-3.1,24.3,24.3,0,0,1,4.769-1.86,55.066,55.066,0,0,1,14.141-2.84,22.362,22.362,0,0,1,13.734,3.65A43.936,43.936,0,0,0,87.561,22a19.216,19.216,0,0,0,4.246,1.547c2.193.609,3.41.8,5.6,1.412l1.51.242c9.167.49,17.425-5.719,26.554-6.674a38.92,38.92,0,0,1,13.306,1.421q3.643.9,7.219,2.052c2.248.724,4.479,1.523,6.786,2.035,4.559,1.011,9.28.875,13.946.734,3.784-.114,7.642-.242,11.2-1.532,6.587-2.386,11.944-9.985,12.3-16.991a10.476,10.476,0,0,0,9.343-4.469,31.857,31.857,0,0,1,.085,24.632A9.192,9.192,0,0,1,198,29.354a10.641,10.641,0,0,1-4.323,2.426,55.927,55.927,0,0,1-11.211,3.252,57.067,57.067,0,0,1-9.1.339c-6.784-.11-13.8-.269-19.963-3.108a32.29,32.29,0,0,0-4.639-2.037,19.468,19.468,0,0,0-5.43-.47,27.069,27.069,0,0,0-6.36.55c-7.144,1.777-11.737,8.949-18.581,11.664a28.457,28.457,0,0,1-8.9,1.6,115.737,115.737,0,0,1-11.778.083L95.3,43.189A52.517,52.517,0,0,1,78.631,33.3a13.82,13.82,0,0,0-2.905-2.186,11.131,11.131,0,0,0-3.221-.875,19.869,19.869,0,0,0-5.531-.269c-3.523.439-6.633,2.432-9.6,4.374a22.925,22.925,0,0,0-5.509,4.476c-2.429,3-3.227,6.657-3.9,10.456" fill="none" stroke="#000" stroke-miterlimit="10" stroke-width="1.804"/>
            <path id="패스_607" data-name="패스 607" d="M105.124,99.621a2.422,2.422,0,0,1,2.151,4.248,4.649,4.649,0,0,1-2.118.732,34.994,34.994,0,0,1-14.747-.425,7.109,7.109,0,0,1-3.605-1.905,4.13,4.13,0,0,1-.983-3.114,1.764,1.764,0,0,1,.56-1.229,2.236,2.236,0,0,1,1.437-.311l2.489.032a1.727,1.727,0,0,0,1.275-.329,1.493,1.493,0,0,0,.314-.555c.746-2.019.358-4.258.507-6.406.081-1.167.471-2.507,1.562-2.925a2.3,2.3,0,0,1,2.492.83,4.927,4.927,0,0,1,.909,2.621,26.83,26.83,0,0,0,.276,2.8,1.84,1.84,0,0,0,.524,1.059.778.778,0,0,0,1.076-.025,1.221,1.221,0,0,0,.142-.833,16.382,16.382,0,0,1,.831-6.232,1.786,1.786,0,0,1,.351-.679,1.462,1.462,0,0,1,1.923.139c1.145.967,1.316,2.639,1.4,4.136q.228,3.943.458,7.887" fill="#a65938"/>
            <path id="패스_608" data-name="패스 608" d="M104.351,98.526c-.2-2.626-.305-4.65-.458-7.279-.087-1.5-.258-3.17-1.4-4.136a1.461,1.461,0,0,0-1.924-.139,1.812,1.812,0,0,0-.351.679,16.417,16.417,0,0,0-.831,6.232,1.215,1.215,0,0,1-.141.833.777.777,0,0,1-1.076.024,1.835,1.835,0,0,1-.524-1.058,27.078,27.078,0,0,1-.277-2.8,4.923,4.923,0,0,0-.908-2.621,2.3,2.3,0,0,0-2.492-.831c-1.091.419-1.481,1.759-1.562,2.926-.15,2.148.239,4.387-.507,6.406a1.506,1.506,0,0,1-.314.555,1.727,1.727,0,0,1-1.275.329l-2.489-.032a2.235,2.235,0,0,0-1.438.311,1.768,1.768,0,0,0-.56,1.229,4.131,4.131,0,0,0,.984,3.114,7.1,7.1,0,0,0,3.605,1.905,34.978,34.978,0,0,0,14.747.424,4.621,4.621,0,0,0,2.118-.732,2.5,2.5,0,0,0,.689-3.02c-.506-1-1.753-1.191-2.689-1.274C105.275,99.574,104.431,99.589,104.351,98.526Z" fill="none" stroke="#000" stroke-linecap="round" stroke-linejoin="round" stroke-width="1.804"/>
            <path id="패스_609" data-name="패스 609" d="M114.576,127.049c-.788-3.133-2.779-5.8-4.734-8.374a18.639,18.639,0,0,0-3-3.338,17.677,17.677,0,0,1-2.454-1.992,13.524,13.524,0,0,0,1.882,5.253c.7,1.129,1.556,2.148,2.286,3.256a33.675,33.675,0,0,1,3.27,7.244,9.9,9.9,0,0,0,.056-3.863,11.119,11.119,0,0,1,3.533,3.125,7.008,7.008,0,0,0-.938-1.9" fill="#d94e57"/>
            <path id="패스_610" data-name="패스 610" d="M114.576,127.049c-.788-3.133-2.779-5.8-4.734-8.374a18.639,18.639,0,0,0-3-3.338,17.677,17.677,0,0,1-2.454-1.992,13.524,13.524,0,0,0,1.882,5.253c.7,1.129,1.556,2.148,2.286,3.256a33.675,33.675,0,0,1,3.27,7.244,9.9,9.9,0,0,0,.056-3.863,11.119,11.119,0,0,1,3.533,3.125,7.008,7.008,0,0,0-.938-1.9" fill="none" stroke="#000" stroke-linecap="round" stroke-linejoin="round" stroke-width="1.804"/>
            <path id="패스_611" data-name="패스 611" d="M76.549,96.067a18.334,18.334,0,0,0-3.331,11.1.83.83,0,0,1-.205.679.791.791,0,0,1-.409.128,52.209,52.209,0,0,1-8.681.044,11.486,11.486,0,0,1-2.565-.324.539.539,0,0,1-.342-.207A.566.566,0,0,1,61,107.1l1.395-7.343c.159-.842.32-1.684.5-2.522a2.262,2.262,0,0,1,.446-1.077,2.334,2.334,0,0,1,1.814-.493l11.118.173"/>
            <path id="패스_612" data-name="패스 612" d="M55.245,92.388a7.246,7.246,0,0,0-2.669,3.325,20.424,20.424,0,0,0-1.15,4.166q-.312,1.572-.6,3.148a2.485,2.485,0,0,1-1.806-1.052c-.824-.929-8.206-8.263-8.388-8.465a1.136,1.136,0,0,1-.2-.777,14.418,14.418,0,0,1,1.093-5c1-2.663,2.5-5.369,5.064-6.6.253-.122.549-.033.809-.139,2.075-.837,10.472,7.541,8.158,11.27Z"/>
            <path id="패스_613" data-name="패스 613" d="M11.928,77.31c.419,9.36,5.417,14.557,15.446,15.18-1.2-4.641-.029-9.121,4.811-14.284l-6.2-4.961A31.815,31.815,0,0,1,11.928,77.31"/>
            <path id="패스_614" data-name="패스 614" d="M67.667,30.1c2.493-.68,5.727-.072,9.679,1.786l6.222-12.789c-4.684-3.434-10.372-4.389-16.792-3.538,1.119,3.734,1.257,8.8.891,14.541"/>
            <path id="패스_615" data-name="패스 615" d="M52.3,38.557c.72-2.485,4.777-3.866,8.42-6.275-2.233-5.21-4.89-9.662-8.268-12.831-5.368,2.213-9.147,6.577-11.769,12.507,3.765.991,6.914,3.291,11.618,6.6"/>
            <path id="패스_616" data-name="패스 616" d="M37.528,43.807l3.029,4.044,7.369.96,1.161-4.3a19.968,19.968,0,0,0-11.558-3.235Z"/>
            <path id="패스_617" data-name="패스 617" d="M91.428,41.777a44.7,44.7,0,0,0,20.816,1.9c-.724-8.069-1.623-15.761-4.2-19.86-4.013,1.858-8.574,1.934-13.576.578-.647,8.047-1.48,14.96-3.045,17.388"/>
            <path id="패스_618" data-name="패스 618" d="M124.874,37.979c4.079-4.109,8.2-7.51,12.1-7.675l-4.094-11.529a33.87,33.87,0,0,0-17.82,2.6c5.122,4.874,8.614,10.331,9.812,16.605"/>
            <path id="패스_619" data-name="패스 619" d="M101.715,110.161a.9.9,0,0,0,0-1.805.9.9,0,0,0,0,1.805"/>
            <path id="패스_620" data-name="패스 620" d="M99.181,111.767a.9.9,0,0,0,0-1.805.9.9,0,0,0,0,1.805"/>
          </g>
        </g>
      </g>
      <g id="벡터_고급_개체-4" data-name="벡터 고급 개체">
        <g id="그룹_64" data-name="그룹 64">
          <g id="그룹_63" data-name="그룹 63" clip-path="url(#clip-path-10)">
            <path id="패스_621" data-name="패스 621" d="M1513.24,2809.426a14.315,14.315,0,0,0-5.917,4.113,15.138,15.138,0,0,0-3.433,9.428,4,4,0,0,0-1.387.439,7.241,7.241,0,0,0-1.427,1.008l-.6.529a20.514,20.514,0,0,0-2.025,2.448,14.285,14.285,0,0,0-1.914-1.81,7.447,7.447,0,0,0-1.609-.975,4.7,4.7,0,0,0-3.182-.239,32.083,32.083,0,0,1,5.007-6.85,19.163,19.163,0,0,1,2.226-1.958,38.99,38.99,0,0,1,5.411-3.393,24.949,24.949,0,0,1,4.007-1.755,17.864,17.864,0,0,1,4.845-.984" fill="#fff"/>
            <path id="패스_622" data-name="패스 622" d="M1513.24,2809.426a14.315,14.315,0,0,0-5.917,4.113,15.138,15.138,0,0,0-3.433,9.428,4,4,0,0,0-1.387.439,7.241,7.241,0,0,0-1.427,1.008l-.6.529a20.514,20.514,0,0,0-2.025,2.448,14.285,14.285,0,0,0-1.914-1.81,7.447,7.447,0,0,0-1.609-.975,4.7,4.7,0,0,0-3.182-.239,32.083,32.083,0,0,1,5.007-6.85,19.163,19.163,0,0,1,2.226-1.958,38.99,38.99,0,0,1,5.411-3.393,24.949,24.949,0,0,1,4.007-1.755A17.864,17.864,0,0,1,1513.24,2809.426Z" fill="none" stroke="#251714" stroke-linecap="round" stroke-linejoin="round" stroke-width="2"/>
            <path id="패스_623" data-name="패스 623" d="M1544.812,2829.457a23.478,23.478,0,0,0-7-5.3,23.822,23.822,0,0,0-4-1.869,27.242,27.242,0,0,0-4.244-.944,41.983,41.983,0,0,0-10.783-.848,36.906,36.906,0,0,0-7.5,1.72,13.56,13.56,0,0,0-4.859,2.306,2.158,2.158,0,0,0-1.467-1.456,2.669,2.669,0,0,0-1.066-.09,15.172,15.172,0,0,1,3.423-9.428,14.342,14.342,0,0,1,5.912-4.12c3.268-.178,6.258.614,10.921,1.182a16.958,16.958,0,0,1,5.913,1.549,23.605,23.605,0,0,1,4.93,4.108,66.088,66.088,0,0,1,5.986,5.942,22.935,22.935,0,0,1,3.829,7.251" fill="#ea6c6d"/>
            <path id="패스_624" data-name="패스 624" d="M1544.812,2829.457a23.478,23.478,0,0,0-7-5.3,23.822,23.822,0,0,0-4-1.869,27.242,27.242,0,0,0-4.244-.944,41.983,41.983,0,0,0-10.783-.848,36.906,36.906,0,0,0-7.5,1.72,13.56,13.56,0,0,0-4.859,2.306,2.158,2.158,0,0,0-1.467-1.456,2.669,2.669,0,0,0-1.066-.09,15.172,15.172,0,0,1,3.423-9.428,14.342,14.342,0,0,1,5.912-4.12c3.268-.178,6.258.614,10.921,1.182a16.958,16.958,0,0,1,5.913,1.549,23.605,23.605,0,0,1,4.93,4.108,66.088,66.088,0,0,1,5.986,5.942A22.935,22.935,0,0,1,1544.812,2829.457Z" fill="none" stroke="#251714" stroke-linecap="round" stroke-linejoin="round" stroke-width="2"/>
            <path id="패스_625" data-name="패스 625" d="M1546.716,2844.72a21.016,21.016,0,0,1-.657,5.948,15.679,15.679,0,0,1-2.113,4.219,26.174,26.174,0,0,1-4,4.619,33.711,33.711,0,0,0-4.4-9.009,71.548,71.548,0,0,0-11.589-13.647,40.752,40.752,0,0,0-8.489-6.19,24.639,24.639,0,0,0-10.367-2.962c.241-.334.471-.671.7-1.011a3.266,3.266,0,0,0,.688-1.773,1.705,1.705,0,0,0-.053-.4,13.56,13.56,0,0,1,4.859-2.306,36.862,36.862,0,0,1,7.5-1.72,41.9,41.9,0,0,1,10.783.849,27.212,27.212,0,0,1,4.244.944,31.323,31.323,0,0,1,10.994,7.173,48.051,48.051,0,0,1,1.9,15.264" fill="#fff"/>
            <path id="패스_626" data-name="패스 626" d="M1546.716,2844.72a21.016,21.016,0,0,1-.657,5.948,15.679,15.679,0,0,1-2.113,4.219,26.174,26.174,0,0,1-4,4.619,33.711,33.711,0,0,0-4.4-9.009,71.548,71.548,0,0,0-11.589-13.647,40.752,40.752,0,0,0-8.489-6.19,24.639,24.639,0,0,0-10.367-2.962c.241-.334.471-.671.7-1.011a3.266,3.266,0,0,0,.688-1.773,1.705,1.705,0,0,0-.053-.4,13.56,13.56,0,0,1,4.859-2.306,36.862,36.862,0,0,1,7.5-1.72,41.9,41.9,0,0,1,10.783.849,27.212,27.212,0,0,1,4.244.944,31.323,31.323,0,0,1,10.994,7.173A48.051,48.051,0,0,1,1546.716,2844.72Z" fill="none" stroke="#251714" stroke-linecap="round" stroke-linejoin="round" stroke-width="2"/>
            <path id="패스_627" data-name="패스 627" d="M1539.949,2859.506a31.712,31.712,0,0,1-12.554,6.972c-1.042.3-2.089.56-3.151.767h-.005a18.018,18.018,0,0,1-9.436-3.194,26.847,26.847,0,0,1-7.716-8.391,21.484,21.484,0,0,1-1.613-3.123,28.283,28.283,0,0,1-1.238-4.366,63.641,63.641,0,0,1-1.379-8.23,40.308,40.308,0,0,1,.022-9.517c.108-.121.216-.241.33-.363a29.259,29.259,0,0,0,1.889-2.362,24.621,24.621,0,0,1,10.366,2.963,40.691,40.691,0,0,1,8.49,6.189,71.548,71.548,0,0,1,11.589,13.647,33.7,33.7,0,0,1,4.4,9.009" fill="#f2ed7a"/>
            <path id="패스_628" data-name="패스 628" d="M1539.949,2859.506a31.712,31.712,0,0,1-12.554,6.972c-1.042.3-2.089.56-3.151.767h-.005a18.018,18.018,0,0,1-9.436-3.194,26.847,26.847,0,0,1-7.716-8.391,21.484,21.484,0,0,1-1.613-3.123,28.283,28.283,0,0,1-1.238-4.366,63.641,63.641,0,0,1-1.379-8.23,40.308,40.308,0,0,1,.022-9.517c.108-.121.216-.241.33-.363a29.259,29.259,0,0,0,1.889-2.362,24.621,24.621,0,0,1,10.366,2.963,40.691,40.691,0,0,1,8.49,6.189,71.548,71.548,0,0,1,11.589,13.647A33.7,33.7,0,0,1,1539.949,2859.506Z" fill="none" stroke="#251714" stroke-linecap="round" stroke-linejoin="round" stroke-width="2"/>
            <path id="패스_629" data-name="패스 629" d="M1524.233,2867.252a47.874,47.874,0,0,1-17.187-.015,14.713,14.713,0,0,1-6.874-3.027,22.038,22.038,0,0,1-2.608-2.557,18.749,18.749,0,0,1-1.3-1.628c-1.753-2.564-2.986-4.35-4.743-6.928-.168-.235-.334-.471-.491-.723-.06-.357-.13-.694-.176-1.053a38.782,38.782,0,0,1-.5-4.317c-.019-.258-.025-.52-.029-.781s0-.495,0-.728c.005-.343.01-.684.033-1.016,0-.357.034-.705.067-1.055.055-.51.123-1.024.21-1.526a13.536,13.536,0,0,1,5.717-9.173,7.61,7.61,0,0,1,2.283-.95l.029-.008a4.859,4.859,0,0,0,3.045-.3,4.188,4.188,0,0,0,.858-.718c.086-.084.157-.165.229-.245a.256.256,0,0,0,.086-.084c-.059.371-.107.724-.136,1.089l0,.015a37.359,37.359,0,0,0-.024,6.651c.044.594.083,1.171.142,1.761a62.713,62.713,0,0,0,1.374,8.238,29.013,29.013,0,0,0,1.23,4.358c.081.2.165.407.259.6a25.676,25.676,0,0,0,1.361,2.526,26.633,26.633,0,0,0,7.719,8.4,18.006,18.006,0,0,0,9.427,3.2" fill="#fff"/>
            <path id="패스_630" data-name="패스 630" d="M1524.233,2867.252a47.874,47.874,0,0,1-17.187-.015,14.713,14.713,0,0,1-6.874-3.027,22.038,22.038,0,0,1-2.608-2.557,18.749,18.749,0,0,1-1.3-1.628c-1.753-2.564-2.986-4.35-4.743-6.928-.168-.235-.334-.471-.491-.723-.06-.357-.13-.694-.176-1.053a38.782,38.782,0,0,1-.5-4.317c-.019-.258-.025-.52-.029-.781s0-.495,0-.728c.005-.343.01-.684.033-1.016,0-.357.034-.705.067-1.055.055-.51.123-1.024.21-1.526a13.536,13.536,0,0,1,5.717-9.173,7.61,7.61,0,0,1,2.283-.95l.029-.008a4.859,4.859,0,0,0,3.045-.3,4.188,4.188,0,0,0,.858-.718c.086-.084.157-.165.229-.245a.256.256,0,0,0,.086-.084c-.059.371-.107.724-.136,1.089l0,.015a37.359,37.359,0,0,0-.024,6.651c.044.594.083,1.171.142,1.761a62.713,62.713,0,0,0,1.374,8.238,29.013,29.013,0,0,0,1.23,4.358c.081.2.165.407.259.6a25.676,25.676,0,0,0,1.361,2.526,26.633,26.633,0,0,0,7.719,8.4A18.006,18.006,0,0,0,1524.233,2867.252Z" fill="none" stroke="#251714" stroke-linecap="round" stroke-linejoin="round" stroke-width="2"/>
            <path id="패스_631" data-name="패스 631" d="M1497.133,2830.754a1.277,1.277,0,0,0,.371.678,1.7,1.7,0,0,0,.872.3c.094.007.177.032.256.041a7.619,7.619,0,0,0-2.283.952,13.534,13.534,0,0,0-5.718,9.172c-.086.5-.155,1.016-.208,1.526-.034.349-.068.7-.069,1.055-.023.332-.027.674-.033,1.016,0,.233,0,.48,0,.728s.01.524.03.783a38.459,38.459,0,0,0,.5,4.314c.044.36.116.7.175,1.054-.166-.235-.319-.474-.486-.71a20.165,20.165,0,0,1-2.371-4.572,21.334,21.334,0,0,1-.791-6.966,36.006,36.006,0,0,1,.259-4.7c.087-.627.185-1.256.322-1.865a29.115,29.115,0,0,1,2.457-6.65c.422-.87.851-1.708,1.312-2.542l.015,0a4.7,4.7,0,0,1,3.182.239,7.466,7.466,0,0,1,1.609.975,14.285,14.285,0,0,1,1.914,1.81.276.276,0,0,1-.082.1,4.146,4.146,0,0,0-1.236,3.264" fill="#1b4292"/>
            <path id="패스_632" data-name="패스 632" d="M1497.133,2830.754a1.277,1.277,0,0,0,.371.678,1.7,1.7,0,0,0,.872.3c.094.007.177.032.256.041a7.619,7.619,0,0,0-2.283.952,13.534,13.534,0,0,0-5.718,9.172c-.086.5-.155,1.016-.208,1.526-.034.349-.068.7-.069,1.055-.023.332-.027.674-.033,1.016,0,.233,0,.48,0,.728s.01.524.03.783a38.459,38.459,0,0,0,.5,4.314c.044.36.116.7.175,1.054-.166-.235-.319-.474-.486-.71a20.165,20.165,0,0,1-2.371-4.572,21.334,21.334,0,0,1-.791-6.966,36.006,36.006,0,0,1,.259-4.7c.087-.627.185-1.256.322-1.865a29.115,29.115,0,0,1,2.457-6.65c.422-.87.851-1.708,1.312-2.542l.015,0a4.7,4.7,0,0,1,3.182.239,7.466,7.466,0,0,1,1.609.975,14.285,14.285,0,0,1,1.914,1.81.276.276,0,0,1-.082.1A4.146,4.146,0,0,0,1497.133,2830.754Z" fill="none" stroke="#251714" stroke-linecap="round" stroke-linejoin="round" stroke-width="2"/>
            <path id="패스_633" data-name="패스 633" d="M1506.432,2824.517a1.705,1.705,0,0,1,.053.4,3.275,3.275,0,0,1-.69,1.773c-.224.339-.455.676-.7,1.011a29.262,29.262,0,0,1-1.888,2.361c-.114.122-.222.242-.331.362-.025.03-.055.058-.08.087a4.884,4.884,0,0,1-1.1.958,4.785,4.785,0,0,1-3.035.3.062.062,0,0,0-.031,0l-.249-.032a1.7,1.7,0,0,1-.884-.3,1.27,1.27,0,0,1-.36-.676c-.262-1.179.481-2.326,1.232-3.265.029-.034.058-.068.081-.1a21.209,21.209,0,0,1,2.016-2.449,9.928,9.928,0,0,1,2.034-1.542,4.011,4.011,0,0,1,1.395-.428,2.66,2.66,0,0,1,1.067.09,2.161,2.161,0,0,1,1.467,1.456" fill="#fff"/>
            <path id="패스_634" data-name="패스 634" d="M1506.432,2824.517a1.705,1.705,0,0,1,.053.4,3.275,3.275,0,0,1-.69,1.773c-.224.339-.455.676-.7,1.011a29.262,29.262,0,0,1-1.888,2.361c-.114.122-.222.242-.331.362-.025.03-.055.058-.08.087a4.884,4.884,0,0,1-1.1.958,4.785,4.785,0,0,1-3.035.3.062.062,0,0,0-.031,0l-.249-.032a1.7,1.7,0,0,1-.884-.3,1.27,1.27,0,0,1-.36-.676c-.262-1.179.481-2.326,1.232-3.265.029-.034.058-.068.081-.1a21.209,21.209,0,0,1,2.016-2.449,9.928,9.928,0,0,1,2.034-1.542,4.011,4.011,0,0,1,1.395-.428,2.66,2.66,0,0,1,1.067.09A2.161,2.161,0,0,1,1506.432,2824.517Z" fill="none" stroke="#251714" stroke-linecap="round" stroke-linejoin="round" stroke-width="2"/>
          </g>
        </g>
        <!--<animateTransform attributeName="transform" attributeType="XML" type="rotate" from="0 1533 2833" to="360 1533 2833" dur="5s" repeatCount="indefinite"/>-->
        <animateTransform attributeName="transform" type="translate"
        values="0 0; 0 40; 0 0"
        keyTimes="0; 0.5; 1"
        keySplines="0.42 0 0.58 1; 0.42 0 0.58 1"
        dur="1.5s"
        repeatCount="indefinite"/>
      </g>
      <g id="벡터_고급_개체-5" data-name="벡터 고급 개체" transform="translate(1693 2395)">
        <g id="그룹_66" data-name="그룹 66">
          <g id="그룹_65" data-name="그룹 65" clip-path="url(#clip-path-11)">
            <path id="패스_635" data-name="패스 635" d="M15.272,20.309a13,13,0,0,1,5.385-17.7A13.285,13.285,0,0,1,38.548,7.936C41.939,14.176,41.89,26,35.81,29.663l1.98,1.212.12-.063a.3.3,0,0,1,.4.12l.035.065a.293.293,0,0,1-.121.4l-3,1.594a.3.3,0,0,1-.4-.121l-.035-.064a.3.3,0,0,1,.121-.4l.119-.063.071-2.3c-6.446,2.993-16.44-3.491-19.828-9.731" fill="#f2695a"/>
            <path id="패스_636" data-name="패스 636" d="M15.272,20.309a13,13,0,0,1,5.385-17.7A13.285,13.285,0,0,1,38.548,7.936C41.939,14.176,41.89,26,35.81,29.663l1.98,1.212.12-.063a.3.3,0,0,1,.4.12l.035.065a.293.293,0,0,1-.121.4l-3,1.594a.3.3,0,0,1-.4-.121l-.035-.064a.3.3,0,0,1,.121-.4l.119-.063.071-2.3C28.655,33.033,18.661,26.549,15.272,20.309Z" fill="none" stroke="#251714" stroke-linecap="round" stroke-linejoin="round" stroke-width="2.115"/>
            <path id="패스_637" data-name="패스 637" d="M36.967,32.406c4.918,10.512,4.218,16.524,1.985,20.162-2.3,3.742-5.995,4.619-6.222,7.564-.322,4.165,6.638,8.133,13,10.964" fill="none" stroke="#251714" stroke-linecap="round" stroke-linejoin="round" stroke-width="2.115"/>
            <path id="패스_638" data-name="패스 638" d="M5.446,68.968A17.536,17.536,0,0,1,7.207,44.041a18,18,0,0,1,25.2,1.742c6.353,7.228,9.855,22.83,2.943,29.458l2.976,1.014.138-.119a.407.407,0,0,1,.568.04l.067.075a.4.4,0,0,1-.04.562L35.588,79.8a.406.406,0,0,1-.568-.039l-.066-.076a.4.4,0,0,1,.039-.562L35.132,79l-.6-3.056C26.932,81.8,11.8,76.2,5.446,68.968" fill="#008cd6"/>
            <path id="패스_639" data-name="패스 639" d="M5.446,68.968A17.536,17.536,0,0,1,7.207,44.041a18,18,0,0,1,25.2,1.742c6.353,7.228,9.855,22.83,2.943,29.458l2.976,1.014.138-.119a.407.407,0,0,1,.568.04l.067.075a.4.4,0,0,1-.04.562L35.588,79.8a.406.406,0,0,1-.568-.039l-.066-.076a.4.4,0,0,1,.039-.562L35.132,79l-.6-3.056C26.932,81.8,11.8,76.2,5.446,68.968Z" fill="none" stroke="#251714" stroke-linecap="round" stroke-linejoin="round" stroke-width="2.115"/>
            <path id="패스_640" data-name="패스 640" d="M37.7,78.516c9.656,12.411,10.548,20.544,8.7,26-1.9,5.612-6.513,7.861-5.924,11.811.832,5.588,11.207,8.766,20.456,10.62" fill="none" stroke="#251714" stroke-linecap="round" stroke-linejoin="round" stroke-width="2.115"/>
          </g>
        </g>
      </g>
      <g id="벡터_고급_개체-6" data-name="벡터 고급 개체" transform="translate(1809 2523)">
        <g id="그룹_68" data-name="그룹 68">
          <g id="그룹_67" data-name="그룹 67" clip-path="url(#clip-path-8)">
            <path id="패스_641" data-name="패스 641" d="M35.957,7.745c7.51,8.425,5.5,24.26-3.664,31.138A19.712,19.712,0,0,1,3.1,31.535c-2.463-5.242-1.586-10.117-1.084-12.9C2.584,15.469,3.8,8.7,9.912,4.505,15.618.586,21.92,1.429,23.674,1.664c1.509.2,7.883,1.146,12.283,6.081" fill="#fff"/>
            <path id="패스_642" data-name="패스 642" d="M35.957,7.745c7.51,8.425,5.5,24.26-3.664,31.138A19.712,19.712,0,0,1,3.1,31.535c-2.463-5.242-1.586-10.117-1.084-12.9C2.584,15.469,3.8,8.7,9.912,4.505,15.618.586,21.92,1.429,23.674,1.664,25.184,1.866,31.558,2.81,35.957,7.745Z" fill="none" stroke="#000" stroke-miterlimit="10" stroke-width="2.868"/>
            <path id="패스_643" data-name="패스 643" d="M15.888,9.408S2.922,18.355,10.1,28.876" fill="none" stroke="#000" stroke-linecap="round" stroke-linejoin="round" stroke-width="2.868"/>
            <line id="선_6" data-name="선 6" x1="1.828" y1="1.383" transform="translate(13.039 32.59)" fill="none" stroke="#000" stroke-linecap="round" stroke-linejoin="round" stroke-width="2.868"/>
          </g>
        </g>
      </g>
    </g>
  </g>
</svg>
