<svg xmlns="http://www.w3.org/2000/svg" xmlns:xlink="http://www.w3.org/1999/xlink" width="299.445" height="292" viewBox="0 0 299.445 292">
  <defs>
    <clipPath id="clip-path">
      <rect id="사각형_40" data-name="사각형 40" width="205" height="249" fill="none"/>
    </clipPath>
    <clipPath id="clip-path-2">
      <rect id="사각형_41" data-name="사각형 41" width="84" height="83" transform="translate(0 0)" fill="none"/>
    </clipPath>
    <clipPath id="clip-path-3">
      <rect id="사각형_42" data-name="사각형 42" width="67" height="70" transform="matrix(0.788, 0.615, -0.615, 0.788, 243.637, 3905.796)" fill="none"/>
    </clipPath>
    <clipPath id="clip-path-4">
      <rect id="사각형_43" data-name="사각형 43" width="25" height="24" transform="translate(0 0)" fill="none"/>
    </clipPath>
  </defs>
  <g id="그룹_300" data-name="그룹 300" transform="translate(-263 -3946)">
    <g id="벡터_고급_개체" data-name="벡터 고급 개체" transform="translate(263 3946)">
      <g id="그룹_80" data-name="그룹 80">
        <g id="그룹_79" data-name="그룹 79" clip-path="url(#clip-path)">
          <path id="패스_674" data-name="패스 674" d="M123.2,1.3,80.705,11.6l49.7,17.488L180.226,7.675,126.084,1.127a8.1,8.1,0,0,0-2.881.17" fill="#fff"/>
          <path id="패스_675" data-name="패스 675" d="M123.2,1.3,80.705,11.6l49.7,17.488L180.226,7.675,126.084,1.127A8.1,8.1,0,0,0,123.2,1.3Z" fill="none" stroke="#000" stroke-linecap="round" stroke-linejoin="round" stroke-width="2.133"/>
          <path id="패스_676" data-name="패스 676" d="M130.4,29.094l3.9,178.194,51.3-21.22L180.226,7.674Z" fill="#fff"/>
          <path id="패스_677" data-name="패스 677" d="M130.4,29.094l3.9,178.194,51.3-21.22L180.226,7.674Z" fill="none" stroke="#000" stroke-linecap="round" stroke-linejoin="round" stroke-width="2.133"/>
          <path id="패스_678" data-name="패스 678" d="M80.705,11.605,91.042,183.256,134.3,207.288,130.4,29.093Z" fill="#fff"/>
          <path id="패스_679" data-name="패스 679" d="M80.705,11.605,91.042,183.256,134.3,207.288,130.4,29.093Z" fill="none" stroke="#000" stroke-linecap="round" stroke-linejoin="round" stroke-width="2.133"/>
          <path id="패스_680" data-name="패스 680" d="M135.776,31.922l.284,14.126,11.452-8.222-.24-10.575Z" fill="#fff"/>
          <path id="패스_681" data-name="패스 681" d="M135.776,31.922l.284,14.126,11.452-8.222-.24-10.575Z" fill="none" stroke="#000" stroke-linecap="round" stroke-linejoin="round" stroke-width="2.133"/>
          <path id="패스_682" data-name="패스 682" d="M151.441,25.918l.272,11.487,11.874-2.951L163.208,20.1Z" fill="#fff"/>
          <path id="패스_683" data-name="패스 683" d="M151.441,25.918l.272,11.487,11.874-2.951L163.208,20.1Z" fill="none" stroke="#000" stroke-linecap="round" stroke-linejoin="round" stroke-width="2.133"/>
          <path id="패스_684" data-name="패스 684" d="M168.674,19.617,169,31.534l6.356-6.453-.248-8.512Z" fill="#fff"/>
          <path id="패스_685" data-name="패스 685" d="M168.674,19.617,169,31.534l6.356-6.453-.248-8.512Z" fill="none" stroke="#000" stroke-linecap="round" stroke-linejoin="round" stroke-width="2.133"/>
          <path id="패스_686" data-name="패스 686" d="M136.2,53.164l.287,14.262,11.5-8.45L147.751,48.3Z" fill="#fff"/>
          <path id="패스_687" data-name="패스 687" d="M136.2,53.164l.287,14.262,11.5-8.45L147.751,48.3Z" fill="none" stroke="#000" stroke-linecap="round" stroke-linejoin="round" stroke-width="2.133"/>
          <path id="패스_688" data-name="패스 688" d="M151.938,46.9l.275,11.6,11.926-3.132-.382-14.486Z" fill="#fff"/>
          <path id="패스_689" data-name="패스 689" d="M151.938,46.9l.275,11.6,11.926-3.132-.382-14.486Z" fill="none" stroke="#000" stroke-linecap="round" stroke-linejoin="round" stroke-width="2.133"/>
          <path id="패스_690" data-name="패스 690" d="M169.246,40.321l.332,12.028,6.382-6.595-.249-8.592Z" fill="#fff"/>
          <path id="패스_691" data-name="패스 691" d="M169.246,40.321l.332,12.028,6.382-6.595-.249-8.592Z" fill="none" stroke="#000" stroke-linecap="round" stroke-linejoin="round" stroke-width="2.133"/>
          <path id="패스_692" data-name="패스 692" d="M136.635,74.61l.29,14.4,11.554-8.681-.245-10.778Z" fill="#fff"/>
          <path id="패스_693" data-name="패스 693" d="M136.635,74.61l.29,14.4,11.554-8.681-.245-10.778Z" fill="none" stroke="#000" stroke-linecap="round" stroke-linejoin="round" stroke-width="2.133"/>
          <path id="패스_694" data-name="패스 694" d="M152.439,68.085l.277,11.707,11.978-3.315-.385-14.624Z" fill="#fff"/>
          <path id="패스_695" data-name="패스 695" d="M152.439,68.085l.277,11.707,11.978-3.315-.385-14.624Z" fill="none" stroke="#000" stroke-linecap="round" stroke-linejoin="round" stroke-width="2.133"/>
          <path id="패스_696" data-name="패스 696" d="M169.822,61.219l.336,12.142,6.409-6.742-.251-8.672Z" fill="#fff"/>
          <path id="패스_697" data-name="패스 697" d="M169.822,61.219l.336,12.142,6.409-6.742-.251-8.672Z" fill="none" stroke="#000" stroke-linecap="round" stroke-linejoin="round" stroke-width="2.133"/>
          <path id="패스_698" data-name="패스 698" d="M137.07,96.264l.292,14.54,11.606-8.916-.247-10.882Z" fill="#fff"/>
          <path id="패스_699" data-name="패스 699" d="M137.07,96.264l.292,14.54,11.606-8.916-.247-10.882Z" fill="none" stroke="#000" stroke-linecap="round" stroke-linejoin="round" stroke-width="2.133"/>
          <path id="패스_700" data-name="패스 700" d="M152.945,89.471l.28,11.821,12.03-3.5-.389-14.764Z" fill="#fff"/>
          <path id="패스_701" data-name="패스 701" d="M152.945,89.471l.28,11.821,12.03-3.5-.389-14.764Z" fill="none" stroke="#000" stroke-linecap="round" stroke-linejoin="round" stroke-width="2.133"/>
          <path id="패스_702" data-name="패스 702" d="M170.4,82.314l.339,12.256,6.436-6.89-.255-8.753Z" fill="#fff"/>
          <path id="패스_703" data-name="패스 703" d="M170.4,82.314l.339,12.256,6.436-6.89-.255-8.753Z" fill="none" stroke="#000" stroke-linecap="round" stroke-linejoin="round" stroke-width="2.133"/>
          <path id="패스_704" data-name="패스 704" d="M137.51,118.127l.3,14.682,11.658-9.155-.25-10.987Z" fill="#fff"/>
          <path id="패스_705" data-name="패스 705" d="M137.51,118.127l.3,14.682,11.658-9.155-.25-10.987Z" fill="none" stroke="#000" stroke-linecap="round" stroke-linejoin="round" stroke-width="2.133"/>
          <path id="패스_706" data-name="패스 706" d="M153.456,111.063,153.739,123l12.084-3.692-.393-14.9Z" fill="#fff"/>
          <path id="패스_707" data-name="패스 707" d="M153.456,111.063,153.739,123l12.084-3.692-.393-14.9Z" fill="none" stroke="#000" stroke-linecap="round" stroke-linejoin="round" stroke-width="2.133"/>
          <path id="패스_708" data-name="패스 708" d="M170.992,103.61l.342,12.374,6.463-7.041-.257-8.837Z" fill="#fff"/>
          <path id="패스_709" data-name="패스 709" d="M170.992,103.61l.342,12.374,6.463-7.041-.257-8.837Z" fill="none" stroke="#000" stroke-linecap="round" stroke-linejoin="round" stroke-width="2.133"/>
          <path id="패스_710" data-name="패스 710" d="M137.954,140.2l.3,14.825,11.711-9.4-.252-11.093Z" fill="#fff"/>
          <path id="패스_711" data-name="패스 711" d="M137.954,140.2l.3,14.825,11.711-9.4-.252-11.093Z" fill="none" stroke="#000" stroke-linecap="round" stroke-linejoin="round" stroke-width="2.133"/>
          <path id="패스_712" data-name="패스 712" d="M153.972,132.862l.285,12.05,12.138-3.886-.4-15.047Z" fill="#fff"/>
          <path id="패스_713" data-name="패스 713" d="M153.972,132.862l.285,12.05,12.138-3.886-.4-15.047Z" fill="none" stroke="#000" stroke-linecap="round" stroke-linejoin="round" stroke-width="2.133"/>
          <path id="패스_714" data-name="패스 714" d="M171.585,125.109l.345,12.492,6.491-7.2-.259-8.921Z" fill="#fff"/>
          <path id="패스_715" data-name="패스 715" d="M171.585,125.109l.345,12.492,6.491-7.2-.259-8.921Z" fill="none" stroke="#000" stroke-linecap="round" stroke-linejoin="round" stroke-width="2.133"/>
          <path id="패스_716" data-name="패스 716" d="M138.4,162.5l.3,14.971,11.763-9.646-.255-11.2Z" fill="#fff"/>
          <path id="패스_717" data-name="패스 717" d="M138.4,162.5l.3,14.971,11.763-9.646-.255-11.2Z" fill="none" stroke="#000" stroke-linecap="round" stroke-linejoin="round" stroke-width="2.133"/>
          <path id="패스_718" data-name="패스 718" d="M154.493,154.873l.288,12.167,12.193-4.083-.4-15.192Z" fill="#fff"/>
          <path id="패스_719" data-name="패스 719" d="M154.493,154.873l.288,12.167,12.193-4.083-.4-15.192Z" fill="none" stroke="#000" stroke-linecap="round" stroke-linejoin="round" stroke-width="2.133"/>
          <path id="패스_720" data-name="패스 720" d="M172.184,146.814l.348,12.612,6.518-7.351-.262-9.006Z" fill="#fff"/>
          <path id="패스_721" data-name="패스 721" d="M172.184,146.814l.348,12.612,6.518-7.351-.262-9.006Z" fill="none" stroke="#000" stroke-linecap="round" stroke-linejoin="round" stroke-width="2.133"/>
          <path id="패스_722" data-name="패스 722" d="M138.854,185.011l.3,15.12,11.817-9.9-.257-11.311Z" fill="#fff"/>
          <path id="패스_723" data-name="패스 723" d="M138.854,185.011l.3,15.12,11.817-9.9-.257-11.311Z" fill="none" stroke="#000" stroke-linecap="round" stroke-linejoin="round" stroke-width="2.133"/>
          <path id="패스_724" data-name="패스 724" d="M155.019,177.1l.291,12.286,12.247-4.284-.4-15.341Z" fill="#fff"/>
          <path id="패스_725" data-name="패스 725" d="M155.019,177.1l.291,12.286,12.247-4.284-.4-15.341Z" fill="none" stroke="#000" stroke-linecap="round" stroke-linejoin="round" stroke-width="2.133"/>
          <path id="패스_726" data-name="패스 726" d="M172.789,168.727l.352,12.734,6.546-7.509-.264-9.093Z" fill="#fff"/>
          <path id="패스_727" data-name="패스 727" d="M172.789,168.727l.352,12.734,6.546-7.509-.264-9.093Z" fill="none" stroke="#000" stroke-linecap="round" stroke-linejoin="round" stroke-width="2.133"/>
          <path id="패스_728" data-name="패스 728" d="M86.48,22.654l2.307,15.227,14.295,7.429L102.31,28.5Z" fill="#fff"/>
          <path id="패스_729" data-name="패스 729" d="M86.48,22.654l2.307,15.227,14.295,7.429L102.31,28.5Z" fill="none" stroke="#000" stroke-linecap="round" stroke-linejoin="round" stroke-width="2.133"/>
          <path id="패스_730" data-name="패스 730" d="M107.152,30.9l.574,14.612,17.516,7.163-.248-17.238Z" fill="#fff"/>
          <path id="패스_731" data-name="패스 731" d="M107.152,30.9l.574,14.612,17.516,7.163-.248-17.238Z" fill="none" stroke="#000" stroke-linecap="round" stroke-linejoin="round" stroke-width="2.133"/>
          <path id="패스_732" data-name="패스 732" d="M88.183,47.926l2.2,14.251L104.2,69.742,103.485,54.1Z" fill="#fff"/>
          <path id="패스_733" data-name="패스 733" d="M88.183,47.926l2.2,14.251L104.2,69.742,103.485,54.1Z" fill="none" stroke="#000" stroke-linecap="round" stroke-linejoin="round" stroke-width="2.133"/>
          <path id="패스_734" data-name="패스 734" d="M108.16,56.547l.534,13.593L125.6,77.59l-.231-16.006Z" fill="#fff"/>
          <path id="패스_735" data-name="패스 735" d="M108.16,56.547l.534,13.593L125.6,77.59l-.231-16.006Z" fill="none" stroke="#000" stroke-linecap="round" stroke-linejoin="round" stroke-width="2.133"/>
          <path id="패스_736" data-name="패스 736" d="M89.772,71.492l2.1,13.37,13.379,7.665-.67-14.6Z" fill="#fff"/>
          <path id="패스_737" data-name="패스 737" d="M89.772,71.492l2.1,13.37,13.379,7.665-.67-14.6Z" fill="none" stroke="#000" stroke-linecap="round" stroke-linejoin="round" stroke-width="2.133"/>
          <path id="패스_738" data-name="패스 738" d="M109.1,80.42l.5,12.676,16.342,7.684-.215-14.9Z" fill="#fff"/>
          <path id="패스_739" data-name="패스 739" d="M109.1,80.42l.5,12.676,16.342,7.684-.215-14.9Z" fill="none" stroke="#000" stroke-linecap="round" stroke-linejoin="round" stroke-width="2.133"/>
          <path id="패스_740" data-name="패스 740" d="M91.257,93.518l2,12.571,12.964,7.738-.626-13.65Z" fill="#fff"/>
          <path id="패스_741" data-name="패스 741" d="M91.257,93.518l2,12.571,12.964,7.738-.626-13.65Z" fill="none" stroke="#000" stroke-linecap="round" stroke-linejoin="round" stroke-width="2.133"/>
          <path id="패스_742" data-name="패스 742" d="M109.973,102.7l.466,11.849,15.811,7.87-.2-13.908Z" fill="#fff"/>
          <path id="패스_743" data-name="패스 743" d="M109.973,102.7l.466,11.849,15.811,7.87-.2-13.908Z" fill="none" stroke="#000" stroke-linecap="round" stroke-linejoin="round" stroke-width="2.133"/>
          <path id="패스_744" data-name="패스 744" d="M92.648,114.151,94.568,126l12.574,7.786-.587-12.793Z" fill="#fff"/>
          <path id="패스_745" data-name="패스 745" d="M92.648,114.151,94.568,126l12.574,7.786-.587-12.793Z" fill="none" stroke="#000" stroke-linecap="round" stroke-linejoin="round" stroke-width="2.133"/>
          <path id="패스_746" data-name="패스 746" d="M110.791,123.528l.436,11.1,15.314,8.017-.189-13.011Z" fill="#fff"/>
          <path id="패스_747" data-name="패스 747" d="M110.791,123.528l.436,11.1,15.314,8.017-.189-13.011Z" fill="none" stroke="#000" stroke-linecap="round" stroke-linejoin="round" stroke-width="2.133"/>
          <path id="패스_748" data-name="패스 748" d="M93.954,133.519,95.8,144.7,108,152.516l-.552-12.015Z" fill="#fff"/>
          <path id="패스_749" data-name="패스 749" d="M93.954,133.519,95.8,144.7,108,152.516l-.552-12.015Z" fill="none" stroke="#000" stroke-linecap="round" stroke-linejoin="round" stroke-width="2.133"/>
          <path id="패스_750" data-name="패스 750" d="M111.558,143.053l.409,10.421,14.847,8.131-.176-12.2Z" fill="#fff"/>
          <path id="패스_751" data-name="패스 751" d="M111.558,143.053l.409,10.421,14.847,8.131-.176-12.2Z" fill="none" stroke="#000" stroke-linecap="round" stroke-linejoin="round" stroke-width="2.133"/>
          <path id="패스_752" data-name="패스 752" d="M95.182,151.735l1.768,10.575,11.861,7.825-.519-11.3Z" fill="#fff"/>
          <path id="패스_753" data-name="패스 753" d="M95.182,151.735l1.768,10.575,11.861,7.825-.519-11.3Z" fill="none" stroke="#000" stroke-linecap="round" stroke-linejoin="round" stroke-width="2.133"/>
          <path id="패스_754" data-name="패스 754" d="M112.278,161.391l.385,9.8,14.408,8.216-.165-11.46Z" fill="#fff"/>
          <path id="패스_755" data-name="패스 755" d="M112.278,161.391l.385,9.8,14.408,8.216-.165-11.46Z" fill="none" stroke="#000" stroke-linecap="round" stroke-linejoin="round" stroke-width="2.133"/>
          <path id="패스_756" data-name="패스 756" d="M96.339,168.9l1.7,10.02,11.533,7.822-.489-10.656Z" fill="#fff"/>
          <path id="패스_757" data-name="패스 757" d="M96.339,168.9l1.7,10.02,11.533,7.822-.489-10.656Z" fill="none" stroke="#000" stroke-linecap="round" stroke-linejoin="round" stroke-width="2.133"/>
          <path id="패스_758" data-name="패스 758" d="M112.956,178.646l.363,9.237,13.993,8.277-.156-10.785Z" fill="#fff"/>
          <path id="패스_759" data-name="패스 759" d="M112.956,178.646l.363,9.237,13.993,8.277-.156-10.785Z" fill="none" stroke="#000" stroke-linecap="round" stroke-linejoin="round" stroke-width="2.133"/>
          <path id="패스_760" data-name="패스 760" d="M174.871,75.9l28.51,5.834-39.368,5.006-13.74-6.677Z" fill="#fff"/>
          <path id="패스_761" data-name="패스 761" d="M174.871,75.9l28.51,5.834-39.368,5.006-13.74-6.677Z" fill="none" stroke="#000" stroke-linecap="round" stroke-linejoin="round" stroke-width="2.133"/>
          <path id="패스_762" data-name="패스 762" d="M201.958,162l1.424-80.272-39.369,5L162.1,179.281Z" fill="#fff"/>
          <path id="패스_763" data-name="패스 763" d="M201.958,162l1.424-80.272-39.369,5L162.1,179.281Z" fill="none" stroke="#000" stroke-linecap="round" stroke-linejoin="round" stroke-width="2.133"/>
          <path id="패스_764" data-name="패스 764" d="M150.274,80.059l-.007,89.721,11.837,9.5,1.91-92.545Z" fill="#fff"/>
          <path id="패스_765" data-name="패스 765" d="M150.274,80.059l-.007,89.721,11.837,9.5,1.91-92.545Z" fill="none" stroke="#000" stroke-linecap="round" stroke-linejoin="round" stroke-width="2.133"/>
          <path id="패스_766" data-name="패스 766" d="M169.076,93.786,168.959,101l9.552-4.313.119-5.282Z" fill="#fff"/>
          <path id="패스_767" data-name="패스 767" d="M169.076,93.786,168.959,101l9.552-4.313.119-5.282Z" fill="none" stroke="#000" stroke-linecap="round" stroke-linejoin="round" stroke-width="2.133"/>
          <path id="패스_768" data-name="패스 768" d="M181.963,90.748l-.142,5.686,9.071-1.53.215-6.936Z" fill="#fff"/>
          <path id="패스_769" data-name="패스 769" d="M181.963,90.748l-.142,5.686,9.071-1.53.215-6.936Z" fill="none" stroke="#000" stroke-linecap="round" stroke-linejoin="round" stroke-width="2.133"/>
          <path id="패스_770" data-name="패스 770" d="M195.12,87.79l-.192,5.7,4.735-3.046.148-4.028Z" fill="#fff"/>
          <path id="패스_771" data-name="패스 771" d="M195.12,87.79l-.192,5.7,4.735-3.046.148-4.028Z" fill="none" stroke="#000" stroke-linecap="round" stroke-linejoin="round" stroke-width="2.133"/>
          <path id="패스_772" data-name="패스 772" d="M168.9,104.586l-.115,7.106,9.491-4.627.118-5.209Z" fill="#fff"/>
          <path id="패스_773" data-name="패스 773" d="M168.9,104.586l-.115,7.106,9.491-4.627.118-5.209Z" fill="none" stroke="#000" stroke-linecap="round" stroke-linejoin="round" stroke-width="2.133"/>
          <path id="패스_774" data-name="패스 774" d="M181.706,101.079l-.14,5.607,9.019-1.868.212-6.844Z" fill="#fff"/>
          <path id="패스_775" data-name="패스 775" d="M181.706,101.079l-.14,5.607,9.019-1.868.212-6.844Z" fill="none" stroke="#000" stroke-linecap="round" stroke-linejoin="round" stroke-width="2.133"/>
          <path id="패스_776" data-name="패스 776" d="M194.788,97.639l-.19,5.621,4.711-3.191.146-3.976Z" fill="#fff"/>
          <path id="패스_777" data-name="패스 777" d="M194.788,97.639l-.19,5.621,4.711-3.191.146-3.976Z" fill="none" stroke="#000" stroke-linecap="round" stroke-linejoin="round" stroke-width="2.133"/>
          <path id="패스_778" data-name="패스 778" d="M168.728,115.229l-.114,7,9.431-4.932.116-5.137Z" fill="#fff"/>
          <path id="패스_779" data-name="패스 779" d="M168.728,115.229l-.114,7,9.431-4.932.116-5.137Z" fill="none" stroke="#000" stroke-linecap="round" stroke-linejoin="round" stroke-width="2.133"/>
          <path id="패스_780" data-name="패스 780" d="M181.453,111.268l-.137,5.53,8.967-2.2.209-6.753Z" fill="#fff"/>
          <path id="패스_781" data-name="패스 781" d="M181.453,111.268l-.137,5.53,8.967-2.2.209-6.753Z" fill="none" stroke="#000" stroke-linecap="round" stroke-linejoin="round" stroke-width="2.133"/>
          <path id="패스_782" data-name="패스 782" d="M194.461,107.358l-.186,5.548,4.685-3.333.145-3.925Z" fill="#fff"/>
          <path id="패스_783" data-name="패스 783" d="M194.461,107.358l-.186,5.548,4.685-3.333.145-3.925Z" fill="none" stroke="#000" stroke-linecap="round" stroke-linejoin="round" stroke-width="2.133"/>
          <path id="패스_784" data-name="패스 784" d="M168.557,125.72l-.112,6.9,9.37-5.228.115-5.065Z" fill="#fff"/>
          <path id="패스_785" data-name="패스 785" d="M168.557,125.72l-.112,6.9,9.37-5.228.115-5.065Z" fill="none" stroke="#000" stroke-linecap="round" stroke-linejoin="round" stroke-width="2.133"/>
          <path id="패스_786" data-name="패스 786" d="M181.2,121.317l-.135,5.455,8.916-2.517.207-6.664Z" fill="#fff"/>
          <path id="패스_787" data-name="패스 787" d="M181.2,121.317l-.135,5.455,8.916-2.517.207-6.664Z" fill="none" stroke="#000" stroke-linecap="round" stroke-linejoin="round" stroke-width="2.133"/>
          <path id="패스_788" data-name="패스 788" d="M194.139,116.951l-.184,5.476,4.661-3.47.143-3.875Z" fill="#fff"/>
          <path id="패스_789" data-name="패스 789" d="M194.139,116.951l-.184,5.476,4.661-3.47.143-3.875Z" fill="none" stroke="#000" stroke-linecap="round" stroke-linejoin="round" stroke-width="2.133"/>
          <path id="패스_790" data-name="패스 790" d="M168.389,136.061l-.111,6.807,9.312-5.515.114-5Z" fill="#fff"/>
          <path id="패스_791" data-name="패스 791" d="M168.389,136.061l-.111,6.807,9.312-5.515.114-5Z" fill="none" stroke="#000" stroke-linecap="round" stroke-linejoin="round" stroke-width="2.133"/>
          <path id="패스_792" data-name="패스 792" d="M180.956,131.23l-.134,5.382,8.867-2.829.2-6.577Z" fill="#fff"/>
          <path id="패스_793" data-name="패스 793" d="M180.956,131.23l-.134,5.382,8.867-2.829.2-6.577Z" fill="none" stroke="#000" stroke-linecap="round" stroke-linejoin="round" stroke-width="2.133"/>
          <path id="패스_794" data-name="패스 794" d="M193.82,126.42l-.182,5.405,4.637-3.6.141-3.826Z" fill="#fff"/>
          <path id="패스_795" data-name="패스 795" d="M193.82,126.42l-.182,5.405,4.637-3.6.141-3.826Z" fill="none" stroke="#000" stroke-linecap="round" stroke-linejoin="round" stroke-width="2.133"/>
          <path id="패스_796" data-name="패스 796" d="M168.224,146.256l-.109,6.711,9.253-5.794.112-4.929Z" fill="#fff"/>
          <path id="패스_797" data-name="패스 797" d="M168.224,146.256l-.109,6.711,9.253-5.794.112-4.929Z" fill="none" stroke="#000" stroke-linecap="round" stroke-linejoin="round" stroke-width="2.133"/>
          <path id="패스_798" data-name="패스 798" d="M180.713,141.009l-.132,5.309,8.817-3.132.2-6.491Z" fill="#fff"/>
          <path id="패스_799" data-name="패스 799" d="M180.713,141.009l-.132,5.309,8.817-3.132.2-6.491Z" fill="none" stroke="#000" stroke-linecap="round" stroke-linejoin="round" stroke-width="2.133"/>
          <path id="패스_800" data-name="패스 800" d="M193.506,135.767l-.18,5.336,4.613-3.733.14-3.777Z" fill="#fff"/>
          <path id="패스_801" data-name="패스 801" d="M193.506,135.767l-.18,5.336,4.613-3.733.14-3.777Z" fill="none" stroke="#000" stroke-linecap="round" stroke-linejoin="round" stroke-width="2.133"/>
          <path id="패스_802" data-name="패스 802" d="M168.06,156.309l-.108,6.618,9.2-6.065.11-4.863Z" fill="#fff"/>
          <path id="패스_803" data-name="패스 803" d="M168.06,156.309l-.108,6.618,9.2-6.065.11-4.863Z" fill="none" stroke="#000" stroke-linecap="round" stroke-linejoin="round" stroke-width="2.133"/>
          <path id="패스_804" data-name="패스 804" d="M180.473,150.656l-.13,5.239,8.767-3.427.2-6.408Z" fill="#fff"/>
          <path id="패스_805" data-name="패스 805" d="M180.473,150.656l-.13,5.239,8.767-3.427.2-6.408Z" fill="none" stroke="#000" stroke-linecap="round" stroke-linejoin="round" stroke-width="2.133"/>
          <path id="패스_806" data-name="패스 806" d="M193.2,145l-.177,5.268,4.588-3.859.137-3.73Z" fill="#fff"/>
          <path id="패스_807" data-name="패스 807" d="M193.2,145l-.177,5.268,4.588-3.859.137-3.73Z" fill="none" stroke="#000" stroke-linecap="round" stroke-linejoin="round" stroke-width="2.133"/>
          <path id="패스_808" data-name="패스 808" d="M167.9,166.221l-.107,6.527,9.14-6.328.109-4.8Z" fill="#fff"/>
          <path id="패스_809" data-name="패스 809" d="M167.9,166.221l-.107,6.527,9.14-6.328.109-4.8Z" fill="none" stroke="#000" stroke-linecap="round" stroke-linejoin="round" stroke-width="2.133"/>
          <path id="패스_810" data-name="패스 810" d="M180.236,160.176l-.129,5.169,8.719-3.714.2-6.325Z" fill="#fff"/>
          <path id="패스_811" data-name="패스 811" d="M180.236,160.176l-.129,5.169,8.719-3.714.2-6.325Z" fill="none" stroke="#000" stroke-linecap="round" stroke-linejoin="round" stroke-width="2.133"/>
          <path id="패스_812" data-name="패스 812" d="M192.889,154.105l-.175,5.2,4.565-3.981.135-3.684Z" fill="#fff"/>
          <path id="패스_813" data-name="패스 813" d="M192.889,154.105l-.175,5.2,4.565-3.981.135-3.684Z" fill="none" stroke="#000" stroke-linecap="round" stroke-linejoin="round" stroke-width="2.133"/>
          <path id="패스_814" data-name="패스 814" d="M144.089,93.958c1.522.67,38.825,15.406,38.825,15.406l-25,8.033-38.19-15.461Z" fill="#fff"/>
          <path id="패스_815" data-name="패스 815" d="M144.089,93.958c1.522.67,38.825,15.406,38.825,15.406l-25,8.033-38.19-15.461Z" fill="none" stroke="#000" stroke-linecap="round" stroke-linejoin="round" stroke-width="2.133"/>
          <path id="패스_816" data-name="패스 816" d="M121.494,204.894l-1.767-102.959,38.19,15.461-.009,97.322Z" fill="#fff"/>
          <path id="패스_817" data-name="패스 817" d="M121.494,204.894l-1.767-102.959,38.19,15.461-.009,97.322Z" fill="none" stroke="#000" stroke-linecap="round" stroke-linejoin="round" stroke-width="2.133"/>
          <path id="패스_818" data-name="패스 818" d="M182.914,109.363l-.009,94.868-25,10.489.009-97.323Z" fill="#fff"/>
          <path id="패스_819" data-name="패스 819" d="M182.914,109.363l-.009,94.868-25,10.489.009-97.323Z" fill="none" stroke="#000" stroke-linecap="round" stroke-linejoin="round" stroke-width="2.133"/>
          <line id="선_9" data-name="선 9" x1="38.077" y1="14.043" transform="translate(119.84 108.505)" fill="none" stroke="#000" stroke-linecap="round" stroke-linejoin="round" stroke-width="2.133"/>
          <line id="선_10" data-name="선 10" x2="38.077" y2="11.827" transform="translate(119.839 117.393)" fill="none" stroke="#000" stroke-linecap="round" stroke-linejoin="round" stroke-width="2.133"/>
          <line id="선_11" data-name="선 11" x2="37.77" y2="8.848" transform="translate(120.146 126.317)" fill="none" stroke="#000" stroke-linecap="round" stroke-linejoin="round" stroke-width="2.133"/>
          <line id="선_12" data-name="선 12" x2="37.637" y2="8.162" transform="translate(120.277 134.002)" fill="none" stroke="#000" stroke-linecap="round" stroke-linejoin="round" stroke-width="2.133"/>
          <line id="선_13" data-name="선 13" x2="37.509" y2="7.935" transform="translate(120.405 141.442)" fill="none" stroke="#000" stroke-linecap="round" stroke-linejoin="round" stroke-width="2.133"/>
          <line id="선_14" data-name="선 14" x2="37.509" y2="7.504" transform="translate(120.405 147.095)" fill="none" stroke="#000" stroke-linecap="round" stroke-linejoin="round" stroke-width="2.133"/>
          <line id="선_15" data-name="선 15" x2="37.304" y2="7.327" transform="translate(120.61 153.363)" fill="none" stroke="#000" stroke-linecap="round" stroke-linejoin="round" stroke-width="2.133"/>
          <line id="선_16" data-name="선 16" x2="37.154" y2="7.354" transform="translate(120.759 162.036)" fill="none" stroke="#000" stroke-linecap="round" stroke-linejoin="round" stroke-width="2.133"/>
          <line id="선_17" data-name="선 17" x2="37" y2="7.261" transform="translate(120.912 170.989)" fill="none" stroke="#000" stroke-linecap="round" stroke-linejoin="round" stroke-width="2.133"/>
          <line id="선_18" data-name="선 18" x2="36.829" y2="5.569" transform="translate(121.083 180.935)" fill="none" stroke="#000" stroke-linecap="round" stroke-linejoin="round" stroke-width="2.133"/>
          <line id="선_19" data-name="선 19" x2="36.698" y2="5.548" transform="translate(121.213 188.497)" fill="none" stroke="#000" stroke-linecap="round" stroke-linejoin="round" stroke-width="2.133"/>
          <line id="선_20" data-name="선 20" x2="36.574" y2="6.638" transform="translate(121.336 195.673)" fill="none" stroke="#000" stroke-linecap="round" stroke-linejoin="round" stroke-width="2.133"/>
          <line id="선_21" data-name="선 21" x2="36.474" y2="7.106" transform="translate(121.435 201.442)" fill="none" stroke="#000" stroke-linecap="round" stroke-linejoin="round" stroke-width="2.133"/>
          <path id="패스_820" data-name="패스 820" d="M177.3,117.4v10.908l-11.774,2.437-1.961-10.081Z" fill="#fff"/>
          <path id="패스_821" data-name="패스 821" d="M177.3,117.4v10.908l-11.774,2.437-1.961-10.081Z" fill="none" stroke="#000" stroke-linecap="round" stroke-linejoin="round" stroke-width="2.133"/>
          <path id="패스_822" data-name="패스 822" d="M177.3,135.03v10.908l-11.774,2.437-1.961-10.081Z" fill="#fff"/>
          <path id="패스_823" data-name="패스 823" d="M177.3,135.03v10.908l-11.774,2.437-1.961-10.081Z" fill="none" stroke="#000" stroke-linecap="round" stroke-linejoin="round" stroke-width="2.133"/>
          <path id="패스_824" data-name="패스 824" d="M177.3,152.662v10.908l-11.774,2.437-1.961-10.081Z" fill="#fff"/>
          <path id="패스_825" data-name="패스 825" d="M177.3,152.662v10.908l-11.774,2.437-1.961-10.081Z" fill="none" stroke="#000" stroke-linecap="round" stroke-linejoin="round" stroke-width="2.133"/>
          <path id="패스_826" data-name="패스 826" d="M177.294,170.294V181.2l-11.774,2.437-1.961-10.081Z" fill="#fff"/>
          <path id="패스_827" data-name="패스 827" d="M177.294,170.294V181.2l-11.774,2.437-1.961-10.081Z" fill="none" stroke="#000" stroke-linecap="round" stroke-linejoin="round" stroke-width="2.133"/>
          <path id="패스_828" data-name="패스 828" d="M177.292,187.926v10.908l-11.774,2.437-1.961-10.081Z" fill="#fff"/>
          <path id="패스_829" data-name="패스 829" d="M177.292,187.926v10.908l-11.774,2.437-1.961-10.081Z" fill="none" stroke="#000" stroke-linecap="round" stroke-linejoin="round" stroke-width="2.133"/>
          <path id="패스_830" data-name="패스 830" d="M127.369,65.346c.847-1.18.184-3.617-.605-4.986a4.434,4.434,0,0,0-1.517-1.658,3.27,3.27,0,0,0-2.617-.3,4.2,4.2,0,0,0-2.378,1.761c-.817,1.2-1.557,3.415-.784,4.52.34.485,1.043.556,2.435.679,3.421.3,5.138.444,5.466-.013" fill="#e8cf73"/>
          <path id="패스_831" data-name="패스 831" d="M127.369,65.346c.847-1.18.184-3.617-.605-4.986a4.434,4.434,0,0,0-1.517-1.658,3.27,3.27,0,0,0-2.617-.3,4.2,4.2,0,0,0-2.378,1.761c-.817,1.2-1.557,3.415-.784,4.52.34.485,1.043.556,2.435.679C125.324,65.661,127.041,65.8,127.369,65.346Z" fill="none" stroke="#000" stroke-linecap="round" stroke-linejoin="round" stroke-width="2.133"/>
          <path id="패스_832" data-name="패스 832" d="M135.436,88.709c-.806.2-2,.478-3.453.729-4.06.7-12.091,2.085-20.462-1.175a30.171,30.171,0,0,1-9.571-6.053,21.251,21.251,0,0,1,6.413-13.064,19.56,19.56,0,0,1,7.105-4.171,18.892,18.892,0,0,1,8.49-.693c12.382.613,14.965,17.75,11.477,24.426" fill="#e8cf73"/>
          <path id="패스_833" data-name="패스 833" d="M135.436,88.709c-.806.2-2,.478-3.453.729-4.06.7-12.091,2.085-20.462-1.175a30.171,30.171,0,0,1-9.571-6.053,21.251,21.251,0,0,1,6.413-13.064,19.56,19.56,0,0,1,7.105-4.171,18.892,18.892,0,0,1,8.49-.693C136.34,64.9,138.923,82.033,135.436,88.709Z" fill="none" stroke="#000" stroke-linecap="round" stroke-linejoin="round" stroke-width="2.133"/>
          <path id="패스_834" data-name="패스 834" d="M132.069,89.394c1.433-.248,2.608-.519,3.4-.719l-.084-1a31.055,31.055,0,0,0-32.132-6.014l-.75.158c-.023.163-.042.313-.056.442a29.752,29.752,0,0,0,9.439,5.97c8.256,3.214,16.174,1.849,20.178,1.158" fill="#b29a3f"/>
          <path id="패스_835" data-name="패스 835" d="M132.069,89.394c1.433-.248,2.608-.519,3.4-.719l-.084-1a31.055,31.055,0,0,0-32.132-6.014l-.75.158c-.023.163-.042.313-.056.442a29.752,29.752,0,0,0,9.439,5.97C120.147,91.45,128.065,90.085,132.069,89.394Z" fill="none" stroke="#000" stroke-linecap="round" stroke-linejoin="round" stroke-width="2.133"/>
          <path id="패스_836" data-name="패스 836" d="M149.045,108.413c-1.408-1.93-16.743-22.2-41.39-22.6V85.8H88v.054c-.11.005-.216,0-.326.01-22.9,1.207-36.437,18.972-39.345,22.79-19.342,25.39-11.29,56.227-10.613,58.652,1.671,6,7.274,22.762,23.171,34.155a53.706,53.706,0,0,0,25.338,9.82c.1.011.477.046,1.077.081v.036h.74c1.123.047,2.71.073,4.631,0h12.206c4.886.205,18.6.035,29.935-7.13,25.857-16.35,35.7-66.455,14.233-95.853" fill="#b1e57a"/>
          <path id="패스_837" data-name="패스 837" d="M149.045,108.413c-1.408-1.93-16.743-22.2-41.39-22.6V85.8H88v.054c-.11.005-.216,0-.326.01-22.9,1.207-36.437,18.972-39.345,22.79-19.342,25.39-11.29,56.227-10.613,58.652,1.671,6,7.274,22.762,23.171,34.155a53.706,53.706,0,0,0,25.338,9.82c.1.011.477.046,1.077.081v.036h.74c1.123.047,2.71.073,4.631,0h12.206c4.886.205,18.6.035,29.935-7.13C160.67,187.916,170.512,137.811,149.045,108.413Z" fill="none" stroke="#050000" stroke-miterlimit="10" stroke-width="2.133"/>
          <path id="패스_838" data-name="패스 838" d="M104.378,91.1c-19.831,1.106-31.55,17.388-34.068,20.887-16.748,23.269-9.775,51.531-9.19,53.754,1.448,5.5,6.3,20.861,20.063,31.3a44.932,44.932,0,0,0,21.94,9c.684.075,15.612,1.526,27.494-6.427,22.389-14.985,30.912-60.9,12.324-87.848-1.271-1.842-15.626-21.948-38.563-20.669" fill="#fff"/>
          <path id="패스_839" data-name="패스 839" d="M104.378,91.1c-19.831,1.106-31.55,17.388-34.068,20.887-16.748,23.269-9.775,51.531-9.19,53.754,1.448,5.5,6.3,20.861,20.063,31.3a44.932,44.932,0,0,0,21.94,9c.684.075,15.612,1.526,27.494-6.427,22.389-14.985,30.912-60.9,12.324-87.848C141.67,109.929,127.314,89.823,104.378,91.1Z" fill="none" stroke="#000" stroke-miterlimit="10" stroke-width="2.133"/>
          <path id="패스_840" data-name="패스 840" d="M92.761,116.242c-1.651.116-2.627,1.836-2.837,2.205a8.958,8.958,0,0,0-.766,5.676,6.63,6.63,0,0,0,1.671,3.305,3.316,3.316,0,0,0,1.827.951,3.161,3.161,0,0,0,2.289-.679c1.864-1.582,2.575-6.43,1.027-9.275-.107-.2-1.3-2.318-3.212-2.183" fill="#050000"/>
          <path id="패스_841" data-name="패스 841" d="M115.32,112.021c-1.651.116-2.627,1.836-2.837,2.205a8.958,8.958,0,0,0-.766,5.676,6.63,6.63,0,0,0,1.671,3.305,3.316,3.316,0,0,0,1.827.951,3.161,3.161,0,0,0,2.289-.679c1.864-1.582,2.575-6.43,1.027-9.276-.107-.2-1.3-2.318-3.212-2.183" fill="#050000"/>
          <path id="패스_842" data-name="패스 842" d="M42.535,77.877c-1.212-1-1.2-3.726-.752-5.378a4.814,4.814,0,0,1,1.125-2.155,3.541,3.541,0,0,1,2.65-1.047,4.533,4.533,0,0,1,2.974,1.176c1.187,1.026,2.576,3.136,2.073,4.5-.221.6-.935.873-2.355,1.389-3.491,1.271-5.245,1.9-5.715,1.51" fill="#e8cf73"/>
          <path id="패스_843" data-name="패스 843" d="M42.535,77.877c-1.212-1-1.2-3.726-.752-5.378a4.814,4.814,0,0,1,1.125-2.155,3.541,3.541,0,0,1,2.65-1.047,4.533,4.533,0,0,1,2.974,1.176c1.187,1.026,2.576,3.136,2.073,4.5-.221.6-.935.873-2.355,1.389C44.76,77.638,43.005,78.265,42.535,77.877Z" fill="none" stroke="#000" stroke-linecap="round" stroke-linejoin="round" stroke-width="2.133"/>
          <path id="패스_844" data-name="패스 844" d="M40.781,104.477c.9-.014,2.221-.058,3.809-.2,4.437-.4,13.213-1.2,21.055-6.937a32.677,32.677,0,0,0,8.322-9A22.939,22.939,0,0,0,63.64,76.483a21.131,21.131,0,0,0-8.583-2.376,20.437,20.437,0,0,0-9.063,1.645c-12.768,4.1-10.711,22.723-5.213,28.726" fill="#e8cf73"/>
          <path id="패스_845" data-name="패스 845" d="M40.781,104.477c.9-.014,2.221-.058,3.809-.2,4.437-.4,13.213-1.2,21.055-6.937a32.677,32.677,0,0,0,8.322-9A22.939,22.939,0,0,0,63.64,76.483a21.131,21.131,0,0,0-8.583-2.376,20.437,20.437,0,0,0-9.063,1.645C33.226,79.847,35.283,98.474,40.781,104.477Z" fill="none" stroke="#000" stroke-linecap="round" stroke-linejoin="round" stroke-width="2.133"/>
          <path id="패스_846" data-name="패스 846" d="M129.043,130.8a4.132,4.132,0,0,0-4.008-2.009c-2.188.233-3.5,2.478-5.409,5.825-2.931,5.134-2.826,7.508-5.5,9.765A10.869,10.869,0,0,1,109.6,146.6s-2.975,1.386-5.23-.2c-5.11-3.592-12.357-8.4-21.672-14.574-2.23-1.479-6.269-4.086-9.363-2.59-2.205,1.067-3.49,4.007-3.228,6.473.44,4.151,5.238,6.759,9.362,8.739a190.964,190.964,0,0,0,23.6,9.431,4.878,4.878,0,0,1,3.243,3.3v0a8.684,8.684,0,0,0,2.869,4.355,5.043,5.043,0,0,0,6.394-.031c1.88-1.6,2.789-5.236,2.334-8.571a4.792,4.792,0,0,1,.87-3.353c2.181-3.144,5.039-7.477,8.656-12.96.916-1.388,2.529-3.9,1.6-5.826" fill="#b1e57a"/>
          <path id="패스_847" data-name="패스 847" d="M129.043,130.8a4.132,4.132,0,0,0-4.008-2.009c-2.188.233-3.5,2.478-5.409,5.825-2.931,5.134-2.826,7.508-5.5,9.765A10.869,10.869,0,0,1,109.6,146.6s-2.975,1.386-5.23-.2c-5.11-3.592-12.357-8.4-21.672-14.574-2.23-1.479-6.269-4.086-9.363-2.59-2.205,1.067-3.49,4.007-3.228,6.473.44,4.151,5.238,6.759,9.362,8.739a190.964,190.964,0,0,0,23.6,9.431,4.878,4.878,0,0,1,3.243,3.3v0a8.684,8.684,0,0,0,2.869,4.355,5.043,5.043,0,0,0,6.394-.031c1.88-1.6,2.789-5.236,2.334-8.571a4.792,4.792,0,0,1,.87-3.353c2.181-3.144,5.039-7.477,8.656-12.96C128.356,135.239,129.969,132.726,129.043,130.8Z" fill="none" stroke="#050000" stroke-miterlimit="10" stroke-width="2.133"/>
          <path id="패스_848" data-name="패스 848" d="M70.81,154.567c-1.4-3.29-4.732-4.405-5.711-4.732-4.853-1.623-9.181.922-10.14,1.535l-.617-.031a74.022,74.022,0,0,0,0-10.89l.907.046.018.114a11.69,11.69,0,0,0,6.931-1.364c2.7-1.526,6.685-5.339,5.48-9.229-1.219-3.936-7.155-6.014-10.89-3.895a7.32,7.32,0,0,0-3.148,4.127l0,.019-.708-.035c-.308-1.523-.655-3.048-1.052-4.578a3.742,3.742,0,1,0-7.243,1.888c.377,1.455.692,2.9.979,4.348l-.688-.034c-3.819-2.506-7.889-2.909-10.181-1.1a5.351,5.351,0,0,0-2,3.547c-.229,2.365,1.473,4.157,2.183,4.9,3.8,4,10.515,2.944,12.007,2.658a67,67,0,0,1-.007,7.918l-.548-.028.01-.069a12.223,12.223,0,0,0-6.436-1.347c-1.551.112-4.346.313-6.417,2.588-1.736,1.909-2.66,4.942-1.76,7.29,1.344,3.506,6.868,5.762,12.667,3.42l.642.033a60.869,60.869,0,0,1-3,8.691l-.477-.023.068-.15a13.337,13.337,0,0,0-5.161-3.326c-1.1-.381-5.5-1.918-9.427.466-.683.415-3.529,2.146-3.954,5.378a6.9,6.9,0,0,0,1.174,4.694c2.168,3.124,7.42,4.127,13.023,2.345l.178-.39.081,0c-.716,1.3-1.446,2.588-2.185,3.891-1.79,3.159-3.6,6.366-5.328,9.829l-.221-.012c-3.923-5.431-10.813-6.787-15.308-3.906-3.391,2.173-5.526,6.824-4.221,10.918,1.564,4.907,7.78,8.1,14.025,6l.02-.047.338.017c-.67,2.061-1.294,4.238-1.859,6.555-.714,2.931-1.268,5.91-1.7,8.923l-.558-.028,0-.054a14.6,14.6,0,0,0-5.482-3.185c-1.537-.481-7.079-2.212-11.022,1.235a9.911,9.911,0,0,0-2.517,10.806c2.106,4.96,9.789,7.874,17.774,4.668l.838.042c-.009,3.143.111,6.312.4,9.5a3.748,3.748,0,0,0,3.534,3.413,3.793,3.793,0,0,0,.527-.011,3.748,3.748,0,0,0,3.393-4.071c-.2-2.228-.306-4.441-.35-6.643,5.288,4.008,12.126,4.146,16.611.682,3.752-2.9,6.16-8.549,4.3-12.273-2.207-4.419-10.653-6.576-19.337-1.892l-.023.187-.855-.044a85.687,85.687,0,0,1,1.736-9.478c.451-1.852.95-3.6,1.481-5.287a12,12,0,0,0,5.2,4.918c4.734,2.224,11.486,1.19,14.544-3.371.377-.562,2.283-3.54,1.445-6.815-1.215-4.748-7.759-8.406-15.968-7.333l-.108.247-.091,0c1.7-3.446,3.506-6.641,5.286-9.783.665-1.174,1.324-2.339,1.974-3.507l.565.029a9.451,9.451,0,0,0,3.609,3.505c4.8,2.536,12.448.592,14.436-4.476a7.728,7.728,0,0,0-.9-7.355c-2.415-3.122-7.705-3.979-12.479-1.288l-.368-.018a67.313,67.313,0,0,0,3.731-10.859l.061,0-.068.343c6.352,4.232,13.467,3.835,16.7.2a8.877,8.877,0,0,0,1.635-8.96" fill="#23985d"/>
          <path id="패스_849" data-name="패스 849" d="M24.269,247.928a3.747,3.747,0,0,1-3.534-3.413A97.883,97.883,0,0,1,23,212.6c3.074-12.626,7.894-21.129,12.553-29.353,4.758-8.393,9.25-16.321,10.968-27.882a69.635,69.635,0,0,0-1.734-27.82,3.742,3.742,0,1,1,7.243-1.888,77.114,77.114,0,0,1,1.894,30.815C52,169.421,47.172,177.939,42.061,186.958c-4.406,7.775-8.963,15.816-11.79,27.426a90.375,90.375,0,0,0-2.082,29.463,3.748,3.748,0,0,1-3.393,4.07A3.8,3.8,0,0,1,24.269,247.928Z" fill="none" stroke="#000" stroke-linecap="round" stroke-linejoin="round" stroke-width="2.133"/>
          <path id="패스_850" data-name="패스 850" d="M45.694,132.281c-3.989-2.879-8.382-3.425-10.8-1.523a5.352,5.352,0,0,0-2,3.547c-.228,2.365,1.474,4.157,2.183,4.9,3.994,4.2,11.239,2.818,12.208,2.619" fill="none" stroke="#000" stroke-linecap="round" stroke-linejoin="round" stroke-width="2.133"/>
          <path id="패스_851" data-name="패스 851" d="M39.18,135.575l7.475,1.2" fill="none" stroke="#000" stroke-linecap="round" stroke-linejoin="round" stroke-width="2.133"/>
          <path id="패스_852" data-name="패스 852" d="M53.789,130.255a7.33,7.33,0,0,1,3.148-4.127c3.736-2.12,9.672-.041,10.89,3.895,1.206,3.89-2.785,7.7-5.48,9.229a11.7,11.7,0,0,1-6.931,1.364" fill="none" stroke="#000" stroke-linecap="round" stroke-linejoin="round" stroke-width="2.133"/>
          <path id="패스_853" data-name="패스 853" d="M54.466,135.475a9.491,9.491,0,0,1,6.279-3.3" fill="none" stroke="#000" stroke-linecap="round" stroke-linejoin="round" stroke-width="2.133"/>
          <path id="패스_854" data-name="패스 854" d="M46.541,149.686A12.21,12.21,0,0,0,40.1,148.34c-1.55.111-4.346.313-6.417,2.588-1.736,1.908-2.66,4.942-1.76,7.29,1.365,3.556,7.029,5.837,12.92,3.325" fill="none" stroke="#000" stroke-linecap="round" stroke-linejoin="round" stroke-width="2.133"/>
          <path id="패스_855" data-name="패스 855" d="M39.19,155.6a13.406,13.406,0,0,1,7.136-.11" fill="none" stroke="#000" stroke-linecap="round" stroke-linejoin="round" stroke-width="2.133"/>
          <path id="패스_856" data-name="패스 856" d="M54.994,151.45c.693-.454,5.193-3.3,10.254-1.608.979.328,4.313,1.443,5.711,4.733a8.875,8.875,0,0,1-1.635,8.96c-3.236,3.633-10.352,4.031-16.7-.2" fill="none" stroke="#000" stroke-linecap="round" stroke-linejoin="round" stroke-width="2.133"/>
          <path id="패스_857" data-name="패스 857" d="M54.718,156.936a13.714,13.714,0,0,1,8.921,1.575" fill="none" stroke="#000" stroke-linecap="round" stroke-linejoin="round" stroke-width="2.133"/>
          <path id="패스_858" data-name="패스 858" d="M41.826,170.189a13.336,13.336,0,0,0-5.161-3.326c-1.1-.381-5.505-1.918-9.427.466-.684.415-3.529,2.146-3.954,5.378a6.893,6.893,0,0,0,1.174,4.695c2.168,3.123,7.42,4.127,13.023,2.344" fill="none" stroke="#000" stroke-linecap="round" stroke-linejoin="round" stroke-width="2.133"/>
          <path id="패스_859" data-name="패스 859" d="M30.561,171.99l9,2.523" fill="none" stroke="#000" stroke-linecap="round" stroke-linejoin="round" stroke-width="2.133"/>
          <path id="패스_860" data-name="패스 860" d="M49,174.009c4.842-2.876,10.284-2.035,12.744,1.144a7.733,7.733,0,0,1,.9,7.356c-1.988,5.068-9.635,7.011-14.436,4.475a9.515,9.515,0,0,1-3.678-3.616" fill="none" stroke="#000" stroke-linecap="round" stroke-linejoin="round" stroke-width="2.133"/>
          <path id="패스_861" data-name="패스 861" d="M46.383,179.324a16.907,16.907,0,0,1,7.925,1.524" fill="none" stroke="#000" stroke-linecap="round" stroke-linejoin="round" stroke-width="2.133"/>
          <path id="패스_862" data-name="패스 862" d="M30.015,193.081c-3.921-5.441-10.819-6.8-15.319-3.918-3.39,2.173-5.525,6.824-4.221,10.918,1.565,4.907,7.78,8.1,14.026,6" fill="none" stroke="#000" stroke-linecap="round" stroke-linejoin="round" stroke-width="2.133"/>
          <path id="패스_863" data-name="패스 863" d="M17.25,196.093a80.712,80.712,0,0,1,10.52,2.233" fill="none" stroke="#000" stroke-linecap="round" stroke-linejoin="round" stroke-width="2.133"/>
          <path id="패스_864" data-name="패스 864" d="M37.375,196.518c8.013-1.083,14.4,2.566,15.575,7.313a9.179,9.179,0,0,1-1.418,6.817c-2.99,4.565-9.581,5.606-14.2,3.388a11.965,11.965,0,0,1-5.223-5.184" fill="none" stroke="#000" stroke-linecap="round" stroke-linejoin="round" stroke-width="2.133"/>
          <path id="패스_865" data-name="패스 865" d="M34.552,202.581a31.556,31.556,0,0,1,9.683,3.79" fill="none" stroke="#000" stroke-linecap="round" stroke-linejoin="round" stroke-width="2.133"/>
          <path id="패스_866" data-name="패스 866" d="M20.75,221.445a14.608,14.608,0,0,0-5.482-3.185c-1.538-.481-7.079-2.211-11.022,1.235A9.914,9.914,0,0,0,1.728,230.3c2.122,5,9.9,7.926,17.953,4.6" fill="none" stroke="#000" stroke-linecap="round" stroke-linejoin="round" stroke-width="2.133"/>
          <path id="패스_867" data-name="패스 867" d="M11.314,226.981a38.934,38.934,0,0,1,8.808-.867" fill="none" stroke="#000" stroke-linecap="round" stroke-linejoin="round" stroke-width="2.133"/>
          <path id="패스_868" data-name="패스 868" d="M29.413,223.72c8.684-4.683,17.13-2.528,19.337,1.892,1.861,3.724-.548,9.375-4.3,12.273-4.519,3.489-11.427,3.328-16.731-.769" fill="none" stroke="#000" stroke-linecap="round" stroke-linejoin="round" stroke-width="2.133"/>
          <path id="패스_869" data-name="패스 869" d="M28.554,231.424l9.841-.915" fill="none" stroke="#000" stroke-linecap="round" stroke-linejoin="round" stroke-width="2.133"/>
          <path id="패스_870" data-name="패스 870" d="M84.4,215.429c7.457,3.858,10.386,15.454,5.961,22.725a14.429,14.429,0,0,1-22.074,2.739,15.459,15.459,0,0,1-4.259-8.712c-.47-2.365-1.474-7.417,1.582-11.994A14.273,14.273,0,0,1,74.3,214.5a14.93,14.93,0,0,1,10.1.933" fill="#fff"/>
          <path id="패스_871" data-name="패스 871" d="M84.4,215.429c7.457,3.858,10.386,15.454,5.961,22.725a14.429,14.429,0,0,1-22.074,2.739,15.459,15.459,0,0,1-4.259-8.712c-.47-2.365-1.474-7.417,1.582-11.994A14.273,14.273,0,0,1,74.3,214.5,14.93,14.93,0,0,1,84.4,215.429Z" fill="none" stroke="#000" stroke-miterlimit="10" stroke-width="2.133"/>
          <path id="패스_872" data-name="패스 872" d="M71.054,222s-6.477,9.741,1.32,15.153" fill="none" stroke="#000" stroke-linecap="round" stroke-linejoin="round" stroke-width="2.133"/>
          <line id="선_22" data-name="선 22" x1="1.633" y1="0.473" transform="translate(75.409 238.951)" fill="none" stroke="#000" stroke-linecap="round" stroke-linejoin="round" stroke-width="2.133"/>
          <path id="패스_873" data-name="패스 873" d="M107.976,192.738a1.646,1.646,0,0,1-.767-.114c-.733-.342-.986-1.227-1.495-1.821-.97-1.134-3.267-1.276-5.341-.937s-4.118,1.059-6.192,1.361a11.519,11.519,0,0,1-8.041-1.479c-.783,1.809.445,3.4,1.638,4.777l4.041,4.649a12.28,12.28,0,0,0,5.284,2.993c4.074,1.275,6.238.941,7.823.38a41.043,41.043,0,0,0,4.486,10.419c5.393,8.861,12.851,13.332,20.308,17.685,3.01,1.758,11.174,6.523,20.167,8.864,22.424,5.838,51.173.579,54-10.766a33.145,33.145,0,0,0-.026-4.064c-.443-15.32-1.235-12.8-2.177-25.914-.176-2.439-.364-5.54-2.447-8.558a13.49,13.49,0,0,0-3.643-3.536c-9.373-6.418-23.975-4.584-23.975-4.584-7.443.933-12.814,3.355-23.557,8.195-11.343,5.11-15.132,8.226-23.292,9.023a38.967,38.967,0,0,1-13.245-1.034c1.409-.6,5.84-2.448,6.336-3.9q.81-2.377,1.622-4.755c.48-1.4.949-3,.266-4.317a6.335,6.335,0,0,1-4.286,3.042c-1.2.221-2.436.088-3.639.278a3.427,3.427,0,0,0-2.854,1.983c-.26.779-.222,1.862-.995,2.131" fill="#7be9ef"/>
          <path id="패스_874" data-name="패스 874" d="M107.976,192.738a1.646,1.646,0,0,1-.767-.114c-.733-.342-.986-1.227-1.495-1.821-.97-1.134-3.267-1.276-5.341-.937s-4.118,1.059-6.192,1.361a11.519,11.519,0,0,1-8.041-1.479c-.783,1.809.445,3.4,1.638,4.777l4.041,4.649a12.28,12.28,0,0,0,5.284,2.993c4.074,1.275,6.238.941,7.823.38a41.043,41.043,0,0,0,4.486,10.419c5.393,8.861,12.851,13.332,20.308,17.685,3.01,1.758,11.174,6.523,20.167,8.864,22.424,5.838,51.173.579,54-10.766a33.145,33.145,0,0,0-.026-4.064c-.443-15.32-1.235-12.8-2.177-25.914-.176-2.439-.364-5.54-2.447-8.558a13.49,13.49,0,0,0-3.643-3.536c-9.373-6.418-23.975-4.584-23.975-4.584-7.443.933-12.814,3.355-23.557,8.195-11.343,5.11-15.132,8.226-23.292,9.023a38.967,38.967,0,0,1-13.245-1.034c1.409-.6,5.84-2.448,6.336-3.9q.81-2.377,1.622-4.755c.48-1.4.949-3,.266-4.317a6.335,6.335,0,0,1-4.286,3.042c-1.2.221-2.436.088-3.639.278a3.427,3.427,0,0,0-2.854,1.983C108.711,191.386,108.749,192.469,107.976,192.738Z" fill="none" stroke="#251714" stroke-linecap="round" stroke-linejoin="round" stroke-width="2.133"/>
          <path id="패스_875" data-name="패스 875" d="M136.161,212c.019,7.37,2.7,13.338,5.983,13.329s5.931-5.99,5.912-13.361-2.7-13.337-5.983-13.329-5.931,5.99-5.912,13.361" fill="#fff"/>
          <path id="패스_876" data-name="패스 876" d="M136.161,212c.019,7.37,2.7,13.338,5.983,13.329s5.931-5.99,5.912-13.361-2.7-13.337-5.983-13.329S136.142,204.627,136.161,212Z" fill="none" stroke="#251714" stroke-linecap="round" stroke-linejoin="round" stroke-width="2.133"/>
          <path id="패스_877" data-name="패스 877" d="M140.311,214.515c.012,4.58,1.677,8.288,3.717,8.282s3.686-3.723,3.674-8.3-1.677-8.288-3.718-8.282-3.685,3.722-3.673,8.3"/>
          <path id="패스_878" data-name="패스 878" d="M140.311,214.515c.012,4.58,1.677,8.288,3.717,8.282s3.686-3.723,3.674-8.3-1.677-8.288-3.718-8.282S140.3,209.935,140.311,214.515Z" fill="none" stroke="#251714" stroke-miterlimit="10" stroke-width="1.067"/>
          <path id="패스_879" data-name="패스 879" d="M131.211,228.154a5.867,5.867,0,0,1-2.907,2.715,45.841,45.841,0,0,1-20.675,5.539c-1.557-.18.967-2.505,2.082-3.4a11.66,11.66,0,0,0,3.075-2.9c.417-.73.572-1.551.914-2.309,1.347-2.979,5.137-4.349,8.546-5.213" fill="#7be9ef"/>
          <path id="패스_880" data-name="패스 880" d="M131.211,228.154a5.867,5.867,0,0,1-2.907,2.715,45.841,45.841,0,0,1-20.675,5.539c-1.557-.18.967-2.505,2.082-3.4a11.66,11.66,0,0,0,3.075-2.9c.417-.73.572-1.551.914-2.309,1.347-2.979,5.137-4.349,8.546-5.213" fill="none" stroke="#251714" stroke-linecap="round" stroke-linejoin="round" stroke-width="2.133"/>
          <path id="패스_881" data-name="패스 881" d="M203.912,226.239c-12.876,4.946-26.3,8.508-40.086,8.259-3.907-.069-9.047-.33-12.887-1.409-5.853-1.645-11.1-2.423-16.281-6.33" fill="none" stroke="#251714" stroke-linecap="round" stroke-linejoin="round" stroke-width="2.133"/>
        </g>
      </g>
    </g>
    <g id="벡터_고급_개체-2" data-name="벡터 고급 개체" transform="translate(418 4155)">
      <g id="그룹_82" data-name="그룹 82">
        <g id="그룹_81" data-name="그룹 81" clip-path="url(#clip-path-2)">
          <path id="패스_882" data-name="패스 882" d="M39.211,82.983c.236-10.375,10.426-18.865,8.879-29.359-1.312-3.237-4.428-2.729-9.015-6.517-4.5-3.713-8.572-10.029-7.087-13.3,4.7-6.972,11.662,5.509,17.731,7.979.145-8.233-8.057-13.321-11.161-20.287-2.17-4.143-1.382-12.937,4.217-11.415,8.384,3.276,8.836,14.527,12.858,21.661,1.775-7.489-2.152-15.289-2.438-22.882C56.8-7.918,72.225,3.327,63.368,23.9,77.1,12.67,84.695,28.246,63.106,38.957c4.959-1.886,10.091-4.873,15.59-4.376,6.314,1.152,5.25,8.229,1.852,10.367C75.582,49.285,69.536,47.1,62,49.446c-1.649.514-4.939,3-4.519,4.881.213.951,1.336,1.482,1.607,1.6,1.906.829,3.7-.471,7.274-2.466,4.349-2.425,6.561-3.632,8.377-3.365a7.246,7.246,0,0,1,5.616,4.6c.977,2.93-.72,5.623-1.327,6.588-.9,1.431-2.622,3.376-9.363,5.644-6.244,2.1-7.476,1.424-10.32,2.66-3.092,1.345-7,4.471-9.973,12.522" fill="#ea75d1"/>
          <path id="패스_883" data-name="패스 883" d="M39.211,82.983c.236-10.375,10.426-18.865,8.879-29.359-1.312-3.237-4.428-2.729-9.015-6.517-4.5-3.713-8.572-10.029-7.087-13.3,4.7-6.972,11.662,5.509,17.731,7.979.145-8.233-8.057-13.321-11.161-20.287-2.17-4.143-1.382-12.937,4.217-11.415,8.384,3.276,8.836,14.527,12.858,21.661,1.775-7.489-2.152-15.289-2.438-22.882C56.8-7.918,72.225,3.327,63.368,23.9,77.1,12.67,84.695,28.246,63.106,38.957c4.959-1.886,10.091-4.873,15.59-4.376,6.314,1.152,5.25,8.229,1.852,10.367C75.582,49.285,69.536,47.1,62,49.446c-1.649.514-4.939,3-4.519,4.881.213.951,1.336,1.482,1.607,1.6,1.906.829,3.7-.471,7.274-2.466,4.349-2.425,6.561-3.632,8.377-3.365a7.246,7.246,0,0,1,5.616,4.6c.977,2.93-.72,5.623-1.327,6.588-.9,1.431-2.622,3.376-9.363,5.644-6.244,2.1-7.476,1.424-10.32,2.66-3.092,1.345-7,4.471-9.973,12.522" fill="none" stroke="#000" stroke-miterlimit="10" stroke-width="1.459"/>
          <path id="패스_884" data-name="패스 884" d="M15.688,82.558c-1.042-3.146-.65-6.709-2.142-9.67C11.7,69.227,7.515,67.46,4.665,64.512A14.144,14.144,0,0,1,.75,55.568a7.729,7.729,0,0,1,.779-4.209,4.129,4.129,0,0,1,3.482-2.227c2.343.027,3.906,2.44,4.594,4.679s1.05,4.76,2.763,6.358c2.269-1.544,2.375-4.833,1.907-7.537-.72-4.163-2.222-8.155-3.043-12.3a12.288,12.288,0,0,1,.046-6.338,5.312,5.312,0,0,1,4.668-3.785,2.667,2.667,0,0,1,1.952.736,3.572,3.572,0,0,1,.763,1.873c.779,4.367.02,8.967,1.315,13.21.331,1.085.968,2.275,2.088,2.457a2.844,2.844,0,0,0,2.026-.653c2.717-1.934,4.076-5.548,7.116-6.922a3.716,3.716,0,0,1,1.866-.373c1.676.161,2.847,1.922,2.885,3.605a8.551,8.551,0,0,1-1.693,4.678A30.244,30.244,0,0,1,27,56.608a15.86,15.86,0,0,0-4.022,3.575c-1.247,1.881-1.386,4.268-1.4,6.525a85.876,85.876,0,0,0,1.341,15.5" fill="#1feaff"/>
          <path id="패스_885" data-name="패스 885" d="M15.688,82.558c-1.042-3.146-.65-6.709-2.142-9.67C11.7,69.227,7.515,67.46,4.665,64.512A14.144,14.144,0,0,1,.75,55.568a7.729,7.729,0,0,1,.779-4.209,4.129,4.129,0,0,1,3.482-2.227c2.343.027,3.906,2.44,4.594,4.679s1.05,4.76,2.763,6.358c2.269-1.544,2.375-4.833,1.907-7.537-.72-4.163-2.222-8.155-3.043-12.3a12.288,12.288,0,0,1,.046-6.338,5.312,5.312,0,0,1,4.668-3.785,2.667,2.667,0,0,1,1.952.736,3.572,3.572,0,0,1,.763,1.873c.779,4.367.02,8.967,1.315,13.21.331,1.085.968,2.275,2.088,2.457a2.844,2.844,0,0,0,2.026-.653c2.717-1.934,4.076-5.548,7.116-6.922a3.716,3.716,0,0,1,1.866-.373c1.676.161,2.847,1.922,2.885,3.605a8.551,8.551,0,0,1-1.693,4.678A30.244,30.244,0,0,1,27,56.608a15.86,15.86,0,0,0-4.022,3.575c-1.247,1.881-1.386,4.268-1.4,6.525a85.876,85.876,0,0,0,1.341,15.5" fill="none" stroke="#050000" stroke-miterlimit="10" stroke-width="1.459"/>
        </g>
      </g>
    </g>
    <g>
      <g id="그룹_84" data-name="그룹 84" transform="translate(266 69)">
        <g id="그룹_83" data-name="그룹 83" clip-path="url(#clip-path-3)">
          <path id="패스_886" data-name="패스 886" d="M250.853,3981.97a5.02,5.02,0,0,0-5.721.516,4.675,4.675,0,0,0-1.5,4.469,4.874,4.874,0,0,0,4.434,3.677c-1.589,1.457-2.217,3.33-1.609,4.6.815,1.709,3.543,1.7,3.879,1.7,4.771-.019,10.4-5.947,9.492-11.284-.327-1.917-1.721-5.071-4.468-5.473-2.306-.337-4.177,1.468-4.506,1.8" fill="#f4f498"/>
          <path id="패스_887" data-name="패스 887" d="M250.853,3981.97a5.02,5.02,0,0,0-5.721.516,4.675,4.675,0,0,0-1.5,4.469,4.874,4.874,0,0,0,4.434,3.677c-1.589,1.457-2.217,3.33-1.609,4.6.815,1.709,3.543,1.7,3.879,1.7,4.771-.019,10.4-5.947,9.492-11.284-.327-1.917-1.721-5.071-4.468-5.473C253.053,3979.838,251.182,3981.642,250.853,3981.97Z" fill="none" stroke="#000" stroke-linecap="round" stroke-linejoin="round" stroke-width="2"/>
          <path id="패스_888" data-name="패스 888" d="M253.866,3936c-.2-1.14-1.835-9.863-9.354-13.433-1.276-.606-5.261-2.675-9.607-1.012a14.247,14.247,0,0,0-7.239,6.671,18.071,18.071,0,0,0,5.51,22.656,7.291,7.291,0,0,0-2.314,4.874A7.19,7.19,0,0,0,232.2,3960c2.748,4.276,8.386,4.805,9.352,4.883-2.843,3.482-2.567,7.81-.57,9.487,2.378,2,7.114.17,9.265-2.663a7.688,7.688,0,0,0,1.413-3.279,3.331,3.331,0,0,0,4.236,1.284,3.265,3.265,0,0,0,1.672-3.288,4,4,0,0,0,2.57,1.074,3.4,3.4,0,0,0,2.89-1.195c.776-1.3-.224-3.969-3.148-5.8,2.728-.889,5.725-.364,8.534-.951,5.588-1.169,9.361-6.47,11.352-11.809.9-2.4,2.165-5.722.891-9.5a12.337,12.337,0,0,0-5.6-6.523c-5.614-3.215-14.03-1.469-21.181,4.266" fill="#f4f498"/>
          <path id="패스_889" data-name="패스 889" d="M253.866,3936c-.2-1.14-1.835-9.863-9.354-13.433-1.276-.606-5.261-2.675-9.607-1.012a14.247,14.247,0,0,0-7.239,6.671,18.071,18.071,0,0,0,5.51,22.656,7.291,7.291,0,0,0-2.314,4.874A7.19,7.19,0,0,0,232.2,3960c2.748,4.276,8.386,4.805,9.352,4.883-2.843,3.482-2.567,7.81-.57,9.487,2.378,2,7.114.17,9.265-2.663a7.688,7.688,0,0,0,1.413-3.279,3.331,3.331,0,0,0,4.236,1.284,3.265,3.265,0,0,0,1.672-3.288,4,4,0,0,0,2.57,1.074,3.4,3.4,0,0,0,2.89-1.195c.776-1.3-.224-3.969-3.148-5.8,2.728-.889,5.725-.364,8.534-.951,5.588-1.169,9.361-6.47,11.352-11.809.9-2.4,2.165-5.722.891-9.5a12.337,12.337,0,0,0-5.6-6.523C269.433,3928.514,261.017,3930.261,253.866,3936Z" fill="none" stroke="#000" stroke-linecap="round" stroke-linejoin="round" stroke-width="2"/>
          <path id="패스_890" data-name="패스 890" d="M242.524,3935.985l4.622,5.365-6.611.453" fill="none" stroke="#000" stroke-linecap="round" stroke-linejoin="round" stroke-width="2"/>
          <path id="패스_891" data-name="패스 891" d="M262.184,3943.753l-6.378.94,3.924,4.908" fill="none" stroke="#000" stroke-linecap="round" stroke-linejoin="round" stroke-width="2"/>
          <path id="패스_892" data-name="패스 892" d="M242.716,3947.556l.276.948a1.279,1.279,0,0,0,1.821.775,1.28,1.28,0,0,1,1.756.6l.346.758a1.28,1.28,0,0,0,1.721.619l.423-.2a2.926,2.926,0,0,1,3.727,1.039,2.925,2.925,0,0,0,3.431,1.162l.519-.184" fill="#f697b7"/>
          <path id="패스_893" data-name="패스 893" d="M242.716,3947.556l.276.948a1.279,1.279,0,0,0,1.821.775,1.28,1.28,0,0,1,1.756.6l.346.758a1.28,1.28,0,0,0,1.721.619l.423-.2a2.926,2.926,0,0,1,3.727,1.039,2.925,2.925,0,0,0,3.431,1.162l.519-.184" fill="none" stroke="#000" stroke-linecap="round" stroke-linejoin="round" stroke-width="2"/>
          <path id="패스_894" data-name="패스 894" d="M223.012,3957.582c-2.578-.023-4.221,3.436-4.749,4.547a3.3,3.3,0,0,0-.527,2.207c.32,1.437,2.152,1.958,3.612,1.754a7.374,7.374,0,0,0,3.078-1.177c.823-.553,2.538-1.877,2.392-3.817a4.082,4.082,0,0,0-2.669-3.275,3.15,3.15,0,0,0-1.136-.238" fill="#f4f498"/>
          <path id="패스_895" data-name="패스 895" d="M223.012,3957.582c-2.578-.023-4.221,3.436-4.749,4.547a3.3,3.3,0,0,0-.527,2.207c.32,1.437,2.152,1.958,3.612,1.754a7.374,7.374,0,0,0,3.078-1.177c.823-.553,2.538-1.877,2.392-3.817a4.082,4.082,0,0,0-2.669-3.275A3.15,3.15,0,0,0,223.012,3957.582Z" fill="none" stroke="#000" stroke-linecap="round" stroke-linejoin="round" stroke-width="2"/>
          <path id="패스_896" data-name="패스 896" d="M286.27,3948.592c-2.578-.023-4.221,3.436-4.749,4.547a3.3,3.3,0,0,0-.527,2.207c.32,1.437,2.152,1.958,3.612,1.754a7.371,7.371,0,0,0,3.078-1.177c.823-.553,2.538-1.877,2.392-3.817a4.083,4.083,0,0,0-2.669-3.275,3.15,3.15,0,0,0-1.136-.238" fill="#f4f498"/>
          <path id="패스_897" data-name="패스 897" d="M286.27,3948.592c-2.578-.023-4.221,3.436-4.749,4.547a3.3,3.3,0,0,0-.527,2.207c.32,1.437,2.152,1.958,3.612,1.754a7.371,7.371,0,0,0,3.078-1.177c.823-.553,2.538-1.877,2.392-3.817a4.083,4.083,0,0,0-2.669-3.275A3.15,3.15,0,0,0,286.27,3948.592Z" fill="none" stroke="#000" stroke-linecap="round" stroke-linejoin="round" stroke-width="2"/>
        </g>
      </g>
      <animateTransform attributeName="transform" type="translate"
          values="0 0; 0 20; 0 0"
          keyTimes="0; 0.5; 1"
          keySplines="0.42 0 0.58 1; 0.42 0 0.58 1"
          dur="1.2s"
          repeatCount="indefinite"/>
    </g>
    <g id="그룹_86" data-name="그룹 86" transform="translate(509 4095)">
      <g id="그룹_85" data-name="그룹 85" clip-path="url(#clip-path-4)">
        <path id="패스_898" data-name="패스 898" d="M12.017,1.038a11.547,11.547,0,0,0-10.2,6.811,11.221,11.221,0,0,0,.51,9.216A11.315,11.315,0,0,0,8.094,22.09c4.247,1.709,9.588.924,12.74-2.249a10.458,10.458,0,0,0,2.45-4.105A11.481,11.481,0,0,0,23.2,7.8a11.7,11.7,0,0,0-11.18-6.761" fill="#e3751c"/>
        <path id="패스_899" data-name="패스 899" d="M12.017,1.038a11.547,11.547,0,0,0-10.2,6.811,11.221,11.221,0,0,0,.51,9.216A11.315,11.315,0,0,0,8.094,22.09c4.247,1.709,9.588.924,12.74-2.249a10.458,10.458,0,0,0,2.45-4.105A11.481,11.481,0,0,0,23.2,7.8,11.7,11.7,0,0,0,12.017,1.038Z" fill="none" stroke="#000" stroke-linecap="round" stroke-linejoin="round" stroke-width="2.067"/>
        <path id="패스_900" data-name="패스 900" d="M4.6,4.471A10.2,10.2,0,0,1,7.872,6.463a7.576,7.576,0,0,1,1.576,2.72,15.352,15.352,0,0,1,.78,7.375,7.845,7.845,0,0,1-2.585,5.2" fill="none" stroke="#000" stroke-linecap="round" stroke-linejoin="round" stroke-width="2.067"/>
        <path id="패스_901" data-name="패스 901" d="M17.524,2.571a12.522,12.522,0,0,0-3.236,7.581,8.8,8.8,0,0,0,1.222,5.52,8.908,8.908,0,0,0,5.643,3.677" fill="none" stroke="#000" stroke-linecap="round" stroke-linejoin="round" stroke-width="2.067"/>
      </g>
    </g>
  </g>
</svg>
