<svg xmlns="http://www.w3.org/2000/svg" xmlns:xlink="http://www.w3.org/1999/xlink" width="548" height="271" viewBox="0 0 548 271">
  <defs>
    <clipPath id="clip-path">
      <rect id="사각형_36" data-name="사각형 36" width="226" height="137" fill="none"/>
    </clipPath>
    <clipPath id="clip-path-2">
      <rect id="사각형_37" data-name="사각형 37" width="37" height="39" transform="translate(0 0)" fill="none"/>
    </clipPath>
  </defs>
  <g id="그룹_299" data-name="그룹 299" transform="translate(-1142 -3851)">
    <g id="벡터_고급_개체" data-name="벡터 고급 개체" transform="translate(1228 3985)">
      <g id="그룹_72" data-name="그룹 72">
        <g id="그룹_71" data-name="그룹 71" clip-path="url(#clip-path)">
          <path id="패스_645" data-name="패스 645" d="M30.546,77.29c-1.779,1.07-1.827,4.725-.664,6.448a8.615,8.615,0,0,0,5.23,3.11c3.989,1,8.165.871,12.245,1.392S55.684,90.1,58.287,93.3c2.369,2.908,3,6.873,4.977,10.062a5.824,5.824,0,0,0,1.671,1.864,6.449,6.449,0,0,0,2.007.776c9.455,2.33,19.977-.9,28.853,3.116l16.683,8.3a22.948,22.948,0,0,1,10.632,13.522l.4.659a32.719,32.719,0,0,0-7.963-5.995q1.484,5.193,2.966,10.388c-4.828-5.128-10.164-10.127-16.807-12.429a41.65,41.65,0,0,0-7.68-1.7,132.638,132.638,0,0,0-19.394-1.381c-3.613.008-7.31.153-10.75-.958a30.569,30.569,0,0,1-4.67-2.11,19.221,19.221,0,0,1-4.011-2.533,28.767,28.767,0,0,1-3.21-3.843,28.981,28.981,0,0,0-6.851-6.29l-.663-.346a14.672,14.672,0,0,0-6.189-.94c-4.246-.008-8.552.1-12.671-.934S17.5,99.117,15.557,95.323a20.314,20.314,0,0,1-1.641-5.433q-.348-1.8-.637-3.6a25.415,25.415,0,0,1-.405-6.707,10.785,10.785,0,0,1,2.957-6.2c.987,3.152,5.859,4.04,14.715,3.9" fill="#82d2e8"/>
          <path id="패스_646" data-name="패스 646" d="M90.547,121.462,101.2,123.07a76.812,76.812,0,0,1,4.718-10.779L95.628,108.8c-2.5,3.028-4,7.53-5.081,12.659"/>
          <path id="패스_647" data-name="패스 647" d="M55.83,60.968c-.452,1.748,5.481,3.636,5.554,6.247.039,1.434-1.639,2.678-2.629,3.15-3.846,1.831-8.573.884-12.665,1.855-3.326.726-5.579,3.438-8.814,4.418a17.749,17.749,0,0,1-4.408.626c-5.02,0-10.929.527-15.417-1.59-1.977-.959-3.8-2.247-5.956-2.784-2.37-.665-5.375-.3-7.76-.946-4.319-1.322-2.586-3.394-1.083-6.228.852-1.963-1.763-4.344-.445-6.184,3.148-3.242,8.726-1.361,12.666-2.571,3.866-.852,5.013-5.113,8.149-7.111,6.161-3.718,15.361-4.044,20.424,1.693,0,0,8.881,1.772,11.6,5.445.4.535,1.55,2.1,1.069,3.44-.121.34-.222.313-.28.539" fill="#fff"/>
          <path id="패스_648" data-name="패스 648" d="M55.83,60.968c-.483,1.611,5.5,3.6,5.554,6.247.03,1.441-1.636,2.676-2.629,3.15-3.846,1.831-8.573.884-12.665,1.855-3.326.726-5.579,3.438-8.814,4.418a17.749,17.749,0,0,1-4.408.626c-5.02,0-10.929.527-15.417-1.59-1.977-.959-3.8-2.247-5.956-2.784-2.37-.665-5.375-.3-7.76-.946-4.319-1.322-2.586-3.394-1.083-6.228.852-1.963-1.763-4.344-.445-6.184,3.148-3.242,8.726-1.361,12.666-2.571,3.866-.852,5.013-5.113,8.149-7.111,6.161-3.718,15.361-4.044,20.424,1.693a7.129,7.129,0,0,0,.976,1.242c3.358,3.4,8.189,1.183,10.62,4.2.115.143,1.661,2.109,1.036,3.555C55.958,60.819,55.885,60.787,55.83,60.968Z" fill="none" stroke="#000" stroke-miterlimit="10" stroke-width="2.011"/>
          <path id="패스_649" data-name="패스 649" d="M41.784,48.637c-.194-9.4,3.878-16.065,10.513-22.695a20.407,20.407,0,0,1,4.4-3.457A27.075,27.075,0,0,1,62,20.408c5.133-1.576,10.378-2.987,15.743-3.17s10.915.951,15.29,4.074a48.919,48.919,0,0,0,4.445,3.247,21.358,21.358,0,0,0,4.727,1.727c2.442.68,3.8.9,6.239,1.576l1.681.27c10.205.547,19.4-6.383,29.563-7.449,4.965-.52,9.968.385,14.813,1.587q4.055,1.006,8.037,2.291c2.5.808,4.987,1.7,7.555,2.272,5.075,1.128,10.332.977,15.526.819,4.212-.127,8.508-.27,12.471-1.709,7.333-2.663,13.3-11.145,13.7-18.965a11.652,11.652,0,0,0,10.4-4.988c3.844,8.846,3.6,18.508.094,27.493a10.266,10.266,0,0,1-1.848,3.283,11.838,11.838,0,0,1-4.812,2.708A62.142,62.142,0,0,1,203.144,39.1a63.372,63.372,0,0,1-10.134.379c-7.553-.123-15.359-.3-22.225-3.469a35.9,35.9,0,0,0-5.164-2.274,21.62,21.62,0,0,0-6.045-.525,30.062,30.062,0,0,0-7.081.613c-7.953,1.983-13.067,9.989-20.686,13.019a31.609,31.609,0,0,1-9.91,1.781,128.521,128.521,0,0,1-13.113.093l-2.692-.512A58.436,58.436,0,0,1,87.54,37.17a15.389,15.389,0,0,0-3.234-2.44,12.367,12.367,0,0,0-3.585-.976,22.064,22.064,0,0,0-6.158-.3c-3.922.49-7.384,2.715-10.693,4.882a25.535,25.535,0,0,0-6.133,5c-2.7,3.345-3.592,7.43-4.346,11.671" fill="#82d2e8"/>
          <path id="패스_650" data-name="패스 650" d="M161.635,86.1c-2.406,8.584-14.206,9.027-17.848,4.428-4.457,4.27-20.692,5.292-18.63-7.7-7.861,5.386-15-1.1-11.006-7.141-3.474-1.219-8.263-9.958-1.711-14.25,5.7-3.891,13.078,3.766,19.83-.2.358-.634,2.581-4.424,6.591-5.032,4.564-.691,9.78,2.993,11.342,9.19a8.5,8.5,0,0,1,6.079-.542,8.7,8.7,0,0,1,5.282,4.715c9.1,3.445,11.512,12.962.071,16.536" fill="#fff"/>
          <path id="패스_651" data-name="패스 651" d="M161.635,86.1c-2.406,8.584-14.206,9.027-17.848,4.428-4.457,4.27-20.692,5.292-18.63-7.7-7.861,5.386-15-1.1-11.006-7.141-3.474-1.219-8.263-9.958-1.711-14.25,5.7-3.891,13.078,3.766,19.83-.2.358-.634,2.581-4.424,6.591-5.032,4.564-.691,9.78,2.993,11.342,9.19a8.5,8.5,0,0,1,6.079-.542,8.7,8.7,0,0,1,5.282,4.715C170.666,73,173.075,82.522,161.635,86.1Z" fill="none" stroke="#000" stroke-linecap="round" stroke-linejoin="round" stroke-width="2.011"/>
          <path id="패스_652" data-name="패스 652" d="M30.546,77.29c-1.779,1.07-1.827,4.725-.664,6.448a8.615,8.615,0,0,0,5.23,3.11c3.989,1,8.165.871,12.245,1.392S55.684,90.1,58.287,93.3c2.369,2.908,3,6.873,4.977,10.062a5.824,5.824,0,0,0,1.671,1.864,6.449,6.449,0,0,0,2.007.776c9.455,2.33,19.977-.9,28.853,3.116l16.683,8.3a22.948,22.948,0,0,1,10.632,13.522l.4.659a32.719,32.719,0,0,0-7.963-5.995q1.484,5.193,2.966,10.388c-4.828-5.128-10.164-10.127-16.807-12.429a41.65,41.65,0,0,0-7.68-1.7,132.638,132.638,0,0,0-19.394-1.381c-3.613.008-7.31.153-10.75-.958a30.569,30.569,0,0,1-4.67-2.11,19.221,19.221,0,0,1-4.011-2.533,28.767,28.767,0,0,1-3.21-3.843,28.981,28.981,0,0,0-6.851-6.29l-.663-.346a14.672,14.672,0,0,0-6.189-.94c-4.246-.008-8.552.1-12.671-.934S17.5,99.117,15.557,95.323a20.314,20.314,0,0,1-1.641-5.433q-.348-1.8-.637-3.6a25.415,25.415,0,0,1-.405-6.707c.239-2.234-.132-3.983,1.453-5.567" fill="none" stroke="#000" stroke-linecap="round" stroke-linejoin="round" stroke-width="2.011"/>
          <path id="패스_653" data-name="패스 653" d="M41.784,48.637c-.194-9.4,3.878-16.065,10.513-22.695a20.407,20.407,0,0,1,4.4-3.457A27.075,27.075,0,0,1,62,20.408c5.133-1.576,10.378-2.987,15.743-3.17s10.915.951,15.29,4.074a48.919,48.919,0,0,0,4.445,3.247,21.358,21.358,0,0,0,4.727,1.727c2.442.68,3.8.9,6.239,1.576l1.681.27c10.205.547,19.4-6.383,29.563-7.449,4.965-.52,9.968.385,14.813,1.587q4.055,1.006,8.037,2.291c2.5.808,4.987,1.7,7.555,2.272,5.075,1.128,10.332.977,15.526.819,4.212-.127,8.508-.27,12.471-1.709,7.333-2.663,13.3-11.145,13.7-18.965a11.652,11.652,0,0,0,10.4-4.988c3.844,8.846,3.6,18.508.094,27.493a10.266,10.266,0,0,1-1.848,3.283,11.838,11.838,0,0,1-4.812,2.708A62.142,62.142,0,0,1,203.144,39.1a63.372,63.372,0,0,1-10.134.379c-7.553-.123-15.359-.3-22.225-3.469a35.9,35.9,0,0,0-5.164-2.274,21.62,21.62,0,0,0-6.045-.525,30.062,30.062,0,0,0-7.081.613c-7.953,1.983-13.067,9.989-20.686,13.019a31.609,31.609,0,0,1-9.91,1.781,128.521,128.521,0,0,1-13.113.093l-2.692-.512A58.436,58.436,0,0,1,87.54,37.17a15.389,15.389,0,0,0-3.234-2.44,12.367,12.367,0,0,0-3.585-.976,22.064,22.064,0,0,0-6.158-.3c-3.922.49-7.384,2.715-10.693,4.882a25.535,25.535,0,0,0-6.133,5c-2.7,3.345-3.592,7.43-4.346,11.671" fill="none" stroke="#000" stroke-miterlimit="10" stroke-width="2.011"/>
          <path id="패스_654" data-name="패스 654" d="M117.035,111.191a2.7,2.7,0,0,1,2.395,4.741,5.167,5.167,0,0,1-2.358.817,38.862,38.862,0,0,1-16.418-.474,7.908,7.908,0,0,1-4.014-2.126,4.618,4.618,0,0,1-1.094-3.475,1.971,1.971,0,0,1,.624-1.372,2.485,2.485,0,0,1,1.6-.348l2.771.035a1.919,1.919,0,0,0,1.42-.367,1.668,1.668,0,0,0,.35-.619c.831-2.253.4-4.753.565-7.15.09-1.3.525-2.8,1.74-3.265a2.551,2.551,0,0,1,2.775.927,5.508,5.508,0,0,1,1.012,2.925,30.023,30.023,0,0,0,.307,3.123,2.055,2.055,0,0,0,.583,1.182.864.864,0,0,0,1.2-.028,1.365,1.365,0,0,0,.159-.93,18.328,18.328,0,0,1,.925-6.956,2,2,0,0,1,.39-.758,1.624,1.624,0,0,1,2.141.156c1.275,1.078,1.466,2.944,1.562,4.616q.254,4.4.51,8.8" fill="#a65938"/>
          <path id="패스_655" data-name="패스 655" d="M116.174,109.969c-.22-2.931-.34-5.19-.51-8.124-.1-1.671-.287-3.539-1.562-4.617a1.624,1.624,0,0,0-2.142-.155,2.024,2.024,0,0,0-.39.758,18.367,18.367,0,0,0-.925,6.956,1.359,1.359,0,0,1-.157.93.863.863,0,0,1-1.2.027,2.05,2.05,0,0,1-.583-1.181,30.291,30.291,0,0,1-.308-3.124,5.5,5.5,0,0,0-1.011-2.924,2.553,2.553,0,0,0-2.775-.928c-1.215.467-1.649,1.963-1.74,3.266-.167,2.4.266,4.9-.565,7.15a1.682,1.682,0,0,1-.35.619,1.919,1.919,0,0,1-1.42.367l-2.771-.035a2.483,2.483,0,0,0-1.6.348,1.975,1.975,0,0,0-.624,1.372,4.618,4.618,0,0,0,1.1,3.475,7.9,7.9,0,0,0,4.014,2.126,38.844,38.844,0,0,0,16.418.473,5.136,5.136,0,0,0,2.357-.817,2.8,2.8,0,0,0,.767-3.371c-.563-1.115-1.951-1.33-2.994-1.422C117.2,111.139,116.263,111.156,116.174,109.969Z" fill="none" stroke="#000" stroke-linecap="round" stroke-linejoin="round" stroke-width="2.011"/>
          <path id="패스_656" data-name="패스 656" d="M85.222,107.225a20.5,20.5,0,0,0-3.709,12.392.928.928,0,0,1-.229.758.879.879,0,0,1-.455.143,57.975,57.975,0,0,1-9.665.049,12.756,12.756,0,0,1-2.856-.362.6.6,0,0,1-.38-.231.633.633,0,0,1-.021-.435l1.553-8.2c.178-.94.356-1.88.559-2.814a2.528,2.528,0,0,1,.5-1.2,2.594,2.594,0,0,1,2.019-.55l12.377.193"/>
          <path id="패스_657" data-name="패스 657" d="M61.5,103.119a8.084,8.084,0,0,0-2.971,3.711,22.842,22.842,0,0,0-1.28,4.65q-.348,1.754-.672,3.514a2.765,2.765,0,0,1-2.01-1.175c-.917-1.037-9.136-9.223-9.339-9.449A1.27,1.27,0,0,1,45,103.5a16.127,16.127,0,0,1,1.217-5.578c1.114-2.973,2.788-5.993,5.638-7.369.282-.136.611-.037.9-.155,2.31-.934,11.659,8.417,9.082,12.578Z"/>
          <path id="패스_658" data-name="패스 658" d="M75.333,33.593c2.776-.76,6.376-.081,10.775,1.993l6.927-14.275c-5.215-3.833-11.548-4.9-18.694-3.949,1.246,4.167,1.4,9.817.992,16.23"/>
          <path id="패스_659" data-name="패스 659" d="M58.231,43.035c.8-2.774,5.318-4.315,9.374-7C65.119,30.216,62.16,25.247,58.4,21.71c-5.976,2.47-10.183,7.341-13.1,13.959,4.191,1.106,7.7,3.673,12.934,7.366"/>
          <path id="패스_660" data-name="패스 660" d="M41.78,48.894l3.372,4.514,8.2,1.072,1.292-4.8A22.189,22.189,0,0,0,41.78,46.073Z"/>
          <path id="패스_661" data-name="패스 661" d="M101.787,46.629a49.645,49.645,0,0,0,23.175,2.115c-.806-9.006-1.807-17.592-4.671-22.167-4.467,2.074-9.545,2.159-15.114.645-.72,8.981-1.647,16.7-3.39,19.407"/>
        </g>
      </g>
    </g>
    <g id="벡터_고급_개체-2" data-name="벡터 고급 개체" transform="translate(1653 3851)">
      <g id="그룹_74" data-name="그룹 74">
        <g id="그룹_73" data-name="그룹 73" clip-path="url(#clip-path-2)">
          <path id="패스_662" data-name="패스 662" d="M10.734,2.72c-9,4.629-12.537,18.546-7.2,27.272a17.462,17.462,0,0,0,9.549,7.241,17.684,17.684,0,0,0,17.1-3.953c3.768-3.594,4.641-7.963,5.139-10.455.568-2.838,1.78-8.9-1.91-14.394C29.966,3.3,24.459,1.971,22.924,1.6,21.606,1.281,16.007.008,10.734,2.72" fill="#fff"/>
          <path id="패스_663" data-name="패스 663" d="M10.734,2.72c-9,4.629-12.537,18.546-7.2,27.272a17.462,17.462,0,0,0,9.549,7.241,17.684,17.684,0,0,0,17.1-3.953c3.768-3.594,4.641-7.963,5.139-10.455.568-2.838,1.78-8.9-1.91-14.394C29.966,3.3,24.459,1.971,22.924,1.6,21.606,1.281,16.007.008,10.734,2.72Z" fill="none" stroke="#000" stroke-miterlimit="10" stroke-width="2.048"/>
          <path id="패스_664" data-name="패스 664" d="M26.842,10.605s7.818,11.69-1.594,18.184" fill="none" stroke="#000" stroke-linecap="round" stroke-linejoin="round" stroke-width="2.048"/>
          <line id="선_7" data-name="선 7" y1="0.568" x2="1.972" transform="translate(19.614 30.948)" fill="none" stroke="#000" stroke-linecap="round" stroke-linejoin="round" stroke-width="2.048"/>
        </g>
      </g>
    </g>
    <g id="벡터_고급_개체_복사_3" data-name="벡터 고급 개체 복사 3" transform="translate(1142 3992)">
      <g id="그룹_78" data-name="그룹 78">
        <g id="그룹_77" data-name="그룹 77" clip-path="url(#clip-path-2)">
          <path id="패스_671" data-name="패스 671" d="M10.734,2.72c-9,4.629-12.537,18.546-7.2,27.272a17.462,17.462,0,0,0,9.549,7.241,17.684,17.684,0,0,0,17.1-3.953c3.768-3.594,4.641-7.963,5.139-10.455.568-2.838,1.78-8.9-1.91-14.394C29.966,3.3,24.459,1.971,22.924,1.6,21.606,1.281,16.007.008,10.734,2.72" fill="#fff"/>
          <path id="패스_672" data-name="패스 672" d="M10.734,2.72c-9,4.629-12.537,18.546-7.2,27.272a17.462,17.462,0,0,0,9.549,7.241,17.684,17.684,0,0,0,17.1-3.953c3.768-3.594,4.641-7.963,5.139-10.455.568-2.838,1.78-8.9-1.91-14.394C29.966,3.3,24.459,1.971,22.924,1.6,21.606,1.281,16.007.008,10.734,2.72Z" fill="none" stroke="#000" stroke-miterlimit="10" stroke-width="2.048"/>
          <path id="패스_673" data-name="패스 673" d="M26.842,10.605s7.818,11.69-1.594,18.184" fill="none" stroke="#000" stroke-linecap="round" stroke-linejoin="round" stroke-width="2.048"/>
          <line id="선_8" data-name="선 8" y1="0.568" x2="1.972" transform="translate(19.614 30.948)" fill="none" stroke="#000" stroke-linecap="round" stroke-linejoin="round" stroke-width="2.048"/>
        </g>
      </g>
    </g>
  </g>
</svg>
