<svg xmlns="http://www.w3.org/2000/svg" xmlns:xlink="http://www.w3.org/1999/xlink" width="69" height="49" viewBox="0 0 69 49">
  <defs>
    <clipPath id="clip-path">
      <rect id="사각형_176" data-name="사각형 176" width="69" height="49" transform="translate(0 0)" fill="none"/>
    </clipPath>
  </defs>
  <g id="obj" transform="translate(-594 -4785)">
    <g id="벡터_고급_개체" data-name="벡터 고급 개체" transform="translate(594 4785)">
      <g id="그룹_104" data-name="그룹 104">
        <g id="그룹_103" data-name="그룹 103" clip-path="url(#clip-path)">
          <path id="패스_996" data-name="패스 996" d="M37.972,39.367c-3.035-.666-12.328-2.706-15.488-11.132-3.593-9.583,3.873-19.016,4.661-19.891A24.2,24.2,0,0,1,45.458.684a17.087,17.087,0,0,1,10.674,3.74c4.915,3.985,6.151,9.684,6.649,11.977.607,2.8,1.894,8.728-1.182,14.272-3.052,5.5-8.489,7.178-11.714,8.174a23.468,23.468,0,0,1-11.912.521" fill="#ffa161"/>
          <path id="패스_997" data-name="패스 997" d="M37.972,39.367c-3.035-.666-12.328-2.706-15.488-11.132-3.593-9.583,3.873-19.016,4.661-19.891A24.2,24.2,0,0,1,45.458.684a17.087,17.087,0,0,1,10.674,3.74c4.915,3.985,6.151,9.684,6.649,11.977.607,2.8,1.894,8.728-1.182,14.272-3.052,5.5-8.489,7.178-11.714,8.174A23.468,23.468,0,0,1,37.972,39.367Z" fill="none" stroke="#000" stroke-linecap="round" stroke-linejoin="round" stroke-width="1.345"/>
          <path id="패스_998" data-name="패스 998" d="M40.449,37.9a17.118,17.118,0,0,1-7.938-10.431,15.687,15.687,0,0,1-.084-6.881A12.988,12.988,0,0,1,37.6,12.53a10.6,10.6,0,0,1,11.5-.233c3.969,2.518,6.961,7.759,5.353,12.067-.747,2-2.732,4.475-5.688,4.739a6.217,6.217,0,0,1-6.076-3.273,6.44,6.44,0,0,1-.323-4.556" fill="none" stroke="#000" stroke-linecap="round" stroke-linejoin="round" stroke-width="1.345"/>
          <path id="패스_999" data-name="패스 999" d="M10.612,27.135c.2-4.441-2.718-9.654-2.506-9.08-6.245-5.117.237-12.578,5.449-7.716C16.02,13.915,11.421,17,12.73,20.479c1.046,4.882,1.093,5.45,1.787,5.815,6.9,2.4.063-17.113,9.227-16.851,6.544,1.665,3.574,8,.112,11.358a17.736,17.736,0,0,0-.8,3.593c-.3,1.186-.946,2.518-.278,3.536a11.937,11.937,0,0,1,4.542,2.194c2.064,1.632,2.411,3.087,4.38,4.628.6.47,1.575,1.113,5.149,2.18,5.128,1.532,6.2,1.123,9.7,2.158,4.635,1.372,3.562,2.334,8.761,4,2.616.84,4.208,1.021,9.3,2.571,2.48.754,3.726,1.134,3.722,1.3-.063,2.39-22.665,1.232-56.879-.522C8.613,46.3,1.808,45.937.8,42.773.142,40.686,1.931,37.147,4.28,35.18c.7-.586.928-.6,1.692-1.162a13.616,13.616,0,0,0,4.641-6.883" fill="#fffde1"/>
          <path id="패스_1000" data-name="패스 1000" d="M10.612,27.135c.2-4.441-2.718-9.654-2.506-9.08-6.245-5.117.237-12.578,5.449-7.716C16.02,13.915,11.421,17,12.73,20.479c1.046,4.882,1.093,5.45,1.787,5.815,6.9,2.4.063-17.113,9.227-16.851,6.544,1.665,3.574,8,.112,11.358a17.736,17.736,0,0,0-.8,3.593c-.3,1.186-.946,2.518-.278,3.536a11.937,11.937,0,0,1,4.542,2.194c2.064,1.632,2.411,3.087,4.38,4.628.6.47,1.575,1.113,5.149,2.18,5.128,1.532,6.2,1.123,9.7,2.158,4.635,1.372,3.562,2.334,8.761,4,2.616.84,4.208,1.021,9.3,2.571,2.48.754,3.726,1.134,3.722,1.3-.063,2.39-22.665,1.232-56.879-.522C8.613,46.3,1.808,45.937.8,42.773.142,40.686,1.931,37.147,4.28,35.18c.7-.586.928-.6,1.692-1.162A13.616,13.616,0,0,0,10.612,27.135Z" fill="none" stroke="#000" stroke-linecap="round" stroke-linejoin="round" stroke-width="1.345"/>
          <path id="패스_1001" data-name="패스 1001" d="M12.1,31.021a4.526,4.526,0,0,0-.47.2,1.6,1.6,0,0,0-.4.3,1.48,1.48,0,0,0-.368.619,1.559,1.559,0,0,0-.053.357,1.651,1.651,0,0,0,.037.364.441.441,0,0,0,.023.092,1.369,1.369,0,0,0,.3.522,1.147,1.147,0,0,0,.257.215.926.926,0,0,0,.319.137,1.168,1.168,0,0,0,.347.039c.078-.009.2-.022.273-.038l.021,0a1.522,1.522,0,0,0,.273-.117,1.337,1.337,0,0,0,.479-.48,2.008,2.008,0,0,0,.152-.341c.014-.036.027-.073.037-.11a2.543,2.543,0,0,0,.072-.511.783.783,0,0,0-.086-.393.766.766,0,0,0-.207-.328.733.733,0,0,0-.321-.211.744.744,0,0,0-.384-.088l-.265.037a.99.99,0,0,0-.44.263l-.156.206a1.034,1.034,0,0,0-.136.515c0,.031,0,.062-.009.093l.036-.272a1.079,1.079,0,0,1-.066.258l.1-.244a.587.587,0,0,1-.067.12L11.539,32a.352.352,0,0,1-.062.065l.2-.16a.258.258,0,0,1-.051.031l.238-.1a.27.27,0,0,1-.057.016l.265-.036a.28.28,0,0,1-.063,0l.265.036a.237.237,0,0,1-.062-.016l.239.1a.251.251,0,0,1-.045-.026l.2.159a.283.283,0,0,1-.049-.05l.156.206a.325.325,0,0,1-.035-.063l.1.244a.408.408,0,0,1-.026-.1c.012.09.023.181.035.271a.478.478,0,0,1,0-.107c-.012.091-.024.181-.035.272a.446.446,0,0,1,.024-.093c-.033.081-.067.163-.1.244a.432.432,0,0,1,.047-.082l-.156.207a.6.6,0,0,1,.1-.1l-.2.16a1.022,1.022,0,0,1,.214-.123l-.238.1c.058-.024.116-.046.176-.067a.748.748,0,0,0,.339-.183.76.76,0,0,0,.257-.286.768.768,0,0,0,.118-.379.784.784,0,0,0-.018-.407l-.1-.244a1.02,1.02,0,0,0-.358-.366l-.238-.1a.99.99,0,0,0-.531,0"/>
          <path id="패스_1002" data-name="패스 1002" d="M16.679,32.145a2.577,2.577,0,0,0-.217.3,2.333,2.333,0,0,0-.147.342,1.86,1.86,0,0,0-.086.482.87.87,0,0,0,0,.118,3.005,3.005,0,0,0,.047.371,1.614,1.614,0,0,0,.178.463.76.76,0,0,0,.257.286.748.748,0,0,0,.339.183,1.025,1.025,0,0,0,.769-.1,1.579,1.579,0,0,0,.581-.6,1.885,1.885,0,0,0,.217-.825,2.025,2.025,0,0,0-.045-.433,1.821,1.821,0,0,0-.143-.4,1.566,1.566,0,0,0-.557-.625,1.1,1.1,0,0,0-.769-.1.747.747,0,0,0-.339.182.765.765,0,0,0-.257.286,1.051,1.051,0,0,0-.1.787c.033.081.067.163.1.244a1.009,1.009,0,0,0,.358.366l.021.016-.2-.159a.569.569,0,0,1,.1.1l-.156-.206a.656.656,0,0,1,.081.143l-.1-.244a.741.741,0,0,1,.046.174l-.036-.271a.872.872,0,0,1,0,.208c.012-.091.023-.181.035-.272a.79.79,0,0,1-.049.187c.033-.082.067-.163.1-.244a.7.7,0,0,1-.08.144l.156-.207a.6.6,0,0,1-.105.109l.2-.16a.657.657,0,0,1-.064.043l1.365.366c-.013-.024-.025-.05-.035-.076l.1.244a.861.861,0,0,1-.047-.178l.036.271a.818.818,0,0,1,0-.217l-.036.271a.847.847,0,0,1,.053-.193l-.1.244a.742.742,0,0,1,.09-.159l-.156.207.01-.014a.758.758,0,0,0,.206-.328.938.938,0,0,0,0-.787.76.76,0,0,0-.206-.329.993.993,0,0,0-.7-.3l-.265.036a1,1,0,0,0-.44.263"/>
        </g>
      </g>
    </g>
  </g>
</svg>
