<svg xmlns="http://www.w3.org/2000/svg" xmlns:xlink="http://www.w3.org/1999/xlink" width="43" height="46" viewBox="0 0 43 46">
  <defs>
    <clipPath id="clip-path">
      <rect id="사각형_180" data-name="사각형 180" width="43" height="46" transform="translate(0 0)" fill="none"/>
    </clipPath>
  </defs>
  <g id="img" transform="translate(-1692 -6313)">
    <g id="벡터_고급_개체" data-name="벡터 고급 개체" transform="translate(1692 6313)">
      <g id="그룹_112" data-name="그룹 112">
        <g id="그룹_111" data-name="그룹 111" clip-path="url(#clip-path)">
          <path id="패스_1111" data-name="패스 1111" d="M15.362,16.018C12.7,14.4,10.484,13.063,7.869,13.513,4.622,14.071.922,17.362,1.023,21.6c.1,4.193,3.854,6.494,4.125,6.655A5.192,5.192,0,0,0,1.439,32.9,7.184,7.184,0,0,0,3.8,38.555a11.863,11.863,0,0,0,5.544,2.737,9.612,9.612,0,0,0,4.857.05A5.149,5.149,0,0,0,17.72,38.1a18.555,18.555,0,0,0,9.106,6.454,11.035,11.035,0,0,0,10.594-2.392,6.956,6.956,0,0,0,2.105-3.955,6.575,6.575,0,0,0-2.108-5.264A7.313,7.313,0,0,0,34,31.032a7.191,7.191,0,0,0,7.781-5.1c.919-3.514-1.5-6.673-3.774-7.922-2.227-1.22-4.573-.739-7.106-.22-5.348,1.1-6.147,3.458-9.043,2.951-2.439-.426-2.287-2.171-6.494-4.72" fill="#f67fa2"/>
          <path id="패스_1112" data-name="패스 1112" d="M15.362,16.018C12.7,14.4,10.484,13.063,7.869,13.513,4.622,14.071.922,17.362,1.023,21.6c.1,4.193,3.854,6.494,4.125,6.655A5.192,5.192,0,0,0,1.439,32.9,7.184,7.184,0,0,0,3.8,38.555a11.863,11.863,0,0,0,5.544,2.737,9.612,9.612,0,0,0,4.857.05A5.149,5.149,0,0,0,17.72,38.1a18.555,18.555,0,0,0,9.106,6.454,11.035,11.035,0,0,0,10.594-2.392,6.956,6.956,0,0,0,2.105-3.955,6.575,6.575,0,0,0-2.108-5.264A7.313,7.313,0,0,0,34,31.032a7.191,7.191,0,0,0,7.781-5.1c.919-3.514-1.5-6.673-3.774-7.922-2.227-1.22-4.573-.739-7.106-.22-5.348,1.1-6.147,3.458-9.043,2.951C19.416,20.312,19.569,18.567,15.362,16.018Z" fill="none" stroke="#000" stroke-linecap="round" stroke-linejoin="round" stroke-width="2.026"/>
          <path id="패스_1113" data-name="패스 1113" d="M16.026,3.265a2.587,2.587,0,0,1,2.057-2.256,2.333,2.333,0,0,1,1.737.82,4.438,4.438,0,0,1,.991,3.177c0,2.441-.007,5.5-.086,9.1" fill="none" stroke="#000" stroke-linecap="round" stroke-linejoin="round" stroke-width="2.026"/>
          <path id="패스_1114" data-name="패스 1114" d="M30.019,4.938a2.26,2.26,0,0,0-2.808-2.707c-1.135.47-1.575,1.8-1.857,2.979a57.609,57.609,0,0,0-1.549,10.066" fill="none" stroke="#000" stroke-linecap="round" stroke-linejoin="round" stroke-width="2.026"/>
          <path id="패스_1115" data-name="패스 1115" d="M18.881,21.94c-.51,1.407-6.377,17.842-3.293,20.642a4.384,4.384,0,0,0,2.654,1.2A4.653,4.653,0,0,0,21.177,42.4c2.113-1.968,3.221-10.582,2.987-22.04" fill="#fdcf74"/>
          <path id="패스_1116" data-name="패스 1116" d="M18.881,21.94c-.51,1.407-6.377,17.842-3.293,20.642a4.384,4.384,0,0,0,2.654,1.2A4.653,4.653,0,0,0,21.177,42.4c2.113-1.968,3.221-10.582,2.987-22.04" fill="none" stroke="#000" stroke-linecap="round" stroke-linejoin="round" stroke-width="2.026"/>
          <path id="패스_1117" data-name="패스 1117" d="M17.854,11.234a7.023,7.023,0,0,0-2.088,3,8.988,8.988,0,0,0-.635,3.723,7.446,7.446,0,0,0,1.937,5.344,7.062,7.062,0,0,0,7.067,1.343,7.657,7.657,0,0,0,4.641-5.188,7.21,7.21,0,0,0-.524-5.486c-2.085-3.588-7.692-4.718-10.4-2.74" fill="#fdcf74"/>
          <path id="패스_1118" data-name="패스 1118" d="M17.854,11.234a7.023,7.023,0,0,0-2.088,3,8.988,8.988,0,0,0-.635,3.723,7.446,7.446,0,0,0,1.937,5.344,7.062,7.062,0,0,0,7.067,1.343,7.657,7.657,0,0,0,4.641-5.188,7.21,7.21,0,0,0-.524-5.486C26.167,10.387,20.559,9.257,17.854,11.234Z" fill="none" stroke="#000" stroke-linecap="round" stroke-linejoin="round" stroke-width="2.026"/>
          <path id="패스_1119" data-name="패스 1119" d="M19.74,19.12q1.437.011,2.879.042a9.463,9.463,0,0,0,1.564-.05" fill="none" stroke="#000" stroke-linecap="round" stroke-linejoin="round" stroke-width="2.026"/>
          <path id="패스_1120" data-name="패스 1120" d="M20.12,15.868a.211.211,0,1,1-.173-.238A.207.207,0,0,1,20.12,15.868Z" fill="none" stroke="#000" stroke-linecap="round" stroke-linejoin="round" stroke-width="2.026"/>
          <path id="패스_1121" data-name="패스 1121" d="M24.263,16.448a.211.211,0,1,1-.173-.238A.207.207,0,0,1,24.263,16.448Z" fill="none" stroke="#000" stroke-linecap="round" stroke-linejoin="round" stroke-width="2.026"/>
          <path id="패스_1122" data-name="패스 1122" d="M6.779,21.366C6.5,23,8.3,24.652,10.806,25.065l1.007-5.9c-2.5-.413-4.757.574-5.034,2.2" fill="#fdcf74"/>
          <path id="패스_1123" data-name="패스 1123" d="M6.779,21.366C6.5,23,8.3,24.652,10.806,25.065l1.007-5.9C9.311,18.749,7.057,19.736,6.779,21.366Z" fill="none" stroke="#000" stroke-linecap="round" stroke-linejoin="round" stroke-width="2.026"/>
          <path id="패스_1124" data-name="패스 1124" d="M5.982,32.659c-.278,1.63,1.525,3.286,4.028,3.7l1.006-5.9c-2.5-.413-4.757.574-5.034,2.2" fill="#fdcf74"/>
          <path id="패스_1125" data-name="패스 1125" d="M5.982,32.659c-.278,1.63,1.525,3.286,4.028,3.7l1.006-5.9C8.514,30.042,6.26,31.028,5.982,32.659Z" fill="none" stroke="#000" stroke-linecap="round" stroke-linejoin="round" stroke-width="2.026"/>
          <path id="패스_1126" data-name="패스 1126" d="M36.026,25.713c-.278,1.63-2.532,2.617-5.034,2.2L32,22.015c2.5.413,4.305,2.068,4.027,3.7" fill="#fdcf74"/>
          <path id="패스_1127" data-name="패스 1127" d="M36.026,25.713c-.278,1.63-2.532,2.617-5.034,2.2L32,22.015C34.5,22.428,36.3,24.083,36.026,25.713Z" fill="none" stroke="#000" stroke-linecap="round" stroke-linejoin="round" stroke-width="2.026"/>
          <path id="패스_1128" data-name="패스 1128" d="M33.032,36.645c-.278,1.63-2.532,2.617-5.034,2.2L29,32.946c2.5.413,4.306,2.068,4.028,3.7" fill="#fdcf74"/>
          <path id="패스_1129" data-name="패스 1129" d="M33.032,36.645c-.278,1.63-2.532,2.617-5.034,2.2L29,32.946C31.508,33.359,33.31,35.014,33.032,36.645Z" fill="none" stroke="#000" stroke-linecap="round" stroke-linejoin="round" stroke-width="2.026"/>
        </g>
      </g>
    </g>
  </g>
</svg>
