<svg xmlns="http://www.w3.org/2000/svg" xmlns:xlink="http://www.w3.org/1999/xlink" width="49.455" height="48.556" viewBox="0 0 49.455 48.556">
  <defs>
    <clipPath id="clip-path">
      <rect id="사각형_178" data-name="사각형 178" width="49.455" height="48.556" transform="translate(0 0)" fill="none"/>
    </clipPath>
  </defs>
  <g id="img" transform="translate(-608.545 -6308.444)">
    <g id="벡터_고급_개체" data-name="벡터 고급 개체" transform="translate(608.545 6308.444)">
      <g id="그룹_108" data-name="그룹 108">
        <g id="그룹_107" data-name="그룹 107" clip-path="url(#clip-path)">
          <path id="패스_1089" data-name="패스 1089" d="M15.794,13.751c-1.737-3.8-1.277-7.962,1.155-10.442A8.77,8.77,0,0,1,22.3.932a10.028,10.028,0,0,1,6.848,2c3.03,2.436,4.193,6.809,2.916,11.027,4.37-3.927,10.515-3.93,13.856-.791a8.493,8.493,0,0,1,2.047,9.149C46.4,26.21,41.771,28.569,37,27.5c.99.341,5.8,2.109,7.77,6.927.479,1.17,1.95,4.768,0,7.857-1.882,2.98-5.6,3.357-6.3,3.411-4.295.336-8.7-2.661-11.129-7.547a10.526,10.526,0,0,1-2.257,5.686,10.015,10.015,0,0,1-6.247,3.723,9.957,9.957,0,0,1-5.249-.724c-.777-.306-4.026-1.687-5.355-4.445-1.684-3.493-.028-8.65,4.409-12.2C6.728,30.881,1.66,27.01.99,22.229a9.181,9.181,0,0,1,5.144-9.3,9.626,9.626,0,0,1,9.659.827" fill="#78d6e6"/>
          <path id="패스_1090" data-name="패스 1090" d="M15.794,13.751c-1.737-3.8-1.277-7.962,1.155-10.442A8.77,8.77,0,0,1,22.3.932a10.028,10.028,0,0,1,6.848,2c3.03,2.436,4.193,6.809,2.916,11.027,4.37-3.927,10.515-3.93,13.856-.791a8.493,8.493,0,0,1,2.047,9.149C46.4,26.21,41.771,28.569,37,27.5c.99.341,5.8,2.109,7.77,6.927.479,1.17,1.95,4.768,0,7.857-1.882,2.98-5.6,3.357-6.3,3.411-4.295.336-8.7-2.661-11.129-7.547a10.526,10.526,0,0,1-2.257,5.686,10.015,10.015,0,0,1-6.247,3.723,9.957,9.957,0,0,1-5.249-.724c-.777-.306-4.026-1.687-5.355-4.445-1.684-3.493-.028-8.65,4.409-12.2C6.728,30.881,1.66,27.01.99,22.229a9.181,9.181,0,0,1,5.144-9.3A9.626,9.626,0,0,1,15.794,13.751Z" fill="none" stroke="#050000" stroke-miterlimit="10" stroke-width="1.813"/>
          <path id="패스_1091" data-name="패스 1091" d="M32.833,21.927a1.745,1.745,0,0,0-1.178-.623,1.766,1.766,0,0,0-1.279.381,19.3,19.3,0,0,0-3.392,3.526V20.27a1.746,1.746,0,0,0-3.491,0v5.322a27.836,27.836,0,0,0-3.353-3.815A1.688,1.688,0,0,0,18.9,21.3a1.743,1.743,0,0,0-1.224.526,1.7,1.7,0,0,0,.048,2.431,24.382,24.382,0,0,1,2.945,3.353,24.41,24.41,0,0,1,1.84,2.965,1.743,1.743,0,0,0,1.551.929h2.3a1.743,1.743,0,0,0,1.612-1.055,15.666,15.666,0,0,1,1.777-3.125,15.866,15.866,0,0,1,2.844-2.976,1.7,1.7,0,0,0,.246-2.418" fill="#fdb6e5"/>
          <path id="패스_1092" data-name="패스 1092" d="M32.833,21.927a1.745,1.745,0,0,0-1.178-.623,1.766,1.766,0,0,0-1.279.381,19.3,19.3,0,0,0-3.392,3.526V20.27a1.746,1.746,0,0,0-3.491,0v5.322a27.836,27.836,0,0,0-3.353-3.815A1.688,1.688,0,0,0,18.9,21.3a1.743,1.743,0,0,0-1.224.526,1.7,1.7,0,0,0,.048,2.431,24.382,24.382,0,0,1,2.945,3.353,24.41,24.41,0,0,1,1.84,2.965,1.743,1.743,0,0,0,1.551.929h2.3a1.743,1.743,0,0,0,1.612-1.055,15.666,15.666,0,0,1,1.777-3.125,15.866,15.866,0,0,1,2.844-2.976A1.7,1.7,0,0,0,32.833,21.927Z" fill="none" stroke="#000" stroke-linecap="round" stroke-linejoin="round" stroke-width="1.813"/>
          <path id="패스_1093" data-name="패스 1093" d="M20.17,21.661a2.4,2.4,0,1,1-2.4-2.365,2.384,2.384,0,0,1,2.4,2.365" fill="#f45028"/>
          <path id="패스_1094" data-name="패스 1094" d="M20.17,21.661a2.4,2.4,0,1,1-2.4-2.365A2.384,2.384,0,0,1,20.17,21.661Z" fill="none" stroke="#000" stroke-linecap="round" stroke-linejoin="round" stroke-width="1.813"/>
          <path id="패스_1095" data-name="패스 1095" d="M27.475,19.354a2.4,2.4,0,1,1-2.4-2.365,2.384,2.384,0,0,1,2.4,2.365" fill="#f45028"/>
          <path id="패스_1096" data-name="패스 1096" d="M27.475,19.354a2.4,2.4,0,1,1-2.4-2.365A2.384,2.384,0,0,1,27.475,19.354Z" fill="none" stroke="#000" stroke-linecap="round" stroke-linejoin="round" stroke-width="1.813"/>
          <path id="패스_1097" data-name="패스 1097" d="M35.374,21.293a2.4,2.4,0,1,1-2.4-2.365,2.384,2.384,0,0,1,2.4,2.365" fill="#f45028"/>
          <path id="패스_1098" data-name="패스 1098" d="M35.374,21.293a2.4,2.4,0,1,1-2.4-2.365A2.384,2.384,0,0,1,35.374,21.293Z" fill="none" stroke="#000" stroke-linecap="round" stroke-linejoin="round" stroke-width="1.813"/>
        </g>
      </g>
    </g>
  </g>
</svg>
