<svg xmlns="http://www.w3.org/2000/svg" xmlns:xlink="http://www.w3.org/1999/xlink" width="66.358" height="66.707" viewBox="0 0 66.358 66.707">
  <defs>
    <clipPath id="clip-path">
      <rect id="사각형_177" data-name="사각형 177" width="66.358" height="66.707" fill="none"/>
    </clipPath>
  </defs>
  <g id="img" transform="translate(-597.821 -5789.293)">
    <g id="벡터_고급_개체" data-name="벡터 고급 개체" transform="translate(597.821 5789.293)">
      <g id="그룹_106" data-name="그룹 106">
        <g id="그룹_105" data-name="그룹 105" clip-path="url(#clip-path)">
          <path id="패스_1003" data-name="패스 1003" d="M26.949.424l-26.6,3.3,31.1,5.6L62.639,2.467,28.752.369a9.815,9.815,0,0,0-1.8.054" fill="#fff"/>
          <path id="패스_1004" data-name="패스 1004" d="M26.949.424l-26.6,3.3,31.1,5.6L62.639,2.467,28.752.369A9.815,9.815,0,0,0,26.949.424Z" fill="none" stroke="#000" stroke-linecap="round" stroke-linejoin="round" stroke-width="0.701"/>
          <path id="패스_1005" data-name="패스 1005" d="M31.455,9.321,33.9,66.357l32.105-6.791-3.368-57.1Z" fill="#fff"/>
          <path id="패스_1006" data-name="패스 1006" d="M31.455,9.321,33.9,66.357l32.105-6.791-3.368-57.1Z" fill="none" stroke="#000" stroke-linecap="round" stroke-linejoin="round" stroke-width="0.701"/>
          <path id="패스_1007" data-name="패스 1007" d="M.351,3.722,6.825,58.663,33.9,66.357,31.455,9.321Z" fill="#fff"/>
          <path id="패스_1008" data-name="패스 1008" d="M.351,3.722,6.825,58.663,33.9,66.357,31.455,9.321Z" fill="none" stroke="#000" stroke-linecap="round" stroke-linejoin="round" stroke-width="0.701"/>
          <path id="패스_1009" data-name="패스 1009" d="M34.819,10.226,35,14.748l7.168-2.632-.151-3.385Z" fill="#fff"/>
          <path id="패스_1010" data-name="패스 1010" d="M34.819,10.226,35,14.748l7.168-2.632-.151-3.385Z" fill="none" stroke="#000" stroke-linecap="round" stroke-linejoin="round" stroke-width="0.701"/>
          <path id="패스_1011" data-name="패스 1011" d="M44.624,8.305l.171,3.677,7.431-.945-.237-4.594Z" fill="#fff"/>
          <path id="패스_1012" data-name="패스 1012" d="M44.624,8.305l.171,3.677,7.431-.945-.237-4.594Z" fill="none" stroke="#000" stroke-linecap="round" stroke-linejoin="round" stroke-width="0.701"/>
          <path id="패스_1013" data-name="패스 1013" d="M55.409,6.289l.206,3.814,3.978-2.065-.155-2.724Z" fill="#fff"/>
          <path id="패스_1014" data-name="패스 1014" d="M55.409,6.289l.206,3.814,3.978-2.065-.155-2.724Z" fill="none" stroke="#000" stroke-linecap="round" stroke-linejoin="round" stroke-width="0.701"/>
          <path id="패스_1015" data-name="패스 1015" d="M35.087,17.025l.18,4.565,7.2-2.7-.152-3.417Z" fill="#fff"/>
          <path id="패스_1016" data-name="패스 1016" d="M35.087,17.025l.18,4.565,7.2-2.7-.152-3.417Z" fill="none" stroke="#000" stroke-linecap="round" stroke-linejoin="round" stroke-width="0.701"/>
          <path id="패스_1017" data-name="패스 1017" d="M44.935,15.021l.172,3.712,7.464-1-.239-4.637Z" fill="#fff"/>
          <path id="패스_1018" data-name="패스 1018" d="M44.935,15.021l.172,3.712,7.464-1-.239-4.637Z" fill="none" stroke="#000" stroke-linecap="round" stroke-linejoin="round" stroke-width="0.701"/>
          <path id="패스_1019" data-name="패스 1019" d="M55.767,12.915l.208,3.85,3.995-2.111-.157-2.75Z" fill="#3eff08"/>
          <path id="패스_1020" data-name="패스 1020" d="M55.767,12.915l.208,3.85,3.995-2.111-.157-2.75Z" fill="none" stroke="#000" stroke-linecap="round" stroke-linejoin="round" stroke-width="0.701"/>
          <path id="패스_1021" data-name="패스 1021" d="M35.358,23.89l.181,4.609,7.231-2.778-.153-3.45Z" fill="#fff"/>
          <path id="패스_1022" data-name="패스 1022" d="M35.358,23.89l.181,4.609,7.231-2.778-.153-3.45Z" fill="none" stroke="#000" stroke-linecap="round" stroke-linejoin="round" stroke-width="0.701"/>
          <path id="패스_1023" data-name="패스 1023" d="M45.249,21.8l.174,3.747,7.5-1.061-.241-4.681Z" fill="#3eff08"/>
          <path id="패스_1024" data-name="패스 1024" d="M45.249,21.8l.174,3.747,7.5-1.061-.241-4.681Z" fill="none" stroke="#000" stroke-linecap="round" stroke-linejoin="round" stroke-width="0.701"/>
          <path id="패스_1025" data-name="패스 1025" d="M56.129,19.6l.21,3.886,4.011-2.158-.158-2.776Z" fill="#fff"/>
          <path id="패스_1026" data-name="패스 1026" d="M56.129,19.6l.21,3.886,4.011-2.158-.158-2.776Z" fill="none" stroke="#000" stroke-linecap="round" stroke-linejoin="round" stroke-width="0.701"/>
          <path id="패스_1027" data-name="패스 1027" d="M35.631,30.821l.184,4.654,7.263-2.853-.155-3.483Z" fill="#fff"/>
          <path id="패스_1028" data-name="패스 1028" d="M35.631,30.821l.184,4.654,7.263-2.853-.155-3.483Z" fill="none" stroke="#000" stroke-linecap="round" stroke-linejoin="round" stroke-width="0.701"/>
          <path id="패스_1029" data-name="패스 1029" d="M45.567,28.647l.175,3.783,7.53-1.12-.244-4.725Z" fill="#3eff08"/>
          <path id="패스_1030" data-name="패스 1030" d="M45.567,28.647l.175,3.783,7.53-1.12-.244-4.725Z" fill="none" stroke="#000" stroke-linecap="round" stroke-linejoin="round" stroke-width="0.701"/>
          <path id="패스_1031" data-name="패스 1031" d="M56.494,26.357l.212,3.923,4.028-2.205-.159-2.8Z" fill="#fff"/>
          <path id="패스_1032" data-name="패스 1032" d="M56.494,26.357l.212,3.923,4.028-2.205-.159-2.8Z" fill="none" stroke="#000" stroke-linecap="round" stroke-linejoin="round" stroke-width="0.701"/>
          <path id="패스_1033" data-name="패스 1033" d="M35.906,37.819l.185,4.7,7.3-2.93-.157-3.517Z" fill="#3eff08"/>
          <path id="패스_1034" data-name="패스 1034" d="M35.906,37.819l.185,4.7,7.3-2.93-.157-3.517Z" fill="none" stroke="#000" stroke-linecap="round" stroke-linejoin="round" stroke-width="0.701"/>
          <path id="패스_1035" data-name="패스 1035" d="M45.887,35.558l.177,3.82L53.628,38.2l-.246-4.77Z" fill="#fff"/>
          <path id="패스_1036" data-name="패스 1036" d="M45.887,35.558l.177,3.82L53.628,38.2l-.246-4.77Z" fill="none" stroke="#000" stroke-linecap="round" stroke-linejoin="round" stroke-width="0.701"/>
          <path id="패스_1037" data-name="패스 1037" d="M56.862,33.173l.214,3.961,4.045-2.254-.161-2.828Z" fill="#fff"/>
          <path id="패스_1038" data-name="패스 1038" d="M56.862,33.173l.214,3.961,4.045-2.254-.161-2.828Z" fill="none" stroke="#000" stroke-linecap="round" stroke-linejoin="round" stroke-width="0.701"/>
          <path id="패스_1039" data-name="패스 1039" d="M36.185,44.885l.187,4.745L43.7,46.622l-.158-3.551Z" fill="#fff"/>
          <path id="패스_1040" data-name="패스 1040" d="M36.185,44.885l.187,4.745L43.7,46.622l-.158-3.551Z" fill="none" stroke="#000" stroke-linecap="round" stroke-linejoin="round" stroke-width="0.701"/>
          <path id="패스_1041" data-name="패스 1041" d="M46.211,42.535l.179,3.857,7.6-1.243-.248-4.816Z" fill="#fff"/>
          <path id="패스_1042" data-name="패스 1042" d="M46.211,42.535l.179,3.857,7.6-1.243-.248-4.816Z" fill="none" stroke="#000" stroke-linecap="round" stroke-linejoin="round" stroke-width="0.701"/>
          <path id="패스_1043" data-name="패스 1043" d="M57.234,40.054l.216,4,4.062-2.3-.162-2.855Z" fill="#3eff08"/>
          <path id="패스_1044" data-name="패스 1044" d="M57.234,40.054l.216,4,4.062-2.3-.162-2.855Z" fill="none" stroke="#000" stroke-linecap="round" stroke-linejoin="round" stroke-width="0.701"/>
          <path id="패스_1045" data-name="패스 1045" d="M36.466,52.021l.189,4.792,7.362-3.087-.16-3.585Z" fill="#fff"/>
          <path id="패스_1046" data-name="패스 1046" d="M36.466,52.021l.189,4.792,7.362-3.087-.16-3.585Z" fill="none" stroke="#000" stroke-linecap="round" stroke-linejoin="round" stroke-width="0.701"/>
          <path id="패스_1047" data-name="패스 1047" d="M46.537,49.581l.181,3.894,7.631-1.307L54.1,47.306Z" fill="#3eff08"/>
          <path id="패스_1048" data-name="패스 1048" d="M46.537,49.581l.181,3.894,7.631-1.307L54.1,47.306Z" fill="none" stroke="#000" stroke-linecap="round" stroke-linejoin="round" stroke-width="0.701"/>
          <path id="패스_1049" data-name="패스 1049" d="M57.609,47l.218,4.037,4.08-2.353L61.743,45.8Z" fill="#fff"/>
          <path id="패스_1050" data-name="패스 1050" d="M57.609,47l.218,4.037,4.08-2.353L61.743,45.8Z" fill="none" stroke="#000" stroke-linecap="round" stroke-linejoin="round" stroke-width="0.701"/>
          <path id="패스_1051" data-name="패스 1051" d="M36.75,59.227l.191,4.839,7.4-3.168-.161-3.621Z" fill="#fff"/>
          <path id="패스_1052" data-name="패스 1052" d="M36.75,59.227l.191,4.839,7.4-3.168-.161-3.621Z" fill="none" stroke="#000" stroke-linecap="round" stroke-linejoin="round" stroke-width="0.701"/>
          <path id="패스_1053" data-name="패스 1053" d="M46.867,56.695l.182,3.932,7.665-1.371-.253-4.91Z" fill="#fff"/>
          <path id="패스_1054" data-name="패스 1054" d="M46.867,56.695l.182,3.932,7.665-1.371-.253-4.91Z" fill="none" stroke="#000" stroke-linecap="round" stroke-linejoin="round" stroke-width="0.701"/>
          <path id="패스_1055" data-name="패스 1055" d="M57.988,54.015l.22,4.076,4.1-2.4-.166-2.91Z" fill="#fff"/>
          <path id="패스_1056" data-name="패스 1056" d="M57.988,54.015l.22,4.076,4.1-2.4-.166-2.91Z" fill="none" stroke="#000" stroke-linecap="round" stroke-linejoin="round" stroke-width="0.701"/>
          <path id="패스_1057" data-name="패스 1057" d="M3.965,7.259,5.41,12.133l8.947,2.378-.483-5.38Z" fill="#fff"/>
          <path id="패스_1058" data-name="패스 1058" d="M3.965,7.259,5.41,12.133l8.947,2.378-.483-5.38Z" fill="none" stroke="#000" stroke-linecap="round" stroke-linejoin="round" stroke-width="0.701"/>
          <path id="패스_1059" data-name="패스 1059" d="M16.9,9.9l.36,4.677,10.964,2.293-.156-5.518Z" fill="#3eff08"/>
          <path id="패스_1060" data-name="패스 1060" d="M16.9,9.9l.36,4.677,10.964,2.293-.156-5.518Z" fill="none" stroke="#000" stroke-linecap="round" stroke-linejoin="round" stroke-width="0.701"/>
          <path id="패스_1061" data-name="패스 1061" d="M5.032,15.348l1.376,4.562,8.651,2.421-.45-5.007Z" fill="#3eff08"/>
          <path id="패스_1062" data-name="패스 1062" d="M5.032,15.348l1.376,4.562,8.651,2.421-.45-5.007Z" fill="none" stroke="#000" stroke-linecap="round" stroke-linejoin="round" stroke-width="0.701"/>
          <path id="패스_1063" data-name="패스 1063" d="M17.535,18.107l.335,4.351,10.583,2.385-.145-5.123Z" fill="#fff"/>
          <path id="패스_1064" data-name="패스 1064" d="M17.535,18.107l.335,4.351,10.583,2.385-.145-5.123Z" fill="none" stroke="#000" stroke-linecap="round" stroke-linejoin="round" stroke-width="0.701"/>
          <path id="패스_1065" data-name="패스 1065" d="M6.027,22.89,7.34,27.17l8.374,2.454-.42-4.672Z" fill="#fff"/>
          <path id="패스_1066" data-name="패스 1066" d="M6.027,22.89,7.34,27.17l8.374,2.454-.42-4.672Z" fill="none" stroke="#000" stroke-linecap="round" stroke-linejoin="round" stroke-width="0.701"/>
          <path id="패스_1067" data-name="패스 1067" d="M18.123,25.749l.312,4.058,10.228,2.46-.135-4.77Z" fill="#3eff08"/>
          <path id="패스_1068" data-name="패스 1068" d="M18.123,25.749l.312,4.058,10.228,2.46-.135-4.77Z" fill="none" stroke="#000" stroke-linecap="round" stroke-linejoin="round" stroke-width="0.701"/>
          <path id="패스_1069" data-name="패스 1069" d="M6.957,29.941l1.255,4.024,8.114,2.477-.392-4.369Z" fill="#fff"/>
          <path id="패스_1070" data-name="패스 1070" d="M6.957,29.941l1.255,4.024,8.114,2.477-.392-4.369Z" fill="none" stroke="#000" stroke-linecap="round" stroke-linejoin="round" stroke-width="0.701"/>
          <path id="패스_1071" data-name="패스 1071" d="M18.671,32.879l.292,3.793,9.9,2.519-.126-4.452Z" fill="#fff"/>
          <path id="패스_1072" data-name="패스 1072" d="M18.671,32.879l.292,3.793,9.9,2.519-.126-4.452Z" fill="none" stroke="#000" stroke-linecap="round" stroke-linejoin="round" stroke-width="0.701"/>
          <path id="패스_1073" data-name="패스 1073" d="M7.829,36.545l1.2,3.791,7.87,2.492-.368-4.1Z" fill="#fff"/>
          <path id="패스_1074" data-name="패스 1074" d="M7.829,36.545l1.2,3.791,7.87,2.492-.368-4.1Z" fill="none" stroke="#000" stroke-linecap="round" stroke-linejoin="round" stroke-width="0.701"/>
          <path id="패스_1075" data-name="패스 1075" d="M19.184,39.546l.273,3.553,9.585,2.566L28.924,41.5Z" fill="#fff"/>
          <path id="패스_1076" data-name="패스 1076" d="M19.184,39.546l.273,3.553,9.585,2.566L28.924,41.5Z" fill="none" stroke="#000" stroke-linecap="round" stroke-linejoin="round" stroke-width="0.701"/>
          <path id="패스_1077" data-name="패스 1077" d="M8.646,42.744,9.8,46.323l7.641,2.5-.346-3.846Z" fill="#fff"/>
          <path id="패스_1078" data-name="패스 1078" d="M8.646,42.744,9.8,46.323l7.641,2.5-.346-3.846Z" fill="none" stroke="#000" stroke-linecap="round" stroke-linejoin="round" stroke-width="0.701"/>
          <path id="패스_1079" data-name="패스 1079" d="M19.665,45.8l.257,3.336,9.293,2.6-.111-3.9Z" fill="#3eff08"/>
          <path id="패스_1080" data-name="패스 1080" d="M19.665,45.8l.257,3.336,9.293,2.6-.111-3.9Z" fill="none" stroke="#000" stroke-linecap="round" stroke-linejoin="round" stroke-width="0.701"/>
          <path id="패스_1081" data-name="패스 1081" d="M9.415,48.575l1.107,3.385,7.423,2.5-.325-3.618Z" fill="#3eff08"/>
          <path id="패스_1082" data-name="패스 1082" d="M9.415,48.575l1.107,3.385,7.423,2.5-.325-3.618Z" fill="none" stroke="#000" stroke-linecap="round" stroke-linejoin="round" stroke-width="0.701"/>
          <path id="패스_1083" data-name="패스 1083" d="M20.116,51.666l.241,3.138,9.017,2.63-.1-3.668Z" fill="#3eff08"/>
          <path id="패스_1084" data-name="패스 1084" d="M20.116,51.666l.241,3.138,9.017,2.63-.1-3.668Z" fill="none" stroke="#000" stroke-linecap="round" stroke-linejoin="round" stroke-width="0.701"/>
          <path id="패스_1085" data-name="패스 1085" d="M10.14,54.068l1.065,3.207,7.218,2.5-.306-3.411Z" fill="#fff"/>
          <path id="패스_1086" data-name="패스 1086" d="M10.14,54.068l1.065,3.207,7.218,2.5-.306-3.411Z" fill="none" stroke="#000" stroke-linecap="round" stroke-linejoin="round" stroke-width="0.701"/>
          <path id="패스_1087" data-name="패스 1087" d="M20.541,57.189l.227,2.956,8.759,2.65-.1-3.452Z" fill="#fff"/>
          <path id="패스_1088" data-name="패스 1088" d="M20.541,57.189l.227,2.956,8.759,2.65-.1-3.452Z" fill="none" stroke="#000" stroke-linecap="round" stroke-linejoin="round" stroke-width="0.701"/>
        </g>
      </g>
    </g>
  </g>
</svg>
