<svg xmlns="http://www.w3.org/2000/svg" xmlns:xlink="http://www.w3.org/1999/xlink" width="62" height="57" viewBox="0 0 62 57">
  <defs>
    <clipPath id="clip-path">
      <rect id="사각형_172" data-name="사각형 172" width="62" height="57" transform="translate(0 0)" fill="none"/>
    </clipPath>
  </defs>
  <g id="img" transform="translate(-1136 -5294)">
    <g id="벡터_고급_개체" data-name="벡터 고급 개체" transform="translate(1136 5294)">
      <g id="그룹_96" data-name="그룹 96">
        <g id="그룹_95" data-name="그룹 95" clip-path="url(#clip-path)">
          <path id="패스_976" data-name="패스 976" d="M57.65,56.171a1.618,1.618,0,0,1-1.261-.6A54.5,54.5,0,0,1,46.362,37.038a88.578,88.578,0,0,1-2.171-9.726C43.072,21.2,42.014,15.428,38.2,9.635A11.922,11.922,0,0,0,33.562,5.27c-.58-.289-5.792-2.734-10.554.264a10.94,10.94,0,0,0-4.683,7.116,1.62,1.62,0,0,1-3.187-.587,14.259,14.259,0,0,1,6.144-9.27C27.543-1.149,34.262,2,35.008,2.37a15.19,15.19,0,0,1,5.9,5.484c4.176,6.343,5.344,12.714,6.472,18.875a86.075,86.075,0,0,0,2.088,9.377,51.275,51.275,0,0,0,9.443,17.427,1.62,1.62,0,0,1-1.259,2.639" fill="#23985d"/>
          <path id="패스_977" data-name="패스 977" d="M57.65,56.171a1.618,1.618,0,0,1-1.261-.6A54.5,54.5,0,0,1,46.362,37.038a88.578,88.578,0,0,1-2.171-9.726C43.072,21.2,42.014,15.428,38.2,9.635A11.922,11.922,0,0,0,33.562,5.27c-.58-.289-5.792-2.734-10.554.264a10.94,10.94,0,0,0-4.683,7.116,1.62,1.62,0,0,1-3.187-.587,14.259,14.259,0,0,1,6.144-9.27C27.543-1.149,34.262,2,35.008,2.37a15.19,15.19,0,0,1,5.9,5.484c4.176,6.343,5.344,12.714,6.472,18.875a86.075,86.075,0,0,0,2.088,9.377,51.275,51.275,0,0,0,9.443,17.427,1.62,1.62,0,0,1-1.259,2.639Z" fill="none" stroke="#000" stroke-miterlimit="10" stroke-width="1.658"/>
          <path id="패스_978" data-name="패스 978" d="M47.373,25.837a16.84,16.84,0,0,1,.969-9.256,13.652,13.652,0,0,1,5.363-6.654,12.606,12.606,0,0,1,6.988-1.844,13.458,13.458,0,0,1,.448,4.425,13.794,13.794,0,0,1-3.4,7.984,15.61,15.61,0,0,1-10.368,5.345" fill="#6ebae0"/>
          <path id="패스_979" data-name="패스 979" d="M47.373,25.837a16.84,16.84,0,0,1,.969-9.256,13.652,13.652,0,0,1,5.363-6.654,12.606,12.606,0,0,1,6.988-1.844,13.458,13.458,0,0,1,.448,4.425,13.794,13.794,0,0,1-3.4,7.984A15.61,15.61,0,0,1,47.373,25.837Z" fill="none" stroke="#000" stroke-miterlimit="10" stroke-width="1.658"/>
          <path id="패스_980" data-name="패스 980" d="M10.748,18.306a4.76,4.76,0,0,1-.516-3.206c.226-1.054,1.055-2.959,2.405-2.92a2.7,2.7,0,0,1,2.108,1.938c.394-1.509,1.427-2.478,2.339-2.418.8.052,1.429.889,1.681,1.224a3.968,3.968,0,0,1,.687,1.489,2.123,2.123,0,0,1,1.593-1.622,2.245,2.245,0,0,1,2.129,1.222c.689,1.194.224,3.051-1.259,4.523" fill="#226cd0"/>
          <path id="패스_981" data-name="패스 981" d="M10.748,18.306a4.76,4.76,0,0,1-.516-3.206c.226-1.054,1.055-2.959,2.405-2.92a2.7,2.7,0,0,1,2.108,1.938c.394-1.509,1.427-2.478,2.339-2.418.8.052,1.429.889,1.681,1.224a3.968,3.968,0,0,1,.687,1.489,2.123,2.123,0,0,1,1.593-1.622,2.245,2.245,0,0,1,2.129,1.222c.689,1.194.224,3.051-1.259,4.523" fill="none" stroke="#000" stroke-linecap="round" stroke-linejoin="round" stroke-width="1.658"/>
          <path id="패스_982" data-name="패스 982" d="M13.319,18.126a15.365,15.365,0,0,0-10.3,6.537,13.519,13.519,0,0,0-1.6,11.223,5.354,5.354,0,0,0,2.52,3.436,4.573,4.573,0,0,0,3.55,0c2.708-1.1,3.185-4.3,3.207-4.467-.181,2.643,1.052,5,2.855,5.724,2.461.991,6.354-.905,7.29-5.029a3.9,3.9,0,0,0,1.795,2.909,4.84,4.84,0,0,0,3.446.773c2.494-.45,3.689-2.982,3.97-3.576,1.558-3.3.153-6.787-.573-8.589a14.5,14.5,0,0,0-6.212-7.427,14.627,14.627,0,0,0-9.942-1.515" fill="#d2a1e5"/>
          <path id="패스_983" data-name="패스 983" d="M13.319,18.126a15.365,15.365,0,0,0-10.3,6.537,13.519,13.519,0,0,0-1.6,11.223,5.354,5.354,0,0,0,2.52,3.436,4.573,4.573,0,0,0,3.55,0c2.708-1.1,3.185-4.3,3.207-4.467-.181,2.643,1.052,5,2.855,5.724,2.461.991,6.354-.905,7.29-5.029a3.9,3.9,0,0,0,1.795,2.909,4.84,4.84,0,0,0,3.446.773c2.494-.45,3.689-2.982,3.97-3.576,1.558-3.3.153-6.787-.573-8.589a14.5,14.5,0,0,0-6.212-7.427A14.627,14.627,0,0,0,13.319,18.126Z" fill="none" stroke="#000" stroke-linecap="round" stroke-linejoin="round" stroke-width="1.658"/>
        </g>
      </g>
    </g>
  </g>
</svg>
