<svg xmlns="http://www.w3.org/2000/svg" xmlns:xlink="http://www.w3.org/1999/xlink" width="31" height="46" viewBox="0 0 31 46">
  <defs>
    <clipPath id="clip-path">
      <rect id="사각형_170" data-name="사각형 170" width="31" height="46" transform="translate(0 0)" fill="none"/>
    </clipPath>
  </defs>
  <g id="img" transform="translate(-1709 -4790)">
    <g id="벡터_고급_개체" data-name="벡터 고급 개체" transform="translate(1709 4790)">
      <g id="그룹_92" data-name="그룹 92">
        <g id="그룹_91" data-name="그룹 91" clip-path="url(#clip-path)">
          <path id="패스_950" data-name="패스 950" d="M13.415,28.286a7.07,7.07,0,0,0-1.835-1.86c-2.59-1.781-6.762-1.946-8.007,0a2.841,2.841,0,0,0-.363,1.837A5.379,5.379,0,0,0,6.986,32.6a8.14,8.14,0,0,0,5.863-.616" fill="#26a166"/>
          <path id="패스_951" data-name="패스 951" d="M14.7,30.513a8.549,8.549,0,0,1,5.686-1.859c1.059.072,3.581.244,4.467,2.135a4.119,4.119,0,0,1-.759,4.179c-1.247,1.472-3.188,1.51-4.934,1.542a11.693,11.693,0,0,1-4.673-.892" fill="#26a166"/>
          <path id="패스_952" data-name="패스 952" d="M13.415,28.286a7.07,7.07,0,0,0-1.835-1.86c-2.59-1.781-6.762-1.946-8.007,0a2.841,2.841,0,0,0-.363,1.837A5.379,5.379,0,0,0,6.986,32.6a8.14,8.14,0,0,0,5.863-.616" fill="none" stroke="#000" stroke-linecap="round" stroke-linejoin="round" stroke-width="1.861"/>
          <path id="패스_953" data-name="패스 953" d="M6.988,28.847a19.419,19.419,0,0,1,5.852,1.461" fill="none" stroke="#000" stroke-linecap="round" stroke-linejoin="round" stroke-width="1.861"/>
          <path id="패스_954" data-name="패스 954" d="M14.7,30.513a8.549,8.549,0,0,1,5.686-1.859c1.059.072,3.581.244,4.467,2.135a4.119,4.119,0,0,1-.759,4.179c-1.247,1.472-3.188,1.51-4.934,1.542a11.693,11.693,0,0,1-4.673-.892" fill="none" stroke="#000" stroke-linecap="round" stroke-linejoin="round" stroke-width="1.861"/>
          <path id="패스_955" data-name="패스 955" d="M14.49,32.919l6.167-.868" fill="none" stroke="#000" stroke-linecap="round" stroke-linejoin="round" stroke-width="1.861"/>
          <path id="패스_956" data-name="패스 956" d="M13.545,45.062A1.524,1.524,0,0,1,12.036,43.6a91.254,91.254,0,0,1,1.708-22.563,1.512,1.512,0,0,1,1.786-1.2A1.536,1.536,0,0,1,16.7,21.658a88.149,88.149,0,0,0-1.649,21.79,1.526,1.526,0,0,1-1.434,1.612l-.077,0" fill="#26a166"/>
          <path id="패스_957" data-name="패스 957" d="M13.545,45.062A1.524,1.524,0,0,1,12.036,43.6a91.254,91.254,0,0,1,1.708-22.563,1.512,1.512,0,0,1,1.786-1.2A1.536,1.536,0,0,1,16.7,21.658a88.149,88.149,0,0,0-1.649,21.79,1.526,1.526,0,0,1-1.434,1.612Z" fill="none" stroke="#000" stroke-miterlimit="10" stroke-width="1.861"/>
          <path id="패스_958" data-name="패스 958" d="M2.358,17.29C-.23,12.822,1.016,7.208,3.453,3.987,4.217,2.978,5.96.676,8.117.963c3.341.514,3.654,4.221,3.022,6.95,2.028-7.952,10.7-8.618,9.3,1.025a5.736,5.736,0,0,1,2.794-3.8,4.627,4.627,0,0,1,3.795-.29c2.984,1.349,4.158,8.031,1.787,12.439-3.245,6.031-12.02,5.749-13.836,5.691-2.849-.092-9.5-.3-12.618-5.684" fill="#e77e28"/>
          <path id="패스_959" data-name="패스 959" d="M2.358,17.29C-.23,12.822,1.016,7.208,3.453,3.987,4.217,2.978,5.96.676,8.117.963c3.341.514,3.654,4.221,3.022,6.95,2.028-7.952,10.7-8.618,9.3,1.025a5.736,5.736,0,0,1,2.794-3.8,4.627,4.627,0,0,1,3.795-.29c2.984,1.349,4.158,8.031,1.787,12.439-3.245,6.031-12.02,5.749-13.836,5.691C12.127,22.882,5.475,22.669,2.358,17.29Z" fill="none" stroke="#000" stroke-linecap="round" stroke-linejoin="round" stroke-width="1.861"/>
          <path id="패스_960" data-name="패스 960" d="M9.775,14.271a3.825,3.825,0,0,0,1.533,2,4.328,4.328,0,0,0,2,.6,4.5,4.5,0,0,0,4.154-1.634" fill="#e77e28"/>
          <path id="패스_961" data-name="패스 961" d="M9.775,14.271a3.825,3.825,0,0,0,1.533,2,4.328,4.328,0,0,0,2,.6,4.5,4.5,0,0,0,4.154-1.634" fill="none" stroke="#000" stroke-linecap="round" stroke-linejoin="round" stroke-width="1.861"/>
          <path id="패스_962" data-name="패스 962" d="M10.931,11.141a.736.736,0,0,0-.393.27c-.082.141-.024.372.137.39.2.023.282-.258.283-.465" fill="#e77e28"/>
          <path id="패스_963" data-name="패스 963" d="M10.931,11.141a.736.736,0,0,0-.393.27c-.082.141-.024.372.137.39.2.023.282-.258.283-.465" fill="none" stroke="#000" stroke-linecap="round" stroke-linejoin="round" stroke-width="1.861"/>
          <path id="패스_964" data-name="패스 964" d="M16.657,11.662a.6.6,0,0,0-.032.654.551.551,0,0,0,.009-.878" fill="#e77e28"/>
          <path id="패스_965" data-name="패스 965" d="M16.657,11.662a.6.6,0,0,0-.032.654.551.551,0,0,0,.009-.878" fill="none" stroke="#000" stroke-linecap="round" stroke-linejoin="round" stroke-width="1.861"/>
        </g>
      </g>
    </g>
  </g>
</svg>
