<svg xmlns="http://www.w3.org/2000/svg" xmlns:xlink="http://www.w3.org/1999/xlink" width="104" height="49" viewBox="0 0 104 49">
  <defs>
    <clipPath id="clip-path">
      <rect id="사각형_168" data-name="사각형 168" width="104" height="49" fill="none"/>
    </clipPath>
  </defs>
  <g id="img" transform="translate(-1114 -4788)">
    <g id="벡터_고급_개체" data-name="벡터 고급 개체" transform="translate(1114 4788)">
      <g id="그룹_88" data-name="그룹 88">
        <g id="그룹_87" data-name="그룹 87" clip-path="url(#clip-path)">
          <path id="패스_902" data-name="패스 902" d="M39.736,16.268c-1.164.078-1.966.644-2.957.032A2.674,2.674,0,0,1,35.5,13.338c.495-1.462,2.338-1.874,3.879-2.053l6.459-.753c.621-.072,1.375-.253,1.534-.855a1.086,1.086,0,0,0-.7-1.174,3.52,3.52,0,0,0-1.472-.17,23.618,23.618,0,0,1-9.689-1.911A4.8,4.8,0,0,1,33.52,5.085a1.878,1.878,0,0,1-.144-2.237,2.879,2.879,0,0,1,2.292-.736L64.19,1.589a4.611,4.611,0,0,1,2.817.555c.791.568,1.047,1.93.233,2.465a3.274,3.274,0,0,1-1.723.242c-.589.02-1.293.308-1.336.893-.054.738.917,1.05,1.659,1.107a140.629,140.629,0,0,0,23.712-.182,6.525,6.525,0,0,1,2.4.069,2.136,2.136,0,0,1,1.6,1.616c.147,1.083-.882,2-1.939,2.3s-2.189.194-3.263.422c-.61.129-1.295.49-1.332,1.109-.054.9,1.182,1.206,2.089,1.2l10.4-.121a6.224,6.224,0,0,1,2.689.367,2.1,2.1,0,0,1,1.32,2.156c-.262,1.307-1.937,1.675-3.275,1.751a184.469,184.469,0,0,1-18.482.126c-.724-.032-1.622.032-1.921.689s.3,1.412.983,1.616a5.65,5.65,0,0,0,2.136-.029,2.357,2.357,0,0,1,2,.527,1.844,1.844,0,0,1-.357,2.492,5.142,5.142,0,0,1-2.588,1c-9.593,1.722-19.467,1.283-29.114-.107a3.152,3.152,0,0,1-2.441-1.17,1.984,1.984,0,0,1,.624-2.418,3.826,3.826,0,0,1,2.586-.666,13.793,13.793,0,0,0,3.658.172c1.2-.264,2.294-1.576,1.724-2.657-.471-.893-1.684-1.013-2.7-1.017q-8.372-.033-16.744.151" fill="#fff"/>
          <path id="패스_903" data-name="패스 903" d="M39.736,16.268c-1.164.078-1.966.644-2.957.032A2.674,2.674,0,0,1,35.5,13.338c.495-1.462,2.338-1.874,3.879-2.053l6.459-.753c.621-.072,1.375-.253,1.534-.855a1.086,1.086,0,0,0-.7-1.174,3.52,3.52,0,0,0-1.472-.17,23.618,23.618,0,0,1-9.689-1.911A4.8,4.8,0,0,1,33.52,5.085a1.878,1.878,0,0,1-.144-2.237,2.879,2.879,0,0,1,2.292-.736L64.19,1.589a4.611,4.611,0,0,1,2.817.555c.791.568,1.047,1.93.233,2.465a3.274,3.274,0,0,1-1.723.242c-.589.02-1.293.308-1.336.893-.054.738.917,1.05,1.659,1.107a140.629,140.629,0,0,0,23.712-.182,6.525,6.525,0,0,1,2.4.069,2.136,2.136,0,0,1,1.6,1.616c.147,1.083-.882,2-1.939,2.3s-2.189.194-3.263.422c-.61.129-1.295.49-1.332,1.109-.054.9,1.182,1.206,2.089,1.2l10.4-.121a6.224,6.224,0,0,1,2.689.367,2.1,2.1,0,0,1,1.32,2.156c-.262,1.307-1.937,1.675-3.275,1.751a184.469,184.469,0,0,1-18.482.126c-.724-.032-1.622.032-1.921.689s.3,1.412.983,1.616a5.65,5.65,0,0,0,2.136-.029,2.357,2.357,0,0,1,2,.527,1.844,1.844,0,0,1-.357,2.492,5.142,5.142,0,0,1-2.588,1c-9.593,1.722-19.467,1.283-29.114-.107a3.152,3.152,0,0,1-2.441-1.17,1.984,1.984,0,0,1,.624-2.418,3.826,3.826,0,0,1,2.586-.666,13.793,13.793,0,0,0,3.658.172c1.2-.264,2.294-1.576,1.724-2.657-.471-.893-1.684-1.013-2.7-1.017q-8.372-.033-16.744.151" fill="none" stroke="#000" stroke-miterlimit="10" stroke-width="0.906"/>
          <path id="패스_904" data-name="패스 904" d="M21.808,13.348s-.614,3-1.317,7.276a13.56,13.56,0,0,0-4.24.553,20.386,20.386,0,0,1,1.534-2.9Z" fill="#9f7423"/>
          <path id="패스_905" data-name="패스 905" d="M21.808,13.348s-.614,3-1.317,7.276a13.56,13.56,0,0,0-4.24.553,20.386,20.386,0,0,1,1.534-2.9Z" fill="none" stroke="#251714" stroke-linecap="round" stroke-linejoin="round" stroke-width="0.906"/>
          <path id="패스_906" data-name="패스 906" d="M20.492,20.625c-.23,1.405-.471,2.948-.7,4.569a2.79,2.79,0,0,0-1.25-.717,5.4,5.4,0,0,0-1.592-.1,7.455,7.455,0,0,0-1.955.258,31.413,31.413,0,0,1,1.258-3.46,13.56,13.56,0,0,1,4.24-.553" fill="#edd480"/>
          <path id="패스_907" data-name="패스 907" d="M20.492,20.625c-.23,1.405-.471,2.948-.7,4.569a2.79,2.79,0,0,0-1.25-.717,5.4,5.4,0,0,0-1.592-.1,7.455,7.455,0,0,0-1.955.258,31.413,31.413,0,0,1,1.258-3.46A13.56,13.56,0,0,1,20.492,20.625Z" fill="none" stroke="#251714" stroke-linecap="round" stroke-linejoin="round" stroke-width="0.906"/>
          <path id="패스_908" data-name="패스 908" d="M19.789,25.194v0q-.186,1.29-.359,2.634a9.778,9.778,0,0,0-5.478.949c.29-1.411.634-2.805,1.041-4.142a7.458,7.458,0,0,1,1.955-.258,5.4,5.4,0,0,1,1.592.1,2.784,2.784,0,0,1,1.249.717" fill="#d4a33a"/>
          <path id="패스_909" data-name="패스 909" d="M19.789,25.194v0q-.186,1.29-.359,2.634a9.778,9.778,0,0,0-5.478.949c.29-1.411.634-2.805,1.041-4.142a7.458,7.458,0,0,1,1.955-.258,5.4,5.4,0,0,1,1.592.1A2.784,2.784,0,0,1,19.789,25.194Z" fill="none" stroke="#251714" stroke-linecap="round" stroke-linejoin="round" stroke-width="0.906"/>
          <path id="패스_910" data-name="패스 910" d="M19.431,27.83c-.231,1.805-.443,3.665-.611,5.5a8.467,8.467,0,0,0-.968-.074,16.292,16.292,0,0,0-4.735.577c.214-1.668.488-3.374.836-5.057a9.777,9.777,0,0,1,5.478-.949" fill="#edd480"/>
          <path id="패스_911" data-name="패스 911" d="M19.431,27.83c-.231,1.805-.443,3.665-.611,5.5a8.467,8.467,0,0,0-.968-.074,16.292,16.292,0,0,0-4.735.577c.214-1.668.488-3.374.836-5.057A9.777,9.777,0,0,1,19.431,27.83Z" fill="none" stroke="#251714" stroke-linecap="round" stroke-linejoin="round" stroke-width="0.906"/>
          <path id="패스_912" data-name="패스 912" d="M18.819,33.334c-.106,1.177-.2,2.343-.261,3.484a6.555,6.555,0,0,0-2.329-.187,7.338,7.338,0,0,0-3.507.917c.1-1.195.231-2.442.393-3.712a16.293,16.293,0,0,1,4.735-.577,8.366,8.366,0,0,1,.968.074" fill="#d4a33a"/>
          <path id="패스_913" data-name="패스 913" d="M18.819,33.334c-.106,1.177-.2,2.343-.261,3.484a6.555,6.555,0,0,0-2.329-.187,7.338,7.338,0,0,0-3.507.917c.1-1.195.231-2.442.393-3.712a16.293,16.293,0,0,1,4.735-.577A8.366,8.366,0,0,1,18.819,33.334Z" fill="none" stroke="#251714" stroke-linecap="round" stroke-linejoin="round" stroke-width="0.906"/>
          <path id="패스_914" data-name="패스 914" d="M18.438,40.629a13.579,13.579,0,0,0-6.017,1.911c.053-1.473.144-3.171.3-4.992a7.338,7.338,0,0,1,3.507-.917,6.555,6.555,0,0,1,2.329.187c-.078,1.32-.119,2.6-.12,3.812" fill="#edd480"/>
          <path id="패스_915" data-name="패스 915" d="M18.438,40.629a13.579,13.579,0,0,0-6.017,1.911c.053-1.473.144-3.171.3-4.992a7.338,7.338,0,0,1,3.507-.917,6.555,6.555,0,0,1,2.329.187C18.481,38.137,18.44,39.418,18.438,40.629Z" fill="none" stroke="#251714" stroke-linecap="round" stroke-linejoin="round" stroke-width="0.906"/>
          <path id="패스_916" data-name="패스 916" d="M18.671,45.014a13.813,13.813,0,0,0-6.314,1.592c-.007-.943,0-2.353.064-4.066a13.58,13.58,0,0,1,6.017-1.91,35,35,0,0,0,.233,4.385" fill="#9a6f25"/>
          <path id="패스_917" data-name="패스 917" d="M18.671,45.014a13.813,13.813,0,0,0-6.314,1.592c-.007-.943,0-2.353.064-4.066a13.58,13.58,0,0,1,6.017-1.91A35,35,0,0,0,18.671,45.014Z" fill="none" stroke="#251714" stroke-linecap="round" stroke-linejoin="round" stroke-width="0.906"/>
          <path id="패스_918" data-name="패스 918" d="M19.363,48.548,12.374,47.9s-.015-.47-.017-1.3a13.812,13.812,0,0,1,6.314-1.591,18.311,18.311,0,0,0,.693,3.534" fill="#745023"/>
          <path id="패스_919" data-name="패스 919" d="M19.363,48.548,12.374,47.9s-.015-.47-.017-1.3a13.812,13.812,0,0,1,6.314-1.591A18.311,18.311,0,0,0,19.363,48.548Z" fill="none" stroke="#251714" stroke-linecap="round" stroke-linejoin="round" stroke-width="0.906"/>
          <path id="패스_920" data-name="패스 920" d="M26.867,12.515s14.864-.66,12.889,17.229c0,0-6.142-12.944-12.272-15.642Z" fill="#8dbc70"/>
          <path id="패스_921" data-name="패스 921" d="M26.867,12.515s14.864-.66,12.889,17.229c0,0-6.142-12.944-12.272-15.642Z" fill="none" stroke="#251714" stroke-linecap="round" stroke-linejoin="round" stroke-width="0.906"/>
          <path id="패스_922" data-name="패스 922" d="M19.3,11.989a20.327,20.327,0,0,0-3.764-.033l-.007,0c-.267.011-.525.042-.8.08-2.172.258-4.619.964-6.131,2.674,0,0-.114.108-.312.3l0,.007c-.07.07-.144.153-.228.241A17.1,17.1,0,0,0,3.76,22.72a8.483,8.483,0,0,0-.208,1.543,13.587,13.587,0,0,1-.673-1.319A15.327,15.327,0,0,1,1.4,16.762c0-2.968,1.246-6.134,5.586-8.115l.019-.009c.112-.055.23-.108.34-.157,0,0,.221-.035.611-.09l.007,0a29.033,29.033,0,0,1,8.068-.063.568.568,0,0,1,.112.014l.007,0a6.842,6.842,0,0,1,3.357,1.409l-.082.891-.014.111Z" fill="#8dbc70"/>
          <path id="패스_923" data-name="패스 923" d="M19.3,11.989a20.327,20.327,0,0,0-3.764-.033l-.007,0c-.267.011-.525.042-.8.08-2.172.258-4.619.964-6.131,2.674,0,0-.114.108-.312.3l0,.007c-.07.07-.144.153-.228.241A17.1,17.1,0,0,0,3.76,22.72a8.483,8.483,0,0,0-.208,1.543,13.587,13.587,0,0,1-.673-1.319A15.327,15.327,0,0,1,1.4,16.762c0-2.968,1.246-6.134,5.586-8.115l.019-.009c.112-.055.23-.108.34-.157,0,0,.221-.035.611-.09l.007,0a29.033,29.033,0,0,1,8.068-.063.568.568,0,0,1,.112.014l.007,0a6.842,6.842,0,0,1,3.357,1.409l-.082.891-.014.111Z" fill="none" stroke="#251714" stroke-linecap="round" stroke-linejoin="round" stroke-width="0.906"/>
          <path id="패스_924" data-name="패스 924" d="M42.895,17.2s-13.209-3.591-13.8-3.384L25.954,13l.037-2.705a14.283,14.283,0,0,1,8.986.538s7.23,3.893,7.918,6.363" fill="#548437"/>
          <path id="패스_925" data-name="패스 925" d="M42.895,17.2s-13.209-3.591-13.8-3.384L25.954,13l.037-2.705a14.283,14.283,0,0,1,8.986.538S42.207,14.731,42.895,17.2Z" fill="none" stroke="#251714" stroke-linecap="round" stroke-linejoin="round" stroke-width="0.906"/>
          <path id="패스_926" data-name="패스 926" d="M24.437,8.014l-.275.726-.792,2.128-.946-.716-.037-.028-.007,0-.525-.4L19.887,8.152,17.259,4.895,15.238,2.4c.144-.083.286-.159.428-.236A16.969,16.969,0,0,1,18.711.827c6.5-2.01,6.083,4.622,5.82,6.632-.054.345-.094.555-.094.555" fill="#548437"/>
          <path id="패스_927" data-name="패스 927" d="M24.437,8.014l-.275.726-.792,2.128-.946-.716-.037-.028-.007,0-.525-.4L19.887,8.152,17.259,4.895,15.238,2.4c.144-.083.286-.159.428-.236A16.969,16.969,0,0,1,18.711.827c6.5-2.01,6.083,4.622,5.82,6.632C24.476,7.8,24.437,8.014,24.437,8.014Z" fill="none" stroke="#251714" stroke-linecap="round" stroke-linejoin="round" stroke-width="0.906"/>
          <path id="패스_928" data-name="패스 928" d="M16.052,8.28l-.016.048a29.029,29.029,0,0,0-8.068.064l1.8-.473,2.684-.7,1.155-.3a26.192,26.192,0,0,1,2.443,1.36" fill="#fff"/>
          <path id="패스_929" data-name="패스 929" d="M16.052,8.28l-.016.048a29.029,29.029,0,0,0-8.068.064l1.8-.473,2.684-.7,1.155-.3A26.192,26.192,0,0,1,16.052,8.28Z" fill="none" stroke="#251714" stroke-linecap="round" stroke-linejoin="round" stroke-width="0.906"/>
          <path id="패스_930" data-name="패스 930" d="M21.825,12.027l-.3-.153-2.036-1.047s-.023-.023-.077-.072c-.037-.028-.086-.067-.146-.118l-.007,0a24.506,24.506,0,0,0-3.107-2.29l-.007,0c-.033-.019-.063-.044-.1-.062a26.192,26.192,0,0,0-2.443-1.36C9.9,5.116,4.962,3.907.454,6.666a8.317,8.317,0,0,1,.64-.913,11.98,11.98,0,0,1,9.385-4.631,12.349,12.349,0,0,1,5.187,1.038,11.964,11.964,0,0,1,2.138,1.2,12.434,12.434,0,0,1,2.5,2.3,7.646,7.646,0,0,1,2.078,4.454l.007,0a.569.569,0,0,0,0,.086l0,.007a3.318,3.318,0,0,1-.562,1.811" fill="#b0d492"/>
          <path id="패스_931" data-name="패스 931" d="M21.825,12.027l-.3-.153-2.036-1.047s-.023-.023-.077-.072c-.037-.028-.086-.067-.146-.118l-.007,0a24.506,24.506,0,0,0-3.107-2.29l-.007,0c-.033-.019-.063-.044-.1-.062a26.192,26.192,0,0,0-2.443-1.36C9.9,5.116,4.962,3.907.454,6.666a8.317,8.317,0,0,1,.64-.913,11.98,11.98,0,0,1,9.385-4.631,12.349,12.349,0,0,1,5.187,1.038,11.964,11.964,0,0,1,2.138,1.2,12.434,12.434,0,0,1,2.5,2.3,7.646,7.646,0,0,1,2.078,4.454l.007,0a.569.569,0,0,0,0,.086l0,.007A3.318,3.318,0,0,1,21.825,12.027Z" fill="none" stroke="#251714" stroke-linecap="round" stroke-linejoin="round" stroke-width="0.906"/>
          <path id="패스_932" data-name="패스 932" d="M41.352,7.829a16.138,16.138,0,0,0-1.825-.175,21.183,21.183,0,0,0-10.862,2.2,14.259,14.259,0,0,0-2.108,1.359,6.628,6.628,0,0,0-.584.469c-.06.042-.116.092-.17.136a14.941,14.941,0,0,0-1.368,1.35L22,12.9l-.27-.028-.57-.058s.114-.363.363-.943c.028-.06.056-.12.086-.188a13.551,13.551,0,0,1,.773-1.471s-.007,0,0-.007a.207.207,0,0,1,.035-.058,12.786,12.786,0,0,1,1.318-1.845,11.153,11.153,0,0,1,.789-.849,10.1,10.1,0,0,1,4.72-2.65s6.058-1.465,10.641,1.764a9.941,9.941,0,0,1,1.461,1.257" fill="#8dbc70"/>
          <path id="패스_933" data-name="패스 933" d="M41.352,7.829a16.138,16.138,0,0,0-1.825-.175,21.183,21.183,0,0,0-10.862,2.2,14.259,14.259,0,0,0-2.108,1.359,6.628,6.628,0,0,0-.584.469c-.06.042-.116.092-.17.136a14.941,14.941,0,0,0-1.368,1.35L22,12.9l-.27-.028-.57-.058s.114-.363.363-.943c.028-.06.056-.12.086-.188a13.551,13.551,0,0,1,.773-1.471s-.007,0,0-.007a.207.207,0,0,1,.035-.058,12.786,12.786,0,0,1,1.318-1.845,11.153,11.153,0,0,1,.789-.849,10.1,10.1,0,0,1,4.72-2.65s6.058-1.465,10.641,1.764A9.941,9.941,0,0,1,41.352,7.829Z" fill="none" stroke="#251714" stroke-linecap="round" stroke-linejoin="round" stroke-width="0.906"/>
          <path id="패스_934" data-name="패스 934" d="M21.221,17.1a4.094,4.094,0,0,1-2.952.938,4.185,4.185,0,0,1-2.765-1.4,2.488,2.488,0,0,1-.44-.674,2.874,2.874,0,0,1-.176-.762,5.156,5.156,0,0,1,.291-2.617A3.106,3.106,0,0,1,17.045,10.8a4.617,4.617,0,0,1,1.105-.161,4.289,4.289,0,0,1,3.2.766,2.316,2.316,0,0,1,.7,1.269" fill="#e08e27"/>
          <path id="패스_935" data-name="패스 935" d="M21.221,17.1a4.094,4.094,0,0,1-2.952.938,4.185,4.185,0,0,1-2.765-1.4,2.488,2.488,0,0,1-.44-.674,2.874,2.874,0,0,1-.176-.762,5.156,5.156,0,0,1,.291-2.617A3.106,3.106,0,0,1,17.045,10.8a4.617,4.617,0,0,1,1.105-.161,4.289,4.289,0,0,1,3.2.766,2.316,2.316,0,0,1,.7,1.269" fill="none" stroke="#251714" stroke-linecap="round" stroke-linejoin="round" stroke-width="0.906"/>
          <path id="패스_936" data-name="패스 936" d="M24.075,11.8c-.4.143-.774.208-1.169.353a3.238,3.238,0,0,0-1.56,1.182,2.911,2.911,0,0,0-.38,1.411,5.793,5.793,0,0,0,.069,1.787,3.654,3.654,0,0,0,2.591,2.607,4.086,4.086,0,0,0,3.621-.853,2.376,2.376,0,0,0,.516-.581,3.184,3.184,0,0,0,.332-1,5.613,5.613,0,0,0,.091-2.688,3.192,3.192,0,0,0-1.543-1.882,3.676,3.676,0,0,0-2.431-.354Z" fill="#f4af5d"/>
          <path id="패스_937" data-name="패스 937" d="M24.075,11.8c-.4.143-.774.208-1.169.353a3.238,3.238,0,0,0-1.56,1.182,2.911,2.911,0,0,0-.38,1.411,5.793,5.793,0,0,0,.069,1.787,3.654,3.654,0,0,0,2.591,2.607,4.086,4.086,0,0,0,3.621-.853,2.376,2.376,0,0,0,.516-.581,3.184,3.184,0,0,0,.332-1,5.613,5.613,0,0,0,.091-2.688,3.192,3.192,0,0,0-1.543-1.882,3.676,3.676,0,0,0-2.431-.354Z" fill="none" stroke="#251714" stroke-linecap="round" stroke-linejoin="round" stroke-width="0.906"/>
        </g>
      </g>
    </g>
  </g>
</svg>
