<svg xmlns="http://www.w3.org/2000/svg" xmlns:xlink="http://www.w3.org/1999/xlink" width="75.382" height="75.789" viewBox="0 0 75.382 75.789">
  <defs>
    <clipPath id="clip-path">
      <rect id="사각형_179" data-name="사각형 179" width="52.671" height="55.03" transform="matrix(0.788, 0.615, -0.615, 0.788, 1172.324, 6292.515)" fill="none"/>
    </clipPath>
  </defs>
  <g id="img" transform="translate(-1138.456 -6292.515)">
    <g id="벡터_고급_개체" data-name="벡터 고급 개체">
      <g id="그룹_110" data-name="그룹 110">
        <g id="그룹_109" data-name="그룹 109" clip-path="url(#clip-path)">
          <path id="패스_1099" data-name="패스 1099" d="M1178,6352.4a3.946,3.946,0,0,0-4.5.405,3.676,3.676,0,0,0-1.18,3.513,3.831,3.831,0,0,0,3.486,2.89c-1.249,1.146-1.743,2.618-1.265,3.62.641,1.344,2.786,1.335,3.049,1.334,3.751-.015,8.178-4.675,7.462-8.871-.257-1.507-1.353-3.986-3.513-4.3A4.514,4.514,0,0,0,1178,6352.4" fill="#f4f498"/>
          <path id="패스_1100" data-name="패스 1100" d="M1178,6352.4a3.946,3.946,0,0,0-4.5.405,3.676,3.676,0,0,0-1.18,3.513,3.831,3.831,0,0,0,3.486,2.89c-1.249,1.146-1.743,2.618-1.265,3.62.641,1.344,2.786,1.335,3.049,1.334,3.751-.015,8.178-4.675,7.462-8.871-.257-1.507-1.353-3.986-3.513-4.3A4.514,4.514,0,0,0,1178,6352.4Z" fill="none" stroke="#000" stroke-linecap="round" stroke-linejoin="round" stroke-width="2"/>
          <path id="패스_1101" data-name="패스 1101" d="M1180.365,6316.256c-.154-.9-1.443-7.754-7.353-10.56-1-.477-4.136-2.1-7.552-.8a11.2,11.2,0,0,0-5.691,5.244,14.206,14.206,0,0,0,4.332,17.811,5.732,5.732,0,0,0-1.819,3.832,5.656,5.656,0,0,0,1.048,3.343c2.16,3.361,6.592,3.777,7.352,3.838-2.235,2.737-2.018,6.139-.448,7.458,1.869,1.571,5.592.134,7.284-2.093a6.043,6.043,0,0,0,1.111-2.578,2.618,2.618,0,0,0,3.33,1.009,2.567,2.567,0,0,0,1.314-2.585,3.144,3.144,0,0,0,2.021.844,2.675,2.675,0,0,0,2.272-.939c.61-1.019-.176-3.12-2.475-4.557,2.145-.7,4.5-.286,6.709-.748,4.393-.919,7.359-5.086,8.924-9.284.7-1.885,1.7-4.5.7-7.466a9.7,9.7,0,0,0-4.406-5.128c-4.413-2.528-11.029-1.155-16.651,3.354" fill="#f4f498"/>
          <path id="패스_1102" data-name="패스 1102" d="M1180.365,6316.256c-.154-.9-1.443-7.754-7.353-10.56-1-.477-4.136-2.1-7.552-.8a11.2,11.2,0,0,0-5.691,5.244,14.206,14.206,0,0,0,4.332,17.811,5.732,5.732,0,0,0-1.819,3.832,5.656,5.656,0,0,0,1.048,3.343c2.16,3.361,6.592,3.777,7.352,3.838-2.235,2.737-2.018,6.139-.448,7.458,1.869,1.571,5.592.134,7.284-2.093a6.043,6.043,0,0,0,1.111-2.578,2.618,2.618,0,0,0,3.33,1.009,2.567,2.567,0,0,0,1.314-2.585,3.144,3.144,0,0,0,2.021.844,2.675,2.675,0,0,0,2.272-.939c.61-1.019-.176-3.12-2.475-4.557,2.145-.7,4.5-.286,6.709-.748,4.393-.919,7.359-5.086,8.924-9.284.7-1.885,1.7-4.5.7-7.466a9.7,9.7,0,0,0-4.406-5.128C1192.6,6310.375,1185.987,6311.748,1180.365,6316.256Z" fill="none" stroke="#000" stroke-linecap="round" stroke-linejoin="round" stroke-width="2"/>
          <path id="패스_1103" data-name="패스 1103" d="M1171.449,6316.248l3.634,4.217-5.2.356" fill="none" stroke="#000" stroke-linecap="round" stroke-linejoin="round" stroke-width="2"/>
          <path id="패스_1104" data-name="패스 1104" d="M1186.9,6322.354l-5.014.739,3.085,3.858" fill="none" stroke="#000" stroke-linecap="round" stroke-linejoin="round" stroke-width="2"/>
          <path id="패스_1105" data-name="패스 1105" d="M1171.6,6325.344l.217.746a1.006,1.006,0,0,0,1.431.609,1.006,1.006,0,0,1,1.38.472l.272.6a1.006,1.006,0,0,0,1.353.487l.333-.161a2.3,2.3,0,0,1,2.93.816,2.3,2.3,0,0,0,2.7.914l.408-.144" fill="#f697b7"/>
          <path id="패스_1106" data-name="패스 1106" d="M1171.6,6325.344l.217.746a1.006,1.006,0,0,0,1.431.609,1.006,1.006,0,0,1,1.38.472l.272.6a1.006,1.006,0,0,0,1.353.487l.333-.161a2.3,2.3,0,0,1,2.93.816,2.3,2.3,0,0,0,2.7.914l.408-.144" fill="none" stroke="#000" stroke-linecap="round" stroke-linejoin="round" stroke-width="2"/>
          <path id="패스_1107" data-name="패스 1107" d="M1156.11,6333.226c-2.026-.019-3.318,2.7-3.734,3.575a2.594,2.594,0,0,0-.414,1.735c.252,1.129,1.692,1.539,2.839,1.378a5.8,5.8,0,0,0,2.42-.925c.647-.435,2-1.475,1.881-3a3.209,3.209,0,0,0-2.1-2.575,2.467,2.467,0,0,0-.893-.187" fill="#f4f498"/>
          <path id="패스_1108" data-name="패스 1108" d="M1156.11,6333.226c-2.026-.019-3.318,2.7-3.734,3.575a2.594,2.594,0,0,0-.414,1.735c.252,1.129,1.692,1.539,2.839,1.378a5.8,5.8,0,0,0,2.42-.925c.647-.435,2-1.475,1.881-3a3.209,3.209,0,0,0-2.1-2.575A2.467,2.467,0,0,0,1156.11,6333.226Z" fill="none" stroke="#000" stroke-linecap="round" stroke-linejoin="round" stroke-width="2"/>
          <path id="패스_1109" data-name="패스 1109" d="M1205.839,6326.159c-2.026-.019-3.318,2.7-3.734,3.575a2.594,2.594,0,0,0-.414,1.735c.252,1.129,1.692,1.54,2.839,1.379a5.792,5.792,0,0,0,2.42-.926c.647-.435,1.995-1.475,1.88-3a3.208,3.208,0,0,0-2.1-2.575,2.476,2.476,0,0,0-.893-.187" fill="#f4f498"/>
          <path id="패스_1110" data-name="패스 1110" d="M1205.839,6326.159c-2.026-.019-3.318,2.7-3.734,3.575a2.594,2.594,0,0,0-.414,1.735c.252,1.129,1.692,1.54,2.839,1.379a5.792,5.792,0,0,0,2.42-.926c.647-.435,1.995-1.475,1.88-3a3.208,3.208,0,0,0-2.1-2.575A2.476,2.476,0,0,0,1205.839,6326.159Z" fill="none" stroke="#000" stroke-linecap="round" stroke-linejoin="round" stroke-width="2"/>
        </g>
      </g>
    </g>
  </g>
</svg>
