<svg id="벡터_고급_개체" data-name="벡터 고급 개체" xmlns="http://www.w3.org/2000/svg" xmlns:xlink="http://www.w3.org/1999/xlink" width="31" height="31" viewBox="0 0 31 31">
  <defs>
    <clipPath id="clip-path">
      <rect id="사각형_3" data-name="사각형 3" width="31" height="31" transform="translate(0 0)" fill="none"/>
    </clipPath>
  </defs>
  <g id="그룹_6" data-name="그룹 6">
    <g id="그룹_5" data-name="그룹 5" clip-path="url(#clip-path)">
      <path id="패스_19" data-name="패스 19" d="M9.9,8.78a6.06,6.06,0,0,1,.724-6.667A5.446,5.446,0,0,1,13.981.6a6.2,6.2,0,0,1,4.293,1.277A6.616,6.616,0,0,1,20.1,8.912c2.739-2.507,6.591-2.509,8.686-.5a5.493,5.493,0,0,1,1.283,5.841,5.9,5.9,0,0,1-6.876,3.311,8.216,8.216,0,0,1,4.871,4.423c.3.747,1.223,3.044,0,5.016a5.229,5.229,0,0,1-3.949,2.178c-2.692.214-5.451-1.7-6.976-4.818a6.8,6.8,0,0,1-1.414,3.63,6.267,6.267,0,0,1-3.916,2.377A6.14,6.14,0,0,1,8.518,29.9a6.508,6.508,0,0,1-3.356-2.838c-1.055-2.23-.018-5.522,2.764-7.789-3.709.441-6.885-2.03-7.3-5.082A5.858,5.858,0,0,1,9.9,8.78" fill="#78d6e6"/>
      <path id="패스_20" data-name="패스 20" d="M9.9,8.78a6.06,6.06,0,0,1,.724-6.667A5.446,5.446,0,0,1,13.981.6a6.2,6.2,0,0,1,4.293,1.277A6.616,6.616,0,0,1,20.1,8.912c2.739-2.507,6.591-2.509,8.686-.5a5.493,5.493,0,0,1,1.283,5.841,5.9,5.9,0,0,1-6.876,3.311,8.216,8.216,0,0,1,4.871,4.423c.3.747,1.223,3.044,0,5.016a5.229,5.229,0,0,1-3.949,2.178c-2.692.214-5.451-1.7-6.976-4.818a6.8,6.8,0,0,1-1.414,3.63,6.267,6.267,0,0,1-3.916,2.377A6.14,6.14,0,0,1,8.518,29.9a6.508,6.508,0,0,1-3.356-2.838c-1.055-2.23-.018-5.522,2.764-7.789-3.709.441-6.885-2.03-7.3-5.082A5.858,5.858,0,0,1,9.9,8.78Z" fill="none" stroke="#050000" stroke-miterlimit="10" stroke-width="1.147"/>
      <path id="패스_21" data-name="패스 21" d="M20.581,14a1.091,1.091,0,0,0-1.54-.155A12.227,12.227,0,0,0,16.915,16.1V12.941a1.094,1.094,0,1,0-2.188,0v3.4a17.676,17.676,0,0,0-2.1-2.436,1.048,1.048,0,0,0-.78-.306,1.083,1.083,0,0,0-.767.336,1.1,1.1,0,0,0,.03,1.552,15.483,15.483,0,0,1,1.846,2.141,15.635,15.635,0,0,1,1.153,1.893,1.09,1.09,0,0,0,.972.593H16.52a1.092,1.092,0,0,0,1.01-.674,10.029,10.029,0,0,1,2.9-3.9A1.1,1.1,0,0,0,20.581,14" fill="#fdb6e5"/>
      <path id="패스_22" data-name="패스 22" d="M20.581,14a1.091,1.091,0,0,0-1.54-.155A12.227,12.227,0,0,0,16.915,16.1V12.941a1.094,1.094,0,1,0-2.188,0v3.4a17.676,17.676,0,0,0-2.1-2.436,1.048,1.048,0,0,0-.78-.306,1.083,1.083,0,0,0-.767.336,1.1,1.1,0,0,0,.03,1.552,15.483,15.483,0,0,1,1.846,2.141,15.635,15.635,0,0,1,1.153,1.893,1.09,1.09,0,0,0,.972.593H16.52a1.092,1.092,0,0,0,1.01-.674,10.029,10.029,0,0,1,2.9-3.9A1.1,1.1,0,0,0,20.581,14Z" fill="none" stroke="#000" stroke-linecap="round" stroke-linejoin="round" stroke-width="1.147"/>
      <path id="패스_23" data-name="패스 23" d="M12.643,13.829a1.505,1.505,0,1,1-1.506-1.51,1.508,1.508,0,0,1,1.506,1.51" fill="#f45028"/>
      <path id="패스_24" data-name="패스 24" d="M12.643,13.829a1.505,1.505,0,1,1-1.506-1.51A1.508,1.508,0,0,1,12.643,13.829Z" fill="none" stroke="#000" stroke-linecap="round" stroke-linejoin="round" stroke-width="1.147"/>
      <path id="패스_25" data-name="패스 25" d="M17.222,12.357a1.505,1.505,0,1,1-1.506-1.51,1.508,1.508,0,0,1,1.506,1.51" fill="#f45028"/>
      <path id="패스_26" data-name="패스 26" d="M17.222,12.357a1.505,1.505,0,1,1-1.506-1.51A1.508,1.508,0,0,1,17.222,12.357Z" fill="none" stroke="#000" stroke-linecap="round" stroke-linejoin="round" stroke-width="1.147"/>
      <path id="패스_27" data-name="패스 27" d="M22.174,13.594a1.505,1.505,0,1,1-1.506-1.51,1.508,1.508,0,0,1,1.506,1.51" fill="#f45028"/>
      <path id="패스_28" data-name="패스 28" d="M22.174,13.594a1.505,1.505,0,1,1-1.506-1.51A1.508,1.508,0,0,1,22.174,13.594Z" fill="none" stroke="#000" stroke-linecap="round" stroke-linejoin="round" stroke-width="1.147"/>
    </g>
  </g>
</svg>
