<svg id="벡터_고급_개체" data-name="벡터 고급 개체" xmlns="http://www.w3.org/2000/svg" xmlns:xlink="http://www.w3.org/1999/xlink" width="66" height="138" viewBox="0 0 66 138">
  <defs>
    <clipPath id="clip-path">
      <rect id="사각형_188" data-name="사각형 188" width="66" height="138" fill="none"/>
    </clipPath>
  </defs>
  <g id="그룹_135" data-name="그룹 135">
    <g id="그룹_134" data-name="그룹 134" clip-path="url(#clip-path)">
      <path id="패스_1260" data-name="패스 1260" d="M16.258,21.9A14.07,14.07,0,1,1,41.035,8.556c3.61,6.727,3.558,19.471-2.915,23.424l2.108,1.306.128-.068a.316.316,0,0,1,.428.129l.037.07a.318.318,0,0,1-.129.43L37.5,35.567a.318.318,0,0,1-.429-.13l-.037-.069a.32.32,0,0,1,.129-.431l.127-.068.076-2.482C30.5,35.614,19.865,28.623,16.258,21.9" fill="#f2695a"/>
      <path id="패스_1261" data-name="패스 1261" d="M16.258,21.9A14.07,14.07,0,1,1,41.035,8.556c3.61,6.727,3.558,19.471-2.915,23.424l2.108,1.306.128-.068a.316.316,0,0,1,.428.129l.037.07a.318.318,0,0,1-.129.43L37.5,35.567a.318.318,0,0,1-.429-.13l-.037-.069a.32.32,0,0,1,.129-.431l.127-.068.076-2.482C30.5,35.614,19.865,28.623,16.258,21.9Z" fill="none" stroke="#251714" stroke-linecap="round" stroke-linejoin="round" stroke-width="2.266"/>
      <path id="패스_1262" data-name="패스 1262" d="M39.352,34.938c5.235,11.333,4.49,17.815,2.113,21.737-2.444,4.034-6.382,4.98-6.624,8.155C34.5,69.32,41.908,73.6,48.684,76.651" fill="none" stroke="#251714" stroke-linecap="round" stroke-linejoin="round" stroke-width="2.266"/>
      <path id="패스_1263" data-name="패스 1263" d="M5.8,74.356a19.03,19.03,0,1,1,28.7-25c6.763,7.792,10.49,24.614,3.133,31.76L40.8,82.212l.147-.128a.43.43,0,0,1,.6.043l.071.081a.432.432,0,0,1-.043.605l-3.7,3.22a.429.429,0,0,1-.6-.042l-.07-.082a.431.431,0,0,1,.042-.606l.147-.128-.64-3.3c-8.089,6.306-24.2.269-30.961-7.525" fill="#008cd6"/>
      <path id="패스_1264" data-name="패스 1264" d="M5.8,74.356a19.03,19.03,0,1,1,28.7-25c6.763,7.792,10.49,24.614,3.133,31.76L40.8,82.212l.147-.128a.43.43,0,0,1,.6.043l.071.081a.432.432,0,0,1-.043.605l-3.7,3.22a.429.429,0,0,1-.6-.042l-.07-.082a.431.431,0,0,1,.042-.606l.147-.128-.64-3.3C28.67,88.186,12.561,82.149,5.8,74.356Z" fill="none" stroke="#251714" stroke-linecap="round" stroke-linejoin="round" stroke-width="2.266"/>
      <path id="패스_1265" data-name="패스 1265" d="M40.136,84.65C50.415,98.03,51.365,106.8,49.4,112.682c-2.022,6.051-6.933,8.475-6.306,12.734.885,6.024,11.93,9.451,21.776,11.45" fill="none" stroke="#251714" stroke-linecap="round" stroke-linejoin="round" stroke-width="2.266"/>
    </g>
  </g>
</svg>
